%TF.GenerationSoftware,KiCad,Pcbnew,(6.0.0)*%
%TF.CreationDate,2022-03-30T16:25:39+04:00*%
%TF.ProjectId,Coffe_Machine_Gogokhia_Edition_SIMPLE,436f6666-655f-44d6-9163-68696e655f47,rev?*%
%TF.SameCoordinates,Original*%
%TF.FileFunction,Soldermask,Top*%
%TF.FilePolarity,Negative*%
%FSLAX46Y46*%
G04 Gerber Fmt 4.6, Leading zero omitted, Abs format (unit mm)*
G04 Created by KiCad (PCBNEW (6.0.0)) date 2022-03-30 16:25:39*
%MOMM*%
%LPD*%
G01*
G04 APERTURE LIST*
G04 Aperture macros list*
%AMRoundRect*
0 Rectangle with rounded corners*
0 $1 Rounding radius*
0 $2 $3 $4 $5 $6 $7 $8 $9 X,Y pos of 4 corners*
0 Add a 4 corners polygon primitive as box body*
4,1,4,$2,$3,$4,$5,$6,$7,$8,$9,$2,$3,0*
0 Add four circle primitives for the rounded corners*
1,1,$1+$1,$2,$3*
1,1,$1+$1,$4,$5*
1,1,$1+$1,$6,$7*
1,1,$1+$1,$8,$9*
0 Add four rect primitives between the rounded corners*
20,1,$1+$1,$2,$3,$4,$5,0*
20,1,$1+$1,$4,$5,$6,$7,0*
20,1,$1+$1,$6,$7,$8,$9,0*
20,1,$1+$1,$8,$9,$2,$3,0*%
G04 Aperture macros list end*
%ADD10R,1.000000X1.000000*%
%ADD11O,1.000000X1.000000*%
%ADD12RoundRect,0.250000X-1.950000X-1.000000X1.950000X-1.000000X1.950000X1.000000X-1.950000X1.000000X0*%
%ADD13RoundRect,0.225000X0.225000X0.250000X-0.225000X0.250000X-0.225000X-0.250000X0.225000X-0.250000X0*%
%ADD14RoundRect,0.250000X0.625000X-0.312500X0.625000X0.312500X-0.625000X0.312500X-0.625000X-0.312500X0*%
%ADD15RoundRect,0.225000X-0.225000X-0.250000X0.225000X-0.250000X0.225000X0.250000X-0.225000X0.250000X0*%
%ADD16RoundRect,0.200000X-0.200000X-0.275000X0.200000X-0.275000X0.200000X0.275000X-0.200000X0.275000X0*%
%ADD17RoundRect,0.225000X-0.250000X0.225000X-0.250000X-0.225000X0.250000X-0.225000X0.250000X0.225000X0*%
%ADD18R,1.800000X2.500000*%
%ADD19R,2.200000X1.700000*%
%ADD20R,1.200000X2.200000*%
%ADD21R,5.800000X6.400000*%
%ADD22C,1.300000*%
%ADD23RoundRect,0.250000X-0.625000X0.312500X-0.625000X-0.312500X0.625000X-0.312500X0.625000X0.312500X0*%
%ADD24R,2.500000X2.500000*%
%ADD25R,1.500000X1.300000*%
%ADD26RoundRect,0.249900X0.675100X-0.600100X0.675100X0.600100X-0.675100X0.600100X-0.675100X-0.600100X0*%
%ADD27O,1.850000X1.700000*%
%ADD28R,1.100000X4.600000*%
%ADD29R,10.800000X9.400000*%
%ADD30C,0.900000*%
%ADD31C,8.600000*%
%ADD32C,2.500000*%
%ADD33R,5.400000X2.900000*%
%ADD34RoundRect,0.200000X-0.275000X0.200000X-0.275000X-0.200000X0.275000X-0.200000X0.275000X0.200000X0*%
%ADD35R,1.300000X1.500000*%
%ADD36R,4.500000X1.300000*%
%ADD37R,3.900000X1.800000*%
%ADD38C,1.600000*%
%ADD39RoundRect,0.200000X0.200000X0.275000X-0.200000X0.275000X-0.200000X-0.275000X0.200000X-0.275000X0*%
%ADD40RoundRect,0.250000X0.425000X-0.450000X0.425000X0.450000X-0.425000X0.450000X-0.425000X-0.450000X0*%
%ADD41RoundRect,0.225000X0.250000X-0.225000X0.250000X0.225000X-0.250000X0.225000X-0.250000X-0.225000X0*%
%ADD42C,1.800000*%
%ADD43RoundRect,0.075000X-0.662500X-0.075000X0.662500X-0.075000X0.662500X0.075000X-0.662500X0.075000X0*%
%ADD44RoundRect,0.075000X-0.075000X-0.662500X0.075000X-0.662500X0.075000X0.662500X-0.075000X0.662500X0*%
%ADD45R,2.500000X1.800000*%
%ADD46C,1.700000*%
%ADD47RoundRect,0.200000X0.275000X-0.200000X0.275000X0.200000X-0.275000X0.200000X-0.275000X-0.200000X0*%
%ADD48RoundRect,0.425000X0.500000X-0.425000X0.500000X0.425000X-0.500000X0.425000X-0.500000X-0.425000X0*%
%ADD49RoundRect,0.150000X-0.587500X-0.150000X0.587500X-0.150000X0.587500X0.150000X-0.587500X0.150000X0*%
%ADD50C,2.010000*%
%ADD51RoundRect,0.250000X-0.425000X0.450000X-0.425000X-0.450000X0.425000X-0.450000X0.425000X0.450000X0*%
%ADD52RoundRect,0.250000X-1.000000X1.500000X-1.000000X-1.500000X1.000000X-1.500000X1.000000X1.500000X0*%
%ADD53C,2.000000*%
%ADD54C,3.000000*%
%ADD55C,2.400000*%
%ADD56RoundRect,0.150000X0.587500X0.150000X-0.587500X0.150000X-0.587500X-0.150000X0.587500X-0.150000X0*%
%ADD57R,1.200000X1.400000*%
%ADD58RoundRect,0.218750X0.256250X-0.218750X0.256250X0.218750X-0.256250X0.218750X-0.256250X-0.218750X0*%
%ADD59C,3.100000*%
%ADD60R,4.600000X3.400000*%
G04 APERTURE END LIST*
D10*
%TO.C,J11*%
X89710000Y-86250000D03*
D11*
X88440000Y-86250000D03*
X87170000Y-86250000D03*
X85900000Y-86250000D03*
%TD*%
D12*
%TO.C,C9*%
X66640000Y-77795000D03*
X75040000Y-77795000D03*
%TD*%
D13*
%TO.C,C11*%
X80408330Y-88445000D03*
X78858330Y-88445000D03*
%TD*%
D14*
%TO.C,R39*%
X130566670Y-124587500D03*
X130566670Y-121662500D03*
%TD*%
D15*
%TO.C,C15*%
X72185000Y-91195000D03*
X73735000Y-91195000D03*
%TD*%
D16*
%TO.C,R58*%
X158441670Y-108825000D03*
X160091670Y-108825000D03*
%TD*%
%TO.C,R37*%
X136501670Y-108925000D03*
X138151670Y-108925000D03*
%TD*%
D17*
%TO.C,C23*%
X65440000Y-102485000D03*
X65440000Y-104035000D03*
%TD*%
D18*
%TO.C,D6*%
X146000000Y-87625000D03*
X146000000Y-91625000D03*
%TD*%
D16*
%TO.C,R49*%
X98841670Y-108885000D03*
X100491670Y-108885000D03*
%TD*%
D12*
%TO.C,C5*%
X96580000Y-77745000D03*
X104980000Y-77745000D03*
%TD*%
D16*
%TO.C,R12*%
X72175000Y-52445000D03*
X73825000Y-52445000D03*
%TD*%
D19*
%TO.C,U5*%
X182891670Y-98738000D03*
X182891670Y-96198000D03*
X173991670Y-96205000D03*
X173991670Y-98745000D03*
%TD*%
D20*
%TO.C,Q2*%
X152472380Y-106325000D03*
D21*
X154752380Y-100025000D03*
D20*
X157032380Y-106325000D03*
%TD*%
D22*
%TO.C,Q7*%
X135836670Y-123425000D03*
X133296670Y-123425000D03*
X134566670Y-122155000D03*
%TD*%
D23*
%TO.C,R63*%
X176266670Y-121600000D03*
X176266670Y-124525000D03*
%TD*%
D24*
%TO.C,J12*%
X98356670Y-127225000D03*
X93276670Y-127225000D03*
%TD*%
D25*
%TO.C,U14*%
X158406670Y-110525000D03*
X155866670Y-110525000D03*
X153326670Y-110525000D03*
X153326670Y-119525000D03*
X155866670Y-119525000D03*
X158406670Y-119525000D03*
%TD*%
D16*
%TO.C,R48*%
X83096670Y-108855000D03*
X84746670Y-108855000D03*
%TD*%
D15*
%TO.C,C6*%
X88125000Y-50815000D03*
X89675000Y-50815000D03*
%TD*%
%TO.C,C18*%
X73785000Y-98745000D03*
X75335000Y-98745000D03*
%TD*%
D26*
%TO.C,J5*%
X59305300Y-100791500D03*
D27*
X59305300Y-98291500D03*
%TD*%
D23*
%TO.C,R15*%
X185466670Y-96162500D03*
X185466670Y-99087500D03*
%TD*%
D28*
%TO.C,U2*%
X98840000Y-45780000D03*
X100540000Y-45780000D03*
D29*
X102240000Y-36630000D03*
D28*
X102240000Y-45780000D03*
X103940000Y-45780000D03*
X105640000Y-45780000D03*
%TD*%
D30*
%TO.C,REF\u002A\u002A*%
X57241670Y-36525000D03*
X58186251Y-38805419D03*
X62747089Y-34244581D03*
D31*
X60466670Y-36525000D03*
D30*
X60466670Y-33300000D03*
X60466670Y-39750000D03*
X62747089Y-38805419D03*
X63691670Y-36525000D03*
X58186251Y-34244581D03*
%TD*%
D32*
%TO.C,J16*%
X122433335Y-91725000D03*
X122433335Y-87525000D03*
%TD*%
D20*
%TO.C,Q1*%
X161486670Y-106325000D03*
D21*
X163766670Y-100025000D03*
D20*
X166046670Y-106325000D03*
%TD*%
D33*
%TO.C,L1*%
X85921000Y-60205000D03*
X85921000Y-70105000D03*
%TD*%
%TO.C,L2*%
X100780000Y-60265000D03*
X100780000Y-70165000D03*
%TD*%
D34*
%TO.C,R29*%
X163766670Y-105600000D03*
X163766670Y-107250000D03*
%TD*%
%TO.C,R27*%
X127666670Y-105600000D03*
X127666670Y-107250000D03*
%TD*%
D16*
%TO.C,R25*%
X68439000Y-112931000D03*
X70089000Y-112931000D03*
%TD*%
D35*
%TO.C,U6*%
X173966670Y-101885000D03*
X173966670Y-104425000D03*
X173966670Y-106965000D03*
X182966670Y-106965000D03*
X182966670Y-104425000D03*
X182966670Y-101885000D03*
%TD*%
D22*
%TO.C,Q8*%
X116936670Y-123425000D03*
X114396670Y-123425000D03*
X115666670Y-122155000D03*
%TD*%
D28*
%TO.C,U7*%
X67370000Y-45810000D03*
X69070000Y-45810000D03*
D29*
X70770000Y-36660000D03*
D28*
X70770000Y-45810000D03*
X72470000Y-45810000D03*
X74170000Y-45810000D03*
%TD*%
D36*
%TO.C,J19*%
X64816670Y-115477000D03*
X64816670Y-112937000D03*
X64816670Y-110397000D03*
X64816670Y-107857000D03*
D37*
X58016670Y-104967000D03*
X58016670Y-118627000D03*
%TD*%
D20*
%TO.C,Q4*%
X143458095Y-106325000D03*
D21*
X145738095Y-100025000D03*
D20*
X148018095Y-106325000D03*
%TD*%
D18*
%TO.C,D7*%
X127146668Y-87625000D03*
X127146668Y-91625000D03*
%TD*%
D38*
%TO.C,C29*%
X108166670Y-123885000D03*
X103166670Y-123885000D03*
%TD*%
D39*
%TO.C,R57*%
X168191670Y-112525000D03*
X166541670Y-112525000D03*
%TD*%
D40*
%TO.C,C26*%
X92900000Y-91675000D03*
X92900000Y-88975000D03*
%TD*%
D24*
%TO.C,J23*%
X154906670Y-127225000D03*
X149826670Y-127225000D03*
%TD*%
D41*
%TO.C,C12*%
X89360000Y-91920000D03*
X89360000Y-90370000D03*
%TD*%
D16*
%TO.C,R35*%
X139601670Y-108925000D03*
X141251670Y-108925000D03*
%TD*%
D18*
%TO.C,D10*%
X117720002Y-87625000D03*
X117720002Y-91625000D03*
%TD*%
%TO.C,D2*%
X85480000Y-50015000D03*
X85480000Y-54015000D03*
%TD*%
D20*
%TO.C,Q9*%
X107400955Y-106325000D03*
D21*
X109680955Y-100025000D03*
D20*
X111960955Y-106325000D03*
%TD*%
D38*
%TO.C,C38*%
X126966670Y-123925000D03*
X121966670Y-123925000D03*
%TD*%
D24*
%TO.C,J9*%
X192606670Y-127225000D03*
X187526670Y-127225000D03*
%TD*%
D34*
%TO.C,R19*%
X132166670Y-105600000D03*
X132166670Y-107250000D03*
%TD*%
D42*
%TO.C,RV1*%
X184116670Y-87245000D03*
X176616670Y-85611670D03*
%TD*%
D43*
%TO.C,U9*%
X78997500Y-91895000D03*
X78997500Y-92395000D03*
X78997500Y-92895000D03*
X78997500Y-93395000D03*
X78997500Y-93895000D03*
X78997500Y-94395000D03*
X78997500Y-94895000D03*
X78997500Y-95395000D03*
X78997500Y-95895000D03*
X78997500Y-96395000D03*
X78997500Y-96895000D03*
X78997500Y-97395000D03*
D44*
X80410000Y-98807500D03*
X80910000Y-98807500D03*
X81410000Y-98807500D03*
X81910000Y-98807500D03*
X82410000Y-98807500D03*
X82910000Y-98807500D03*
X83410000Y-98807500D03*
X83910000Y-98807500D03*
X84410000Y-98807500D03*
X84910000Y-98807500D03*
X85410000Y-98807500D03*
X85910000Y-98807500D03*
D43*
X87322500Y-97395000D03*
X87322500Y-96895000D03*
X87322500Y-96395000D03*
X87322500Y-95895000D03*
X87322500Y-95395000D03*
X87322500Y-94895000D03*
X87322500Y-94395000D03*
X87322500Y-93895000D03*
X87322500Y-93395000D03*
X87322500Y-92895000D03*
X87322500Y-92395000D03*
X87322500Y-91895000D03*
D44*
X85910000Y-90482500D03*
X85410000Y-90482500D03*
X84910000Y-90482500D03*
X84410000Y-90482500D03*
X83910000Y-90482500D03*
X83410000Y-90482500D03*
X82910000Y-90482500D03*
X82410000Y-90482500D03*
X81910000Y-90482500D03*
X81410000Y-90482500D03*
X80910000Y-90482500D03*
X80410000Y-90482500D03*
%TD*%
D34*
%TO.C,R13*%
X123166670Y-105600000D03*
X123166670Y-107250000D03*
%TD*%
D45*
%TO.C,D13*%
X57170000Y-74485000D03*
X61170000Y-74485000D03*
%TD*%
D34*
%TO.C,R34*%
X154766670Y-105600000D03*
X154766670Y-107250000D03*
%TD*%
D46*
%TO.C,J21*%
X59321600Y-81996400D03*
D27*
X59321600Y-79496400D03*
%TD*%
D34*
%TO.C,R7*%
X159266670Y-105600000D03*
X159266670Y-107250000D03*
%TD*%
D15*
%TO.C,C17*%
X85895000Y-100845000D03*
X87445000Y-100845000D03*
%TD*%
D34*
%TO.C,R8*%
X150266670Y-105600000D03*
X150266670Y-107250000D03*
%TD*%
D39*
%TO.C,R2*%
X89725000Y-49265000D03*
X88075000Y-49265000D03*
%TD*%
D38*
%TO.C,C32*%
X164666670Y-123762500D03*
X159666670Y-123762500D03*
%TD*%
D34*
%TO.C,R26*%
X82413330Y-86810000D03*
X82413330Y-88460000D03*
%TD*%
D13*
%TO.C,C13*%
X80408330Y-86855000D03*
X78858330Y-86855000D03*
%TD*%
D28*
%TO.C,U1*%
X83105000Y-45790000D03*
X84805000Y-45790000D03*
D29*
X86505000Y-36640000D03*
D28*
X86505000Y-45790000D03*
X88205000Y-45790000D03*
X89905000Y-45790000D03*
%TD*%
D34*
%TO.C,R20*%
X114166670Y-105600000D03*
X114166670Y-107250000D03*
%TD*%
D22*
%TO.C,Q14*%
X79336670Y-123325000D03*
X76796670Y-123325000D03*
X78066670Y-122055000D03*
%TD*%
D47*
%TO.C,R18*%
X171756670Y-104990000D03*
X171756670Y-103340000D03*
%TD*%
%TO.C,R56*%
X59260000Y-68890000D03*
X59260000Y-67240000D03*
%TD*%
D25*
%TO.C,U11*%
X139606670Y-110625000D03*
X137066670Y-110625000D03*
X134526670Y-110625000D03*
X134526670Y-119625000D03*
X137066670Y-119625000D03*
X139606670Y-119625000D03*
%TD*%
D16*
%TO.C,R38*%
X117701670Y-109025000D03*
X119351670Y-109025000D03*
%TD*%
D15*
%TO.C,C16*%
X73868330Y-97105000D03*
X75418330Y-97105000D03*
%TD*%
D18*
%TO.C,D4*%
X164853332Y-87625000D03*
X164853332Y-91625000D03*
%TD*%
D16*
%TO.C,R60*%
X155341670Y-108825000D03*
X156991670Y-108825000D03*
%TD*%
D17*
%TO.C,C24*%
X65700000Y-86040000D03*
X65700000Y-87590000D03*
%TD*%
D24*
%TO.C,J1*%
X198446670Y-46970000D03*
X203526670Y-46970000D03*
%TD*%
D32*
%TO.C,J17*%
X103580003Y-91725000D03*
X103580003Y-87525000D03*
%TD*%
D24*
%TO.C,J14*%
X130976670Y-127225000D03*
X136056670Y-127225000D03*
%TD*%
D22*
%TO.C,Q16*%
X173536670Y-123362500D03*
X170996670Y-123362500D03*
X172266670Y-122092500D03*
%TD*%
D32*
%TO.C,J4*%
X160139999Y-91725000D03*
X160139999Y-87525000D03*
%TD*%
D23*
%TO.C,R41*%
X138566670Y-121662500D03*
X138566670Y-124587500D03*
%TD*%
D25*
%TO.C,U8*%
X101906670Y-110685000D03*
X99366670Y-110685000D03*
X96826670Y-110685000D03*
X96826670Y-119685000D03*
X99366670Y-119685000D03*
X101906670Y-119685000D03*
%TD*%
D41*
%TO.C,C14*%
X90960000Y-91930000D03*
X90960000Y-90380000D03*
%TD*%
D14*
%TO.C,R62*%
X149366670Y-124525000D03*
X149366670Y-121600000D03*
%TD*%
D18*
%TO.C,D9*%
X136573334Y-87625000D03*
X136573334Y-91625000D03*
%TD*%
D48*
%TO.C,J7*%
X59326324Y-92684200D03*
D27*
X59326324Y-90144200D03*
X59326324Y-87604200D03*
%TD*%
D47*
%TO.C,R43*%
X65700000Y-90740000D03*
X65700000Y-89090000D03*
%TD*%
D49*
%TO.C,U3*%
X74082500Y-103505000D03*
X74082500Y-105405000D03*
X75957500Y-104455000D03*
%TD*%
D15*
%TO.C,C22*%
X76865000Y-100325000D03*
X78415000Y-100325000D03*
%TD*%
D22*
%TO.C,Q13*%
X98136670Y-123385000D03*
X95596670Y-123385000D03*
X96866670Y-122115000D03*
%TD*%
D18*
%TO.C,D12*%
X69620000Y-50035000D03*
X69620000Y-54035000D03*
%TD*%
D33*
%TO.C,L3*%
X70940000Y-60265000D03*
X70940000Y-70165000D03*
%TD*%
D34*
%TO.C,R14*%
X105166670Y-105600000D03*
X105166670Y-107250000D03*
%TD*%
D32*
%TO.C,J13*%
X141286667Y-91725000D03*
X141286667Y-87525000D03*
%TD*%
D34*
%TO.C,R28*%
X109766670Y-105600000D03*
X109766670Y-107250000D03*
%TD*%
D32*
%TO.C,J3*%
X169566670Y-91725000D03*
X169566670Y-87525000D03*
%TD*%
D24*
%TO.C,J22*%
X173756670Y-127225000D03*
X168676670Y-127225000D03*
%TD*%
D20*
%TO.C,Q15*%
X57010000Y-68875000D03*
D21*
X59290000Y-62575000D03*
D20*
X61570000Y-68875000D03*
%TD*%
D15*
%TO.C,C21*%
X76865000Y-101925000D03*
X78415000Y-101925000D03*
%TD*%
D18*
%TO.C,D8*%
X108293336Y-87625000D03*
X108293336Y-91625000D03*
%TD*%
%TO.C,D11*%
X98866670Y-87625000D03*
X98866670Y-91625000D03*
%TD*%
D34*
%TO.C,R32*%
X118666670Y-105600000D03*
X118666670Y-107250000D03*
%TD*%
D12*
%TO.C,C4*%
X81710000Y-77775000D03*
X90110000Y-77775000D03*
%TD*%
D25*
%TO.C,U10*%
X83106670Y-110565000D03*
X80566670Y-110565000D03*
X78026670Y-110565000D03*
X78026670Y-119565000D03*
X80566670Y-119565000D03*
X83106670Y-119565000D03*
%TD*%
D34*
%TO.C,R30*%
X145766670Y-105600000D03*
X145766670Y-107250000D03*
%TD*%
D14*
%TO.C,R61*%
X168266670Y-124525000D03*
X168266670Y-121600000D03*
%TD*%
D25*
%TO.C,U13*%
X177406670Y-110625000D03*
X174866670Y-110625000D03*
X172326670Y-110625000D03*
X172326670Y-119625000D03*
X174866670Y-119625000D03*
X177406670Y-119625000D03*
%TD*%
D23*
%TO.C,R64*%
X157366670Y-121662500D03*
X157366670Y-124587500D03*
%TD*%
D15*
%TO.C,C7*%
X103935000Y-50875000D03*
X105485000Y-50875000D03*
%TD*%
D50*
%TO.C,F1*%
X203736670Y-72870000D03*
X198636670Y-71670000D03*
%TD*%
D51*
%TO.C,C25*%
X65962000Y-117851000D03*
X65962000Y-120551000D03*
%TD*%
D39*
%TO.C,R6*%
X75395000Y-101905000D03*
X73745000Y-101905000D03*
%TD*%
D18*
%TO.C,D3*%
X100940000Y-50005000D03*
X100940000Y-54005000D03*
%TD*%
D34*
%TO.C,R59*%
X169666670Y-110900000D03*
X169666670Y-112550000D03*
%TD*%
D18*
%TO.C,D5*%
X155426666Y-87625000D03*
X155426666Y-91625000D03*
%TD*%
D24*
%TO.C,J2*%
X203626670Y-77570000D03*
X198546670Y-77570000D03*
%TD*%
%TO.C,J15*%
X112126670Y-127225000D03*
X117206670Y-127225000D03*
%TD*%
D52*
%TO.C,C3*%
X94770000Y-49675000D03*
X94770000Y-56175000D03*
%TD*%
D32*
%TO.C,J8*%
X131860001Y-91725000D03*
X131860001Y-87525000D03*
%TD*%
D31*
%TO.C,REF\u002A\u002A*%
X60466670Y-126525000D03*
D30*
X63691670Y-126525000D03*
X57241670Y-126525000D03*
X58186251Y-128805419D03*
X58186251Y-124244581D03*
X62747089Y-128805419D03*
X60466670Y-123300000D03*
X60466670Y-129750000D03*
X62747089Y-124244581D03*
%TD*%
D16*
%TO.C,R5*%
X103885000Y-52455000D03*
X105535000Y-52455000D03*
%TD*%
D41*
%TO.C,C27*%
X65440000Y-97860000D03*
X65440000Y-96310000D03*
%TD*%
D34*
%TO.C,R10*%
X141166670Y-105600000D03*
X141166670Y-107250000D03*
%TD*%
D20*
%TO.C,Q6*%
X125429525Y-106325000D03*
D21*
X127709525Y-100025000D03*
D20*
X129989525Y-106325000D03*
%TD*%
D53*
%TO.C,Q3*%
X189866670Y-101725000D03*
X191866670Y-104225000D03*
X189866670Y-106725000D03*
D54*
X191866670Y-113375000D03*
X191866670Y-95075000D03*
%TD*%
D16*
%TO.C,R46*%
X73725000Y-88035000D03*
X75375000Y-88035000D03*
%TD*%
D34*
%TO.C,R33*%
X100766670Y-105600000D03*
X100766670Y-107250000D03*
%TD*%
D16*
%TO.C,R4*%
X88085000Y-52415000D03*
X89735000Y-52415000D03*
%TD*%
D32*
%TO.C,J6*%
X150713333Y-91725000D03*
X150713333Y-87525000D03*
%TD*%
D55*
%TO.C,C1*%
X200806670Y-52620000D03*
X200806670Y-67620000D03*
%TD*%
D16*
%TO.C,R23*%
X68439000Y-110391000D03*
X70089000Y-110391000D03*
%TD*%
D20*
%TO.C,Q12*%
X98386670Y-106325000D03*
D21*
X100666670Y-100025000D03*
D20*
X102946670Y-106325000D03*
%TD*%
D47*
%TO.C,R17*%
X171756670Y-101890000D03*
X171756670Y-100240000D03*
%TD*%
D16*
%TO.C,R36*%
X120801670Y-109025000D03*
X122451670Y-109025000D03*
%TD*%
D23*
%TO.C,R42*%
X119666670Y-121662500D03*
X119666670Y-124587500D03*
%TD*%
D25*
%TO.C,U12*%
X120806670Y-110725000D03*
X118266670Y-110725000D03*
X115726670Y-110725000D03*
X115726670Y-119725000D03*
X118266670Y-119725000D03*
X120806670Y-119725000D03*
%TD*%
D24*
%TO.C,J20*%
X79506670Y-127225000D03*
X74426670Y-127225000D03*
%TD*%
D23*
%TO.C,R54*%
X82066670Y-121602500D03*
X82066670Y-124527500D03*
%TD*%
D30*
%TO.C,REF\u002A\u002A*%
X200466670Y-123300000D03*
X197241670Y-126525000D03*
X202747089Y-128805419D03*
X198186251Y-124244581D03*
D31*
X200466670Y-126525000D03*
D30*
X198186251Y-128805419D03*
X202747089Y-124244581D03*
X203691670Y-126525000D03*
X200466670Y-129750000D03*
%TD*%
D22*
%TO.C,Q17*%
X154636670Y-123362500D03*
X152096670Y-123362500D03*
X153366670Y-122092500D03*
%TD*%
D14*
%TO.C,R52*%
X74066670Y-124527500D03*
X74066670Y-121602500D03*
%TD*%
D38*
%TO.C,C30*%
X89366670Y-123825000D03*
X84366670Y-123825000D03*
%TD*%
D47*
%TO.C,R1*%
X57230000Y-54800000D03*
X57230000Y-53150000D03*
%TD*%
D14*
%TO.C,R40*%
X111666670Y-124587500D03*
X111666670Y-121662500D03*
%TD*%
D15*
%TO.C,C19*%
X85905000Y-102435000D03*
X87455000Y-102435000D03*
%TD*%
D56*
%TO.C,Q5*%
X70337500Y-89065000D03*
X70337500Y-87165000D03*
X68462500Y-88115000D03*
%TD*%
D34*
%TO.C,R31*%
X136766670Y-105600000D03*
X136766670Y-107250000D03*
%TD*%
D47*
%TO.C,R16*%
X171766670Y-98750000D03*
X171766670Y-97100000D03*
%TD*%
D31*
%TO.C,REF\u002A\u002A*%
X200466670Y-36525000D03*
D30*
X200466670Y-33300000D03*
X197241670Y-36525000D03*
X198186251Y-38805419D03*
X202747089Y-38805419D03*
X198186251Y-34244581D03*
X202747089Y-34244581D03*
X200466670Y-39750000D03*
X203691670Y-36525000D03*
%TD*%
D39*
%TO.C,R11*%
X73825000Y-49265000D03*
X72175000Y-49265000D03*
%TD*%
D14*
%TO.C,R21*%
X185366670Y-104787500D03*
X185366670Y-101862500D03*
%TD*%
D47*
%TO.C,R9*%
X65440000Y-101010000D03*
X65440000Y-99360000D03*
%TD*%
D34*
%TO.C,R22*%
X96126670Y-105585000D03*
X96126670Y-107235000D03*
%TD*%
D38*
%TO.C,C31*%
X183666670Y-123862500D03*
X178666670Y-123862500D03*
%TD*%
D13*
%TO.C,C28*%
X73735000Y-89645000D03*
X72185000Y-89645000D03*
%TD*%
D52*
%TO.C,C2*%
X63330000Y-49757500D03*
X63330000Y-56257500D03*
%TD*%
D19*
%TO.C,U4*%
X182891670Y-93138000D03*
X182891670Y-90598000D03*
X173991670Y-90605000D03*
X173991670Y-93145000D03*
%TD*%
D39*
%TO.C,R55*%
X58655000Y-71615000D03*
X57005000Y-71615000D03*
%TD*%
D38*
%TO.C,C37*%
X145866670Y-123925000D03*
X140866670Y-123925000D03*
%TD*%
D16*
%TO.C,R50*%
X79916670Y-108815000D03*
X81566670Y-108815000D03*
%TD*%
%TO.C,R47*%
X101941670Y-108885000D03*
X103591670Y-108885000D03*
%TD*%
D57*
%TO.C,Y1*%
X73710000Y-93045000D03*
X73710000Y-95245000D03*
X75410000Y-95245000D03*
X75410000Y-93045000D03*
%TD*%
D14*
%TO.C,R51*%
X92866670Y-124547500D03*
X92866670Y-121622500D03*
%TD*%
D32*
%TO.C,J10*%
X113006669Y-91725000D03*
X113006669Y-87525000D03*
%TD*%
D58*
%TO.C,D1*%
X57230000Y-51362500D03*
X57230000Y-49787500D03*
%TD*%
D15*
%TO.C,C10*%
X72225000Y-50865000D03*
X73775000Y-50865000D03*
%TD*%
D34*
%TO.C,R45*%
X72200000Y-86490000D03*
X72200000Y-88140000D03*
%TD*%
D16*
%TO.C,R24*%
X73735000Y-100345000D03*
X75385000Y-100345000D03*
%TD*%
%TO.C,R44*%
X68675000Y-85515000D03*
X70325000Y-85515000D03*
%TD*%
D59*
%TO.C,PS1*%
X190066670Y-78825000D03*
X190066670Y-72025000D03*
D60*
X114166670Y-43025000D03*
X114166670Y-37525000D03*
%TD*%
D39*
%TO.C,R3*%
X105535000Y-49305000D03*
X103885000Y-49305000D03*
%TD*%
D52*
%TO.C,C8*%
X79000000Y-49675000D03*
X79000000Y-56175000D03*
%TD*%
D20*
%TO.C,Q11*%
X116415240Y-106325000D03*
D21*
X118695240Y-100025000D03*
D20*
X120975240Y-106325000D03*
%TD*%
%TO.C,Q10*%
X134443810Y-106325000D03*
D21*
X136723810Y-100025000D03*
D20*
X139003810Y-106325000D03*
%TD*%
D23*
%TO.C,R53*%
X100866670Y-121622500D03*
X100866670Y-124547500D03*
%TD*%
M02*
