%TF.GenerationSoftware,KiCad,Pcbnew,(6.0.0)*%
%TF.CreationDate,2022-03-30T16:25:39+04:00*%
%TF.ProjectId,Coffe_Machine_Gogokhia_Edition_SIMPLE,436f6666-655f-44d6-9163-68696e655f47,rev?*%
%TF.SameCoordinates,Original*%
%TF.FileFunction,Copper,L2,Bot*%
%TF.FilePolarity,Positive*%
%FSLAX46Y46*%
G04 Gerber Fmt 4.6, Leading zero omitted, Abs format (unit mm)*
G04 Created by KiCad (PCBNEW (6.0.0)) date 2022-03-30 16:25:39*
%MOMM*%
%LPD*%
G01*
G04 APERTURE LIST*
G04 Aperture macros list*
%AMRoundRect*
0 Rectangle with rounded corners*
0 $1 Rounding radius*
0 $2 $3 $4 $5 $6 $7 $8 $9 X,Y pos of 4 corners*
0 Add a 4 corners polygon primitive as box body*
4,1,4,$2,$3,$4,$5,$6,$7,$8,$9,$2,$3,0*
0 Add four circle primitives for the rounded corners*
1,1,$1+$1,$2,$3*
1,1,$1+$1,$4,$5*
1,1,$1+$1,$6,$7*
1,1,$1+$1,$8,$9*
0 Add four rect primitives between the rounded corners*
20,1,$1+$1,$2,$3,$4,$5,0*
20,1,$1+$1,$4,$5,$6,$7,0*
20,1,$1+$1,$6,$7,$8,$9,0*
20,1,$1+$1,$8,$9,$2,$3,0*%
G04 Aperture macros list end*
%TA.AperFunction,ComponentPad*%
%ADD10R,1.000000X1.000000*%
%TD*%
%TA.AperFunction,ComponentPad*%
%ADD11O,1.000000X1.000000*%
%TD*%
%TA.AperFunction,ComponentPad*%
%ADD12C,1.300000*%
%TD*%
%TA.AperFunction,ComponentPad*%
%ADD13R,2.500000X2.500000*%
%TD*%
%TA.AperFunction,ComponentPad*%
%ADD14RoundRect,0.249900X0.675100X-0.600100X0.675100X0.600100X-0.675100X0.600100X-0.675100X-0.600100X0*%
%TD*%
%TA.AperFunction,ComponentPad*%
%ADD15O,1.850000X1.700000*%
%TD*%
%TA.AperFunction,ComponentPad*%
%ADD16C,0.900000*%
%TD*%
%TA.AperFunction,ComponentPad*%
%ADD17C,8.600000*%
%TD*%
%TA.AperFunction,ComponentPad*%
%ADD18C,2.500000*%
%TD*%
%TA.AperFunction,ComponentPad*%
%ADD19C,1.600000*%
%TD*%
%TA.AperFunction,ComponentPad*%
%ADD20C,1.800000*%
%TD*%
%TA.AperFunction,ComponentPad*%
%ADD21C,1.700000*%
%TD*%
%TA.AperFunction,ComponentPad*%
%ADD22RoundRect,0.425000X0.500000X-0.425000X0.500000X0.425000X-0.500000X0.425000X-0.500000X-0.425000X0*%
%TD*%
%TA.AperFunction,ComponentPad*%
%ADD23C,2.010000*%
%TD*%
%TA.AperFunction,ComponentPad*%
%ADD24C,2.000000*%
%TD*%
%TA.AperFunction,ComponentPad*%
%ADD25C,3.000000*%
%TD*%
%TA.AperFunction,ComponentPad*%
%ADD26C,2.400000*%
%TD*%
%TA.AperFunction,ComponentPad*%
%ADD27C,3.100000*%
%TD*%
%TA.AperFunction,ComponentPad*%
%ADD28R,4.600000X3.400000*%
%TD*%
%TA.AperFunction,SMDPad,CuDef*%
%ADD29R,2.286000X0.750000*%
%TD*%
%TA.AperFunction,SMDPad,CuDef*%
%ADD30R,2.286000X1.500000*%
%TD*%
%TA.AperFunction,ViaPad*%
%ADD31C,1.000000*%
%TD*%
%TA.AperFunction,ViaPad*%
%ADD32C,0.500000*%
%TD*%
%TA.AperFunction,ViaPad*%
%ADD33C,0.800000*%
%TD*%
%TA.AperFunction,Conductor*%
%ADD34C,2.000000*%
%TD*%
%TA.AperFunction,Conductor*%
%ADD35C,1.000000*%
%TD*%
%TA.AperFunction,Conductor*%
%ADD36C,2.500000*%
%TD*%
%TA.AperFunction,Conductor*%
%ADD37C,0.500000*%
%TD*%
%TA.AperFunction,Conductor*%
%ADD38C,0.200000*%
%TD*%
%TA.AperFunction,Conductor*%
%ADD39C,0.250000*%
%TD*%
G04 APERTURE END LIST*
D10*
%TO.P,J11,1,Pin_1*%
%TO.N,+3V3*%
X89710000Y-86250000D03*
D11*
%TO.P,J11,2,Pin_2*%
%TO.N,GND*%
X88440000Y-86250000D03*
%TO.P,J11,3,Pin_3*%
%TO.N,SWDIO*%
X87170000Y-86250000D03*
%TO.P,J11,4,Pin_4*%
%TO.N,SWCLK*%
X85900000Y-86250000D03*
%TD*%
D12*
%TO.P,Q7,1,A1*%
%TO.N,LINE*%
X135836670Y-123425000D03*
%TO.P,Q7,2,A2*%
%TO.N,Net-(C37-Pad1)*%
X133296670Y-123425000D03*
%TO.P,Q7,3,G*%
%TO.N,Net-(Q7-Pad3)*%
X134566670Y-122155000D03*
%TD*%
D13*
%TO.P,J12,1,Pin_1*%
%TO.N,Net-(C29-Pad1)*%
X98356670Y-127225000D03*
X93276670Y-127225000D03*
%TD*%
D14*
%TO.P,J5,1,Pin_1*%
%TO.N,NTC*%
X59305300Y-100791500D03*
D15*
%TO.P,J5,2,Pin_2*%
%TO.N,GND*%
X59305300Y-98291500D03*
%TD*%
D16*
%TO.P,REF\u002A\u002A,1*%
%TO.N,N/C*%
X57241670Y-36525000D03*
X58186251Y-38805419D03*
X62747089Y-34244581D03*
D17*
X60466670Y-36525000D03*
D16*
X60466670Y-33300000D03*
X60466670Y-39750000D03*
X62747089Y-38805419D03*
X63691670Y-36525000D03*
X58186251Y-34244581D03*
%TD*%
D18*
%TO.P,J16,1,Pin_1*%
%TO.N,Net-(D10-Pad2)*%
X122433335Y-91725000D03*
%TO.P,J16,2,Pin_2*%
%TO.N,+24V*%
X122433335Y-87525000D03*
%TD*%
D12*
%TO.P,Q8,1,A1*%
%TO.N,LINE*%
X116936670Y-123425000D03*
%TO.P,Q8,2,A2*%
%TO.N,Net-(C38-Pad1)*%
X114396670Y-123425000D03*
%TO.P,Q8,3,G*%
%TO.N,Net-(Q8-Pad3)*%
X115666670Y-122155000D03*
%TD*%
D19*
%TO.P,C29,1*%
%TO.N,Net-(C29-Pad1)*%
X108166670Y-123885000D03*
%TO.P,C29,2*%
%TO.N,Net-(C29-Pad2)*%
X103166670Y-123885000D03*
%TD*%
D13*
%TO.P,J23,1,Pin_1*%
%TO.N,Net-(C32-Pad1)*%
X154906670Y-127225000D03*
X149826670Y-127225000D03*
%TD*%
D19*
%TO.P,C38,1*%
%TO.N,Net-(C38-Pad1)*%
X126966670Y-123925000D03*
%TO.P,C38,2*%
%TO.N,Net-(C38-Pad2)*%
X121966670Y-123925000D03*
%TD*%
D13*
%TO.P,J9,1,Pin_1*%
%TO.N,Net-(J9-Pad1)*%
X192606670Y-127225000D03*
X187526670Y-127225000D03*
%TD*%
D20*
%TO.P,RV1,1*%
%TO.N,Net-(C1-Pad2)*%
X184116670Y-87245000D03*
%TO.P,RV1,2*%
%TO.N,NEUT*%
X176616670Y-85611670D03*
%TD*%
D21*
%TO.P,J21,1,Pin_1*%
%TO.N,Net-(D13-Pad2)*%
X59321600Y-81996400D03*
D15*
%TO.P,J21,2,Pin_2*%
%TO.N,+12V*%
X59321600Y-79496400D03*
%TD*%
D19*
%TO.P,C32,1*%
%TO.N,Net-(C32-Pad1)*%
X164666670Y-123762500D03*
%TO.P,C32,2*%
%TO.N,Net-(C32-Pad2)*%
X159666670Y-123762500D03*
%TD*%
D12*
%TO.P,Q14,1,A1*%
%TO.N,LINE*%
X79336670Y-123325000D03*
%TO.P,Q14,2,A2*%
%TO.N,Net-(C30-Pad1)*%
X76796670Y-123325000D03*
%TO.P,Q14,3,G*%
%TO.N,Net-(Q14-Pad3)*%
X78066670Y-122055000D03*
%TD*%
D13*
%TO.P,J1,1,Pin_1*%
%TO.N,NEUT*%
X198446670Y-46970000D03*
X203526670Y-46970000D03*
%TD*%
D18*
%TO.P,J17,1,Pin_1*%
%TO.N,Net-(D11-Pad2)*%
X103580003Y-91725000D03*
%TO.P,J17,2,Pin_2*%
%TO.N,+24V*%
X103580003Y-87525000D03*
%TD*%
D13*
%TO.P,J14,1,Pin_1*%
%TO.N,Net-(C37-Pad1)*%
X130976670Y-127225000D03*
X136056670Y-127225000D03*
%TD*%
D12*
%TO.P,Q16,1,A1*%
%TO.N,LINE*%
X173536670Y-123362500D03*
%TO.P,Q16,2,A2*%
%TO.N,Net-(C31-Pad1)*%
X170996670Y-123362500D03*
%TO.P,Q16,3,G*%
%TO.N,Net-(Q16-Pad3)*%
X172266670Y-122092500D03*
%TD*%
D18*
%TO.P,J4,1,Pin_1*%
%TO.N,Net-(D5-Pad2)*%
X160139999Y-91725000D03*
%TO.P,J4,2,Pin_2*%
%TO.N,+24V*%
X160139999Y-87525000D03*
%TD*%
D22*
%TO.P,J7,1,Pin_1*%
%TO.N,+5V*%
X59326324Y-92684200D03*
D15*
%TO.P,J7,2,Pin_2*%
%TO.N,GND*%
X59326324Y-90144200D03*
%TO.P,J7,3,Pin_3*%
%TO.N,Net-(C24-Pad2)*%
X59326324Y-87604200D03*
%TD*%
D12*
%TO.P,Q13,1,A1*%
%TO.N,LINE*%
X98136670Y-123385000D03*
%TO.P,Q13,2,A2*%
%TO.N,Net-(C29-Pad1)*%
X95596670Y-123385000D03*
%TO.P,Q13,3,G*%
%TO.N,Net-(Q13-Pad3)*%
X96866670Y-122115000D03*
%TD*%
D18*
%TO.P,J13,1,Pin_1*%
%TO.N,Net-(D9-Pad2)*%
X141286667Y-91725000D03*
%TO.P,J13,2,Pin_2*%
%TO.N,+24V*%
X141286667Y-87525000D03*
%TD*%
%TO.P,J3,1,Pin_1*%
%TO.N,Net-(D4-Pad2)*%
X169566670Y-91725000D03*
%TO.P,J3,2,Pin_2*%
%TO.N,+24V*%
X169566670Y-87525000D03*
%TD*%
D13*
%TO.P,J22,1,Pin_1*%
%TO.N,Net-(C31-Pad1)*%
X173756670Y-127225000D03*
X168676670Y-127225000D03*
%TD*%
D23*
%TO.P,F1,1*%
%TO.N,LINE*%
X203736670Y-72870000D03*
%TO.P,F1,2*%
%TO.N,Net-(C1-Pad2)*%
X198636670Y-71670000D03*
%TD*%
D13*
%TO.P,J2,1,Pin_1*%
%TO.N,LINE*%
X203626670Y-77570000D03*
X198546670Y-77570000D03*
%TD*%
%TO.P,J15,1,Pin_1*%
%TO.N,Net-(C38-Pad1)*%
X112126670Y-127225000D03*
X117206670Y-127225000D03*
%TD*%
D18*
%TO.P,J8,1,Pin_1*%
%TO.N,Net-(D7-Pad2)*%
X131860001Y-91725000D03*
%TO.P,J8,2,Pin_2*%
%TO.N,+24V*%
X131860001Y-87525000D03*
%TD*%
D17*
%TO.P,REF\u002A\u002A,1*%
%TO.N,N/C*%
X60466670Y-126525000D03*
D16*
X63691670Y-126525000D03*
X57241670Y-126525000D03*
X58186251Y-128805419D03*
X58186251Y-124244581D03*
X62747089Y-128805419D03*
X60466670Y-123300000D03*
X60466670Y-129750000D03*
X62747089Y-124244581D03*
%TD*%
D24*
%TO.P,Q3,1,A1*%
%TO.N,LINE*%
X189866670Y-101725000D03*
%TO.P,Q3,2,A2*%
%TO.N,Net-(J9-Pad1)*%
X191866670Y-104225000D03*
%TO.P,Q3,3,G*%
%TO.N,Net-(Q3-Pad3)*%
X189866670Y-106725000D03*
D25*
%TO.P,Q3,4*%
%TO.N,N/C*%
X191866670Y-113375000D03*
X191866670Y-95075000D03*
%TD*%
D18*
%TO.P,J6,1,Pin_1*%
%TO.N,Net-(D6-Pad2)*%
X150713333Y-91725000D03*
%TO.P,J6,2,Pin_2*%
%TO.N,+24V*%
X150713333Y-87525000D03*
%TD*%
D26*
%TO.P,C1,1*%
%TO.N,NEUT*%
X200806670Y-52620000D03*
%TO.P,C1,2*%
%TO.N,Net-(C1-Pad2)*%
X200806670Y-67620000D03*
%TD*%
D13*
%TO.P,J20,1,Pin_1*%
%TO.N,Net-(C30-Pad1)*%
X79506670Y-127225000D03*
X74426670Y-127225000D03*
%TD*%
D16*
%TO.P,REF\u002A\u002A,1*%
%TO.N,N/C*%
X200466670Y-123300000D03*
X197241670Y-126525000D03*
X202747089Y-128805419D03*
X198186251Y-124244581D03*
D17*
X200466670Y-126525000D03*
D16*
X198186251Y-128805419D03*
X202747089Y-124244581D03*
X203691670Y-126525000D03*
X200466670Y-129750000D03*
%TD*%
D12*
%TO.P,Q17,1,A1*%
%TO.N,LINE*%
X154636670Y-123362500D03*
%TO.P,Q17,2,A2*%
%TO.N,Net-(C32-Pad1)*%
X152096670Y-123362500D03*
%TO.P,Q17,3,G*%
%TO.N,Net-(Q17-Pad3)*%
X153366670Y-122092500D03*
%TD*%
D19*
%TO.P,C30,1*%
%TO.N,Net-(C30-Pad1)*%
X89366670Y-123825000D03*
%TO.P,C30,2*%
%TO.N,Net-(C30-Pad2)*%
X84366670Y-123825000D03*
%TD*%
D17*
%TO.P,REF\u002A\u002A,1*%
%TO.N,N/C*%
X200466670Y-36525000D03*
D16*
X200466670Y-33300000D03*
X197241670Y-36525000D03*
X198186251Y-38805419D03*
X202747089Y-38805419D03*
X198186251Y-34244581D03*
X202747089Y-34244581D03*
X200466670Y-39750000D03*
X203691670Y-36525000D03*
%TD*%
D19*
%TO.P,C31,1*%
%TO.N,Net-(C31-Pad1)*%
X183666670Y-123862500D03*
%TO.P,C31,2*%
%TO.N,Net-(C31-Pad2)*%
X178666670Y-123862500D03*
%TD*%
%TO.P,C37,1*%
%TO.N,Net-(C37-Pad1)*%
X145866670Y-123925000D03*
%TO.P,C37,2*%
%TO.N,Net-(C37-Pad2)*%
X140866670Y-123925000D03*
%TD*%
D18*
%TO.P,J10,1,Pin_1*%
%TO.N,Net-(D8-Pad2)*%
X113006669Y-91725000D03*
%TO.P,J10,2,Pin_2*%
%TO.N,+24V*%
X113006669Y-87525000D03*
%TD*%
D27*
%TO.P,PS1,1,AC/L*%
%TO.N,Net-(C1-Pad2)*%
X190066670Y-78825000D03*
%TO.P,PS1,2,AC/N*%
%TO.N,NEUT*%
X190066670Y-72025000D03*
D28*
%TO.P,PS1,3,-Vout*%
%TO.N,GND*%
X114166670Y-43025000D03*
%TO.P,PS1,4,+Vout*%
%TO.N,+24V*%
X114166670Y-37525000D03*
%TD*%
D29*
%TO.P,J18,1,Pin_1*%
%TO.N,+5V*%
X64000000Y-108127000D03*
D30*
%TO.N,N/C*%
X61800000Y-120377000D03*
X61800000Y-104927000D03*
D29*
%TO.P,J18,2,Pin_2*%
%TO.N,+5V*%
X64000000Y-109127000D03*
%TO.P,J18,3,Pin_3*%
X64000000Y-110127000D03*
%TO.P,J18,4,Pin_4*%
%TO.N,unconnected-(J18-Pad4)*%
X64000000Y-111127000D03*
%TO.P,J18,5,Pin_5*%
%TO.N,UART_Tx*%
X64000000Y-112127000D03*
%TO.P,J18,6,Pin_6*%
%TO.N,UART_Rx*%
X64000000Y-113127000D03*
%TO.P,J18,7,Pin_7*%
%TO.N,unconnected-(J18-Pad7)*%
X64000000Y-114127000D03*
%TO.P,J18,8,Pin_8*%
%TO.N,GND*%
X64000000Y-115127000D03*
%TO.P,J18,9,Pin_9*%
X64000000Y-116127000D03*
%TO.P,J18,10,Pin_10*%
X64000000Y-117127000D03*
%TD*%
D31*
%TO.N,+24V*%
X79000000Y-52455000D03*
X63320000Y-52455000D03*
X94710000Y-52365000D03*
D32*
%TO.N,GND*%
X101000000Y-96375000D03*
X135500000Y-96375000D03*
X95400000Y-33125000D03*
X145250000Y-96375000D03*
X119000000Y-96375000D03*
D33*
X128000000Y-112875000D03*
D32*
X116750000Y-96375000D03*
X137750000Y-96375000D03*
X109750000Y-96375000D03*
X155000000Y-96375000D03*
X138500000Y-96375000D03*
X127250000Y-96375000D03*
X120500000Y-96375000D03*
X81000000Y-94875000D03*
X81000000Y-94125000D03*
X77600000Y-33325000D03*
D33*
X105500000Y-112875000D03*
D32*
X93600000Y-33125000D03*
X165500000Y-96375000D03*
X146000000Y-96375000D03*
X109000000Y-96375000D03*
X64750000Y-106375000D03*
X94200000Y-32525000D03*
X136250000Y-96375000D03*
X78200000Y-33325000D03*
X161750000Y-96375000D03*
X164750000Y-96375000D03*
X57000000Y-120375000D03*
X78800000Y-33325000D03*
X152750000Y-96375000D03*
X155750000Y-96375000D03*
D33*
X92000000Y-112875000D03*
X110500000Y-112875000D03*
D32*
X99500000Y-96375000D03*
X78200000Y-32725000D03*
X119750000Y-96375000D03*
D33*
X143250000Y-112875000D03*
D32*
X102500000Y-96375000D03*
X64000000Y-106375000D03*
D33*
X130500000Y-112875000D03*
D32*
X143750000Y-96375000D03*
D33*
X125500000Y-112875000D03*
D32*
X147500000Y-96375000D03*
X100250000Y-96375000D03*
X164000000Y-96375000D03*
X94200000Y-33125000D03*
D33*
X126750000Y-112875000D03*
X108000000Y-112875000D03*
D32*
X81750000Y-94125000D03*
X107500000Y-96375000D03*
X58500000Y-120375000D03*
X110500000Y-96375000D03*
D33*
X148250000Y-112875000D03*
X145750000Y-112875000D03*
X149500000Y-112875000D03*
X87000000Y-112875000D03*
D32*
X118250000Y-96375000D03*
X162500000Y-96375000D03*
X81000000Y-95625000D03*
X95400000Y-32525000D03*
X108250000Y-96375000D03*
X81750000Y-94875000D03*
X57750000Y-121125000D03*
X128750000Y-96375000D03*
X129500000Y-96375000D03*
X65500000Y-106375000D03*
X137000000Y-96375000D03*
X117500000Y-96375000D03*
X94800000Y-33125000D03*
X156500000Y-96375000D03*
D33*
X106750000Y-112875000D03*
D32*
X58500000Y-121125000D03*
D33*
X129250000Y-112875000D03*
D32*
X146750000Y-96375000D03*
X57000000Y-121125000D03*
X153500000Y-96375000D03*
X94800000Y-32525000D03*
X125750000Y-96375000D03*
X79400000Y-32725000D03*
X163250000Y-96375000D03*
D33*
X124250000Y-112875000D03*
D32*
X126500000Y-96375000D03*
D33*
X147000000Y-112875000D03*
X111750000Y-112875000D03*
X90750000Y-112875000D03*
D32*
X79400000Y-33325000D03*
X154250000Y-96375000D03*
X134750000Y-96375000D03*
X128000000Y-96375000D03*
X63250000Y-106375000D03*
D33*
X89500000Y-112875000D03*
D32*
X144500000Y-96375000D03*
X66250000Y-106375000D03*
X77600000Y-32725000D03*
X57750000Y-120375000D03*
X93600000Y-32525000D03*
D33*
X93250000Y-112875000D03*
D32*
X101750000Y-96375000D03*
X82500000Y-94125000D03*
D33*
X109250000Y-112875000D03*
X88250000Y-112875000D03*
D32*
X78800000Y-32725000D03*
D33*
X144500000Y-112875000D03*
D32*
X111250000Y-96375000D03*
X98750000Y-96375000D03*
%TO.N,+5V*%
X67300000Y-117865000D03*
%TO.N,+3V3*%
X71220000Y-101905000D03*
X70090000Y-108345000D03*
X170706670Y-97095000D03*
%TO.N,NTC*%
X78860000Y-99375000D03*
X67440000Y-99375000D03*
%TO.N,UART_Tx*%
X88880000Y-94405000D03*
X68440000Y-109155000D03*
%TO.N,UART_Rx*%
X68470000Y-111615000D03*
X85880000Y-94395000D03*
%TO.N,Motor_1*%
X88856233Y-93568767D03*
X159266670Y-104600000D03*
%TO.N,Motor_2*%
X89790000Y-95695000D03*
X150276670Y-104560000D03*
%TO.N,FLOWMETER*%
X76250000Y-88025000D03*
X83900000Y-92905000D03*
%TO.N,Z_CROSS*%
X83910000Y-91785000D03*
X170716670Y-98745000D03*
%TO.N,BOILER_uC*%
X170706670Y-100250000D03*
X84160000Y-101085000D03*
%TO.N,SW1_uC*%
X142186670Y-108930000D03*
X82410000Y-97565000D03*
%TO.N,SW2_uC*%
X81280000Y-101085000D03*
X123296670Y-109030000D03*
%TO.N,Motor_3*%
X86050000Y-95895000D03*
X141146670Y-104640000D03*
%TO.N,Motor_5*%
X86040000Y-96895000D03*
X123166670Y-104660000D03*
%TO.N,Motor_7*%
X84410000Y-97555000D03*
X105166670Y-104620000D03*
%TO.N,Motor_4*%
X89788556Y-96926444D03*
X132166670Y-104640000D03*
%TO.N,Motor_6*%
X114166670Y-104590000D03*
X89720000Y-98435000D03*
%TO.N,Motor_8*%
X96126670Y-104650000D03*
X84500000Y-100355000D03*
%TO.N,SW3_uC*%
X104586670Y-108890000D03*
X81410000Y-97565000D03*
%TO.N,SW4_uC*%
X79800000Y-101085000D03*
X85816670Y-108850000D03*
%TO.N,AIR_PUMP_uC*%
X59760000Y-71615000D03*
X83410000Y-89145000D03*
%TO.N,PUMP1_uC*%
X83410000Y-97555000D03*
X166546670Y-111490000D03*
%TO.N,PUMP2_uC*%
X82610000Y-101085000D03*
X161056670Y-108820000D03*
%TD*%
D34*
%TO.N,NEUT*%
X176616670Y-85611670D02*
X176616670Y-85508330D01*
X176616670Y-85508330D02*
X190066670Y-72058330D01*
X190066670Y-63360000D02*
X200806670Y-52620000D01*
X203526670Y-49900000D02*
X200806670Y-52620000D01*
X190066670Y-72058330D02*
X190066670Y-72025000D01*
X190066670Y-72025000D02*
X190066670Y-63360000D01*
X203526670Y-46970000D02*
X203526670Y-49900000D01*
X198446670Y-46970000D02*
X203526670Y-46970000D01*
D35*
%TO.N,LINE*%
X123916670Y-116475000D02*
X116966670Y-123425000D01*
X135836670Y-123405000D02*
X135836670Y-123425000D01*
X142766670Y-116475000D02*
X135836670Y-123405000D01*
X86186670Y-116475000D02*
X79336670Y-123325000D01*
X181760000Y-115131670D02*
X181760000Y-105615000D01*
D36*
X198546670Y-77570000D02*
X203626670Y-77570000D01*
D35*
X173536670Y-123355000D02*
X180266670Y-116625000D01*
X98136670Y-123355000D02*
X98136670Y-123385000D01*
X161516670Y-116475000D02*
X154636670Y-123355000D01*
X161516670Y-116475000D02*
X142766670Y-116475000D01*
X154636670Y-123355000D02*
X154636670Y-123362500D01*
X181760000Y-105615000D02*
X184130000Y-103245000D01*
X116966670Y-123425000D02*
X116936670Y-123425000D01*
X179266670Y-117625000D02*
X180266670Y-116625000D01*
X184130000Y-103245000D02*
X188346670Y-103245000D01*
X105016670Y-116475000D02*
X86186670Y-116475000D01*
X180266670Y-116625000D02*
X181760000Y-115131670D01*
X123916670Y-116475000D02*
X105016670Y-116475000D01*
X142766670Y-116475000D02*
X123916670Y-116475000D01*
D36*
X203626670Y-72980000D02*
X203736670Y-72870000D01*
D35*
X180416670Y-116475000D02*
X161516670Y-116475000D01*
D36*
X203626670Y-77570000D02*
X203626670Y-72980000D01*
D35*
X105016670Y-116475000D02*
X98136670Y-123355000D01*
X188346670Y-103245000D02*
X189866670Y-101725000D01*
D36*
X198546670Y-93045000D02*
X198546670Y-77570000D01*
D35*
X181760000Y-115131670D02*
X180416670Y-116475000D01*
D36*
X189866670Y-101725000D02*
X198546670Y-93045000D01*
D35*
X173536670Y-123362500D02*
X173536670Y-123355000D01*
%TO.N,+24V*%
X81500000Y-37525000D02*
X78880000Y-37525000D01*
X119866670Y-38950000D02*
X119866670Y-71208330D01*
X118441670Y-37525000D02*
X119866670Y-38950000D01*
X78990000Y-37635000D02*
X78880000Y-37525000D01*
X78880000Y-37525000D02*
X67500000Y-37525000D01*
X94710000Y-52365000D02*
X94620000Y-52455000D01*
X79000000Y-52455000D02*
X78990000Y-52445000D01*
X119866670Y-71208330D02*
X103580003Y-87494997D01*
X78990000Y-52445000D02*
X78990000Y-37635000D01*
X97100000Y-37525000D02*
X81500000Y-37525000D01*
X63310000Y-52445000D02*
X63320000Y-52455000D01*
X94710000Y-37525000D02*
X94710000Y-52365000D01*
X67500000Y-37525000D02*
X63310000Y-41715000D01*
X97100000Y-37525000D02*
X94710000Y-37525000D01*
X114166670Y-37525000D02*
X97100000Y-37525000D01*
X63310000Y-41715000D02*
X63310000Y-52445000D01*
X103580003Y-87494997D02*
X103580003Y-87525000D01*
X114166670Y-37525000D02*
X118441670Y-37525000D01*
D37*
%TO.N,+5V*%
X60660000Y-117705000D02*
X60660000Y-110955000D01*
X61488000Y-110127000D02*
X64000000Y-110127000D01*
X60660000Y-110955000D02*
X61488000Y-110127000D01*
X66360000Y-118805000D02*
X61760000Y-118805000D01*
X61760000Y-118805000D02*
X60660000Y-117705000D01*
X64000000Y-110127000D02*
X64000000Y-108127000D01*
X67300000Y-117865000D02*
X66360000Y-118805000D01*
D38*
%TO.N,+3V3*%
X96150966Y-99450960D02*
X89710000Y-93009994D01*
X170706670Y-97095000D02*
X168350710Y-99450960D01*
X168350710Y-99450960D02*
X96150966Y-99450960D01*
D39*
X70090000Y-108345000D02*
X70090000Y-103035000D01*
X70090000Y-103035000D02*
X71220000Y-101905000D01*
D38*
X89710000Y-93009994D02*
X89710000Y-86250000D01*
D34*
%TO.N,Net-(C1-Pad2)*%
X197221670Y-71670000D02*
X190066670Y-78825000D01*
X184116670Y-84808330D02*
X190066670Y-78858330D01*
X198636670Y-71670000D02*
X197221670Y-71670000D01*
X200806670Y-69500000D02*
X198636670Y-71670000D01*
X200806670Y-67620000D02*
X200806670Y-69500000D01*
X184116670Y-87245000D02*
X184116670Y-84808330D01*
X190066670Y-78858330D02*
X190066670Y-78825000D01*
D39*
%TO.N,NTC*%
X67440000Y-99375000D02*
X78860000Y-99375000D01*
D36*
%TO.N,Net-(J9-Pad1)*%
X192606670Y-127225000D02*
X192606670Y-121385000D01*
X187526670Y-127225000D02*
X192606670Y-127225000D01*
X196966670Y-109325000D02*
X191866670Y-104225000D01*
X196966670Y-117025000D02*
X196966670Y-109325000D01*
X192606670Y-121385000D02*
X196966670Y-117025000D01*
D39*
%TO.N,UART_Tx*%
X83706311Y-93820489D02*
X88295489Y-93820489D01*
X66282282Y-112127000D02*
X68440000Y-109969282D01*
X68440000Y-109969282D02*
X68440000Y-109155000D01*
X79600480Y-97926320D02*
X83706311Y-93820489D01*
X70281800Y-109155000D02*
X79600480Y-99836320D01*
X79600480Y-99836320D02*
X79600480Y-97926320D01*
X68440000Y-109155000D02*
X70281800Y-109155000D01*
X88295489Y-93820489D02*
X88880000Y-94405000D01*
X64000000Y-112127000D02*
X66282282Y-112127000D01*
%TO.N,UART_Rx*%
X66958000Y-113127000D02*
X64000000Y-113127000D01*
X80050000Y-100022518D02*
X80050000Y-98112518D01*
X80050000Y-98112518D02*
X83767518Y-94395000D01*
X68470000Y-111602518D02*
X80050000Y-100022518D01*
X68470000Y-111615000D02*
X68470000Y-111602518D01*
X83767518Y-94395000D02*
X85880000Y-94395000D01*
X68470000Y-111615000D02*
X66958000Y-113127000D01*
D38*
%TO.N,Motor_1*%
X95537466Y-100250000D02*
X154916670Y-100250000D01*
X88856233Y-93568767D02*
X95537466Y-100250000D01*
X154916670Y-100250000D02*
X159266670Y-104600000D01*
%TO.N,Motor_2*%
X146366190Y-100649520D02*
X95124520Y-100649520D01*
X150276670Y-104560000D02*
X146366190Y-100649520D01*
X90170000Y-95695000D02*
X89790000Y-95695000D01*
X95124520Y-100649520D02*
X90170000Y-95695000D01*
D39*
%TO.N,FLOWMETER*%
X79020000Y-88025000D02*
X76250000Y-88025000D01*
X83900000Y-92905000D02*
X79020000Y-88025000D01*
D38*
%TO.N,Z_CROSS*%
X89110000Y-92975000D02*
X85100000Y-92975000D01*
X95985480Y-99850480D02*
X89110000Y-92975000D01*
X169611190Y-99850480D02*
X95985480Y-99850480D01*
X85100000Y-92975000D02*
X83910000Y-91785000D01*
X170716670Y-98745000D02*
X169611190Y-99850480D01*
%TO.N,BOILER_uC*%
X84160000Y-103794964D02*
X85730996Y-105365960D01*
X160839040Y-105365960D02*
X165955000Y-100250000D01*
X84160000Y-101085000D02*
X84160000Y-103794964D01*
X165955000Y-100250000D02*
X170706670Y-100250000D01*
X85730996Y-105365960D02*
X160839040Y-105365960D01*
%TO.N,SW1_uC*%
X139832630Y-106575960D02*
X85245979Y-106575961D01*
X81960000Y-98015000D02*
X82410000Y-97565000D01*
X81960000Y-103289982D02*
X81960000Y-98015000D01*
X142186670Y-108930000D02*
X139832630Y-106575960D01*
X85245979Y-106575961D02*
X81960000Y-103289982D01*
%TO.N,SW2_uC*%
X121242150Y-106975480D02*
X85080493Y-106975481D01*
X81280000Y-103174988D02*
X81280000Y-101085000D01*
X85080493Y-106975481D02*
X81280000Y-103174988D01*
X123296670Y-109030000D02*
X121242150Y-106975480D01*
%TO.N,Motor_3*%
X137555710Y-101049040D02*
X141146670Y-104640000D01*
X90004239Y-96365000D02*
X90338067Y-96698828D01*
X90338067Y-96698828D02*
X90338067Y-96703067D01*
X86520000Y-96365000D02*
X90004239Y-96365000D01*
X86050000Y-95895000D02*
X86520000Y-96365000D01*
X94684040Y-101049040D02*
X137555710Y-101049040D01*
X90338067Y-96703067D02*
X94684040Y-101049040D01*
%TO.N,Motor_5*%
X88980000Y-96895000D02*
X93933080Y-101848080D01*
X120354750Y-101848080D02*
X123166670Y-104660000D01*
X93933080Y-101848080D02*
X120354750Y-101848080D01*
X86040000Y-96895000D02*
X88980000Y-96895000D01*
%TO.N,Motor_7*%
X88020000Y-97555000D02*
X84410000Y-97555000D01*
X103193790Y-102647120D02*
X93112120Y-102647120D01*
X93112120Y-102647120D02*
X88020000Y-97555000D01*
X105166670Y-104620000D02*
X103193790Y-102647120D01*
%TO.N,Motor_4*%
X94310672Y-101448560D02*
X128975230Y-101448560D01*
X128975230Y-101448560D02*
X132166670Y-104640000D01*
X89788556Y-96926444D02*
X94310672Y-101448560D01*
%TO.N,Motor_6*%
X114166670Y-104590000D02*
X111824270Y-102247600D01*
X111824270Y-102247600D02*
X93532600Y-102247600D01*
X93532600Y-102247600D02*
X89720000Y-98435000D01*
%TO.N,Motor_8*%
X92994994Y-103095000D02*
X90254994Y-100355000D01*
X90254994Y-100355000D02*
X84500000Y-100355000D01*
X96126670Y-104650000D02*
X94571670Y-103095000D01*
X94571670Y-103095000D02*
X92994994Y-103095000D01*
%TO.N,SW3_uC*%
X104586670Y-108890000D02*
X103071670Y-107375000D01*
X80570000Y-98405000D02*
X81410000Y-97565000D01*
X103071670Y-107375000D02*
X84915006Y-107375000D01*
X84915006Y-107375000D02*
X80570000Y-103029994D01*
X80570000Y-103029994D02*
X80570000Y-98405000D01*
%TO.N,SW4_uC*%
X85816670Y-108841670D02*
X79800000Y-102825000D01*
X85816670Y-108850000D02*
X85816670Y-108841670D01*
X79800000Y-102825000D02*
X79800000Y-101085000D01*
D39*
%TO.N,AIR_PUMP_uC*%
X83410000Y-89145000D02*
X65880000Y-71615000D01*
X65880000Y-71615000D02*
X59760000Y-71615000D01*
D38*
%TO.N,PUMP1_uC*%
X85565510Y-105765480D02*
X83410000Y-103609970D01*
X162746670Y-107690000D02*
X162746670Y-107670000D01*
X166546670Y-111490000D02*
X162746670Y-107690000D01*
X83410000Y-103609970D02*
X83410000Y-97555000D01*
X162746670Y-107690000D02*
X160822150Y-105765480D01*
X160822150Y-105765480D02*
X85565510Y-105765480D01*
%TO.N,PUMP2_uC*%
X85400024Y-106165000D02*
X82610000Y-103374976D01*
X158401670Y-106165000D02*
X85400024Y-106165000D01*
X161056670Y-108820000D02*
X158401670Y-106165000D01*
X82610000Y-103374976D02*
X82610000Y-101085000D01*
%TD*%
%TA.AperFunction,Conductor*%
%TO.N,GND*%
G36*
X171922410Y-31745817D02*
G01*
X171962006Y-31800317D01*
X171967341Y-31833763D01*
X172091580Y-88978403D01*
X172091670Y-89020000D01*
X176107802Y-89024868D01*
X176171845Y-89045763D01*
X176211376Y-89100311D01*
X176216670Y-89133868D01*
X176216670Y-113416106D01*
X176195853Y-113480175D01*
X176141353Y-113519771D01*
X176107776Y-113525106D01*
X67802708Y-113630826D01*
X67785445Y-113630843D01*
X67785406Y-113639985D01*
X67785217Y-113684300D01*
X67769250Y-117428853D01*
X67769234Y-117432557D01*
X67748144Y-117496536D01*
X67693476Y-117535900D01*
X67626110Y-117535613D01*
X67600021Y-117520753D01*
X67599194Y-117522028D01*
X67577821Y-117508175D01*
X67565677Y-117499042D01*
X67544117Y-117480333D01*
X67536666Y-117477039D01*
X67536658Y-117477034D01*
X67522944Y-117470971D01*
X67507736Y-117462749D01*
X67497420Y-117456063D01*
X67497419Y-117456063D01*
X67490906Y-117451841D01*
X67483472Y-117449618D01*
X67483466Y-117449615D01*
X67462736Y-117443415D01*
X67449897Y-117438679D01*
X67439255Y-117433974D01*
X67420218Y-117425558D01*
X67401141Y-117423300D01*
X67382724Y-117419487D01*
X67367273Y-117414866D01*
X67359510Y-117414819D01*
X67359506Y-117414818D01*
X67333941Y-117414662D01*
X67321798Y-117413909D01*
X67293780Y-117410593D01*
X67293777Y-117410593D01*
X67285690Y-117409636D01*
X67270656Y-117412382D01*
X67250413Y-117414153D01*
X67238231Y-117414078D01*
X67202401Y-117424319D01*
X67192038Y-117426739D01*
X67160448Y-117432508D01*
X67160441Y-117432511D01*
X67152427Y-117433974D01*
X67142360Y-117439203D01*
X67122074Y-117447276D01*
X67114155Y-117449539D01*
X67079306Y-117471528D01*
X67071399Y-117476064D01*
X67037725Y-117493556D01*
X67037723Y-117493557D01*
X67032212Y-117496420D01*
X67027172Y-117500725D01*
X67025661Y-117502236D01*
X67024086Y-117503692D01*
X67023970Y-117503566D01*
X67017255Y-117508931D01*
X67017501Y-117509221D01*
X67011585Y-117514256D01*
X67005019Y-117518399D01*
X66999878Y-117524220D01*
X66973405Y-117554195D01*
X66968781Y-117559116D01*
X66205322Y-118322575D01*
X66145298Y-118353158D01*
X66128247Y-118354500D01*
X61991753Y-118354500D01*
X61927684Y-118333683D01*
X61914678Y-118322575D01*
X61142425Y-117550322D01*
X61127624Y-117521273D01*
X62607000Y-117521273D01*
X62608043Y-117531870D01*
X62619411Y-117589018D01*
X62627469Y-117608471D01*
X62670794Y-117673311D01*
X62685689Y-117688206D01*
X62750529Y-117731531D01*
X62769982Y-117739589D01*
X62827130Y-117750957D01*
X62837727Y-117752000D01*
X63728738Y-117752000D01*
X63742703Y-117747462D01*
X63746000Y-117742924D01*
X63746000Y-117734738D01*
X64254000Y-117734738D01*
X64258538Y-117748703D01*
X64263076Y-117752000D01*
X65162273Y-117752000D01*
X65172870Y-117750957D01*
X65230018Y-117739589D01*
X65249471Y-117731531D01*
X65314311Y-117688206D01*
X65329206Y-117673311D01*
X65372531Y-117608471D01*
X65380589Y-117589018D01*
X65391957Y-117531870D01*
X65393000Y-117521273D01*
X65393000Y-117398262D01*
X65388462Y-117384297D01*
X65383924Y-117381000D01*
X64271262Y-117381000D01*
X64257297Y-117385538D01*
X64254000Y-117390076D01*
X64254000Y-117734738D01*
X63746000Y-117734738D01*
X63746000Y-117398262D01*
X63741462Y-117384297D01*
X63736924Y-117381000D01*
X62624262Y-117381000D01*
X62610297Y-117385538D01*
X62607000Y-117390076D01*
X62607000Y-117521273D01*
X61127624Y-117521273D01*
X61111842Y-117490298D01*
X61110500Y-117473247D01*
X61110500Y-116855738D01*
X62607000Y-116855738D01*
X62611538Y-116869703D01*
X62616076Y-116873000D01*
X63728738Y-116873000D01*
X63742703Y-116868462D01*
X63746000Y-116863924D01*
X63746000Y-116855738D01*
X64254000Y-116855738D01*
X64258538Y-116869703D01*
X64263076Y-116873000D01*
X65375738Y-116873000D01*
X65389703Y-116868462D01*
X65393000Y-116863924D01*
X65393000Y-116732727D01*
X65391957Y-116722130D01*
X65378495Y-116654455D01*
X65380973Y-116653962D01*
X65376849Y-116601555D01*
X65380063Y-116591661D01*
X65391957Y-116531870D01*
X65393000Y-116521273D01*
X65393000Y-116398262D01*
X65388462Y-116384297D01*
X65383924Y-116381000D01*
X64271262Y-116381000D01*
X64257297Y-116385538D01*
X64254000Y-116390076D01*
X64254000Y-116855738D01*
X63746000Y-116855738D01*
X63746000Y-116398262D01*
X63741462Y-116384297D01*
X63736924Y-116381000D01*
X62624262Y-116381000D01*
X62610297Y-116385538D01*
X62607000Y-116390076D01*
X62607000Y-116521273D01*
X62608043Y-116531870D01*
X62621505Y-116599545D01*
X62619027Y-116600038D01*
X62623151Y-116652445D01*
X62619937Y-116662339D01*
X62608043Y-116722130D01*
X62607000Y-116732727D01*
X62607000Y-116855738D01*
X61110500Y-116855738D01*
X61110500Y-115855738D01*
X62607000Y-115855738D01*
X62611538Y-115869703D01*
X62616076Y-115873000D01*
X63728738Y-115873000D01*
X63742703Y-115868462D01*
X63746000Y-115863924D01*
X63746000Y-115855738D01*
X64254000Y-115855738D01*
X64258538Y-115869703D01*
X64263076Y-115873000D01*
X65375738Y-115873000D01*
X65389703Y-115868462D01*
X65393000Y-115863924D01*
X65393000Y-115732727D01*
X65391957Y-115722130D01*
X65378495Y-115654455D01*
X65380973Y-115653962D01*
X65376849Y-115601555D01*
X65380063Y-115591661D01*
X65391957Y-115531870D01*
X65393000Y-115521273D01*
X65393000Y-115398262D01*
X65388462Y-115384297D01*
X65383924Y-115381000D01*
X64271262Y-115381000D01*
X64257297Y-115385538D01*
X64254000Y-115390076D01*
X64254000Y-115855738D01*
X63746000Y-115855738D01*
X63746000Y-115398262D01*
X63741462Y-115384297D01*
X63736924Y-115381000D01*
X62624262Y-115381000D01*
X62610297Y-115385538D01*
X62607000Y-115390076D01*
X62607000Y-115521273D01*
X62608043Y-115531870D01*
X62621505Y-115599545D01*
X62619027Y-115600038D01*
X62623151Y-115652445D01*
X62619937Y-115662339D01*
X62608043Y-115722130D01*
X62607000Y-115732727D01*
X62607000Y-115855738D01*
X61110500Y-115855738D01*
X61110500Y-111186753D01*
X61131317Y-111122684D01*
X61142425Y-111109678D01*
X61642678Y-110609425D01*
X61702702Y-110578842D01*
X61719753Y-110577500D01*
X62554465Y-110577500D01*
X62618534Y-110598317D01*
X62658130Y-110652817D01*
X62661370Y-110707766D01*
X62657544Y-110726999D01*
X62657543Y-110727006D01*
X62656500Y-110732252D01*
X62656500Y-111521748D01*
X62668133Y-111580231D01*
X62672625Y-111586954D01*
X62677781Y-111652442D01*
X62673426Y-111665848D01*
X62668133Y-111673769D01*
X62656500Y-111732252D01*
X62656500Y-112521748D01*
X62668133Y-112580231D01*
X62672625Y-112586954D01*
X62677781Y-112652442D01*
X62673426Y-112665848D01*
X62668133Y-112673769D01*
X62656500Y-112732252D01*
X62656500Y-113521748D01*
X62668133Y-113580231D01*
X62672625Y-113586954D01*
X62677781Y-113652442D01*
X62673426Y-113665848D01*
X62668133Y-113673769D01*
X62656500Y-113732252D01*
X62656500Y-114521748D01*
X62657543Y-114526992D01*
X62657544Y-114527001D01*
X62660005Y-114539374D01*
X62652086Y-114606272D01*
X62643730Y-114621191D01*
X62627470Y-114645527D01*
X62619411Y-114664982D01*
X62608043Y-114722130D01*
X62607000Y-114732727D01*
X62607000Y-114855738D01*
X62611538Y-114869703D01*
X62616076Y-114873000D01*
X65375738Y-114873000D01*
X65389703Y-114868462D01*
X65393000Y-114863924D01*
X65393000Y-114732727D01*
X65391957Y-114722130D01*
X65380589Y-114664982D01*
X65372530Y-114645527D01*
X65356270Y-114621191D01*
X65337985Y-114556355D01*
X65339995Y-114539374D01*
X65342456Y-114527001D01*
X65342457Y-114526992D01*
X65343500Y-114521748D01*
X65343500Y-113732252D01*
X65331867Y-113673769D01*
X65327375Y-113667046D01*
X65322219Y-113601558D01*
X65326574Y-113588152D01*
X65331867Y-113580231D01*
X65333962Y-113569700D01*
X65333964Y-113569695D01*
X65339824Y-113540234D01*
X65372740Y-113481458D01*
X65433918Y-113453255D01*
X65446729Y-113452500D01*
X66939029Y-113452500D01*
X66948529Y-113452915D01*
X66977305Y-113455433D01*
X66977307Y-113455433D01*
X66986807Y-113456264D01*
X67023944Y-113446313D01*
X67033210Y-113444259D01*
X67061653Y-113439244D01*
X67071045Y-113437588D01*
X67079304Y-113432819D01*
X67083979Y-113431118D01*
X67088474Y-113429022D01*
X67097684Y-113426554D01*
X67129159Y-113404514D01*
X67137169Y-113399411D01*
X67170455Y-113380194D01*
X67176585Y-113372889D01*
X67176587Y-113372887D01*
X67195156Y-113350758D01*
X67201579Y-113343747D01*
X68446783Y-112098543D01*
X68506807Y-112067960D01*
X68510812Y-112067680D01*
X68510785Y-112067461D01*
X68518493Y-112066501D01*
X68526255Y-112066643D01*
X68650755Y-112032700D01*
X68760724Y-111965179D01*
X68847322Y-111869507D01*
X68859563Y-111844243D01*
X68900202Y-111760363D01*
X68903588Y-111753375D01*
X68922913Y-111638508D01*
X68953327Y-111579517D01*
X79238199Y-101294645D01*
X79298223Y-101264062D01*
X79364759Y-101274600D01*
X79407812Y-101314121D01*
X79410479Y-101318407D01*
X79413605Y-101325510D01*
X79418598Y-101331450D01*
X79473938Y-101397285D01*
X79499228Y-101459724D01*
X79499500Y-101467422D01*
X79499500Y-102771916D01*
X79499237Y-102775502D01*
X79497575Y-102780342D01*
X79498232Y-102797847D01*
X79499423Y-102829575D01*
X79499500Y-102833664D01*
X79499500Y-102852948D01*
X79500346Y-102857494D01*
X79500642Y-102862063D01*
X79501774Y-102892208D01*
X79505880Y-102901764D01*
X79512886Y-102924824D01*
X79514791Y-102935053D01*
X79520069Y-102943615D01*
X79520069Y-102943616D01*
X79528382Y-102957102D01*
X79535741Y-102971269D01*
X79545964Y-102995063D01*
X79549978Y-102999949D01*
X79553514Y-103003485D01*
X79566106Y-103019416D01*
X79568252Y-103021783D01*
X79573532Y-103030348D01*
X79581542Y-103036439D01*
X79596221Y-103047601D01*
X79607319Y-103057290D01*
X85330578Y-108780550D01*
X85361161Y-108840574D01*
X85361442Y-108844457D01*
X85361571Y-108844440D01*
X85378303Y-108972394D01*
X85430275Y-109090510D01*
X85435268Y-109096450D01*
X85435270Y-109096453D01*
X85503412Y-109177517D01*
X85513309Y-109189291D01*
X85519772Y-109193593D01*
X85614271Y-109256497D01*
X85614273Y-109256498D01*
X85620730Y-109260796D01*
X85628132Y-109263109D01*
X85628135Y-109263110D01*
X85736493Y-109296963D01*
X85743903Y-109299278D01*
X85810342Y-109300496D01*
X85865164Y-109301501D01*
X85865166Y-109301501D01*
X85872925Y-109301643D01*
X85997425Y-109267700D01*
X86004512Y-109263349D01*
X86100775Y-109204243D01*
X86107394Y-109200179D01*
X86193992Y-109104507D01*
X86197895Y-109096453D01*
X86227492Y-109035363D01*
X86250258Y-108988375D01*
X86261014Y-108924440D01*
X86270968Y-108865278D01*
X86270969Y-108865271D01*
X86271667Y-108861120D01*
X86271803Y-108850000D01*
X86253509Y-108722259D01*
X86200098Y-108604788D01*
X86195035Y-108598912D01*
X86195033Y-108598909D01*
X86120931Y-108512909D01*
X86120928Y-108512907D01*
X86115863Y-108507028D01*
X86007576Y-108436841D01*
X86000138Y-108434617D01*
X86000137Y-108434616D01*
X85891383Y-108402091D01*
X85891382Y-108402091D01*
X85883943Y-108399866D01*
X85876180Y-108399819D01*
X85876176Y-108399818D01*
X85844078Y-108399622D01*
X85780138Y-108378413D01*
X85767670Y-108367699D01*
X85261546Y-107861575D01*
X85230963Y-107801551D01*
X85241501Y-107735015D01*
X85289136Y-107687380D01*
X85338621Y-107675500D01*
X102902049Y-107675500D01*
X102966118Y-107696317D01*
X102979124Y-107707425D01*
X104101675Y-108829976D01*
X104132679Y-108892917D01*
X104148303Y-109012394D01*
X104200275Y-109130510D01*
X104205268Y-109136450D01*
X104205270Y-109136453D01*
X104258838Y-109200179D01*
X104283309Y-109229291D01*
X104291017Y-109234422D01*
X104384271Y-109296497D01*
X104384273Y-109296498D01*
X104390730Y-109300796D01*
X104398132Y-109303109D01*
X104398135Y-109303110D01*
X104506493Y-109336963D01*
X104513903Y-109339278D01*
X104580342Y-109340496D01*
X104635164Y-109341501D01*
X104635166Y-109341501D01*
X104642925Y-109341643D01*
X104767425Y-109307700D01*
X104778670Y-109300796D01*
X104870775Y-109244243D01*
X104877394Y-109240179D01*
X104963992Y-109144507D01*
X104967895Y-109136453D01*
X105004588Y-109060717D01*
X105020258Y-109028375D01*
X105036019Y-108934691D01*
X105040968Y-108905278D01*
X105040969Y-108905271D01*
X105041667Y-108901120D01*
X105041803Y-108890000D01*
X105023509Y-108762259D01*
X104983275Y-108673769D01*
X104973311Y-108651854D01*
X104973310Y-108651853D01*
X104970098Y-108644788D01*
X104965035Y-108638912D01*
X104965033Y-108638909D01*
X104890931Y-108552909D01*
X104890928Y-108552907D01*
X104885863Y-108547028D01*
X104777576Y-108476841D01*
X104770138Y-108474617D01*
X104770137Y-108474616D01*
X104661383Y-108442091D01*
X104661382Y-108442091D01*
X104653943Y-108439866D01*
X104623957Y-108439683D01*
X104605699Y-108439571D01*
X104541758Y-108418362D01*
X104529290Y-108407648D01*
X103583697Y-107462055D01*
X103553114Y-107402031D01*
X103563652Y-107335495D01*
X103611287Y-107287860D01*
X103660772Y-107275980D01*
X121072529Y-107275980D01*
X121136598Y-107296797D01*
X121149604Y-107307905D01*
X122811675Y-108969976D01*
X122842679Y-109032917D01*
X122858303Y-109152394D01*
X122910275Y-109270510D01*
X122915268Y-109276450D01*
X122915270Y-109276453D01*
X122988314Y-109363349D01*
X122993309Y-109369291D01*
X122999772Y-109373593D01*
X123094271Y-109436497D01*
X123094273Y-109436498D01*
X123100730Y-109440796D01*
X123108132Y-109443109D01*
X123108135Y-109443110D01*
X123216493Y-109476963D01*
X123223903Y-109479278D01*
X123290342Y-109480496D01*
X123345164Y-109481501D01*
X123345166Y-109481501D01*
X123352925Y-109481643D01*
X123477425Y-109447700D01*
X123488670Y-109440796D01*
X123580775Y-109384243D01*
X123587394Y-109380179D01*
X123673992Y-109284507D01*
X123677439Y-109277394D01*
X123723003Y-109183349D01*
X123730258Y-109168375D01*
X123749601Y-109053402D01*
X123750968Y-109045278D01*
X123750969Y-109045271D01*
X123751667Y-109041120D01*
X123751803Y-109030000D01*
X123733509Y-108902259D01*
X123680098Y-108784788D01*
X123675035Y-108778912D01*
X123675033Y-108778909D01*
X123600931Y-108692909D01*
X123600928Y-108692907D01*
X123595863Y-108687028D01*
X123487576Y-108616841D01*
X123480138Y-108614617D01*
X123480137Y-108614616D01*
X123371383Y-108582091D01*
X123371382Y-108582091D01*
X123363943Y-108579866D01*
X123333886Y-108579682D01*
X123315698Y-108579571D01*
X123251757Y-108558362D01*
X123239289Y-108547648D01*
X121754176Y-107062535D01*
X121723593Y-107002511D01*
X121734131Y-106935975D01*
X121781766Y-106888340D01*
X121831251Y-106876460D01*
X139663009Y-106876460D01*
X139727078Y-106897277D01*
X139740084Y-106908385D01*
X141701675Y-108869977D01*
X141732680Y-108932918D01*
X141748303Y-109052394D01*
X141800275Y-109170510D01*
X141805268Y-109176450D01*
X141805270Y-109176453D01*
X141876168Y-109260796D01*
X141883309Y-109269291D01*
X141895482Y-109277394D01*
X141984271Y-109336497D01*
X141984273Y-109336498D01*
X141990730Y-109340796D01*
X141998132Y-109343109D01*
X141998135Y-109343110D01*
X142095706Y-109373593D01*
X142113903Y-109379278D01*
X142180342Y-109380496D01*
X142235164Y-109381501D01*
X142235166Y-109381501D01*
X142242925Y-109381643D01*
X142367425Y-109347700D01*
X142378670Y-109340796D01*
X142470775Y-109284243D01*
X142477394Y-109280179D01*
X142563992Y-109184507D01*
X142567895Y-109176453D01*
X142606654Y-109096453D01*
X142620258Y-109068375D01*
X142633717Y-108988375D01*
X142640968Y-108945278D01*
X142640969Y-108945271D01*
X142641667Y-108941120D01*
X142641803Y-108930000D01*
X142623509Y-108802259D01*
X142576991Y-108699948D01*
X142573311Y-108691854D01*
X142573310Y-108691853D01*
X142570098Y-108684788D01*
X142565035Y-108678912D01*
X142565033Y-108678909D01*
X142490931Y-108592909D01*
X142490928Y-108592907D01*
X142485863Y-108587028D01*
X142377576Y-108516841D01*
X142370138Y-108514617D01*
X142370137Y-108514616D01*
X142261383Y-108482091D01*
X142261382Y-108482091D01*
X142253943Y-108479866D01*
X142223886Y-108479682D01*
X142205698Y-108479571D01*
X142141757Y-108458362D01*
X142129289Y-108447648D01*
X140333216Y-106651575D01*
X140302633Y-106591551D01*
X140313171Y-106525015D01*
X140360806Y-106477380D01*
X140410291Y-106465500D01*
X158232049Y-106465500D01*
X158296118Y-106486317D01*
X158309124Y-106497425D01*
X160571675Y-108759976D01*
X160602679Y-108822917D01*
X160618303Y-108942394D01*
X160670275Y-109060510D01*
X160675268Y-109066450D01*
X160675270Y-109066453D01*
X160741036Y-109144691D01*
X160753309Y-109159291D01*
X160759772Y-109163593D01*
X160854271Y-109226497D01*
X160854273Y-109226498D01*
X160860730Y-109230796D01*
X160868132Y-109233109D01*
X160868135Y-109233110D01*
X160976493Y-109266963D01*
X160983903Y-109269278D01*
X161050342Y-109270496D01*
X161105164Y-109271501D01*
X161105166Y-109271501D01*
X161112925Y-109271643D01*
X161237425Y-109237700D01*
X161248670Y-109230796D01*
X161318393Y-109187986D01*
X161347394Y-109170179D01*
X161433992Y-109074507D01*
X161437895Y-109066453D01*
X161479433Y-108980717D01*
X161490258Y-108958375D01*
X161505130Y-108869977D01*
X161510968Y-108835278D01*
X161510969Y-108835271D01*
X161511667Y-108831120D01*
X161511803Y-108820000D01*
X161493509Y-108692259D01*
X161444973Y-108585510D01*
X161443311Y-108581854D01*
X161443310Y-108581853D01*
X161440098Y-108574788D01*
X161435035Y-108568912D01*
X161435033Y-108568909D01*
X161360931Y-108482909D01*
X161360928Y-108482907D01*
X161355863Y-108477028D01*
X161247576Y-108406841D01*
X161240138Y-108404617D01*
X161240137Y-108404616D01*
X161131383Y-108372091D01*
X161131382Y-108372091D01*
X161123943Y-108369866D01*
X161093886Y-108369682D01*
X161075698Y-108369571D01*
X161011757Y-108348362D01*
X160999289Y-108337648D01*
X158913696Y-106252055D01*
X158883113Y-106192031D01*
X158893651Y-106125495D01*
X158941286Y-106077860D01*
X158990771Y-106065980D01*
X160652529Y-106065980D01*
X160716598Y-106086797D01*
X160729604Y-106097905D01*
X162500186Y-107868488D01*
X162512770Y-107884409D01*
X162514922Y-107886782D01*
X162520202Y-107895348D01*
X162528212Y-107901439D01*
X162542891Y-107912601D01*
X162553989Y-107922290D01*
X166061675Y-111429976D01*
X166092679Y-111492917D01*
X166108303Y-111612394D01*
X166160275Y-111730510D01*
X166165268Y-111736450D01*
X166165270Y-111736453D01*
X166218820Y-111800158D01*
X166243309Y-111829291D01*
X166249772Y-111833593D01*
X166344271Y-111896497D01*
X166344273Y-111896498D01*
X166350730Y-111900796D01*
X166358132Y-111903109D01*
X166358135Y-111903110D01*
X166466493Y-111936963D01*
X166473903Y-111939278D01*
X166540342Y-111940496D01*
X166595164Y-111941501D01*
X166595166Y-111941501D01*
X166602925Y-111941643D01*
X166727425Y-111907700D01*
X166738670Y-111900796D01*
X166830775Y-111844243D01*
X166837394Y-111840179D01*
X166923992Y-111744507D01*
X166927895Y-111736453D01*
X166960713Y-111668716D01*
X166980258Y-111628375D01*
X166999097Y-111516397D01*
X167000968Y-111505278D01*
X167000969Y-111505271D01*
X167001667Y-111501120D01*
X167001803Y-111490000D01*
X166983509Y-111362259D01*
X166930098Y-111244788D01*
X166925035Y-111238912D01*
X166925033Y-111238909D01*
X166850931Y-111152909D01*
X166850928Y-111152907D01*
X166845863Y-111147028D01*
X166737576Y-111076841D01*
X166730138Y-111074617D01*
X166730137Y-111074616D01*
X166621383Y-111042091D01*
X166621382Y-111042091D01*
X166613943Y-111039866D01*
X166583886Y-111039682D01*
X166565698Y-111039571D01*
X166501757Y-111018362D01*
X166489289Y-111007648D01*
X163025295Y-107543654D01*
X163009582Y-107523775D01*
X162978418Y-107473218D01*
X162973138Y-107464652D01*
X162965128Y-107458561D01*
X162887604Y-107399610D01*
X162887591Y-107399601D01*
X162884029Y-107396892D01*
X162883717Y-107396802D01*
X162864709Y-107383068D01*
X161132881Y-105651240D01*
X161102298Y-105591216D01*
X161112836Y-105524680D01*
X161132881Y-105497090D01*
X166047546Y-100582425D01*
X166107570Y-100551842D01*
X166124621Y-100550500D01*
X170319953Y-100550500D01*
X170384022Y-100571317D01*
X170392607Y-100578245D01*
X170398311Y-100583345D01*
X170403309Y-100589291D01*
X170409772Y-100593593D01*
X170504271Y-100656497D01*
X170504273Y-100656498D01*
X170510730Y-100660796D01*
X170518132Y-100663109D01*
X170518135Y-100663110D01*
X170625978Y-100696802D01*
X170633903Y-100699278D01*
X170700342Y-100700496D01*
X170755164Y-100701501D01*
X170755166Y-100701501D01*
X170762925Y-100701643D01*
X170887425Y-100667700D01*
X170898670Y-100660796D01*
X170990775Y-100604243D01*
X170997394Y-100600179D01*
X171083992Y-100504507D01*
X171100861Y-100469691D01*
X171120394Y-100429374D01*
X171140258Y-100388375D01*
X171156192Y-100293663D01*
X171160968Y-100265278D01*
X171160969Y-100265271D01*
X171161667Y-100261120D01*
X171161803Y-100250000D01*
X171143509Y-100122259D01*
X171090098Y-100004788D01*
X171085035Y-99998912D01*
X171085033Y-99998909D01*
X171010931Y-99912909D01*
X171010928Y-99912907D01*
X171005863Y-99907028D01*
X170897576Y-99836841D01*
X170890138Y-99834617D01*
X170890137Y-99834616D01*
X170781383Y-99802091D01*
X170781382Y-99802091D01*
X170773943Y-99799866D01*
X170709829Y-99799474D01*
X170652668Y-99799125D01*
X170652665Y-99799125D01*
X170644901Y-99799078D01*
X170637434Y-99801212D01*
X170528290Y-99832405D01*
X170528287Y-99832406D01*
X170520825Y-99834539D01*
X170514258Y-99838683D01*
X170514257Y-99838683D01*
X170465698Y-99869322D01*
X170411689Y-99903399D01*
X170403513Y-99912657D01*
X170345499Y-99946896D01*
X170321816Y-99949500D01*
X170200291Y-99949500D01*
X170136222Y-99928683D01*
X170096626Y-99874183D01*
X170096626Y-99806817D01*
X170123216Y-99763425D01*
X170658735Y-99227906D01*
X170718759Y-99197323D01*
X170737807Y-99195999D01*
X170749018Y-99196205D01*
X170765165Y-99196501D01*
X170765167Y-99196501D01*
X170772925Y-99196643D01*
X170897425Y-99162700D01*
X171007394Y-99095179D01*
X171093992Y-98999507D01*
X171114391Y-98957405D01*
X171146872Y-98890363D01*
X171150258Y-98883375D01*
X171165313Y-98793891D01*
X171170968Y-98760278D01*
X171170969Y-98760271D01*
X171171667Y-98756120D01*
X171171803Y-98745000D01*
X171153509Y-98617259D01*
X171100098Y-98499788D01*
X171095035Y-98493912D01*
X171095033Y-98493909D01*
X171020931Y-98407909D01*
X171020928Y-98407907D01*
X171015863Y-98402028D01*
X170907576Y-98331841D01*
X170900138Y-98329617D01*
X170900137Y-98329616D01*
X170791383Y-98297091D01*
X170791382Y-98297091D01*
X170783943Y-98294866D01*
X170719829Y-98294474D01*
X170662668Y-98294125D01*
X170662665Y-98294125D01*
X170654901Y-98294078D01*
X170647434Y-98296212D01*
X170538290Y-98327405D01*
X170538287Y-98327406D01*
X170530825Y-98329539D01*
X170421689Y-98398399D01*
X170336266Y-98495122D01*
X170281424Y-98611932D01*
X170261571Y-98739440D01*
X170259717Y-98739151D01*
X170241192Y-98793891D01*
X170230870Y-98805829D01*
X169518644Y-99518055D01*
X169458620Y-99548638D01*
X169441569Y-99549980D01*
X168939811Y-99549980D01*
X168875742Y-99529163D01*
X168836146Y-99474663D01*
X168836146Y-99407297D01*
X168862736Y-99363905D01*
X170648735Y-97577906D01*
X170708759Y-97547323D01*
X170727807Y-97545999D01*
X170739018Y-97546205D01*
X170755165Y-97546501D01*
X170755167Y-97546501D01*
X170762925Y-97546643D01*
X170887425Y-97512700D01*
X170997394Y-97445179D01*
X171083992Y-97349507D01*
X171094967Y-97326856D01*
X171113671Y-97288251D01*
X171140258Y-97233375D01*
X171151151Y-97168627D01*
X171160968Y-97110278D01*
X171160969Y-97110271D01*
X171161667Y-97106120D01*
X171161723Y-97101601D01*
X171161751Y-97099215D01*
X171161803Y-97095000D01*
X171143509Y-96967259D01*
X171090098Y-96849788D01*
X171085035Y-96843912D01*
X171085033Y-96843909D01*
X171010931Y-96757909D01*
X171010928Y-96757907D01*
X171005863Y-96752028D01*
X170897576Y-96681841D01*
X170890138Y-96679617D01*
X170890137Y-96679616D01*
X170781383Y-96647091D01*
X170781382Y-96647091D01*
X170773943Y-96644866D01*
X170709829Y-96644474D01*
X170652668Y-96644125D01*
X170652665Y-96644125D01*
X170644901Y-96644078D01*
X170637434Y-96646212D01*
X170528290Y-96677405D01*
X170528287Y-96677406D01*
X170520825Y-96679539D01*
X170411689Y-96748399D01*
X170326266Y-96845122D01*
X170271424Y-96961932D01*
X170270229Y-96969605D01*
X170270229Y-96969606D01*
X170261681Y-97024505D01*
X170251571Y-97089440D01*
X170249717Y-97089151D01*
X170231192Y-97143890D01*
X170220870Y-97155828D01*
X168258164Y-99118535D01*
X168198140Y-99149118D01*
X168181089Y-99150460D01*
X96320587Y-99150460D01*
X96256518Y-99129643D01*
X96243512Y-99118535D01*
X90042425Y-92917448D01*
X90011842Y-92857424D01*
X90010500Y-92840373D01*
X90010500Y-91689440D01*
X102124966Y-91689440D01*
X102127388Y-91731435D01*
X102135259Y-91867933D01*
X102138697Y-91927562D01*
X102191134Y-92160245D01*
X102192813Y-92164381D01*
X102192815Y-92164386D01*
X102230223Y-92256511D01*
X102280870Y-92381239D01*
X102283203Y-92385046D01*
X102283206Y-92385052D01*
X102348647Y-92491841D01*
X102405496Y-92584609D01*
X102561663Y-92764894D01*
X102565096Y-92767744D01*
X102565101Y-92767749D01*
X102706961Y-92885523D01*
X102745179Y-92917252D01*
X102951115Y-93037591D01*
X103173940Y-93122680D01*
X103407669Y-93170233D01*
X103412131Y-93170397D01*
X103412134Y-93170397D01*
X103641553Y-93178809D01*
X103641554Y-93178809D01*
X103646028Y-93178973D01*
X103872597Y-93149948D01*
X103878171Y-93149234D01*
X103878172Y-93149234D01*
X103882612Y-93148665D01*
X103886893Y-93147381D01*
X103886896Y-93147380D01*
X104106788Y-93081410D01*
X104106789Y-93081410D01*
X104111071Y-93080125D01*
X104325267Y-92975191D01*
X104519448Y-92836683D01*
X104688400Y-92668320D01*
X104827585Y-92474623D01*
X104933266Y-92260795D01*
X104941323Y-92234278D01*
X105001304Y-92036854D01*
X105001305Y-92036849D01*
X105002603Y-92032577D01*
X105024279Y-91867933D01*
X105033357Y-91798979D01*
X105033357Y-91798976D01*
X105033736Y-91796099D01*
X105034007Y-91785000D01*
X105035403Y-91727913D01*
X105035403Y-91727909D01*
X105035474Y-91725000D01*
X105032550Y-91689440D01*
X111551632Y-91689440D01*
X111554054Y-91731435D01*
X111561925Y-91867933D01*
X111565363Y-91927562D01*
X111617800Y-92160245D01*
X111619479Y-92164381D01*
X111619481Y-92164386D01*
X111656889Y-92256511D01*
X111707536Y-92381239D01*
X111709869Y-92385046D01*
X111709872Y-92385052D01*
X111775313Y-92491841D01*
X111832162Y-92584609D01*
X111988329Y-92764894D01*
X111991762Y-92767744D01*
X111991767Y-92767749D01*
X112133627Y-92885523D01*
X112171845Y-92917252D01*
X112377781Y-93037591D01*
X112600606Y-93122680D01*
X112834335Y-93170233D01*
X112838797Y-93170397D01*
X112838800Y-93170397D01*
X113068219Y-93178809D01*
X113068220Y-93178809D01*
X113072694Y-93178973D01*
X113299263Y-93149948D01*
X113304837Y-93149234D01*
X113304838Y-93149234D01*
X113309278Y-93148665D01*
X113313559Y-93147381D01*
X113313562Y-93147380D01*
X113533454Y-93081410D01*
X113533455Y-93081410D01*
X113537737Y-93080125D01*
X113751933Y-92975191D01*
X113946114Y-92836683D01*
X114115066Y-92668320D01*
X114254251Y-92474623D01*
X114359932Y-92260795D01*
X114367989Y-92234278D01*
X114427970Y-92036854D01*
X114427971Y-92036849D01*
X114429269Y-92032577D01*
X114450945Y-91867933D01*
X114460023Y-91798979D01*
X114460023Y-91798976D01*
X114460402Y-91796099D01*
X114460673Y-91785000D01*
X114462069Y-91727913D01*
X114462069Y-91727909D01*
X114462140Y-91725000D01*
X114459216Y-91689440D01*
X120978298Y-91689440D01*
X120980720Y-91731435D01*
X120988591Y-91867933D01*
X120992029Y-91927562D01*
X121044466Y-92160245D01*
X121046145Y-92164381D01*
X121046147Y-92164386D01*
X121083555Y-92256511D01*
X121134202Y-92381239D01*
X121136535Y-92385046D01*
X121136538Y-92385052D01*
X121201979Y-92491841D01*
X121258828Y-92584609D01*
X121414995Y-92764894D01*
X121418428Y-92767744D01*
X121418433Y-92767749D01*
X121560293Y-92885523D01*
X121598511Y-92917252D01*
X121804447Y-93037591D01*
X122027272Y-93122680D01*
X122261001Y-93170233D01*
X122265463Y-93170397D01*
X122265466Y-93170397D01*
X122494885Y-93178809D01*
X122494886Y-93178809D01*
X122499360Y-93178973D01*
X122725929Y-93149948D01*
X122731503Y-93149234D01*
X122731504Y-93149234D01*
X122735944Y-93148665D01*
X122740225Y-93147381D01*
X122740228Y-93147380D01*
X122960120Y-93081410D01*
X122960121Y-93081410D01*
X122964403Y-93080125D01*
X123178599Y-92975191D01*
X123372780Y-92836683D01*
X123541732Y-92668320D01*
X123680917Y-92474623D01*
X123786598Y-92260795D01*
X123794655Y-92234278D01*
X123854636Y-92036854D01*
X123854637Y-92036849D01*
X123855935Y-92032577D01*
X123877611Y-91867933D01*
X123886689Y-91798979D01*
X123886689Y-91798976D01*
X123887068Y-91796099D01*
X123887339Y-91785000D01*
X123888735Y-91727913D01*
X123888735Y-91727909D01*
X123888806Y-91725000D01*
X123885882Y-91689440D01*
X130404964Y-91689440D01*
X130407386Y-91731435D01*
X130415257Y-91867933D01*
X130418695Y-91927562D01*
X130471132Y-92160245D01*
X130472811Y-92164381D01*
X130472813Y-92164386D01*
X130510221Y-92256511D01*
X130560868Y-92381239D01*
X130563201Y-92385046D01*
X130563204Y-92385052D01*
X130628645Y-92491841D01*
X130685494Y-92584609D01*
X130841661Y-92764894D01*
X130845094Y-92767744D01*
X130845099Y-92767749D01*
X130986959Y-92885523D01*
X131025177Y-92917252D01*
X131231113Y-93037591D01*
X131453938Y-93122680D01*
X131687667Y-93170233D01*
X131692129Y-93170397D01*
X131692132Y-93170397D01*
X131921551Y-93178809D01*
X131921552Y-93178809D01*
X131926026Y-93178973D01*
X132152595Y-93149948D01*
X132158169Y-93149234D01*
X132158170Y-93149234D01*
X132162610Y-93148665D01*
X132166891Y-93147381D01*
X132166894Y-93147380D01*
X132386786Y-93081410D01*
X132386787Y-93081410D01*
X132391069Y-93080125D01*
X132605265Y-92975191D01*
X132799446Y-92836683D01*
X132968398Y-92668320D01*
X133107583Y-92474623D01*
X133213264Y-92260795D01*
X133221321Y-92234278D01*
X133281302Y-92036854D01*
X133281303Y-92036849D01*
X133282601Y-92032577D01*
X133304277Y-91867933D01*
X133313355Y-91798979D01*
X133313355Y-91798976D01*
X133313734Y-91796099D01*
X133314005Y-91785000D01*
X133315401Y-91727913D01*
X133315401Y-91727909D01*
X133315472Y-91725000D01*
X133312548Y-91689440D01*
X139831630Y-91689440D01*
X139834052Y-91731435D01*
X139841923Y-91867933D01*
X139845361Y-91927562D01*
X139897798Y-92160245D01*
X139899477Y-92164381D01*
X139899479Y-92164386D01*
X139936887Y-92256511D01*
X139987534Y-92381239D01*
X139989867Y-92385046D01*
X139989870Y-92385052D01*
X140055311Y-92491841D01*
X140112160Y-92584609D01*
X140268327Y-92764894D01*
X140271760Y-92767744D01*
X140271765Y-92767749D01*
X140413625Y-92885523D01*
X140451843Y-92917252D01*
X140657779Y-93037591D01*
X140880604Y-93122680D01*
X141114333Y-93170233D01*
X141118795Y-93170397D01*
X141118798Y-93170397D01*
X141348217Y-93178809D01*
X141348218Y-93178809D01*
X141352692Y-93178973D01*
X141579261Y-93149948D01*
X141584835Y-93149234D01*
X141584836Y-93149234D01*
X141589276Y-93148665D01*
X141593557Y-93147381D01*
X141593560Y-93147380D01*
X141813452Y-93081410D01*
X141813453Y-93081410D01*
X141817735Y-93080125D01*
X142031931Y-92975191D01*
X142226112Y-92836683D01*
X142395064Y-92668320D01*
X142534249Y-92474623D01*
X142639930Y-92260795D01*
X142647987Y-92234278D01*
X142707968Y-92036854D01*
X142707969Y-92036849D01*
X142709267Y-92032577D01*
X142730943Y-91867933D01*
X142740021Y-91798979D01*
X142740021Y-91798976D01*
X142740400Y-91796099D01*
X142740671Y-91785000D01*
X142742067Y-91727913D01*
X142742067Y-91727909D01*
X142742138Y-91725000D01*
X142739214Y-91689440D01*
X149258296Y-91689440D01*
X149260718Y-91731435D01*
X149268589Y-91867933D01*
X149272027Y-91927562D01*
X149324464Y-92160245D01*
X149326143Y-92164381D01*
X149326145Y-92164386D01*
X149363553Y-92256511D01*
X149414200Y-92381239D01*
X149416533Y-92385046D01*
X149416536Y-92385052D01*
X149481977Y-92491841D01*
X149538826Y-92584609D01*
X149694993Y-92764894D01*
X149698426Y-92767744D01*
X149698431Y-92767749D01*
X149840291Y-92885523D01*
X149878509Y-92917252D01*
X150084445Y-93037591D01*
X150307270Y-93122680D01*
X150540999Y-93170233D01*
X150545461Y-93170397D01*
X150545464Y-93170397D01*
X150774883Y-93178809D01*
X150774884Y-93178809D01*
X150779358Y-93178973D01*
X151005927Y-93149948D01*
X151011501Y-93149234D01*
X151011502Y-93149234D01*
X151015942Y-93148665D01*
X151020223Y-93147381D01*
X151020226Y-93147380D01*
X151240118Y-93081410D01*
X151240119Y-93081410D01*
X151244401Y-93080125D01*
X151458597Y-92975191D01*
X151652778Y-92836683D01*
X151821730Y-92668320D01*
X151960915Y-92474623D01*
X152066596Y-92260795D01*
X152074653Y-92234278D01*
X152134634Y-92036854D01*
X152134635Y-92036849D01*
X152135933Y-92032577D01*
X152157609Y-91867933D01*
X152166687Y-91798979D01*
X152166687Y-91798976D01*
X152167066Y-91796099D01*
X152167337Y-91785000D01*
X152168733Y-91727913D01*
X152168733Y-91727909D01*
X152168804Y-91725000D01*
X152165880Y-91689440D01*
X158684962Y-91689440D01*
X158687384Y-91731435D01*
X158695255Y-91867933D01*
X158698693Y-91927562D01*
X158751130Y-92160245D01*
X158752809Y-92164381D01*
X158752811Y-92164386D01*
X158790219Y-92256511D01*
X158840866Y-92381239D01*
X158843199Y-92385046D01*
X158843202Y-92385052D01*
X158908643Y-92491841D01*
X158965492Y-92584609D01*
X159121659Y-92764894D01*
X159125092Y-92767744D01*
X159125097Y-92767749D01*
X159266957Y-92885523D01*
X159305175Y-92917252D01*
X159511111Y-93037591D01*
X159733936Y-93122680D01*
X159967665Y-93170233D01*
X159972127Y-93170397D01*
X159972130Y-93170397D01*
X160201549Y-93178809D01*
X160201550Y-93178809D01*
X160206024Y-93178973D01*
X160432593Y-93149948D01*
X160438167Y-93149234D01*
X160438168Y-93149234D01*
X160442608Y-93148665D01*
X160446889Y-93147381D01*
X160446892Y-93147380D01*
X160666784Y-93081410D01*
X160666785Y-93081410D01*
X160671067Y-93080125D01*
X160885263Y-92975191D01*
X161079444Y-92836683D01*
X161248396Y-92668320D01*
X161387581Y-92474623D01*
X161493262Y-92260795D01*
X161501319Y-92234278D01*
X161561300Y-92036854D01*
X161561301Y-92036849D01*
X161562599Y-92032577D01*
X161584275Y-91867933D01*
X161593353Y-91798979D01*
X161593353Y-91798976D01*
X161593732Y-91796099D01*
X161594003Y-91785000D01*
X161595399Y-91727913D01*
X161595399Y-91727909D01*
X161595470Y-91725000D01*
X161592546Y-91689440D01*
X168111633Y-91689440D01*
X168114055Y-91731435D01*
X168121926Y-91867933D01*
X168125364Y-91927562D01*
X168177801Y-92160245D01*
X168179480Y-92164381D01*
X168179482Y-92164386D01*
X168216890Y-92256511D01*
X168267537Y-92381239D01*
X168269870Y-92385046D01*
X168269873Y-92385052D01*
X168335314Y-92491841D01*
X168392163Y-92584609D01*
X168548330Y-92764894D01*
X168551763Y-92767744D01*
X168551768Y-92767749D01*
X168693628Y-92885523D01*
X168731846Y-92917252D01*
X168937782Y-93037591D01*
X169160607Y-93122680D01*
X169394336Y-93170233D01*
X169398798Y-93170397D01*
X169398801Y-93170397D01*
X169628220Y-93178809D01*
X169628221Y-93178809D01*
X169632695Y-93178973D01*
X169859264Y-93149948D01*
X169864838Y-93149234D01*
X169864839Y-93149234D01*
X169869279Y-93148665D01*
X169873560Y-93147381D01*
X169873563Y-93147380D01*
X170093455Y-93081410D01*
X170093456Y-93081410D01*
X170097738Y-93080125D01*
X170311934Y-92975191D01*
X170506115Y-92836683D01*
X170675067Y-92668320D01*
X170814252Y-92474623D01*
X170919933Y-92260795D01*
X170927990Y-92234278D01*
X170987971Y-92036854D01*
X170987972Y-92036849D01*
X170989270Y-92032577D01*
X171010946Y-91867933D01*
X171020024Y-91798979D01*
X171020024Y-91798976D01*
X171020403Y-91796099D01*
X171020674Y-91785000D01*
X171022070Y-91727913D01*
X171022070Y-91727909D01*
X171022141Y-91725000D01*
X171002597Y-91487284D01*
X170944491Y-91255952D01*
X170933103Y-91229760D01*
X170851165Y-91041317D01*
X170849382Y-91037216D01*
X170719825Y-90836951D01*
X170559299Y-90660536D01*
X170533094Y-90639840D01*
X170375620Y-90515475D01*
X170375619Y-90515475D01*
X170372115Y-90512707D01*
X170163301Y-90397436D01*
X169938464Y-90317817D01*
X169703642Y-90275988D01*
X169699179Y-90275933D01*
X169699174Y-90275933D01*
X169566624Y-90274314D01*
X169465141Y-90273074D01*
X169460718Y-90273751D01*
X169460716Y-90273751D01*
X169400553Y-90282958D01*
X169229368Y-90309153D01*
X169002652Y-90383255D01*
X168791084Y-90493390D01*
X168761670Y-90515475D01*
X168637531Y-90608682D01*
X168600345Y-90636602D01*
X168435557Y-90809042D01*
X168301145Y-91006082D01*
X168200721Y-91222428D01*
X168199526Y-91226738D01*
X168199525Y-91226740D01*
X168168922Y-91337091D01*
X168136979Y-91452272D01*
X168136505Y-91456706D01*
X168136504Y-91456712D01*
X168128125Y-91535122D01*
X168111633Y-91689440D01*
X161592546Y-91689440D01*
X161575926Y-91487284D01*
X161517820Y-91255952D01*
X161506432Y-91229760D01*
X161424494Y-91041317D01*
X161422711Y-91037216D01*
X161293154Y-90836951D01*
X161132628Y-90660536D01*
X161106423Y-90639840D01*
X160948949Y-90515475D01*
X160948948Y-90515475D01*
X160945444Y-90512707D01*
X160736630Y-90397436D01*
X160511793Y-90317817D01*
X160276971Y-90275988D01*
X160272508Y-90275933D01*
X160272503Y-90275933D01*
X160139953Y-90274314D01*
X160038470Y-90273074D01*
X160034047Y-90273751D01*
X160034045Y-90273751D01*
X159973882Y-90282958D01*
X159802697Y-90309153D01*
X159575981Y-90383255D01*
X159364413Y-90493390D01*
X159334999Y-90515475D01*
X159210860Y-90608682D01*
X159173674Y-90636602D01*
X159008886Y-90809042D01*
X158874474Y-91006082D01*
X158774050Y-91222428D01*
X158772855Y-91226738D01*
X158772854Y-91226740D01*
X158742251Y-91337091D01*
X158710308Y-91452272D01*
X158709834Y-91456706D01*
X158709833Y-91456712D01*
X158701454Y-91535122D01*
X158684962Y-91689440D01*
X152165880Y-91689440D01*
X152149260Y-91487284D01*
X152091154Y-91255952D01*
X152079766Y-91229760D01*
X151997828Y-91041317D01*
X151996045Y-91037216D01*
X151866488Y-90836951D01*
X151705962Y-90660536D01*
X151679757Y-90639840D01*
X151522283Y-90515475D01*
X151522282Y-90515475D01*
X151518778Y-90512707D01*
X151309964Y-90397436D01*
X151085127Y-90317817D01*
X150850305Y-90275988D01*
X150845842Y-90275933D01*
X150845837Y-90275933D01*
X150713287Y-90274314D01*
X150611804Y-90273074D01*
X150607381Y-90273751D01*
X150607379Y-90273751D01*
X150547216Y-90282958D01*
X150376031Y-90309153D01*
X150149315Y-90383255D01*
X149937747Y-90493390D01*
X149908333Y-90515475D01*
X149784194Y-90608682D01*
X149747008Y-90636602D01*
X149582220Y-90809042D01*
X149447808Y-91006082D01*
X149347384Y-91222428D01*
X149346189Y-91226738D01*
X149346188Y-91226740D01*
X149315585Y-91337091D01*
X149283642Y-91452272D01*
X149283168Y-91456706D01*
X149283167Y-91456712D01*
X149274788Y-91535122D01*
X149258296Y-91689440D01*
X142739214Y-91689440D01*
X142722594Y-91487284D01*
X142664488Y-91255952D01*
X142653100Y-91229760D01*
X142571162Y-91041317D01*
X142569379Y-91037216D01*
X142439822Y-90836951D01*
X142279296Y-90660536D01*
X142253091Y-90639840D01*
X142095617Y-90515475D01*
X142095616Y-90515475D01*
X142092112Y-90512707D01*
X141883298Y-90397436D01*
X141658461Y-90317817D01*
X141423639Y-90275988D01*
X141419176Y-90275933D01*
X141419171Y-90275933D01*
X141286621Y-90274314D01*
X141185138Y-90273074D01*
X141180715Y-90273751D01*
X141180713Y-90273751D01*
X141120550Y-90282958D01*
X140949365Y-90309153D01*
X140722649Y-90383255D01*
X140511081Y-90493390D01*
X140481667Y-90515475D01*
X140357528Y-90608682D01*
X140320342Y-90636602D01*
X140155554Y-90809042D01*
X140021142Y-91006082D01*
X139920718Y-91222428D01*
X139919523Y-91226738D01*
X139919522Y-91226740D01*
X139888919Y-91337091D01*
X139856976Y-91452272D01*
X139856502Y-91456706D01*
X139856501Y-91456712D01*
X139848122Y-91535122D01*
X139831630Y-91689440D01*
X133312548Y-91689440D01*
X133295928Y-91487284D01*
X133237822Y-91255952D01*
X133226434Y-91229760D01*
X133144496Y-91041317D01*
X133142713Y-91037216D01*
X133013156Y-90836951D01*
X132852630Y-90660536D01*
X132826425Y-90639840D01*
X132668951Y-90515475D01*
X132668950Y-90515475D01*
X132665446Y-90512707D01*
X132456632Y-90397436D01*
X132231795Y-90317817D01*
X131996973Y-90275988D01*
X131992510Y-90275933D01*
X131992505Y-90275933D01*
X131859955Y-90274314D01*
X131758472Y-90273074D01*
X131754049Y-90273751D01*
X131754047Y-90273751D01*
X131693884Y-90282958D01*
X131522699Y-90309153D01*
X131295983Y-90383255D01*
X131084415Y-90493390D01*
X131055001Y-90515475D01*
X130930862Y-90608682D01*
X130893676Y-90636602D01*
X130728888Y-90809042D01*
X130594476Y-91006082D01*
X130494052Y-91222428D01*
X130492857Y-91226738D01*
X130492856Y-91226740D01*
X130462253Y-91337091D01*
X130430310Y-91452272D01*
X130429836Y-91456706D01*
X130429835Y-91456712D01*
X130421456Y-91535122D01*
X130404964Y-91689440D01*
X123885882Y-91689440D01*
X123869262Y-91487284D01*
X123811156Y-91255952D01*
X123799768Y-91229760D01*
X123717830Y-91041317D01*
X123716047Y-91037216D01*
X123586490Y-90836951D01*
X123425964Y-90660536D01*
X123399759Y-90639840D01*
X123242285Y-90515475D01*
X123242284Y-90515475D01*
X123238780Y-90512707D01*
X123029966Y-90397436D01*
X122805129Y-90317817D01*
X122570307Y-90275988D01*
X122565844Y-90275933D01*
X122565839Y-90275933D01*
X122433289Y-90274314D01*
X122331806Y-90273074D01*
X122327383Y-90273751D01*
X122327381Y-90273751D01*
X122267218Y-90282958D01*
X122096033Y-90309153D01*
X121869317Y-90383255D01*
X121657749Y-90493390D01*
X121628335Y-90515475D01*
X121504196Y-90608682D01*
X121467010Y-90636602D01*
X121302222Y-90809042D01*
X121167810Y-91006082D01*
X121067386Y-91222428D01*
X121066191Y-91226738D01*
X121066190Y-91226740D01*
X121035587Y-91337091D01*
X121003644Y-91452272D01*
X121003170Y-91456706D01*
X121003169Y-91456712D01*
X120994790Y-91535122D01*
X120978298Y-91689440D01*
X114459216Y-91689440D01*
X114442596Y-91487284D01*
X114384490Y-91255952D01*
X114373102Y-91229760D01*
X114291164Y-91041317D01*
X114289381Y-91037216D01*
X114159824Y-90836951D01*
X113999298Y-90660536D01*
X113973093Y-90639840D01*
X113815619Y-90515475D01*
X113815618Y-90515475D01*
X113812114Y-90512707D01*
X113603300Y-90397436D01*
X113378463Y-90317817D01*
X113143641Y-90275988D01*
X113139178Y-90275933D01*
X113139173Y-90275933D01*
X113006623Y-90274314D01*
X112905140Y-90273074D01*
X112900717Y-90273751D01*
X112900715Y-90273751D01*
X112840552Y-90282958D01*
X112669367Y-90309153D01*
X112442651Y-90383255D01*
X112231083Y-90493390D01*
X112201669Y-90515475D01*
X112077530Y-90608682D01*
X112040344Y-90636602D01*
X111875556Y-90809042D01*
X111741144Y-91006082D01*
X111640720Y-91222428D01*
X111639525Y-91226738D01*
X111639524Y-91226740D01*
X111608921Y-91337091D01*
X111576978Y-91452272D01*
X111576504Y-91456706D01*
X111576503Y-91456712D01*
X111568124Y-91535122D01*
X111551632Y-91689440D01*
X105032550Y-91689440D01*
X105015930Y-91487284D01*
X104957824Y-91255952D01*
X104946436Y-91229760D01*
X104864498Y-91041317D01*
X104862715Y-91037216D01*
X104733158Y-90836951D01*
X104572632Y-90660536D01*
X104546427Y-90639840D01*
X104388953Y-90515475D01*
X104388952Y-90515475D01*
X104385448Y-90512707D01*
X104176634Y-90397436D01*
X103951797Y-90317817D01*
X103716975Y-90275988D01*
X103712512Y-90275933D01*
X103712507Y-90275933D01*
X103579957Y-90274314D01*
X103478474Y-90273074D01*
X103474051Y-90273751D01*
X103474049Y-90273751D01*
X103413886Y-90282958D01*
X103242701Y-90309153D01*
X103015985Y-90383255D01*
X102804417Y-90493390D01*
X102775003Y-90515475D01*
X102650864Y-90608682D01*
X102613678Y-90636602D01*
X102448890Y-90809042D01*
X102314478Y-91006082D01*
X102214054Y-91222428D01*
X102212859Y-91226738D01*
X102212858Y-91226740D01*
X102182255Y-91337091D01*
X102150312Y-91452272D01*
X102149838Y-91456706D01*
X102149837Y-91456712D01*
X102141458Y-91535122D01*
X102124966Y-91689440D01*
X90010500Y-91689440D01*
X90010500Y-87059500D01*
X90031317Y-86995431D01*
X90085817Y-86955835D01*
X90119500Y-86950500D01*
X90229748Y-86950500D01*
X90234989Y-86949457D01*
X90234994Y-86949457D01*
X90260019Y-86944479D01*
X90288231Y-86938867D01*
X90307786Y-86925801D01*
X90345625Y-86900517D01*
X90354552Y-86894552D01*
X90360518Y-86885623D01*
X90392903Y-86837157D01*
X90392903Y-86837156D01*
X90398867Y-86828231D01*
X90404479Y-86800019D01*
X90409457Y-86774994D01*
X90409457Y-86774989D01*
X90410500Y-86769748D01*
X90410500Y-85730252D01*
X90398867Y-85671769D01*
X90354552Y-85605448D01*
X90329356Y-85588612D01*
X90297157Y-85567097D01*
X90297156Y-85567097D01*
X90288231Y-85561133D01*
X90260019Y-85555521D01*
X90234994Y-85550543D01*
X90234989Y-85550543D01*
X90229748Y-85549500D01*
X89190252Y-85549500D01*
X89185011Y-85550543D01*
X89185006Y-85550543D01*
X89159981Y-85555521D01*
X89131769Y-85561133D01*
X89122844Y-85567097D01*
X89122843Y-85567097D01*
X89090644Y-85588612D01*
X89065448Y-85605448D01*
X89059483Y-85614375D01*
X89059482Y-85614376D01*
X89052738Y-85624469D01*
X88999835Y-85666175D01*
X88932521Y-85668820D01*
X88903703Y-85655944D01*
X88776006Y-85574905D01*
X88765115Y-85569594D01*
X88710266Y-85550063D01*
X88698285Y-85549728D01*
X88694000Y-85562315D01*
X88694000Y-86938850D01*
X88697875Y-86950777D01*
X88710419Y-86950777D01*
X88745990Y-86939219D01*
X88757024Y-86934214D01*
X88891087Y-86854297D01*
X88896709Y-86850029D01*
X88960326Y-86827871D01*
X89024818Y-86847338D01*
X89053245Y-86876290D01*
X89059481Y-86885623D01*
X89059483Y-86885625D01*
X89065448Y-86894552D01*
X89074375Y-86900517D01*
X89112215Y-86925801D01*
X89131769Y-86938867D01*
X89159981Y-86944479D01*
X89185006Y-86949457D01*
X89185011Y-86949457D01*
X89190252Y-86950500D01*
X89300500Y-86950500D01*
X89364569Y-86971317D01*
X89404165Y-87025817D01*
X89409500Y-87059500D01*
X89409500Y-92609044D01*
X89388683Y-92673113D01*
X89334183Y-92712709D01*
X89266817Y-92712709D01*
X89251422Y-92705126D01*
X89251355Y-92705278D01*
X89242150Y-92701199D01*
X89233854Y-92695508D01*
X89208653Y-92689528D01*
X89193435Y-92684715D01*
X89169378Y-92675117D01*
X89163085Y-92674500D01*
X89158087Y-92674500D01*
X89137922Y-92672140D01*
X89134726Y-92671984D01*
X89124934Y-92669660D01*
X89114962Y-92671017D01*
X89114961Y-92671017D01*
X89096689Y-92673504D01*
X89081990Y-92674500D01*
X85269621Y-92674500D01*
X85205552Y-92653683D01*
X85192546Y-92642575D01*
X84395851Y-91845880D01*
X84365027Y-91784258D01*
X84347940Y-91664947D01*
X84346839Y-91657259D01*
X84293428Y-91539788D01*
X84288365Y-91533912D01*
X84288363Y-91533909D01*
X84214261Y-91447909D01*
X84214258Y-91447907D01*
X84209193Y-91442028D01*
X84100906Y-91371841D01*
X84093468Y-91369617D01*
X84093467Y-91369616D01*
X83984713Y-91337091D01*
X83984712Y-91337091D01*
X83977273Y-91334866D01*
X83913159Y-91334474D01*
X83855998Y-91334125D01*
X83855995Y-91334125D01*
X83848231Y-91334078D01*
X83840764Y-91336212D01*
X83731620Y-91367405D01*
X83731617Y-91367406D01*
X83724155Y-91369539D01*
X83615019Y-91438399D01*
X83529596Y-91535122D01*
X83474754Y-91651932D01*
X83473560Y-91659603D01*
X83473559Y-91659605D01*
X83458262Y-91757853D01*
X83427836Y-91817956D01*
X83367893Y-91848696D01*
X83301329Y-91838332D01*
X83273485Y-91818158D01*
X79263577Y-87808251D01*
X79257153Y-87801240D01*
X79253334Y-87796689D01*
X79232455Y-87771806D01*
X79199169Y-87752589D01*
X79191158Y-87747485D01*
X79167494Y-87730915D01*
X79167495Y-87730915D01*
X79159684Y-87725446D01*
X79150474Y-87722978D01*
X79145979Y-87720882D01*
X79141304Y-87719181D01*
X79133045Y-87714412D01*
X79095211Y-87707741D01*
X79085944Y-87705687D01*
X79048807Y-87695736D01*
X79039307Y-87696567D01*
X79039305Y-87696567D01*
X79010529Y-87699085D01*
X79001029Y-87699500D01*
X76608384Y-87699500D01*
X76549099Y-87681967D01*
X76447423Y-87616065D01*
X76440906Y-87611841D01*
X76433468Y-87609617D01*
X76433467Y-87609616D01*
X76324713Y-87577091D01*
X76324712Y-87577091D01*
X76317273Y-87574866D01*
X76253159Y-87574474D01*
X76195998Y-87574125D01*
X76195995Y-87574125D01*
X76188231Y-87574078D01*
X76180764Y-87576212D01*
X76071620Y-87607405D01*
X76071617Y-87607406D01*
X76064155Y-87609539D01*
X75955019Y-87678399D01*
X75869596Y-87775122D01*
X75814754Y-87891932D01*
X75794901Y-88019440D01*
X75811633Y-88147394D01*
X75863605Y-88265510D01*
X75868598Y-88271450D01*
X75868600Y-88271453D01*
X75928534Y-88342753D01*
X75946639Y-88364291D01*
X75953102Y-88368593D01*
X76047601Y-88431497D01*
X76047603Y-88431498D01*
X76054060Y-88435796D01*
X76061462Y-88438109D01*
X76061465Y-88438110D01*
X76168277Y-88471480D01*
X76177233Y-88474278D01*
X76243672Y-88475496D01*
X76298494Y-88476501D01*
X76298496Y-88476501D01*
X76306255Y-88476643D01*
X76430755Y-88442700D01*
X76442000Y-88435796D01*
X76466521Y-88420740D01*
X76540724Y-88375179D01*
X76541359Y-88374477D01*
X76601042Y-88350727D01*
X76608076Y-88350500D01*
X78840024Y-88350500D01*
X78904093Y-88371317D01*
X78917099Y-88382425D01*
X81171275Y-90636602D01*
X83420324Y-92885651D01*
X83451328Y-92948592D01*
X83461633Y-93027394D01*
X83513605Y-93145510D01*
X83518598Y-93151450D01*
X83518600Y-93151453D01*
X83590723Y-93237253D01*
X83596639Y-93244291D01*
X83623724Y-93262320D01*
X83683620Y-93302190D01*
X83725418Y-93355020D01*
X83728180Y-93422329D01*
X83690852Y-93478407D01*
X83651435Y-93498211D01*
X83640377Y-93501174D01*
X83631100Y-93503230D01*
X83593266Y-93509901D01*
X83585007Y-93514670D01*
X83580332Y-93516371D01*
X83575837Y-93518467D01*
X83566627Y-93520935D01*
X83558816Y-93526404D01*
X83558817Y-93526404D01*
X83535153Y-93542974D01*
X83527142Y-93548078D01*
X83493856Y-93567295D01*
X83487726Y-93574600D01*
X83487724Y-93574602D01*
X83469155Y-93596731D01*
X83462732Y-93603742D01*
X79383731Y-97682743D01*
X79376720Y-97689167D01*
X79347286Y-97713865D01*
X79328069Y-97747151D01*
X79322966Y-97755161D01*
X79300926Y-97786636D01*
X79298458Y-97795846D01*
X79296362Y-97800341D01*
X79294661Y-97805016D01*
X79289892Y-97813275D01*
X79288236Y-97822667D01*
X79283221Y-97851110D01*
X79281167Y-97860376D01*
X79271216Y-97897513D01*
X79272047Y-97907012D01*
X79272047Y-97907013D01*
X79274565Y-97935791D01*
X79274980Y-97945291D01*
X79274980Y-98906534D01*
X79254163Y-98970603D01*
X79199663Y-99010199D01*
X79132297Y-99010199D01*
X79106695Y-98998001D01*
X79057423Y-98966065D01*
X79050906Y-98961841D01*
X79043468Y-98959617D01*
X79043467Y-98959616D01*
X78934713Y-98927091D01*
X78934712Y-98927091D01*
X78927273Y-98924866D01*
X78863159Y-98924474D01*
X78805998Y-98924125D01*
X78805995Y-98924125D01*
X78798231Y-98924078D01*
X78790764Y-98926212D01*
X78681620Y-98957405D01*
X78681617Y-98957406D01*
X78674155Y-98959539D01*
X78565019Y-99028399D01*
X78564107Y-99026953D01*
X78510181Y-99049179D01*
X78501820Y-99049500D01*
X67798384Y-99049500D01*
X67739099Y-99031967D01*
X67637423Y-98966065D01*
X67630906Y-98961841D01*
X67623468Y-98959617D01*
X67623467Y-98959616D01*
X67514713Y-98927091D01*
X67514712Y-98927091D01*
X67507273Y-98924866D01*
X67443159Y-98924474D01*
X67385998Y-98924125D01*
X67385995Y-98924125D01*
X67378231Y-98924078D01*
X67370764Y-98926212D01*
X67261620Y-98957405D01*
X67261617Y-98957406D01*
X67254155Y-98959539D01*
X67247588Y-98963683D01*
X67247587Y-98963683D01*
X67181686Y-99005264D01*
X67145019Y-99028399D01*
X67059596Y-99125122D01*
X67004754Y-99241932D01*
X67003559Y-99249605D01*
X67003559Y-99249606D01*
X66993361Y-99315106D01*
X66984901Y-99369440D01*
X67001633Y-99497394D01*
X67053605Y-99615510D01*
X67058598Y-99621450D01*
X67058600Y-99621453D01*
X67125046Y-99700500D01*
X67136639Y-99714291D01*
X67143102Y-99718593D01*
X67237601Y-99781497D01*
X67237603Y-99781498D01*
X67244060Y-99785796D01*
X67251462Y-99788109D01*
X67251465Y-99788110D01*
X67359823Y-99821963D01*
X67367233Y-99824278D01*
X67433672Y-99825496D01*
X67488494Y-99826501D01*
X67488496Y-99826501D01*
X67496255Y-99826643D01*
X67620755Y-99792700D01*
X67631412Y-99786157D01*
X67668434Y-99763425D01*
X67730724Y-99725179D01*
X67731359Y-99724477D01*
X67791042Y-99700727D01*
X67798076Y-99700500D01*
X78502960Y-99700500D01*
X78563359Y-99718764D01*
X78657601Y-99781497D01*
X78657603Y-99781498D01*
X78664060Y-99785796D01*
X78671462Y-99788109D01*
X78671465Y-99788110D01*
X78779823Y-99821963D01*
X78787233Y-99824278D01*
X78874381Y-99825875D01*
X78889193Y-99826147D01*
X78952869Y-99848135D01*
X78991460Y-99903352D01*
X78990225Y-99970706D01*
X78964270Y-100012204D01*
X70708595Y-108267879D01*
X70648571Y-108298462D01*
X70582035Y-108287924D01*
X70534400Y-108240289D01*
X70527731Y-108223488D01*
X70526839Y-108217259D01*
X70473428Y-108099788D01*
X70441925Y-108063227D01*
X70415874Y-108001102D01*
X70415500Y-107992076D01*
X70415500Y-103214976D01*
X70436317Y-103150907D01*
X70447425Y-103137901D01*
X71196784Y-102388543D01*
X71256808Y-102357960D01*
X71260812Y-102357680D01*
X71260785Y-102357461D01*
X71268493Y-102356501D01*
X71276255Y-102356643D01*
X71400755Y-102322700D01*
X71510724Y-102255179D01*
X71597322Y-102159507D01*
X71653588Y-102043375D01*
X71671798Y-101935135D01*
X71674298Y-101920278D01*
X71674299Y-101920271D01*
X71674997Y-101916120D01*
X71675133Y-101905000D01*
X71656839Y-101777259D01*
X71603428Y-101659788D01*
X71598365Y-101653912D01*
X71598363Y-101653909D01*
X71524261Y-101567909D01*
X71524258Y-101567907D01*
X71519193Y-101562028D01*
X71410906Y-101491841D01*
X71403468Y-101489617D01*
X71403467Y-101489616D01*
X71294713Y-101457091D01*
X71294712Y-101457091D01*
X71287273Y-101454866D01*
X71223159Y-101454474D01*
X71165998Y-101454125D01*
X71165995Y-101454125D01*
X71158231Y-101454078D01*
X71150764Y-101456212D01*
X71041620Y-101487405D01*
X71041617Y-101487406D01*
X71034155Y-101489539D01*
X70925019Y-101558399D01*
X70839596Y-101655122D01*
X70784754Y-101771932D01*
X70783559Y-101779605D01*
X70783559Y-101779606D01*
X70770313Y-101864681D01*
X70739686Y-101924987D01*
X69873251Y-102791423D01*
X69866240Y-102797847D01*
X69836806Y-102822545D01*
X69817589Y-102855831D01*
X69812486Y-102863841D01*
X69790446Y-102895316D01*
X69787978Y-102904526D01*
X69785882Y-102909021D01*
X69784181Y-102913696D01*
X69779412Y-102921955D01*
X69777756Y-102931347D01*
X69772741Y-102959790D01*
X69770687Y-102969056D01*
X69760736Y-103006193D01*
X69761567Y-103015692D01*
X69761567Y-103015693D01*
X69764085Y-103044471D01*
X69764500Y-103053971D01*
X69764500Y-107991714D01*
X69743683Y-108055783D01*
X69737212Y-108063853D01*
X69709596Y-108095122D01*
X69654754Y-108211932D01*
X69634901Y-108339440D01*
X69651633Y-108467394D01*
X69703605Y-108585510D01*
X69708600Y-108591453D01*
X69708603Y-108591457D01*
X69758119Y-108650363D01*
X69783410Y-108712801D01*
X69767170Y-108778180D01*
X69715603Y-108821527D01*
X69674682Y-108829500D01*
X68798384Y-108829500D01*
X68739099Y-108811967D01*
X68637423Y-108746065D01*
X68630906Y-108741841D01*
X68623468Y-108739617D01*
X68623467Y-108739616D01*
X68514713Y-108707091D01*
X68514712Y-108707091D01*
X68507273Y-108704866D01*
X68443159Y-108704474D01*
X68385998Y-108704125D01*
X68385995Y-108704125D01*
X68378231Y-108704078D01*
X68370764Y-108706212D01*
X68261620Y-108737405D01*
X68261617Y-108737406D01*
X68254155Y-108739539D01*
X68247588Y-108743683D01*
X68247587Y-108743683D01*
X68191758Y-108778909D01*
X68145019Y-108808399D01*
X68059596Y-108905122D01*
X68004754Y-109021932D01*
X68003559Y-109029605D01*
X68003559Y-109029606D01*
X68002663Y-109035363D01*
X67984901Y-109149440D01*
X68001633Y-109277394D01*
X68053605Y-109395510D01*
X68058600Y-109401452D01*
X68058603Y-109401457D01*
X68088937Y-109437543D01*
X68114228Y-109499981D01*
X68114500Y-109507680D01*
X68114500Y-109789306D01*
X68093683Y-109853375D01*
X68082575Y-109866381D01*
X66179381Y-111769575D01*
X66119357Y-111800158D01*
X66102306Y-111801500D01*
X65446729Y-111801500D01*
X65382660Y-111780683D01*
X65343064Y-111726183D01*
X65339824Y-111713766D01*
X65333964Y-111684305D01*
X65333962Y-111684299D01*
X65331867Y-111673769D01*
X65327375Y-111667046D01*
X65322219Y-111601558D01*
X65326574Y-111588152D01*
X65331867Y-111580231D01*
X65343500Y-111521748D01*
X65343500Y-110732252D01*
X65342456Y-110726999D01*
X65333962Y-110684300D01*
X65333962Y-110684299D01*
X65331867Y-110673769D01*
X65327375Y-110667046D01*
X65322219Y-110601558D01*
X65326574Y-110588152D01*
X65331867Y-110580231D01*
X65343500Y-110521748D01*
X65343500Y-109732252D01*
X65341846Y-109723932D01*
X65333962Y-109684300D01*
X65333962Y-109684299D01*
X65331867Y-109673769D01*
X65327375Y-109667046D01*
X65322219Y-109601558D01*
X65326574Y-109588152D01*
X65331867Y-109580231D01*
X65333962Y-109569700D01*
X65342457Y-109526994D01*
X65342457Y-109526989D01*
X65343500Y-109521748D01*
X65343500Y-108732252D01*
X65341513Y-108722259D01*
X65333962Y-108684300D01*
X65333962Y-108684299D01*
X65331867Y-108673769D01*
X65327375Y-108667046D01*
X65322219Y-108601558D01*
X65326574Y-108588152D01*
X65331867Y-108580231D01*
X65337302Y-108552909D01*
X65342457Y-108526994D01*
X65342457Y-108526989D01*
X65343500Y-108521748D01*
X65343500Y-107732252D01*
X65331867Y-107673769D01*
X65287552Y-107607448D01*
X65221231Y-107563133D01*
X65193019Y-107557521D01*
X65167994Y-107552543D01*
X65167989Y-107552543D01*
X65162748Y-107551500D01*
X62837252Y-107551500D01*
X62832011Y-107552543D01*
X62832006Y-107552543D01*
X62806981Y-107557521D01*
X62778769Y-107563133D01*
X62712448Y-107607448D01*
X62668133Y-107673769D01*
X62656500Y-107732252D01*
X62656500Y-108521748D01*
X62657543Y-108526989D01*
X62657543Y-108526994D01*
X62662698Y-108552909D01*
X62668133Y-108580231D01*
X62672625Y-108586954D01*
X62677781Y-108652442D01*
X62673426Y-108665848D01*
X62668133Y-108673769D01*
X62666038Y-108684299D01*
X62666038Y-108684300D01*
X62658488Y-108722259D01*
X62656500Y-108732252D01*
X62656500Y-109521748D01*
X62657543Y-109526992D01*
X62657544Y-109527001D01*
X62661370Y-109546234D01*
X62653453Y-109613133D01*
X62607726Y-109662602D01*
X62554465Y-109676500D01*
X61521219Y-109676500D01*
X61508408Y-109675745D01*
X61481777Y-109672593D01*
X61481776Y-109672593D01*
X61473690Y-109671636D01*
X61465679Y-109673099D01*
X61415718Y-109682223D01*
X61412342Y-109682785D01*
X61362092Y-109690340D01*
X61362091Y-109690340D01*
X61354038Y-109691551D01*
X61347528Y-109694677D01*
X61340427Y-109695974D01*
X61333199Y-109699729D01*
X61333192Y-109699731D01*
X61288110Y-109723149D01*
X61285063Y-109724672D01*
X61231921Y-109750191D01*
X61227168Y-109754585D01*
X61225731Y-109755554D01*
X61220212Y-109758420D01*
X61215172Y-109762725D01*
X61177677Y-109800220D01*
X61174591Y-109803186D01*
X61138429Y-109836613D01*
X61138427Y-109836615D01*
X61132444Y-109842146D01*
X61128857Y-109848321D01*
X61122688Y-109855209D01*
X60364933Y-110612964D01*
X60355341Y-110621487D01*
X60327890Y-110643128D01*
X60323258Y-110649830D01*
X60294395Y-110691592D01*
X60292410Y-110694370D01*
X60257366Y-110741816D01*
X60254973Y-110748632D01*
X60250869Y-110754569D01*
X60248412Y-110762339D01*
X60233103Y-110810744D01*
X60232023Y-110813982D01*
X60212481Y-110869631D01*
X60212228Y-110876093D01*
X60211893Y-110877808D01*
X60210020Y-110883730D01*
X60209500Y-110890337D01*
X60209500Y-110943352D01*
X60209416Y-110947631D01*
X60207162Y-111004994D01*
X60208992Y-111011895D01*
X60209500Y-111021134D01*
X60209500Y-117671781D01*
X60208745Y-117684592D01*
X60204636Y-117719310D01*
X60215224Y-117777283D01*
X60215778Y-117780619D01*
X60223338Y-117830898D01*
X60223339Y-117830902D01*
X60224551Y-117838962D01*
X60227679Y-117845475D01*
X60228975Y-117852573D01*
X60232732Y-117859806D01*
X60232734Y-117859811D01*
X60256124Y-117904839D01*
X60257654Y-117907900D01*
X60279664Y-117953736D01*
X60279667Y-117953741D01*
X60283191Y-117961079D01*
X60287585Y-117965832D01*
X60288558Y-117967277D01*
X60291421Y-117972788D01*
X60295725Y-117977828D01*
X60333220Y-118015323D01*
X60336186Y-118018409D01*
X60369613Y-118054571D01*
X60369615Y-118054573D01*
X60375146Y-118060556D01*
X60381321Y-118064143D01*
X60388209Y-118070312D01*
X61417964Y-119100067D01*
X61426487Y-119109659D01*
X61448128Y-119137110D01*
X61496642Y-119170641D01*
X61499372Y-119172591D01*
X61508035Y-119178990D01*
X61540264Y-119202795D01*
X61540269Y-119202797D01*
X61546817Y-119207634D01*
X61553631Y-119210027D01*
X61559569Y-119214131D01*
X61567338Y-119216588D01*
X61573517Y-119219615D01*
X61621894Y-119266495D01*
X61633477Y-119332858D01*
X61603840Y-119393354D01*
X61544305Y-119424877D01*
X61525564Y-119426500D01*
X60637252Y-119426500D01*
X60632011Y-119427543D01*
X60632006Y-119427543D01*
X60606981Y-119432521D01*
X60578769Y-119438133D01*
X60569844Y-119444097D01*
X60569843Y-119444097D01*
X60521378Y-119476481D01*
X60512448Y-119482448D01*
X60468133Y-119548769D01*
X60456500Y-119607252D01*
X60456500Y-121146748D01*
X60468133Y-121205231D01*
X60512448Y-121271552D01*
X60521375Y-121277517D01*
X60557524Y-121301671D01*
X60578769Y-121315867D01*
X60606981Y-121321479D01*
X60632006Y-121326457D01*
X60632011Y-121326457D01*
X60637252Y-121327500D01*
X62962748Y-121327500D01*
X62967989Y-121326457D01*
X62967994Y-121326457D01*
X62993019Y-121321479D01*
X63021231Y-121315867D01*
X63042477Y-121301671D01*
X63078625Y-121277517D01*
X63087552Y-121271552D01*
X63131867Y-121205231D01*
X63143500Y-121146748D01*
X63143500Y-119607252D01*
X63131867Y-119548769D01*
X63087552Y-119482448D01*
X63078625Y-119476483D01*
X63078623Y-119476481D01*
X63046669Y-119455130D01*
X63004963Y-119402226D01*
X63002318Y-119334913D01*
X63039745Y-119278900D01*
X63107226Y-119255500D01*
X66326781Y-119255500D01*
X66339592Y-119256255D01*
X66366221Y-119259407D01*
X66366223Y-119259407D01*
X66374310Y-119260364D01*
X66432283Y-119249776D01*
X66435619Y-119249222D01*
X66485898Y-119241662D01*
X66485902Y-119241661D01*
X66493962Y-119240449D01*
X66500475Y-119237321D01*
X66507573Y-119236025D01*
X66514806Y-119232268D01*
X66514811Y-119232266D01*
X66559839Y-119208876D01*
X66562900Y-119207346D01*
X66608736Y-119185336D01*
X66608741Y-119185333D01*
X66616079Y-119181809D01*
X66620832Y-119177415D01*
X66622277Y-119176442D01*
X66627788Y-119173579D01*
X66632828Y-119169275D01*
X66670323Y-119131780D01*
X66673409Y-119128814D01*
X66709571Y-119095387D01*
X66709573Y-119095385D01*
X66715556Y-119089854D01*
X66719143Y-119083679D01*
X66725312Y-119076791D01*
X67573209Y-118228894D01*
X67580655Y-118222108D01*
X67584106Y-118219242D01*
X67589699Y-118215808D01*
X67649491Y-118192011D01*
X67714770Y-118208647D01*
X67757804Y-118260476D01*
X67765529Y-118301248D01*
X67750792Y-121757265D01*
X67729702Y-121821244D01*
X67675034Y-121860608D01*
X67641741Y-121865800D01*
X57654138Y-121861050D01*
X55775618Y-121860157D01*
X55711559Y-121839309D01*
X55671989Y-121784791D01*
X55666670Y-121751157D01*
X55666670Y-105696748D01*
X60456500Y-105696748D01*
X60468133Y-105755231D01*
X60512448Y-105821552D01*
X60578769Y-105865867D01*
X60606981Y-105871479D01*
X60632006Y-105876457D01*
X60632011Y-105876457D01*
X60637252Y-105877500D01*
X62962748Y-105877500D01*
X62967989Y-105876457D01*
X62967994Y-105876457D01*
X62993019Y-105871479D01*
X63021231Y-105865867D01*
X63087552Y-105821552D01*
X63131867Y-105755231D01*
X63143500Y-105696748D01*
X63143500Y-104157252D01*
X63142270Y-104151065D01*
X63134065Y-104109819D01*
X63131867Y-104098769D01*
X63087552Y-104032448D01*
X63021231Y-103988133D01*
X62993019Y-103982521D01*
X62967994Y-103977543D01*
X62967989Y-103977543D01*
X62962748Y-103976500D01*
X60637252Y-103976500D01*
X60632011Y-103977543D01*
X60632006Y-103977543D01*
X60606981Y-103982521D01*
X60578769Y-103988133D01*
X60512448Y-104032448D01*
X60468133Y-104098769D01*
X60465935Y-104109819D01*
X60457731Y-104151065D01*
X60456500Y-104157252D01*
X60456500Y-105696748D01*
X55666670Y-105696748D01*
X55666670Y-100137585D01*
X58179800Y-100137585D01*
X58179801Y-101445414D01*
X58180041Y-101447949D01*
X58180041Y-101447959D01*
X58180694Y-101454866D01*
X58182781Y-101476950D01*
X58227656Y-101604736D01*
X58308122Y-101713678D01*
X58314679Y-101718521D01*
X58404614Y-101784948D01*
X58417064Y-101794144D01*
X58424751Y-101796843D01*
X58424750Y-101796843D01*
X58538580Y-101836817D01*
X58544850Y-101839019D01*
X58563144Y-101840748D01*
X58573821Y-101841758D01*
X58573829Y-101841758D01*
X58576385Y-101842000D01*
X58578957Y-101842000D01*
X59307004Y-101841999D01*
X60034214Y-101841999D01*
X60036749Y-101841759D01*
X60036759Y-101841759D01*
X60055808Y-101839958D01*
X60065750Y-101839019D01*
X60193536Y-101794144D01*
X60205987Y-101784948D01*
X60295921Y-101718521D01*
X60302478Y-101713678D01*
X60382944Y-101604736D01*
X60423398Y-101489539D01*
X60425618Y-101483218D01*
X60425618Y-101483217D01*
X60427819Y-101476950D01*
X60430800Y-101445415D01*
X60430799Y-100137586D01*
X60430078Y-100129948D01*
X60428444Y-100112665D01*
X60427819Y-100106050D01*
X60382944Y-99978264D01*
X60356042Y-99941841D01*
X60307321Y-99875879D01*
X60302478Y-99869322D01*
X60255386Y-99834539D01*
X60200089Y-99793696D01*
X60200088Y-99793696D01*
X60193536Y-99788856D01*
X60121119Y-99763425D01*
X60072018Y-99746182D01*
X60072017Y-99746182D01*
X60065750Y-99743981D01*
X60047456Y-99742252D01*
X60036779Y-99741242D01*
X60036771Y-99741242D01*
X60034215Y-99741000D01*
X60031643Y-99741000D01*
X59303596Y-99741001D01*
X58576386Y-99741001D01*
X58573851Y-99741241D01*
X58573841Y-99741241D01*
X58554792Y-99743042D01*
X58544850Y-99743981D01*
X58417064Y-99788856D01*
X58410512Y-99793696D01*
X58410511Y-99793696D01*
X58355214Y-99834539D01*
X58308122Y-99869322D01*
X58303279Y-99875879D01*
X58254559Y-99941841D01*
X58227656Y-99978264D01*
X58217282Y-100007804D01*
X58184983Y-100099781D01*
X58182781Y-100106050D01*
X58179800Y-100137585D01*
X55666670Y-100137585D01*
X55666670Y-98560181D01*
X58163549Y-98560181D01*
X58184283Y-98646214D01*
X58187644Y-98655974D01*
X58270227Y-98837606D01*
X58275379Y-98846564D01*
X58390812Y-99009296D01*
X58397568Y-99017123D01*
X58541696Y-99155095D01*
X58549800Y-99161495D01*
X58717420Y-99269726D01*
X58726585Y-99274478D01*
X58911651Y-99349061D01*
X58921555Y-99351995D01*
X59034356Y-99374023D01*
X59048933Y-99372246D01*
X59049046Y-99372141D01*
X59051300Y-99363441D01*
X59051300Y-99362164D01*
X59559300Y-99362164D01*
X59563838Y-99376129D01*
X59566283Y-99377905D01*
X59570442Y-99378363D01*
X59584090Y-99377060D01*
X59594226Y-99375109D01*
X59785685Y-99318941D01*
X59795275Y-99315106D01*
X59972654Y-99223749D01*
X59981349Y-99218167D01*
X60138254Y-99094916D01*
X60145729Y-99087799D01*
X60276504Y-98937094D01*
X60282497Y-98928691D01*
X60382413Y-98755982D01*
X60386712Y-98746591D01*
X60451878Y-98558931D01*
X60450019Y-98548111D01*
X60448877Y-98546999D01*
X60442447Y-98545500D01*
X59576562Y-98545500D01*
X59562597Y-98550038D01*
X59559300Y-98554576D01*
X59559300Y-99362164D01*
X59051300Y-99362164D01*
X59051300Y-98562762D01*
X59046762Y-98548797D01*
X59042224Y-98545500D01*
X58177273Y-98545500D01*
X58163952Y-98549828D01*
X58163549Y-98560181D01*
X55666670Y-98560181D01*
X55666670Y-98024069D01*
X58158722Y-98024069D01*
X58160581Y-98034889D01*
X58161723Y-98036001D01*
X58168153Y-98037500D01*
X59034038Y-98037500D01*
X59048003Y-98032962D01*
X59051300Y-98028424D01*
X59051300Y-98020238D01*
X59559300Y-98020238D01*
X59563838Y-98034203D01*
X59568376Y-98037500D01*
X60433327Y-98037500D01*
X60446648Y-98033172D01*
X60447051Y-98022819D01*
X60426317Y-97936786D01*
X60422956Y-97927026D01*
X60340373Y-97745394D01*
X60335221Y-97736436D01*
X60219788Y-97573704D01*
X60213032Y-97565877D01*
X60068904Y-97427905D01*
X60060800Y-97421505D01*
X59893180Y-97313274D01*
X59884015Y-97308522D01*
X59698949Y-97233939D01*
X59689045Y-97231005D01*
X59576244Y-97208977D01*
X59561667Y-97210754D01*
X59561554Y-97210859D01*
X59559300Y-97219559D01*
X59559300Y-98020238D01*
X59051300Y-98020238D01*
X59051300Y-97220836D01*
X59046762Y-97206871D01*
X59044317Y-97205095D01*
X59040158Y-97204637D01*
X59026510Y-97205940D01*
X59016374Y-97207891D01*
X58824915Y-97264059D01*
X58815325Y-97267894D01*
X58637946Y-97359251D01*
X58629251Y-97364833D01*
X58472346Y-97488084D01*
X58464871Y-97495201D01*
X58334096Y-97645906D01*
X58328103Y-97654309D01*
X58228187Y-97827018D01*
X58223888Y-97836409D01*
X58158722Y-98024069D01*
X55666670Y-98024069D01*
X55666670Y-92196037D01*
X58200824Y-92196037D01*
X58200825Y-93172362D01*
X58203615Y-93207827D01*
X58205170Y-93213179D01*
X58236989Y-93322700D01*
X58247706Y-93359590D01*
X58251197Y-93365493D01*
X58323467Y-93487694D01*
X58328154Y-93495620D01*
X58439904Y-93607370D01*
X58575934Y-93687818D01*
X58582519Y-93689731D01*
X58582521Y-93689732D01*
X58640844Y-93706676D01*
X58727697Y-93731909D01*
X58733241Y-93732345D01*
X58733245Y-93732346D01*
X58757462Y-93734251D01*
X58763161Y-93734700D01*
X59325929Y-93734700D01*
X59889486Y-93734699D01*
X59891617Y-93734531D01*
X59891626Y-93734531D01*
X59913963Y-93732773D01*
X59924951Y-93731909D01*
X59966546Y-93719825D01*
X60070127Y-93689732D01*
X60070129Y-93689731D01*
X60076714Y-93687818D01*
X60212744Y-93607370D01*
X60324494Y-93495620D01*
X60329182Y-93487694D01*
X60401451Y-93365493D01*
X60404942Y-93359590D01*
X60415660Y-93322700D01*
X60429405Y-93275387D01*
X60449033Y-93207827D01*
X60449471Y-93202271D01*
X60451656Y-93174497D01*
X60451824Y-93172363D01*
X60451823Y-92196038D01*
X60449033Y-92160573D01*
X60436949Y-92118978D01*
X60406856Y-92015397D01*
X60406855Y-92015395D01*
X60404942Y-92008810D01*
X60324494Y-91872780D01*
X60212744Y-91761030D01*
X60099256Y-91693913D01*
X60082617Y-91684073D01*
X60076714Y-91680582D01*
X60070129Y-91678669D01*
X60070127Y-91678668D01*
X59996435Y-91657259D01*
X59924951Y-91636491D01*
X59919407Y-91636055D01*
X59919403Y-91636054D01*
X59891634Y-91633869D01*
X59889487Y-91633700D01*
X59326719Y-91633700D01*
X58763162Y-91633701D01*
X58761031Y-91633869D01*
X58761022Y-91633869D01*
X58738685Y-91635627D01*
X58727697Y-91636491D01*
X58722344Y-91638046D01*
X58722345Y-91638046D01*
X58582521Y-91678668D01*
X58582519Y-91678669D01*
X58575934Y-91680582D01*
X58570031Y-91684073D01*
X58553393Y-91693913D01*
X58439904Y-91761030D01*
X58328154Y-91872780D01*
X58247706Y-92008810D01*
X58245793Y-92015395D01*
X58245792Y-92015397D01*
X58228848Y-92073720D01*
X58203615Y-92160573D01*
X58203179Y-92166117D01*
X58203178Y-92166121D01*
X58201273Y-92190338D01*
X58200824Y-92196037D01*
X55666670Y-92196037D01*
X55666670Y-90412881D01*
X58184573Y-90412881D01*
X58205307Y-90498914D01*
X58208668Y-90508674D01*
X58291251Y-90690306D01*
X58296403Y-90699264D01*
X58411836Y-90861996D01*
X58418592Y-90869823D01*
X58562720Y-91007795D01*
X58570824Y-91014195D01*
X58738444Y-91122426D01*
X58747609Y-91127178D01*
X58932675Y-91201761D01*
X58942579Y-91204695D01*
X59055380Y-91226723D01*
X59069957Y-91224946D01*
X59070070Y-91224841D01*
X59072324Y-91216141D01*
X59072324Y-91214864D01*
X59580324Y-91214864D01*
X59584862Y-91228829D01*
X59587307Y-91230605D01*
X59591466Y-91231063D01*
X59605114Y-91229760D01*
X59615250Y-91227809D01*
X59806709Y-91171641D01*
X59816299Y-91167806D01*
X59993678Y-91076449D01*
X60002373Y-91070867D01*
X60159278Y-90947616D01*
X60166753Y-90940499D01*
X60297528Y-90789794D01*
X60303521Y-90781391D01*
X60403437Y-90608682D01*
X60407736Y-90599291D01*
X60472902Y-90411631D01*
X60471043Y-90400811D01*
X60469901Y-90399699D01*
X60463471Y-90398200D01*
X59597586Y-90398200D01*
X59583621Y-90402738D01*
X59580324Y-90407276D01*
X59580324Y-91214864D01*
X59072324Y-91214864D01*
X59072324Y-90415462D01*
X59067786Y-90401497D01*
X59063248Y-90398200D01*
X58198297Y-90398200D01*
X58184976Y-90402528D01*
X58184573Y-90412881D01*
X55666670Y-90412881D01*
X55666670Y-89876769D01*
X58179746Y-89876769D01*
X58181605Y-89887589D01*
X58182747Y-89888701D01*
X58189177Y-89890200D01*
X59055062Y-89890200D01*
X59069027Y-89885662D01*
X59072324Y-89881124D01*
X59072324Y-89872938D01*
X59580324Y-89872938D01*
X59584862Y-89886903D01*
X59589400Y-89890200D01*
X60454351Y-89890200D01*
X60467672Y-89885872D01*
X60468075Y-89875519D01*
X60447341Y-89789486D01*
X60443980Y-89779726D01*
X60361397Y-89598094D01*
X60356245Y-89589136D01*
X60240812Y-89426404D01*
X60234056Y-89418577D01*
X60089928Y-89280605D01*
X60081824Y-89274205D01*
X59914204Y-89165974D01*
X59905039Y-89161222D01*
X59719973Y-89086639D01*
X59710069Y-89083705D01*
X59597268Y-89061677D01*
X59582691Y-89063454D01*
X59582578Y-89063559D01*
X59580324Y-89072259D01*
X59580324Y-89872938D01*
X59072324Y-89872938D01*
X59072324Y-89073536D01*
X59067786Y-89059571D01*
X59065341Y-89057795D01*
X59061182Y-89057337D01*
X59047534Y-89058640D01*
X59037398Y-89060591D01*
X58845939Y-89116759D01*
X58836349Y-89120594D01*
X58658970Y-89211951D01*
X58650275Y-89217533D01*
X58493370Y-89340784D01*
X58485895Y-89347901D01*
X58355120Y-89498606D01*
X58349127Y-89507009D01*
X58249211Y-89679718D01*
X58244912Y-89689109D01*
X58179746Y-89876769D01*
X55666670Y-89876769D01*
X55666670Y-87596831D01*
X58195767Y-87596831D01*
X58214438Y-87801997D01*
X58272604Y-87999628D01*
X58275073Y-88004351D01*
X58275074Y-88004353D01*
X58365382Y-88177094D01*
X58368050Y-88182198D01*
X58497139Y-88342753D01*
X58654954Y-88475176D01*
X58835486Y-88574424D01*
X58840568Y-88576036D01*
X58840570Y-88576037D01*
X58853489Y-88580135D01*
X59031856Y-88636716D01*
X59192188Y-88654700D01*
X59453165Y-88654700D01*
X59550104Y-88645195D01*
X59601052Y-88640200D01*
X59601053Y-88640200D01*
X59606354Y-88639680D01*
X59611448Y-88638142D01*
X59611453Y-88638141D01*
X59798474Y-88581675D01*
X59798473Y-88581675D01*
X59803575Y-88580135D01*
X59811283Y-88576037D01*
X59871651Y-88543939D01*
X59985475Y-88483418D01*
X59996682Y-88474278D01*
X60140994Y-88356580D01*
X60140998Y-88356576D01*
X60145124Y-88353211D01*
X60276442Y-88194475D01*
X60374427Y-88013255D01*
X60380229Y-87994511D01*
X60433771Y-87821546D01*
X60433771Y-87821544D01*
X60435347Y-87816454D01*
X60436867Y-87801997D01*
X60449245Y-87684218D01*
X60456881Y-87611569D01*
X60438210Y-87406403D01*
X60380044Y-87208772D01*
X60377574Y-87204047D01*
X60287065Y-87030920D01*
X60287063Y-87030916D01*
X60284598Y-87026202D01*
X60155509Y-86865647D01*
X60093477Y-86813596D01*
X60001777Y-86736650D01*
X59997694Y-86733224D01*
X59849013Y-86651486D01*
X59821839Y-86636547D01*
X59821837Y-86636546D01*
X59817162Y-86633976D01*
X59812080Y-86632364D01*
X59812078Y-86632363D01*
X59738560Y-86609042D01*
X59620792Y-86571684D01*
X59460460Y-86553700D01*
X59199483Y-86553700D01*
X59102544Y-86563205D01*
X59051596Y-86568200D01*
X59051595Y-86568200D01*
X59046294Y-86568720D01*
X59041200Y-86570258D01*
X59041195Y-86570259D01*
X58912742Y-86609042D01*
X58849073Y-86628265D01*
X58844367Y-86630767D01*
X58844365Y-86630768D01*
X58825684Y-86640701D01*
X58667173Y-86724982D01*
X58663039Y-86728354D01*
X58663037Y-86728355D01*
X58511654Y-86851820D01*
X58511650Y-86851824D01*
X58507524Y-86855189D01*
X58376206Y-87013925D01*
X58278221Y-87195145D01*
X58276645Y-87200235D01*
X58276645Y-87200236D01*
X58251044Y-87282941D01*
X58217301Y-87391946D01*
X58216744Y-87397244D01*
X58216744Y-87397245D01*
X58215224Y-87411711D01*
X58195767Y-87596831D01*
X55666670Y-87596831D01*
X55666670Y-81981662D01*
X58266120Y-81981662D01*
X58283359Y-82186953D01*
X58284826Y-82192067D01*
X58284826Y-82192070D01*
X58294263Y-82224979D01*
X58340144Y-82384986D01*
X58434312Y-82568218D01*
X58562277Y-82729670D01*
X58566333Y-82733122D01*
X58566336Y-82733125D01*
X58602745Y-82764111D01*
X58719164Y-82863191D01*
X58898998Y-82963697D01*
X58904066Y-82965344D01*
X58904069Y-82965345D01*
X59089860Y-83025712D01*
X59094929Y-83027359D01*
X59100221Y-83027990D01*
X59294200Y-83051120D01*
X59294203Y-83051120D01*
X59299494Y-83051751D01*
X59385819Y-83045109D01*
X59499588Y-83036355D01*
X59499591Y-83036355D01*
X59504900Y-83035946D01*
X59703325Y-82980545D01*
X59736678Y-82963697D01*
X59882458Y-82890059D01*
X59882463Y-82890056D01*
X59887210Y-82887658D01*
X60049551Y-82760824D01*
X60184164Y-82604872D01*
X60202615Y-82572392D01*
X60283288Y-82430383D01*
X60283289Y-82430380D01*
X60285923Y-82425744D01*
X60297903Y-82389732D01*
X60349269Y-82235320D01*
X60349270Y-82235318D01*
X60350951Y-82230263D01*
X60376771Y-82025874D01*
X60377183Y-81996400D01*
X60357080Y-81791370D01*
X60351188Y-81771852D01*
X60299075Y-81599250D01*
X60297535Y-81594149D01*
X60200818Y-81412249D01*
X60197445Y-81408113D01*
X60073980Y-81256730D01*
X60073976Y-81256726D01*
X60070611Y-81252600D01*
X59911875Y-81121282D01*
X59730655Y-81023297D01*
X59720489Y-81020150D01*
X59538946Y-80963953D01*
X59538944Y-80963953D01*
X59533854Y-80962377D01*
X59528556Y-80961820D01*
X59528555Y-80961820D01*
X59476796Y-80956380D01*
X59328969Y-80940843D01*
X59323662Y-80941326D01*
X59323661Y-80941326D01*
X59322848Y-80941400D01*
X59123803Y-80959514D01*
X58926172Y-81017680D01*
X58921449Y-81020149D01*
X58921447Y-81020150D01*
X58748320Y-81110659D01*
X58748316Y-81110661D01*
X58743602Y-81113126D01*
X58583047Y-81242215D01*
X58450624Y-81400030D01*
X58351376Y-81580562D01*
X58289084Y-81776932D01*
X58266120Y-81981662D01*
X55666670Y-81981662D01*
X55666670Y-79489031D01*
X58191043Y-79489031D01*
X58209714Y-79694197D01*
X58267880Y-79891828D01*
X58270349Y-79896551D01*
X58270350Y-79896553D01*
X58272343Y-79900364D01*
X58363326Y-80074398D01*
X58492415Y-80234953D01*
X58650230Y-80367376D01*
X58830762Y-80466624D01*
X58835844Y-80468236D01*
X58835846Y-80468237D01*
X58848765Y-80472335D01*
X59027132Y-80528916D01*
X59187464Y-80546900D01*
X59448441Y-80546900D01*
X59545380Y-80537395D01*
X59596328Y-80532400D01*
X59596329Y-80532400D01*
X59601630Y-80531880D01*
X59606724Y-80530342D01*
X59606729Y-80530341D01*
X59793750Y-80473875D01*
X59793749Y-80473875D01*
X59798851Y-80472335D01*
X59806559Y-80468237D01*
X59866927Y-80436139D01*
X59980751Y-80375618D01*
X59990857Y-80367376D01*
X60136270Y-80248780D01*
X60136274Y-80248776D01*
X60140400Y-80245411D01*
X60271718Y-80086675D01*
X60369703Y-79905455D01*
X60430623Y-79708654D01*
X60432143Y-79694197D01*
X60451600Y-79509067D01*
X60452157Y-79503769D01*
X60433486Y-79298603D01*
X60375320Y-79100972D01*
X60372850Y-79096247D01*
X60282341Y-78923120D01*
X60282339Y-78923116D01*
X60279874Y-78918402D01*
X60150785Y-78757847D01*
X59992970Y-78625424D01*
X59812438Y-78526176D01*
X59807356Y-78524564D01*
X59807354Y-78524563D01*
X59745489Y-78504939D01*
X59616068Y-78463884D01*
X59455736Y-78445900D01*
X59194759Y-78445900D01*
X59097820Y-78455405D01*
X59046872Y-78460400D01*
X59046871Y-78460400D01*
X59041570Y-78460920D01*
X59036476Y-78462458D01*
X59036471Y-78462459D01*
X58879727Y-78509784D01*
X58844349Y-78520465D01*
X58839643Y-78522967D01*
X58839641Y-78522968D01*
X58776273Y-78556661D01*
X58662449Y-78617182D01*
X58658315Y-78620554D01*
X58658313Y-78620555D01*
X58506930Y-78744020D01*
X58506926Y-78744024D01*
X58502800Y-78747389D01*
X58371482Y-78906125D01*
X58273497Y-79087345D01*
X58212577Y-79284146D01*
X58212020Y-79289444D01*
X58212020Y-79289445D01*
X58210500Y-79303911D01*
X58191043Y-79489031D01*
X55666670Y-79489031D01*
X55666670Y-71609440D01*
X59304901Y-71609440D01*
X59321633Y-71737394D01*
X59373605Y-71855510D01*
X59378598Y-71861450D01*
X59378600Y-71861453D01*
X59411811Y-71900962D01*
X59456639Y-71954291D01*
X59463102Y-71958593D01*
X59557601Y-72021497D01*
X59557603Y-72021498D01*
X59564060Y-72025796D01*
X59571462Y-72028109D01*
X59571465Y-72028110D01*
X59679823Y-72061963D01*
X59687233Y-72064278D01*
X59753672Y-72065496D01*
X59808494Y-72066501D01*
X59808496Y-72066501D01*
X59816255Y-72066643D01*
X59940755Y-72032700D01*
X59952000Y-72025796D01*
X59976521Y-72010740D01*
X60050724Y-71965179D01*
X60051359Y-71964477D01*
X60111042Y-71940727D01*
X60118076Y-71940500D01*
X65700024Y-71940500D01*
X65764093Y-71961317D01*
X65777099Y-71972425D01*
X82930323Y-89125649D01*
X82961328Y-89188590D01*
X82971633Y-89267394D01*
X83023605Y-89385510D01*
X83028598Y-89391450D01*
X83028600Y-89391453D01*
X83101644Y-89478349D01*
X83106639Y-89484291D01*
X83113102Y-89488593D01*
X83207601Y-89551497D01*
X83207603Y-89551498D01*
X83214060Y-89555796D01*
X83221462Y-89558109D01*
X83221465Y-89558110D01*
X83329823Y-89591963D01*
X83337233Y-89594278D01*
X83403672Y-89595496D01*
X83458494Y-89596501D01*
X83458496Y-89596501D01*
X83466255Y-89596643D01*
X83590755Y-89562700D01*
X83602000Y-89555796D01*
X83694105Y-89499243D01*
X83700724Y-89495179D01*
X83787322Y-89399507D01*
X83791225Y-89391453D01*
X83840202Y-89290363D01*
X83843588Y-89283375D01*
X83855604Y-89211951D01*
X83864298Y-89160278D01*
X83864299Y-89160271D01*
X83864997Y-89156120D01*
X83865050Y-89151850D01*
X83865081Y-89149215D01*
X83865133Y-89145000D01*
X83846839Y-89017259D01*
X83814294Y-88945680D01*
X83796641Y-88906854D01*
X83796640Y-88906853D01*
X83793428Y-88899788D01*
X83788365Y-88893912D01*
X83788363Y-88893909D01*
X83714261Y-88807909D01*
X83714258Y-88807907D01*
X83709193Y-88802028D01*
X83600906Y-88731841D01*
X83593468Y-88729617D01*
X83593467Y-88729616D01*
X83484713Y-88697091D01*
X83484712Y-88697091D01*
X83477273Y-88694866D01*
X83464604Y-88694789D01*
X83400664Y-88673583D01*
X83388192Y-88662866D01*
X80967937Y-86242611D01*
X85194394Y-86242611D01*
X85212999Y-86411135D01*
X85215257Y-86417306D01*
X85215258Y-86417309D01*
X85231077Y-86460536D01*
X85271266Y-86570356D01*
X85365830Y-86711083D01*
X85370686Y-86715501D01*
X85370688Y-86715504D01*
X85486374Y-86820770D01*
X85491233Y-86825191D01*
X85497007Y-86828326D01*
X85634462Y-86902958D01*
X85634465Y-86902959D01*
X85640235Y-86906092D01*
X85646586Y-86907758D01*
X85646588Y-86907759D01*
X85747430Y-86934214D01*
X85804233Y-86949116D01*
X85874782Y-86950224D01*
X85967190Y-86951676D01*
X85967192Y-86951676D01*
X85973760Y-86951779D01*
X85980164Y-86950312D01*
X85980167Y-86950312D01*
X86066035Y-86930646D01*
X86139029Y-86913928D01*
X86247653Y-86859296D01*
X86284625Y-86840701D01*
X86284626Y-86840700D01*
X86290498Y-86837747D01*
X86419423Y-86727634D01*
X86435232Y-86705633D01*
X86445483Y-86691368D01*
X86499775Y-86651486D01*
X86567140Y-86651134D01*
X86624472Y-86694181D01*
X86632165Y-86705630D01*
X86632168Y-86705633D01*
X86635830Y-86711083D01*
X86640686Y-86715501D01*
X86640688Y-86715504D01*
X86756374Y-86820770D01*
X86761233Y-86825191D01*
X86767007Y-86828326D01*
X86904462Y-86902958D01*
X86904465Y-86902959D01*
X86910235Y-86906092D01*
X86916586Y-86907758D01*
X86916588Y-86907759D01*
X87017430Y-86934214D01*
X87074233Y-86949116D01*
X87144782Y-86950224D01*
X87237190Y-86951676D01*
X87237192Y-86951676D01*
X87243760Y-86951779D01*
X87250164Y-86950312D01*
X87250167Y-86950312D01*
X87336035Y-86930646D01*
X87409029Y-86913928D01*
X87517653Y-86859296D01*
X87554625Y-86840701D01*
X87554626Y-86840700D01*
X87560498Y-86837747D01*
X87604570Y-86800106D01*
X87684423Y-86731905D01*
X87684425Y-86731902D01*
X87689423Y-86727634D01*
X87693147Y-86722451D01*
X87751773Y-86689419D01*
X87818692Y-86697163D01*
X87851724Y-86720551D01*
X87954675Y-86827160D01*
X87964005Y-86834878D01*
X88094601Y-86920338D01*
X88105416Y-86925801D01*
X88169821Y-86949753D01*
X88181505Y-86950243D01*
X88186000Y-86937335D01*
X88186000Y-85561418D01*
X88182210Y-85549755D01*
X88169289Y-85549845D01*
X88124418Y-85565120D01*
X88113451Y-85570280D01*
X87980520Y-85652060D01*
X87970980Y-85659513D01*
X87859467Y-85768715D01*
X87857030Y-85771703D01*
X87855234Y-85772860D01*
X87855114Y-85772978D01*
X87855090Y-85772953D01*
X87800403Y-85808193D01*
X87733143Y-85804430D01*
X87700700Y-85781791D01*
X87699312Y-85783349D01*
X87577626Y-85674930D01*
X87577625Y-85674929D01*
X87572721Y-85670560D01*
X87422881Y-85591224D01*
X87416512Y-85589624D01*
X87416509Y-85589623D01*
X87264812Y-85551519D01*
X87264810Y-85551519D01*
X87258441Y-85549919D01*
X87173145Y-85549472D01*
X87095461Y-85549065D01*
X87095458Y-85549065D01*
X87088895Y-85549031D01*
X86924032Y-85588612D01*
X86918190Y-85591627D01*
X86918188Y-85591628D01*
X86874117Y-85614375D01*
X86773369Y-85666375D01*
X86768421Y-85670691D01*
X86768420Y-85670692D01*
X86700145Y-85730252D01*
X86645604Y-85777831D01*
X86626910Y-85804430D01*
X86624511Y-85807844D01*
X86570640Y-85848291D01*
X86503282Y-85849349D01*
X86445503Y-85806906D01*
X86433034Y-85788763D01*
X86433029Y-85788758D01*
X86429312Y-85783349D01*
X86424410Y-85778982D01*
X86424407Y-85778978D01*
X86307626Y-85674930D01*
X86307625Y-85674929D01*
X86302721Y-85670560D01*
X86152881Y-85591224D01*
X86146512Y-85589624D01*
X86146509Y-85589623D01*
X85994812Y-85551519D01*
X85994810Y-85551519D01*
X85988441Y-85549919D01*
X85903145Y-85549472D01*
X85825461Y-85549065D01*
X85825458Y-85549065D01*
X85818895Y-85549031D01*
X85654032Y-85588612D01*
X85648190Y-85591627D01*
X85648188Y-85591628D01*
X85604117Y-85614375D01*
X85503369Y-85666375D01*
X85498421Y-85670691D01*
X85498420Y-85670692D01*
X85430145Y-85730252D01*
X85375604Y-85777831D01*
X85371823Y-85783211D01*
X85337969Y-85831381D01*
X85278113Y-85916547D01*
X85216524Y-86074513D01*
X85215667Y-86081024D01*
X85215666Y-86081027D01*
X85211389Y-86113515D01*
X85194394Y-86242611D01*
X80967937Y-86242611D01*
X66123577Y-71398251D01*
X66117153Y-71391240D01*
X66110924Y-71383817D01*
X66092455Y-71361806D01*
X66059169Y-71342589D01*
X66051158Y-71337485D01*
X66027494Y-71320915D01*
X66027495Y-71320915D01*
X66019684Y-71315446D01*
X66010474Y-71312978D01*
X66005979Y-71310882D01*
X66001304Y-71309181D01*
X65993045Y-71304412D01*
X65955211Y-71297741D01*
X65945944Y-71295687D01*
X65908807Y-71285736D01*
X65899307Y-71286567D01*
X65899305Y-71286567D01*
X65870529Y-71289085D01*
X65861029Y-71289500D01*
X60118384Y-71289500D01*
X60059099Y-71271967D01*
X59957423Y-71206065D01*
X59950906Y-71201841D01*
X59943468Y-71199617D01*
X59943467Y-71199616D01*
X59834713Y-71167091D01*
X59834712Y-71167091D01*
X59827273Y-71164866D01*
X59763159Y-71164474D01*
X59705998Y-71164125D01*
X59705995Y-71164125D01*
X59698231Y-71164078D01*
X59690764Y-71166212D01*
X59581620Y-71197405D01*
X59581617Y-71197406D01*
X59574155Y-71199539D01*
X59567588Y-71203683D01*
X59567587Y-71203683D01*
X59489999Y-71252638D01*
X59465019Y-71268399D01*
X59379596Y-71365122D01*
X59324754Y-71481932D01*
X59323559Y-71489605D01*
X59323559Y-71489606D01*
X59311609Y-71566354D01*
X59304901Y-71609440D01*
X55666670Y-71609440D01*
X55666670Y-52481930D01*
X62605322Y-52481930D01*
X62616228Y-52544412D01*
X62616252Y-52544550D01*
X62617084Y-52550187D01*
X62624724Y-52613320D01*
X62627643Y-52621046D01*
X62633054Y-52640827D01*
X62634473Y-52648954D01*
X62637115Y-52654972D01*
X62660025Y-52707164D01*
X62662180Y-52712445D01*
X62684655Y-52771923D01*
X62689332Y-52778729D01*
X62699300Y-52796637D01*
X62702621Y-52804202D01*
X62741332Y-52854650D01*
X62744675Y-52859253D01*
X62776965Y-52906235D01*
X62776968Y-52906238D01*
X62780688Y-52911651D01*
X62788935Y-52918998D01*
X62793266Y-52922857D01*
X62794113Y-52923620D01*
X62834949Y-52960778D01*
X62838666Y-52964323D01*
X62854735Y-52980392D01*
X62864388Y-52987960D01*
X62870479Y-52993108D01*
X62906372Y-53025769D01*
X62906378Y-53025773D01*
X62911233Y-53030191D01*
X62926003Y-53038211D01*
X62941236Y-53048217D01*
X62954457Y-53058583D01*
X62960448Y-53061288D01*
X63004659Y-53081250D01*
X63011814Y-53084802D01*
X63054461Y-53107958D01*
X63054468Y-53107961D01*
X63060235Y-53111092D01*
X63076480Y-53115354D01*
X63093673Y-53121443D01*
X63102991Y-53125650D01*
X63102997Y-53125652D01*
X63108984Y-53128355D01*
X63115440Y-53129552D01*
X63115445Y-53129553D01*
X63163152Y-53138394D01*
X63170949Y-53140137D01*
X63224233Y-53154116D01*
X63241035Y-53154380D01*
X63259176Y-53156191D01*
X63275692Y-53159252D01*
X63282252Y-53158874D01*
X63282255Y-53158874D01*
X63330683Y-53156082D01*
X63338667Y-53155914D01*
X63387189Y-53156676D01*
X63387191Y-53156676D01*
X63393760Y-53156779D01*
X63410130Y-53153030D01*
X63428188Y-53150460D01*
X63444959Y-53149493D01*
X63497635Y-53133287D01*
X63505327Y-53131227D01*
X63529678Y-53125650D01*
X63552621Y-53120396D01*
X63552624Y-53120395D01*
X63559029Y-53118928D01*
X63574034Y-53111381D01*
X63590956Y-53104579D01*
X63600725Y-53101574D01*
X63600734Y-53101570D01*
X63607011Y-53099639D01*
X63617832Y-53093163D01*
X63654288Y-53071346D01*
X63661285Y-53067499D01*
X63679012Y-53058583D01*
X63710498Y-53042747D01*
X63715488Y-53038485D01*
X63715497Y-53038479D01*
X63723269Y-53031840D01*
X63738088Y-53021191D01*
X63752495Y-53012569D01*
X63757160Y-53007953D01*
X63757166Y-53007948D01*
X63791664Y-52973809D01*
X63797537Y-52968408D01*
X63839423Y-52932634D01*
X63843258Y-52927298D01*
X63843260Y-52927295D01*
X63849222Y-52918998D01*
X63861067Y-52905129D01*
X63868341Y-52897930D01*
X63873010Y-52893310D01*
X63901803Y-52846323D01*
X63906222Y-52839673D01*
X63906265Y-52839614D01*
X63938361Y-52794947D01*
X63944627Y-52779361D01*
X63952820Y-52763070D01*
X63958163Y-52754351D01*
X63958164Y-52754348D01*
X63961597Y-52748746D01*
X63963594Y-52742488D01*
X63963596Y-52742484D01*
X63978344Y-52696271D01*
X63981050Y-52688754D01*
X63999150Y-52643730D01*
X64001601Y-52637634D01*
X64003967Y-52621008D01*
X64008041Y-52603222D01*
X64011148Y-52593487D01*
X64011149Y-52593482D01*
X64013146Y-52587225D01*
X64013642Y-52579959D01*
X64016703Y-52535054D01*
X64016894Y-52532256D01*
X64017728Y-52524317D01*
X64022839Y-52488403D01*
X64025490Y-52469778D01*
X64025645Y-52455000D01*
X64024654Y-52446809D01*
X64024117Y-52426303D01*
X64024231Y-52424629D01*
X64024231Y-52424628D01*
X64024678Y-52418070D01*
X64013745Y-52355432D01*
X64012914Y-52349799D01*
X64011289Y-52336367D01*
X64010500Y-52323276D01*
X64010500Y-42050306D01*
X64031317Y-41986237D01*
X64042425Y-41973231D01*
X67758232Y-38257425D01*
X67818256Y-38226842D01*
X67835307Y-38225500D01*
X78180500Y-38225500D01*
X78244569Y-38246317D01*
X78284165Y-38300817D01*
X78289500Y-38334500D01*
X78289500Y-52416928D01*
X78289248Y-52424342D01*
X78285322Y-52481930D01*
X78296228Y-52544412D01*
X78296252Y-52544550D01*
X78297084Y-52550187D01*
X78304724Y-52613320D01*
X78307643Y-52621046D01*
X78313054Y-52640827D01*
X78314473Y-52648954D01*
X78317115Y-52654972D01*
X78340025Y-52707164D01*
X78342180Y-52712445D01*
X78364655Y-52771923D01*
X78369332Y-52778729D01*
X78379300Y-52796637D01*
X78382621Y-52804202D01*
X78421332Y-52854650D01*
X78424675Y-52859253D01*
X78456965Y-52906235D01*
X78456968Y-52906238D01*
X78460688Y-52911651D01*
X78468935Y-52918998D01*
X78473266Y-52922857D01*
X78474113Y-52923620D01*
X78514949Y-52960778D01*
X78518666Y-52964323D01*
X78534735Y-52980392D01*
X78544388Y-52987960D01*
X78550479Y-52993108D01*
X78586372Y-53025769D01*
X78586378Y-53025773D01*
X78591233Y-53030191D01*
X78606003Y-53038211D01*
X78621236Y-53048217D01*
X78634457Y-53058583D01*
X78640448Y-53061288D01*
X78684659Y-53081250D01*
X78691814Y-53084802D01*
X78734461Y-53107958D01*
X78734468Y-53107961D01*
X78740235Y-53111092D01*
X78756480Y-53115354D01*
X78773673Y-53121443D01*
X78782991Y-53125650D01*
X78782997Y-53125652D01*
X78788984Y-53128355D01*
X78795440Y-53129552D01*
X78795445Y-53129553D01*
X78843152Y-53138394D01*
X78850949Y-53140137D01*
X78904233Y-53154116D01*
X78921035Y-53154380D01*
X78939176Y-53156191D01*
X78955692Y-53159252D01*
X78962252Y-53158874D01*
X78962255Y-53158874D01*
X79010683Y-53156082D01*
X79018667Y-53155914D01*
X79067189Y-53156676D01*
X79067191Y-53156676D01*
X79073760Y-53156779D01*
X79090130Y-53153030D01*
X79108188Y-53150460D01*
X79124959Y-53149493D01*
X79177635Y-53133287D01*
X79185327Y-53131227D01*
X79209678Y-53125650D01*
X79232621Y-53120396D01*
X79232624Y-53120395D01*
X79239029Y-53118928D01*
X79254034Y-53111381D01*
X79270956Y-53104579D01*
X79280725Y-53101574D01*
X79280734Y-53101570D01*
X79287011Y-53099639D01*
X79297832Y-53093163D01*
X79334288Y-53071346D01*
X79341285Y-53067499D01*
X79359012Y-53058583D01*
X79390498Y-53042747D01*
X79395488Y-53038485D01*
X79395497Y-53038479D01*
X79403269Y-53031840D01*
X79418088Y-53021191D01*
X79432495Y-53012569D01*
X79437160Y-53007953D01*
X79437166Y-53007948D01*
X79471664Y-52973809D01*
X79477537Y-52968408D01*
X79519423Y-52932634D01*
X79523258Y-52927298D01*
X79523260Y-52927295D01*
X79529222Y-52918998D01*
X79541067Y-52905129D01*
X79548341Y-52897930D01*
X79553010Y-52893310D01*
X79581803Y-52846323D01*
X79586222Y-52839673D01*
X79586265Y-52839614D01*
X79618361Y-52794947D01*
X79624627Y-52779361D01*
X79632820Y-52763070D01*
X79638163Y-52754351D01*
X79638164Y-52754348D01*
X79641597Y-52748746D01*
X79643594Y-52742488D01*
X79643596Y-52742484D01*
X79658344Y-52696271D01*
X79661050Y-52688754D01*
X79679150Y-52643730D01*
X79681601Y-52637634D01*
X79683967Y-52621008D01*
X79688041Y-52603222D01*
X79691148Y-52593487D01*
X79691149Y-52593482D01*
X79693146Y-52587225D01*
X79693642Y-52579959D01*
X79696703Y-52535054D01*
X79696894Y-52532256D01*
X79697728Y-52524317D01*
X79702839Y-52488403D01*
X79705490Y-52469778D01*
X79705645Y-52455000D01*
X79704654Y-52446809D01*
X79704117Y-52426303D01*
X79704231Y-52424629D01*
X79704231Y-52424628D01*
X79704678Y-52418070D01*
X79693745Y-52355432D01*
X79692914Y-52349799D01*
X79691289Y-52336367D01*
X79690500Y-52323276D01*
X79690500Y-38334500D01*
X79711317Y-38270431D01*
X79765817Y-38230835D01*
X79799500Y-38225500D01*
X93900500Y-38225500D01*
X93964569Y-38246317D01*
X94004165Y-38300817D01*
X94009500Y-38334500D01*
X94009500Y-52081307D01*
X93999843Y-52126162D01*
X93946645Y-52243984D01*
X93945448Y-52250441D01*
X93945448Y-52250442D01*
X93918436Y-52396190D01*
X93915748Y-52410692D01*
X93916126Y-52417251D01*
X93916126Y-52417254D01*
X93919272Y-52471810D01*
X93925507Y-52579959D01*
X93927439Y-52586239D01*
X93968280Y-52718993D01*
X93975361Y-52742011D01*
X93998433Y-52780561D01*
X94059055Y-52881855D01*
X94059057Y-52881858D01*
X94062431Y-52887495D01*
X94067054Y-52892167D01*
X94067055Y-52892168D01*
X94177070Y-53003342D01*
X94177073Y-53003344D01*
X94181690Y-53008010D01*
X94187289Y-53011441D01*
X94320648Y-53093163D01*
X94320650Y-53093164D01*
X94326254Y-53096598D01*
X94332515Y-53098596D01*
X94332517Y-53098597D01*
X94481514Y-53146148D01*
X94487775Y-53148146D01*
X94494327Y-53148593D01*
X94494329Y-53148593D01*
X94650373Y-53159231D01*
X94656930Y-53159678D01*
X94663404Y-53158548D01*
X94663405Y-53158548D01*
X94817482Y-53131657D01*
X94817485Y-53131656D01*
X94823954Y-53130527D01*
X94909073Y-53093163D01*
X94973182Y-53065022D01*
X94973185Y-53065020D01*
X94979202Y-53062379D01*
X94984413Y-53058380D01*
X94984417Y-53058378D01*
X95056139Y-53003342D01*
X95082678Y-52982978D01*
X95182532Y-52883124D01*
X95188817Y-52877315D01*
X95224427Y-52846901D01*
X95229423Y-52842634D01*
X95231593Y-52839614D01*
X95234396Y-52837169D01*
X95238174Y-52831793D01*
X95238178Y-52831789D01*
X95270961Y-52785143D01*
X95274339Y-52780593D01*
X95313583Y-52730543D01*
X95316287Y-52724555D01*
X95319693Y-52718930D01*
X95319796Y-52718993D01*
X95321460Y-52716110D01*
X95321354Y-52716052D01*
X95324519Y-52710293D01*
X95328361Y-52704947D01*
X95329748Y-52701496D01*
X95331887Y-52698453D01*
X95353223Y-52643730D01*
X95354982Y-52639219D01*
X95357193Y-52633959D01*
X95380652Y-52582003D01*
X95380653Y-52582001D01*
X95383355Y-52576016D01*
X95384552Y-52569558D01*
X95386518Y-52563284D01*
X95386634Y-52563320D01*
X95387564Y-52560116D01*
X95387447Y-52560085D01*
X95389148Y-52553737D01*
X95391601Y-52547634D01*
X95392125Y-52543952D01*
X95393476Y-52540487D01*
X95401776Y-52477438D01*
X95402663Y-52471833D01*
X95414252Y-52409308D01*
X95413874Y-52402748D01*
X95414286Y-52396190D01*
X95414408Y-52396198D01*
X95414798Y-52386871D01*
X95414716Y-52386865D01*
X95414899Y-52384456D01*
X95414931Y-52383708D01*
X95415490Y-52379778D01*
X95415645Y-52365000D01*
X95411289Y-52329004D01*
X95410500Y-52315909D01*
X95410500Y-38334500D01*
X95431317Y-38270431D01*
X95485817Y-38230835D01*
X95519500Y-38225500D01*
X111557170Y-38225500D01*
X111621239Y-38246317D01*
X111660835Y-38300817D01*
X111666170Y-38334500D01*
X111666170Y-39244748D01*
X111677803Y-39303231D01*
X111683767Y-39312156D01*
X111683767Y-39312157D01*
X111716153Y-39360625D01*
X111722118Y-39369552D01*
X111788439Y-39413867D01*
X111816651Y-39419479D01*
X111841676Y-39424457D01*
X111841681Y-39424457D01*
X111846922Y-39425500D01*
X116486418Y-39425500D01*
X116491659Y-39424457D01*
X116491664Y-39424457D01*
X116516689Y-39419479D01*
X116544901Y-39413867D01*
X116611222Y-39369552D01*
X116617187Y-39360625D01*
X116649573Y-39312157D01*
X116649573Y-39312156D01*
X116655537Y-39303231D01*
X116667170Y-39244748D01*
X116667170Y-38334500D01*
X116687987Y-38270431D01*
X116742487Y-38230835D01*
X116776170Y-38225500D01*
X118106364Y-38225500D01*
X118170433Y-38246317D01*
X118183439Y-38257425D01*
X119134245Y-39208231D01*
X119164828Y-39268255D01*
X119166170Y-39285306D01*
X119166170Y-70873023D01*
X119145353Y-70937092D01*
X119134245Y-70950098D01*
X104004507Y-86079836D01*
X103944483Y-86110419D01*
X103908318Y-86110072D01*
X103716975Y-86075988D01*
X103712512Y-86075933D01*
X103712507Y-86075933D01*
X103579957Y-86074314D01*
X103478474Y-86073074D01*
X103474051Y-86073751D01*
X103474049Y-86073751D01*
X103413886Y-86082958D01*
X103242701Y-86109153D01*
X103015985Y-86183255D01*
X102804417Y-86293390D01*
X102775003Y-86315475D01*
X102618963Y-86432634D01*
X102613678Y-86436602D01*
X102448890Y-86609042D01*
X102314478Y-86806082D01*
X102247561Y-86950243D01*
X102226586Y-86995431D01*
X102214054Y-87022428D01*
X102212859Y-87026738D01*
X102212858Y-87026740D01*
X102176636Y-87157351D01*
X102150312Y-87252272D01*
X102149838Y-87256706D01*
X102149837Y-87256712D01*
X102133840Y-87406403D01*
X102124966Y-87489440D01*
X102127388Y-87531435D01*
X102138312Y-87720882D01*
X102138697Y-87727562D01*
X102191134Y-87960245D01*
X102192813Y-87964381D01*
X102192815Y-87964386D01*
X102230223Y-88056511D01*
X102280870Y-88181239D01*
X102283203Y-88185046D01*
X102283206Y-88185052D01*
X102379846Y-88342753D01*
X102405496Y-88384609D01*
X102561663Y-88564894D01*
X102565096Y-88567744D01*
X102565101Y-88567749D01*
X102692579Y-88673583D01*
X102745179Y-88717252D01*
X102951115Y-88837591D01*
X103173940Y-88922680D01*
X103407669Y-88970233D01*
X103412131Y-88970397D01*
X103412134Y-88970397D01*
X103641553Y-88978809D01*
X103641554Y-88978809D01*
X103646028Y-88978973D01*
X103843697Y-88953650D01*
X103878171Y-88949234D01*
X103878172Y-88949234D01*
X103882612Y-88948665D01*
X103886893Y-88947381D01*
X103886896Y-88947380D01*
X104106788Y-88881410D01*
X104106789Y-88881410D01*
X104111071Y-88880125D01*
X104325267Y-88775191D01*
X104519448Y-88636683D01*
X104688400Y-88468320D01*
X104827585Y-88274623D01*
X104867197Y-88194475D01*
X104931282Y-88064810D01*
X104931283Y-88064806D01*
X104933266Y-88060795D01*
X104945831Y-88019440D01*
X105001304Y-87836854D01*
X105001305Y-87836849D01*
X105002603Y-87832577D01*
X105013133Y-87752597D01*
X105033357Y-87598979D01*
X105033357Y-87598976D01*
X105033736Y-87596099D01*
X105035474Y-87525000D01*
X105032550Y-87489440D01*
X111551632Y-87489440D01*
X111554054Y-87531435D01*
X111564978Y-87720882D01*
X111565363Y-87727562D01*
X111617800Y-87960245D01*
X111619479Y-87964381D01*
X111619481Y-87964386D01*
X111656889Y-88056511D01*
X111707536Y-88181239D01*
X111709869Y-88185046D01*
X111709872Y-88185052D01*
X111806512Y-88342753D01*
X111832162Y-88384609D01*
X111988329Y-88564894D01*
X111991762Y-88567744D01*
X111991767Y-88567749D01*
X112119245Y-88673583D01*
X112171845Y-88717252D01*
X112377781Y-88837591D01*
X112600606Y-88922680D01*
X112834335Y-88970233D01*
X112838797Y-88970397D01*
X112838800Y-88970397D01*
X113068219Y-88978809D01*
X113068220Y-88978809D01*
X113072694Y-88978973D01*
X113270363Y-88953650D01*
X113304837Y-88949234D01*
X113304838Y-88949234D01*
X113309278Y-88948665D01*
X113313559Y-88947381D01*
X113313562Y-88947380D01*
X113533454Y-88881410D01*
X113533455Y-88881410D01*
X113537737Y-88880125D01*
X113751933Y-88775191D01*
X113946114Y-88636683D01*
X114115066Y-88468320D01*
X114254251Y-88274623D01*
X114293863Y-88194475D01*
X114357948Y-88064810D01*
X114357949Y-88064806D01*
X114359932Y-88060795D01*
X114372497Y-88019440D01*
X114427970Y-87836854D01*
X114427971Y-87836849D01*
X114429269Y-87832577D01*
X114439799Y-87752597D01*
X114460023Y-87598979D01*
X114460023Y-87598976D01*
X114460402Y-87596099D01*
X114462140Y-87525000D01*
X114459216Y-87489440D01*
X120978298Y-87489440D01*
X120980720Y-87531435D01*
X120991644Y-87720882D01*
X120992029Y-87727562D01*
X121044466Y-87960245D01*
X121046145Y-87964381D01*
X121046147Y-87964386D01*
X121083555Y-88056511D01*
X121134202Y-88181239D01*
X121136535Y-88185046D01*
X121136538Y-88185052D01*
X121233178Y-88342753D01*
X121258828Y-88384609D01*
X121414995Y-88564894D01*
X121418428Y-88567744D01*
X121418433Y-88567749D01*
X121545911Y-88673583D01*
X121598511Y-88717252D01*
X121804447Y-88837591D01*
X122027272Y-88922680D01*
X122261001Y-88970233D01*
X122265463Y-88970397D01*
X122265466Y-88970397D01*
X122494885Y-88978809D01*
X122494886Y-88978809D01*
X122499360Y-88978973D01*
X122697029Y-88953650D01*
X122731503Y-88949234D01*
X122731504Y-88949234D01*
X122735944Y-88948665D01*
X122740225Y-88947381D01*
X122740228Y-88947380D01*
X122960120Y-88881410D01*
X122960121Y-88881410D01*
X122964403Y-88880125D01*
X123178599Y-88775191D01*
X123372780Y-88636683D01*
X123541732Y-88468320D01*
X123680917Y-88274623D01*
X123720529Y-88194475D01*
X123784614Y-88064810D01*
X123784615Y-88064806D01*
X123786598Y-88060795D01*
X123799163Y-88019440D01*
X123854636Y-87836854D01*
X123854637Y-87836849D01*
X123855935Y-87832577D01*
X123866465Y-87752597D01*
X123886689Y-87598979D01*
X123886689Y-87598976D01*
X123887068Y-87596099D01*
X123888806Y-87525000D01*
X123885882Y-87489440D01*
X130404964Y-87489440D01*
X130407386Y-87531435D01*
X130418310Y-87720882D01*
X130418695Y-87727562D01*
X130471132Y-87960245D01*
X130472811Y-87964381D01*
X130472813Y-87964386D01*
X130510221Y-88056511D01*
X130560868Y-88181239D01*
X130563201Y-88185046D01*
X130563204Y-88185052D01*
X130659844Y-88342753D01*
X130685494Y-88384609D01*
X130841661Y-88564894D01*
X130845094Y-88567744D01*
X130845099Y-88567749D01*
X130972577Y-88673583D01*
X131025177Y-88717252D01*
X131231113Y-88837591D01*
X131453938Y-88922680D01*
X131687667Y-88970233D01*
X131692129Y-88970397D01*
X131692132Y-88970397D01*
X131921551Y-88978809D01*
X131921552Y-88978809D01*
X131926026Y-88978973D01*
X132123695Y-88953650D01*
X132158169Y-88949234D01*
X132158170Y-88949234D01*
X132162610Y-88948665D01*
X132166891Y-88947381D01*
X132166894Y-88947380D01*
X132386786Y-88881410D01*
X132386787Y-88881410D01*
X132391069Y-88880125D01*
X132605265Y-88775191D01*
X132799446Y-88636683D01*
X132968398Y-88468320D01*
X133107583Y-88274623D01*
X133147195Y-88194475D01*
X133211280Y-88064810D01*
X133211281Y-88064806D01*
X133213264Y-88060795D01*
X133225829Y-88019440D01*
X133281302Y-87836854D01*
X133281303Y-87836849D01*
X133282601Y-87832577D01*
X133293131Y-87752597D01*
X133313355Y-87598979D01*
X133313355Y-87598976D01*
X133313734Y-87596099D01*
X133315472Y-87525000D01*
X133312548Y-87489440D01*
X139831630Y-87489440D01*
X139834052Y-87531435D01*
X139844976Y-87720882D01*
X139845361Y-87727562D01*
X139897798Y-87960245D01*
X139899477Y-87964381D01*
X139899479Y-87964386D01*
X139936887Y-88056511D01*
X139987534Y-88181239D01*
X139989867Y-88185046D01*
X139989870Y-88185052D01*
X140086510Y-88342753D01*
X140112160Y-88384609D01*
X140268327Y-88564894D01*
X140271760Y-88567744D01*
X140271765Y-88567749D01*
X140399243Y-88673583D01*
X140451843Y-88717252D01*
X140657779Y-88837591D01*
X140880604Y-88922680D01*
X141114333Y-88970233D01*
X141118795Y-88970397D01*
X141118798Y-88970397D01*
X141348217Y-88978809D01*
X141348218Y-88978809D01*
X141352692Y-88978973D01*
X141550361Y-88953650D01*
X141584835Y-88949234D01*
X141584836Y-88949234D01*
X141589276Y-88948665D01*
X141593557Y-88947381D01*
X141593560Y-88947380D01*
X141813452Y-88881410D01*
X141813453Y-88881410D01*
X141817735Y-88880125D01*
X142031931Y-88775191D01*
X142226112Y-88636683D01*
X142395064Y-88468320D01*
X142534249Y-88274623D01*
X142573861Y-88194475D01*
X142637946Y-88064810D01*
X142637947Y-88064806D01*
X142639930Y-88060795D01*
X142652495Y-88019440D01*
X142707968Y-87836854D01*
X142707969Y-87836849D01*
X142709267Y-87832577D01*
X142719797Y-87752597D01*
X142740021Y-87598979D01*
X142740021Y-87598976D01*
X142740400Y-87596099D01*
X142742138Y-87525000D01*
X142739214Y-87489440D01*
X149258296Y-87489440D01*
X149260718Y-87531435D01*
X149271642Y-87720882D01*
X149272027Y-87727562D01*
X149324464Y-87960245D01*
X149326143Y-87964381D01*
X149326145Y-87964386D01*
X149363553Y-88056511D01*
X149414200Y-88181239D01*
X149416533Y-88185046D01*
X149416536Y-88185052D01*
X149513176Y-88342753D01*
X149538826Y-88384609D01*
X149694993Y-88564894D01*
X149698426Y-88567744D01*
X149698431Y-88567749D01*
X149825909Y-88673583D01*
X149878509Y-88717252D01*
X150084445Y-88837591D01*
X150307270Y-88922680D01*
X150540999Y-88970233D01*
X150545461Y-88970397D01*
X150545464Y-88970397D01*
X150774883Y-88978809D01*
X150774884Y-88978809D01*
X150779358Y-88978973D01*
X150977027Y-88953650D01*
X151011501Y-88949234D01*
X151011502Y-88949234D01*
X151015942Y-88948665D01*
X151020223Y-88947381D01*
X151020226Y-88947380D01*
X151240118Y-88881410D01*
X151240119Y-88881410D01*
X151244401Y-88880125D01*
X151458597Y-88775191D01*
X151652778Y-88636683D01*
X151821730Y-88468320D01*
X151960915Y-88274623D01*
X152000527Y-88194475D01*
X152064612Y-88064810D01*
X152064613Y-88064806D01*
X152066596Y-88060795D01*
X152079161Y-88019440D01*
X152134634Y-87836854D01*
X152134635Y-87836849D01*
X152135933Y-87832577D01*
X152146463Y-87752597D01*
X152166687Y-87598979D01*
X152166687Y-87598976D01*
X152167066Y-87596099D01*
X152168804Y-87525000D01*
X152165880Y-87489440D01*
X158684962Y-87489440D01*
X158687384Y-87531435D01*
X158698308Y-87720882D01*
X158698693Y-87727562D01*
X158751130Y-87960245D01*
X158752809Y-87964381D01*
X158752811Y-87964386D01*
X158790219Y-88056511D01*
X158840866Y-88181239D01*
X158843199Y-88185046D01*
X158843202Y-88185052D01*
X158939842Y-88342753D01*
X158965492Y-88384609D01*
X159121659Y-88564894D01*
X159125092Y-88567744D01*
X159125097Y-88567749D01*
X159252575Y-88673583D01*
X159305175Y-88717252D01*
X159511111Y-88837591D01*
X159733936Y-88922680D01*
X159967665Y-88970233D01*
X159972127Y-88970397D01*
X159972130Y-88970397D01*
X160201549Y-88978809D01*
X160201550Y-88978809D01*
X160206024Y-88978973D01*
X160403693Y-88953650D01*
X160438167Y-88949234D01*
X160438168Y-88949234D01*
X160442608Y-88948665D01*
X160446889Y-88947381D01*
X160446892Y-88947380D01*
X160666784Y-88881410D01*
X160666785Y-88881410D01*
X160671067Y-88880125D01*
X160885263Y-88775191D01*
X161079444Y-88636683D01*
X161248396Y-88468320D01*
X161387581Y-88274623D01*
X161427193Y-88194475D01*
X161491278Y-88064810D01*
X161491279Y-88064806D01*
X161493262Y-88060795D01*
X161505827Y-88019440D01*
X161561300Y-87836854D01*
X161561301Y-87836849D01*
X161562599Y-87832577D01*
X161573129Y-87752597D01*
X161593353Y-87598979D01*
X161593353Y-87598976D01*
X161593732Y-87596099D01*
X161595470Y-87525000D01*
X161592546Y-87489440D01*
X168111633Y-87489440D01*
X168114055Y-87531435D01*
X168124979Y-87720882D01*
X168125364Y-87727562D01*
X168177801Y-87960245D01*
X168179480Y-87964381D01*
X168179482Y-87964386D01*
X168216890Y-88056511D01*
X168267537Y-88181239D01*
X168269870Y-88185046D01*
X168269873Y-88185052D01*
X168366513Y-88342753D01*
X168392163Y-88384609D01*
X168548330Y-88564894D01*
X168551763Y-88567744D01*
X168551768Y-88567749D01*
X168679246Y-88673583D01*
X168731846Y-88717252D01*
X168937782Y-88837591D01*
X169160607Y-88922680D01*
X169394336Y-88970233D01*
X169398798Y-88970397D01*
X169398801Y-88970397D01*
X169628220Y-88978809D01*
X169628221Y-88978809D01*
X169632695Y-88978973D01*
X169830364Y-88953650D01*
X169864838Y-88949234D01*
X169864839Y-88949234D01*
X169869279Y-88948665D01*
X169873560Y-88947381D01*
X169873563Y-88947380D01*
X170093455Y-88881410D01*
X170093456Y-88881410D01*
X170097738Y-88880125D01*
X170311934Y-88775191D01*
X170506115Y-88636683D01*
X170675067Y-88468320D01*
X170814252Y-88274623D01*
X170853864Y-88194475D01*
X170917949Y-88064810D01*
X170917950Y-88064806D01*
X170919933Y-88060795D01*
X170932498Y-88019440D01*
X170987971Y-87836854D01*
X170987972Y-87836849D01*
X170989270Y-87832577D01*
X170999800Y-87752597D01*
X171020024Y-87598979D01*
X171020024Y-87598976D01*
X171020403Y-87596099D01*
X171022141Y-87525000D01*
X171002597Y-87287284D01*
X170944491Y-87055952D01*
X170931790Y-87026740D01*
X170851165Y-86841317D01*
X170849382Y-86837216D01*
X170719825Y-86636951D01*
X170559299Y-86460536D01*
X170533094Y-86439840D01*
X170375620Y-86315475D01*
X170375619Y-86315475D01*
X170372115Y-86312707D01*
X170163301Y-86197436D01*
X169938464Y-86117817D01*
X169703642Y-86075988D01*
X169699179Y-86075933D01*
X169699174Y-86075933D01*
X169566624Y-86074314D01*
X169465141Y-86073074D01*
X169460718Y-86073751D01*
X169460716Y-86073751D01*
X169400553Y-86082958D01*
X169229368Y-86109153D01*
X169002652Y-86183255D01*
X168791084Y-86293390D01*
X168761670Y-86315475D01*
X168605630Y-86432634D01*
X168600345Y-86436602D01*
X168435557Y-86609042D01*
X168301145Y-86806082D01*
X168234228Y-86950243D01*
X168213253Y-86995431D01*
X168200721Y-87022428D01*
X168199526Y-87026738D01*
X168199525Y-87026740D01*
X168163303Y-87157351D01*
X168136979Y-87252272D01*
X168136505Y-87256706D01*
X168136504Y-87256712D01*
X168120507Y-87406403D01*
X168111633Y-87489440D01*
X161592546Y-87489440D01*
X161575926Y-87287284D01*
X161517820Y-87055952D01*
X161505119Y-87026740D01*
X161424494Y-86841317D01*
X161422711Y-86837216D01*
X161293154Y-86636951D01*
X161132628Y-86460536D01*
X161106423Y-86439840D01*
X160948949Y-86315475D01*
X160948948Y-86315475D01*
X160945444Y-86312707D01*
X160736630Y-86197436D01*
X160511793Y-86117817D01*
X160276971Y-86075988D01*
X160272508Y-86075933D01*
X160272503Y-86075933D01*
X160139953Y-86074314D01*
X160038470Y-86073074D01*
X160034047Y-86073751D01*
X160034045Y-86073751D01*
X159973882Y-86082958D01*
X159802697Y-86109153D01*
X159575981Y-86183255D01*
X159364413Y-86293390D01*
X159334999Y-86315475D01*
X159178959Y-86432634D01*
X159173674Y-86436602D01*
X159008886Y-86609042D01*
X158874474Y-86806082D01*
X158807557Y-86950243D01*
X158786582Y-86995431D01*
X158774050Y-87022428D01*
X158772855Y-87026738D01*
X158772854Y-87026740D01*
X158736632Y-87157351D01*
X158710308Y-87252272D01*
X158709834Y-87256706D01*
X158709833Y-87256712D01*
X158693836Y-87406403D01*
X158684962Y-87489440D01*
X152165880Y-87489440D01*
X152149260Y-87287284D01*
X152091154Y-87055952D01*
X152078453Y-87026740D01*
X151997828Y-86841317D01*
X151996045Y-86837216D01*
X151866488Y-86636951D01*
X151705962Y-86460536D01*
X151679757Y-86439840D01*
X151522283Y-86315475D01*
X151522282Y-86315475D01*
X151518778Y-86312707D01*
X151309964Y-86197436D01*
X151085127Y-86117817D01*
X150850305Y-86075988D01*
X150845842Y-86075933D01*
X150845837Y-86075933D01*
X150713287Y-86074314D01*
X150611804Y-86073074D01*
X150607381Y-86073751D01*
X150607379Y-86073751D01*
X150547216Y-86082958D01*
X150376031Y-86109153D01*
X150149315Y-86183255D01*
X149937747Y-86293390D01*
X149908333Y-86315475D01*
X149752293Y-86432634D01*
X149747008Y-86436602D01*
X149582220Y-86609042D01*
X149447808Y-86806082D01*
X149380891Y-86950243D01*
X149359916Y-86995431D01*
X149347384Y-87022428D01*
X149346189Y-87026738D01*
X149346188Y-87026740D01*
X149309966Y-87157351D01*
X149283642Y-87252272D01*
X149283168Y-87256706D01*
X149283167Y-87256712D01*
X149267170Y-87406403D01*
X149258296Y-87489440D01*
X142739214Y-87489440D01*
X142722594Y-87287284D01*
X142664488Y-87055952D01*
X142651787Y-87026740D01*
X142571162Y-86841317D01*
X142569379Y-86837216D01*
X142439822Y-86636951D01*
X142279296Y-86460536D01*
X142253091Y-86439840D01*
X142095617Y-86315475D01*
X142095616Y-86315475D01*
X142092112Y-86312707D01*
X141883298Y-86197436D01*
X141658461Y-86117817D01*
X141423639Y-86075988D01*
X141419176Y-86075933D01*
X141419171Y-86075933D01*
X141286621Y-86074314D01*
X141185138Y-86073074D01*
X141180715Y-86073751D01*
X141180713Y-86073751D01*
X141120550Y-86082958D01*
X140949365Y-86109153D01*
X140722649Y-86183255D01*
X140511081Y-86293390D01*
X140481667Y-86315475D01*
X140325627Y-86432634D01*
X140320342Y-86436602D01*
X140155554Y-86609042D01*
X140021142Y-86806082D01*
X139954225Y-86950243D01*
X139933250Y-86995431D01*
X139920718Y-87022428D01*
X139919523Y-87026738D01*
X139919522Y-87026740D01*
X139883300Y-87157351D01*
X139856976Y-87252272D01*
X139856502Y-87256706D01*
X139856501Y-87256712D01*
X139840504Y-87406403D01*
X139831630Y-87489440D01*
X133312548Y-87489440D01*
X133295928Y-87287284D01*
X133237822Y-87055952D01*
X133225121Y-87026740D01*
X133144496Y-86841317D01*
X133142713Y-86837216D01*
X133013156Y-86636951D01*
X132852630Y-86460536D01*
X132826425Y-86439840D01*
X132668951Y-86315475D01*
X132668950Y-86315475D01*
X132665446Y-86312707D01*
X132456632Y-86197436D01*
X132231795Y-86117817D01*
X131996973Y-86075988D01*
X131992510Y-86075933D01*
X131992505Y-86075933D01*
X131859955Y-86074314D01*
X131758472Y-86073074D01*
X131754049Y-86073751D01*
X131754047Y-86073751D01*
X131693884Y-86082958D01*
X131522699Y-86109153D01*
X131295983Y-86183255D01*
X131084415Y-86293390D01*
X131055001Y-86315475D01*
X130898961Y-86432634D01*
X130893676Y-86436602D01*
X130728888Y-86609042D01*
X130594476Y-86806082D01*
X130527559Y-86950243D01*
X130506584Y-86995431D01*
X130494052Y-87022428D01*
X130492857Y-87026738D01*
X130492856Y-87026740D01*
X130456634Y-87157351D01*
X130430310Y-87252272D01*
X130429836Y-87256706D01*
X130429835Y-87256712D01*
X130413838Y-87406403D01*
X130404964Y-87489440D01*
X123885882Y-87489440D01*
X123869262Y-87287284D01*
X123811156Y-87055952D01*
X123798455Y-87026740D01*
X123717830Y-86841317D01*
X123716047Y-86837216D01*
X123586490Y-86636951D01*
X123425964Y-86460536D01*
X123399759Y-86439840D01*
X123242285Y-86315475D01*
X123242284Y-86315475D01*
X123238780Y-86312707D01*
X123029966Y-86197436D01*
X122805129Y-86117817D01*
X122570307Y-86075988D01*
X122565844Y-86075933D01*
X122565839Y-86075933D01*
X122433289Y-86074314D01*
X122331806Y-86073074D01*
X122327383Y-86073751D01*
X122327381Y-86073751D01*
X122267218Y-86082958D01*
X122096033Y-86109153D01*
X121869317Y-86183255D01*
X121657749Y-86293390D01*
X121628335Y-86315475D01*
X121472295Y-86432634D01*
X121467010Y-86436602D01*
X121302222Y-86609042D01*
X121167810Y-86806082D01*
X121100893Y-86950243D01*
X121079918Y-86995431D01*
X121067386Y-87022428D01*
X121066191Y-87026738D01*
X121066190Y-87026740D01*
X121029968Y-87157351D01*
X121003644Y-87252272D01*
X121003170Y-87256706D01*
X121003169Y-87256712D01*
X120987172Y-87406403D01*
X120978298Y-87489440D01*
X114459216Y-87489440D01*
X114442596Y-87287284D01*
X114384490Y-87055952D01*
X114371789Y-87026740D01*
X114291164Y-86841317D01*
X114289381Y-86837216D01*
X114159824Y-86636951D01*
X113999298Y-86460536D01*
X113973093Y-86439840D01*
X113815619Y-86315475D01*
X113815618Y-86315475D01*
X113812114Y-86312707D01*
X113603300Y-86197436D01*
X113378463Y-86117817D01*
X113143641Y-86075988D01*
X113139178Y-86075933D01*
X113139173Y-86075933D01*
X113006623Y-86074314D01*
X112905140Y-86073074D01*
X112900717Y-86073751D01*
X112900715Y-86073751D01*
X112840552Y-86082958D01*
X112669367Y-86109153D01*
X112442651Y-86183255D01*
X112231083Y-86293390D01*
X112201669Y-86315475D01*
X112045629Y-86432634D01*
X112040344Y-86436602D01*
X111875556Y-86609042D01*
X111741144Y-86806082D01*
X111674227Y-86950243D01*
X111653252Y-86995431D01*
X111640720Y-87022428D01*
X111639525Y-87026738D01*
X111639524Y-87026740D01*
X111603302Y-87157351D01*
X111576978Y-87252272D01*
X111576504Y-87256706D01*
X111576503Y-87256712D01*
X111560506Y-87406403D01*
X111551632Y-87489440D01*
X105032550Y-87489440D01*
X105015930Y-87287284D01*
X104983293Y-87157350D01*
X104987875Y-87090141D01*
X105011934Y-87053722D01*
X120342151Y-71723505D01*
X120347572Y-71718441D01*
X120386116Y-71684817D01*
X120391066Y-71680499D01*
X120394845Y-71675123D01*
X120394847Y-71675120D01*
X120427631Y-71628473D01*
X120431009Y-71623923D01*
X120470253Y-71573873D01*
X120473652Y-71566345D01*
X120483808Y-71548541D01*
X120488557Y-71541783D01*
X120490944Y-71535661D01*
X120490946Y-71535657D01*
X120511652Y-71482549D01*
X120513863Y-71477289D01*
X120537323Y-71425331D01*
X120537324Y-71425328D01*
X120540025Y-71419346D01*
X120541221Y-71412891D01*
X120541223Y-71412886D01*
X120541530Y-71411230D01*
X120547148Y-71391509D01*
X120547757Y-71389947D01*
X120547759Y-71389940D01*
X120550146Y-71383817D01*
X120551682Y-71372153D01*
X120556245Y-71337485D01*
X120558446Y-71320768D01*
X120559333Y-71315163D01*
X120570922Y-71252638D01*
X120567351Y-71190706D01*
X120567170Y-71184431D01*
X120567170Y-38978067D01*
X120567422Y-38970653D01*
X120570901Y-38919627D01*
X120571348Y-38913070D01*
X120560415Y-38850432D01*
X120559584Y-38844802D01*
X120552735Y-38788204D01*
X120551946Y-38781680D01*
X120549027Y-38773954D01*
X120543616Y-38754173D01*
X120542197Y-38746046D01*
X120516646Y-38687838D01*
X120514491Y-38682557D01*
X120494339Y-38629228D01*
X120492015Y-38623077D01*
X120487339Y-38616274D01*
X120477365Y-38598353D01*
X120476690Y-38596816D01*
X120474048Y-38590797D01*
X120470048Y-38585584D01*
X120470045Y-38585579D01*
X120435338Y-38540348D01*
X120431994Y-38535747D01*
X120395982Y-38483349D01*
X120349673Y-38442089D01*
X120345108Y-38437781D01*
X118956838Y-37049511D01*
X118951774Y-37044090D01*
X118918159Y-37005556D01*
X118918158Y-37005555D01*
X118913839Y-37000604D01*
X118861813Y-36964039D01*
X118857261Y-36960659D01*
X118812382Y-36925469D01*
X118807213Y-36921416D01*
X118799687Y-36918018D01*
X118781872Y-36907856D01*
X118775123Y-36903113D01*
X118715886Y-36880017D01*
X118710628Y-36877806D01*
X118658676Y-36854349D01*
X118658672Y-36854348D01*
X118652686Y-36851645D01*
X118646231Y-36850449D01*
X118646223Y-36850446D01*
X118644570Y-36850140D01*
X118624849Y-36844522D01*
X118623287Y-36843913D01*
X118623280Y-36843911D01*
X118617157Y-36841524D01*
X118610641Y-36840666D01*
X118610640Y-36840666D01*
X118597490Y-36838935D01*
X118554108Y-36833224D01*
X118548503Y-36832337D01*
X118485978Y-36820748D01*
X118479419Y-36821126D01*
X118479417Y-36821126D01*
X118424040Y-36824319D01*
X118417766Y-36824500D01*
X116776170Y-36824500D01*
X116712101Y-36803683D01*
X116672505Y-36749183D01*
X116667170Y-36715500D01*
X116667170Y-35805252D01*
X116655537Y-35746769D01*
X116618600Y-35691489D01*
X116617187Y-35689375D01*
X116611222Y-35680448D01*
X116544901Y-35636133D01*
X116516689Y-35630521D01*
X116491664Y-35625543D01*
X116491659Y-35625543D01*
X116486418Y-35624500D01*
X111846922Y-35624500D01*
X111841681Y-35625543D01*
X111841676Y-35625543D01*
X111816651Y-35630521D01*
X111788439Y-35636133D01*
X111722118Y-35680448D01*
X111716153Y-35689375D01*
X111714741Y-35691489D01*
X111677803Y-35746769D01*
X111666170Y-35805252D01*
X111666170Y-36715500D01*
X111645353Y-36779569D01*
X111590853Y-36819165D01*
X111557170Y-36824500D01*
X94718821Y-36824500D01*
X94718250Y-36824499D01*
X94633166Y-36824053D01*
X94633160Y-36824053D01*
X94628895Y-36824031D01*
X94627423Y-36824385D01*
X94625423Y-36824500D01*
X78954569Y-36824500D01*
X78934705Y-36822675D01*
X78930768Y-36821945D01*
X78930766Y-36821945D01*
X78924308Y-36820748D01*
X78917749Y-36821126D01*
X78917747Y-36821126D01*
X78862370Y-36824319D01*
X78856096Y-36824500D01*
X67528072Y-36824500D01*
X67520658Y-36824248D01*
X67469627Y-36820769D01*
X67463070Y-36820322D01*
X67456596Y-36821452D01*
X67456595Y-36821452D01*
X67449588Y-36822675D01*
X67400430Y-36831255D01*
X67394807Y-36832085D01*
X67331680Y-36839724D01*
X67323957Y-36842642D01*
X67304180Y-36848052D01*
X67302522Y-36848341D01*
X67302516Y-36848343D01*
X67296046Y-36849472D01*
X67237824Y-36875030D01*
X67232554Y-36877181D01*
X67225048Y-36880017D01*
X67179221Y-36897333D01*
X67179218Y-36897334D01*
X67173077Y-36899655D01*
X67167663Y-36903376D01*
X67166284Y-36904324D01*
X67148354Y-36914304D01*
X67140798Y-36917621D01*
X67090350Y-36956332D01*
X67085747Y-36959675D01*
X67059745Y-36977546D01*
X67033349Y-36995688D01*
X67028977Y-37000596D01*
X67028976Y-37000596D01*
X66992081Y-37042006D01*
X66987773Y-37046571D01*
X62834511Y-41199832D01*
X62829091Y-41204895D01*
X62785604Y-41242831D01*
X62749039Y-41294857D01*
X62745664Y-41299403D01*
X62706416Y-41349457D01*
X62703018Y-41356983D01*
X62692856Y-41374798D01*
X62688113Y-41381547D01*
X62665017Y-41440784D01*
X62662806Y-41446042D01*
X62639349Y-41497994D01*
X62639348Y-41497998D01*
X62636645Y-41503984D01*
X62635449Y-41510439D01*
X62635446Y-41510447D01*
X62635140Y-41512100D01*
X62629522Y-41531821D01*
X62628913Y-41533383D01*
X62628911Y-41533390D01*
X62626524Y-41539513D01*
X62625666Y-41546029D01*
X62625666Y-41546030D01*
X62618226Y-41602550D01*
X62617337Y-41608167D01*
X62605748Y-41670692D01*
X62606126Y-41677251D01*
X62606126Y-41677253D01*
X62609319Y-41732630D01*
X62609500Y-41738904D01*
X62609500Y-52416928D01*
X62609248Y-52424342D01*
X62605322Y-52481930D01*
X55666670Y-52481930D01*
X55666670Y-36682233D01*
X55964108Y-36682233D01*
X55996889Y-37089665D01*
X55997311Y-37092108D01*
X55997312Y-37092116D01*
X56056248Y-37433315D01*
X56066462Y-37492449D01*
X56067098Y-37494821D01*
X56067100Y-37494832D01*
X56156780Y-37829521D01*
X56172253Y-37887269D01*
X56173104Y-37889583D01*
X56173105Y-37889585D01*
X56297191Y-38226842D01*
X56313393Y-38270877D01*
X56488720Y-38640114D01*
X56489970Y-38642228D01*
X56489975Y-38642237D01*
X56695536Y-38989820D01*
X56696790Y-38991940D01*
X56698228Y-38993934D01*
X56698234Y-38993943D01*
X56934442Y-39321454D01*
X56934448Y-39321461D01*
X56935890Y-39323461D01*
X56937512Y-39325326D01*
X56937516Y-39325332D01*
X57016299Y-39415961D01*
X57204053Y-39631948D01*
X57499072Y-39914860D01*
X57500997Y-39916396D01*
X57501003Y-39916402D01*
X57816590Y-40168332D01*
X57818517Y-40169870D01*
X58159760Y-40394878D01*
X58161935Y-40396044D01*
X58161943Y-40396049D01*
X58327560Y-40484851D01*
X58519991Y-40588032D01*
X58896246Y-40747743D01*
X58898586Y-40748494D01*
X58898596Y-40748498D01*
X59155140Y-40830865D01*
X59285427Y-40872696D01*
X59287844Y-40873236D01*
X59287843Y-40873236D01*
X59681920Y-40961322D01*
X59681923Y-40961323D01*
X59684332Y-40961861D01*
X60089676Y-41014506D01*
X60092127Y-41014600D01*
X60092137Y-41014601D01*
X60495667Y-41030103D01*
X60495675Y-41030103D01*
X60498123Y-41030197D01*
X60906311Y-41008805D01*
X60908747Y-41008454D01*
X60908757Y-41008453D01*
X61144573Y-40974471D01*
X61310880Y-40950506D01*
X61708501Y-40855779D01*
X62095900Y-40725405D01*
X62469888Y-40560456D01*
X62472034Y-40559267D01*
X62472041Y-40559263D01*
X62653383Y-40458743D01*
X62827387Y-40362291D01*
X63165455Y-40132541D01*
X63167364Y-40130973D01*
X63479403Y-39874662D01*
X63479408Y-39874657D01*
X63481309Y-39873096D01*
X63772348Y-39586092D01*
X63922929Y-39407903D01*
X64034575Y-39275788D01*
X64034576Y-39275787D01*
X64036178Y-39273891D01*
X64037601Y-39271859D01*
X64037607Y-39271851D01*
X64235087Y-38989820D01*
X64270627Y-38939064D01*
X64473764Y-38584366D01*
X64493917Y-38540348D01*
X64642888Y-38214969D01*
X64642892Y-38214958D01*
X64643918Y-38212718D01*
X64757711Y-37889585D01*
X64778863Y-37829521D01*
X64778866Y-37829512D01*
X64779688Y-37827177D01*
X64780295Y-37824779D01*
X64879351Y-37433315D01*
X64879353Y-37433304D01*
X64879957Y-37430918D01*
X64943900Y-37027202D01*
X64951891Y-36906890D01*
X64970889Y-36620865D01*
X64970890Y-36620847D01*
X64970989Y-36619352D01*
X64971977Y-36525000D01*
X64953435Y-36116672D01*
X64910057Y-35800006D01*
X64898299Y-35714172D01*
X64898298Y-35714168D01*
X64897961Y-35711706D01*
X64892222Y-35686845D01*
X64806570Y-35315847D01*
X64806013Y-35313434D01*
X64726994Y-35073094D01*
X64679118Y-34927478D01*
X64679116Y-34927471D01*
X64678347Y-34925134D01*
X64677371Y-34922879D01*
X64677367Y-34922868D01*
X64516996Y-34552274D01*
X64516994Y-34552269D01*
X64516013Y-34550003D01*
X64452648Y-34433783D01*
X64321531Y-34193296D01*
X64321526Y-34193287D01*
X64320349Y-34191129D01*
X64318983Y-34189088D01*
X64318976Y-34189077D01*
X64094345Y-33853528D01*
X64094338Y-33853519D01*
X64092964Y-33851466D01*
X63835730Y-33533809D01*
X63550765Y-33240773D01*
X63418808Y-33127672D01*
X63242294Y-32976381D01*
X63242289Y-32976377D01*
X63240414Y-32974770D01*
X62907232Y-32737989D01*
X62905100Y-32736748D01*
X62905092Y-32736743D01*
X62556102Y-32533627D01*
X62556101Y-32533626D01*
X62553961Y-32532381D01*
X62183509Y-32359636D01*
X61798926Y-32221178D01*
X61582200Y-32164725D01*
X61405784Y-32118772D01*
X61405779Y-32118771D01*
X61403376Y-32118145D01*
X61400918Y-32117738D01*
X61002565Y-32051791D01*
X61002556Y-32051790D01*
X61000116Y-32051386D01*
X60997649Y-32051205D01*
X60997642Y-32051204D01*
X60594950Y-32021632D01*
X60594941Y-32021632D01*
X60592466Y-32021450D01*
X60589985Y-32021493D01*
X60589975Y-32021493D01*
X60367775Y-32025372D01*
X60183779Y-32028583D01*
X59777422Y-32072728D01*
X59376738Y-32153520D01*
X59374384Y-32154222D01*
X59374375Y-32154224D01*
X59149784Y-32221178D01*
X58985025Y-32270295D01*
X58982725Y-32271215D01*
X58982719Y-32271217D01*
X58759056Y-32360676D01*
X58605508Y-32422091D01*
X58430213Y-32511407D01*
X58243513Y-32606535D01*
X58243504Y-32606540D01*
X58241310Y-32607658D01*
X57895430Y-32825471D01*
X57570714Y-33073735D01*
X57269836Y-33350407D01*
X57268193Y-33352219D01*
X57268186Y-33352226D01*
X56996924Y-33651386D01*
X56995271Y-33653209D01*
X56749280Y-33979650D01*
X56533888Y-34327042D01*
X56350867Y-34692527D01*
X56349970Y-34694815D01*
X56349969Y-34694818D01*
X56294986Y-34835119D01*
X56201724Y-35073094D01*
X56201038Y-35075455D01*
X56201034Y-35075467D01*
X56151088Y-35247384D01*
X56087687Y-35465613D01*
X56009694Y-35866851D01*
X55968388Y-36273507D01*
X55964108Y-36682233D01*
X55666670Y-36682233D01*
X55666670Y-36560367D01*
X55669485Y-36535754D01*
X55670419Y-36531726D01*
X55671812Y-36525716D01*
X55671813Y-36525000D01*
X55670444Y-36519000D01*
X55669759Y-36512879D01*
X55670079Y-36512843D01*
X55668137Y-36491399D01*
X55684389Y-36119149D01*
X55684728Y-36111396D01*
X55685556Y-36101932D01*
X55738972Y-35696209D01*
X55740623Y-35686845D01*
X55829196Y-35287316D01*
X55831657Y-35278131D01*
X55896304Y-35073094D01*
X55954717Y-34887834D01*
X55957959Y-34878923D01*
X56114576Y-34500818D01*
X56118592Y-34492207D01*
X56307554Y-34129214D01*
X56312296Y-34121001D01*
X56532194Y-33775830D01*
X56537637Y-33768057D01*
X56786764Y-33443389D01*
X56792872Y-33436110D01*
X56871405Y-33350407D01*
X57069342Y-33134396D01*
X57076066Y-33127672D01*
X57377780Y-32851202D01*
X57385064Y-32845090D01*
X57709727Y-32595967D01*
X57717500Y-32590524D01*
X58062671Y-32370626D01*
X58070884Y-32365884D01*
X58433884Y-32176919D01*
X58442488Y-32172906D01*
X58820593Y-32016289D01*
X58829504Y-32013047D01*
X59129845Y-31918350D01*
X59219801Y-31889987D01*
X59228986Y-31887526D01*
X59628515Y-31798953D01*
X59637879Y-31797302D01*
X59840741Y-31770594D01*
X60043611Y-31743885D01*
X60053066Y-31743058D01*
X60384960Y-31728568D01*
X60432800Y-31726479D01*
X60442564Y-31727372D01*
X60454350Y-31727392D01*
X60466312Y-31730143D01*
X60478284Y-31727434D01*
X60479413Y-31727436D01*
X60501218Y-31725000D01*
X171858341Y-31725000D01*
X171922410Y-31745817D01*
G37*
%TD.AperFunction*%
%TD*%
M02*
