M48
; DRILL file {KiCad (6.0.0)} date Wed Mar 30 16:25:37 2022
; FORMAT={-:-/ absolute / metric / decimal}
; #@! TF.CreationDate,2022-03-30T16:25:37+04:00
; #@! TF.GenerationSoftware,Kicad,Pcbnew,(6.0.0)
; #@! TF.FileFunction,Plated,1,2,PTH
FMAT,2
METRIC
; #@! TA.AperFunction,Plated,PTH,ViaDrill
T1C0.300
; #@! TA.AperFunction,Plated,PTH,ViaDrill
T2C0.400
; #@! TA.AperFunction,Plated,PTH,ViaDrill
T3C0.500
; #@! TA.AperFunction,Plated,PTH,ComponentDrill
T4C0.600
; #@! TA.AperFunction,Plated,PTH,ComponentDrill
T5C0.700
; #@! TA.AperFunction,Plated,PTH,ComponentDrill
T6C0.750
; #@! TA.AperFunction,Plated,PTH,ComponentDrill
T7C0.800
; #@! TA.AperFunction,Plated,PTH,ComponentDrill
T8C1.000
; #@! TA.AperFunction,Plated,PTH,ComponentDrill
T9C1.010
; #@! TA.AperFunction,Plated,PTH,ComponentDrill
T10C1.100
; #@! TA.AperFunction,Plated,PTH,ComponentDrill
T11C1.200
; #@! TA.AperFunction,Plated,PTH,ComponentDrill
T12C1.400
; #@! TA.AperFunction,Plated,PTH,ComponentDrill
T13C1.500
; #@! TA.AperFunction,Plated,PTH,ComponentDrill
T14C1.550
; #@! TA.AperFunction,Plated,PTH,ComponentDrill
T15C1.600
; #@! TA.AperFunction,Plated,PTH,ComponentDrill
T16C2.600
; #@! TA.AperFunction,Plated,PTH,ComponentDrill
T17C4.300
%
G90
G05
T1
X57.0Y-120.375
X57.0Y-121.125
X57.75Y-120.375
X57.75Y-121.125
X58.5Y-120.375
X58.5Y-121.125
X59.76Y-71.615
X63.25Y-106.375
X64.0Y-106.375
X64.75Y-106.375
X65.5Y-106.375
X66.25Y-106.375
X67.3Y-117.865
X67.44Y-99.375
X68.44Y-109.155
X68.47Y-111.615
X70.09Y-108.345
X71.22Y-101.905
X76.25Y-88.025
X77.6Y-32.725
X77.6Y-33.325
X78.2Y-32.725
X78.2Y-33.325
X78.8Y-32.725
X78.8Y-33.325
X78.86Y-99.375
X79.4Y-32.725
X79.4Y-33.325
X79.8Y-101.085
X81.0Y-94.125
X81.0Y-94.875
X81.0Y-95.625
X81.28Y-101.085
X81.41Y-97.565
X81.75Y-94.125
X81.75Y-94.875
X82.41Y-97.565
X82.5Y-94.125
X82.61Y-101.085
X83.41Y-89.145
X83.41Y-97.555
X83.9Y-92.905
X83.91Y-91.785
X84.16Y-101.085
X84.41Y-97.555
X84.5Y-100.355
X85.817Y-108.85
X85.88Y-94.395
X86.04Y-96.895
X86.05Y-95.895
X88.856Y-93.569
X88.88Y-94.405
X89.72Y-98.435
X89.789Y-96.926
X89.79Y-95.695
X93.6Y-32.525
X93.6Y-33.125
X94.2Y-32.525
X94.2Y-33.125
X94.8Y-32.525
X94.8Y-33.125
X95.4Y-32.525
X95.4Y-33.125
X96.127Y-104.65
X98.75Y-96.375
X99.5Y-96.375
X100.25Y-96.375
X101.0Y-96.375
X101.75Y-96.375
X102.5Y-96.375
X104.587Y-108.89
X105.167Y-104.62
X107.5Y-96.375
X108.25Y-96.375
X109.0Y-96.375
X109.75Y-96.375
X110.5Y-96.375
X111.25Y-96.375
X114.167Y-104.59
X116.75Y-96.375
X117.5Y-96.375
X118.25Y-96.375
X119.0Y-96.375
X119.75Y-96.375
X120.5Y-96.375
X123.167Y-104.66
X123.297Y-109.03
X125.75Y-96.375
X126.5Y-96.375
X127.25Y-96.375
X128.0Y-96.375
X128.75Y-96.375
X129.5Y-96.375
X132.167Y-104.64
X134.75Y-96.375
X135.5Y-96.375
X136.25Y-96.375
X137.0Y-96.375
X137.75Y-96.375
X138.5Y-96.375
X141.147Y-104.64
X142.187Y-108.93
X143.75Y-96.375
X144.5Y-96.375
X145.25Y-96.375
X146.0Y-96.375
X146.75Y-96.375
X147.5Y-96.375
X150.277Y-104.56
X152.75Y-96.375
X153.5Y-96.375
X154.25Y-96.375
X155.0Y-96.375
X155.75Y-96.375
X156.5Y-96.375
X159.267Y-104.6
X161.057Y-108.82
X161.75Y-96.375
X162.5Y-96.375
X163.25Y-96.375
X164.0Y-96.375
X164.75Y-96.375
X165.5Y-96.375
X166.547Y-111.49
X170.707Y-97.095
X170.707Y-100.25
X170.717Y-98.745
T2
X87.0Y-112.875
X88.25Y-112.875
X89.5Y-112.875
X90.75Y-112.875
X92.0Y-112.875
X93.25Y-112.875
X105.5Y-112.875
X106.75Y-112.875
X108.0Y-112.875
X109.25Y-112.875
X110.5Y-112.875
X111.75Y-112.875
X124.25Y-112.875
X125.5Y-112.875
X126.75Y-112.875
X128.0Y-112.875
X129.25Y-112.875
X130.5Y-112.875
X143.25Y-112.875
X144.5Y-112.875
X145.75Y-112.875
X147.0Y-112.875
X148.25Y-112.875
X149.5Y-112.875
T3
X63.32Y-52.455
X79.0Y-52.455
X94.71Y-52.365
T4
X57.242Y-36.525
X57.242Y-126.525
X58.186Y-34.245
X58.186Y-38.805
X58.186Y-124.245
X58.186Y-128.805
X60.467Y-33.3
X60.467Y-39.75
X60.467Y-123.3
X60.467Y-129.75
X62.747Y-34.245
X62.747Y-38.805
X62.747Y-124.245
X62.747Y-128.805
X63.692Y-36.525
X63.692Y-126.525
X197.242Y-36.525
X197.242Y-126.525
X198.186Y-34.245
X198.186Y-38.805
X198.186Y-124.245
X198.186Y-128.805
X200.467Y-33.3
X200.467Y-39.75
X200.467Y-123.3
X200.467Y-129.75
X202.747Y-34.245
X202.747Y-38.805
X202.747Y-124.245
X202.747Y-128.805
X203.692Y-36.525
X203.692Y-126.525
T5
X85.9Y-86.25
X87.17Y-86.25
X88.44Y-86.25
X89.71Y-86.25
T6
X76.797Y-123.325
X78.067Y-122.055
X79.337Y-123.325
X95.597Y-123.385
X96.867Y-122.115
X98.137Y-123.385
X114.397Y-123.425
X115.667Y-122.155
X116.937Y-123.425
X133.297Y-123.425
X134.567Y-122.155
X135.837Y-123.425
X152.097Y-123.362
X153.367Y-122.093
X154.637Y-123.362
X170.997Y-123.362
X172.267Y-122.093
X173.537Y-123.362
T7
X84.367Y-123.825
X89.367Y-123.825
X103.167Y-123.885
X108.167Y-123.885
X121.967Y-123.925
X126.967Y-123.925
X140.867Y-123.925
X145.867Y-123.925
X159.667Y-123.762
X164.667Y-123.762
X176.617Y-85.612
X178.667Y-123.862
X183.667Y-123.862
X184.117Y-87.245
T8
X59.305Y-98.291
X59.305Y-100.791
X59.322Y-79.496
X59.322Y-81.996
X59.326Y-87.604
X59.326Y-90.144
X59.326Y-92.684
T9
X198.637Y-71.67
X203.737Y-72.87
T10
X189.867Y-101.725
X189.867Y-106.725
X191.867Y-104.225
T11
X200.807Y-52.62
X200.807Y-67.62
T12
X74.427Y-127.225
X79.507Y-127.225
X93.277Y-127.225
X98.357Y-127.225
X112.127Y-127.225
X117.207Y-127.225
X130.977Y-127.225
X136.057Y-127.225
X149.827Y-127.225
X154.907Y-127.225
X168.677Y-127.225
X173.757Y-127.225
X187.527Y-127.225
X192.607Y-127.225
X198.447Y-46.97
X198.547Y-77.57
X203.527Y-46.97
X203.627Y-77.57
T13
X191.867Y-95.075
X191.867Y-113.375
T14
X103.58Y-87.525
X103.58Y-91.725
X113.007Y-87.525
X113.007Y-91.725
X122.433Y-87.525
X122.433Y-91.725
X131.86Y-87.525
X131.86Y-91.725
X141.287Y-87.525
X141.287Y-91.725
X150.713Y-87.525
X150.713Y-91.725
X160.14Y-87.525
X160.14Y-91.725
X169.567Y-87.525
X169.567Y-91.725
T15
X190.067Y-72.025
X190.067Y-78.825
T16
X114.167Y-37.525
X114.167Y-43.025
T17
X60.467Y-36.525
X60.467Y-126.525
X200.467Y-36.525
X200.467Y-126.525
T0
M30
