%TF.GenerationSoftware,KiCad,Pcbnew,(5.1.10)-1*%
%TF.CreationDate,2021-11-29T17:35:51+04:00*%
%TF.ProjectId,Coffe_Machine_Gogokhia_Edition_SIMPLE,436f6666-655f-44d6-9163-68696e655f47,rev?*%
%TF.SameCoordinates,Original*%
%TF.FileFunction,Paste,Top*%
%TF.FilePolarity,Positive*%
%FSLAX46Y46*%
G04 Gerber Fmt 4.6, Leading zero omitted, Abs format (unit mm)*
G04 Created by KiCad (PCBNEW (5.1.10)-1) date 2021-11-29 17:35:51*
%MOMM*%
%LPD*%
G01*
G04 APERTURE LIST*
%ADD10R,1.125000X1.750000*%
%ADD11R,1.400000X1.200000*%
%ADD12R,0.950000X0.800000*%
%ADD13R,0.950000X0.900000*%
%ADD14O,1.000000X1.600000*%
%ADD15R,1.780000X1.520000*%
%ADD16R,0.800000X0.950000*%
%ADD17R,0.875000X0.950000*%
%ADD18R,0.600000X1.475000*%
%ADD19R,0.900000X1.200000*%
%ADD20R,0.900000X0.950000*%
%ADD21R,0.800000X0.900000*%
%ADD22R,1.750000X1.125000*%
%ADD23R,2.000000X1.500000*%
%ADD24R,2.000000X3.800000*%
%ADD25O,1.600000X2.250000*%
G04 APERTURE END LIST*
D10*
%TO.C,R1*%
X121046780Y-98917760D03*
X123971780Y-98917760D03*
%TD*%
D11*
%TO.C,Y1*%
X153627000Y-77278600D03*
X151427000Y-77278600D03*
X151427000Y-75578600D03*
X153627000Y-75578600D03*
%TD*%
%TO.C,U9*%
G36*
G01*
X159634600Y-73398500D02*
X159634600Y-72073500D01*
G75*
G02*
X159709600Y-71998500I75000J0D01*
G01*
X159859600Y-71998500D01*
G75*
G02*
X159934600Y-72073500I0J-75000D01*
G01*
X159934600Y-73398500D01*
G75*
G02*
X159859600Y-73473500I-75000J0D01*
G01*
X159709600Y-73473500D01*
G75*
G02*
X159634600Y-73398500I0J75000D01*
G01*
G37*
G36*
G01*
X160134600Y-73398500D02*
X160134600Y-72073500D01*
G75*
G02*
X160209600Y-71998500I75000J0D01*
G01*
X160359600Y-71998500D01*
G75*
G02*
X160434600Y-72073500I0J-75000D01*
G01*
X160434600Y-73398500D01*
G75*
G02*
X160359600Y-73473500I-75000J0D01*
G01*
X160209600Y-73473500D01*
G75*
G02*
X160134600Y-73398500I0J75000D01*
G01*
G37*
G36*
G01*
X160634600Y-73398500D02*
X160634600Y-72073500D01*
G75*
G02*
X160709600Y-71998500I75000J0D01*
G01*
X160859600Y-71998500D01*
G75*
G02*
X160934600Y-72073500I0J-75000D01*
G01*
X160934600Y-73398500D01*
G75*
G02*
X160859600Y-73473500I-75000J0D01*
G01*
X160709600Y-73473500D01*
G75*
G02*
X160634600Y-73398500I0J75000D01*
G01*
G37*
G36*
G01*
X161134600Y-73398500D02*
X161134600Y-72073500D01*
G75*
G02*
X161209600Y-71998500I75000J0D01*
G01*
X161359600Y-71998500D01*
G75*
G02*
X161434600Y-72073500I0J-75000D01*
G01*
X161434600Y-73398500D01*
G75*
G02*
X161359600Y-73473500I-75000J0D01*
G01*
X161209600Y-73473500D01*
G75*
G02*
X161134600Y-73398500I0J75000D01*
G01*
G37*
G36*
G01*
X161634600Y-73398500D02*
X161634600Y-72073500D01*
G75*
G02*
X161709600Y-71998500I75000J0D01*
G01*
X161859600Y-71998500D01*
G75*
G02*
X161934600Y-72073500I0J-75000D01*
G01*
X161934600Y-73398500D01*
G75*
G02*
X161859600Y-73473500I-75000J0D01*
G01*
X161709600Y-73473500D01*
G75*
G02*
X161634600Y-73398500I0J75000D01*
G01*
G37*
G36*
G01*
X162134600Y-73398500D02*
X162134600Y-72073500D01*
G75*
G02*
X162209600Y-71998500I75000J0D01*
G01*
X162359600Y-71998500D01*
G75*
G02*
X162434600Y-72073500I0J-75000D01*
G01*
X162434600Y-73398500D01*
G75*
G02*
X162359600Y-73473500I-75000J0D01*
G01*
X162209600Y-73473500D01*
G75*
G02*
X162134600Y-73398500I0J75000D01*
G01*
G37*
G36*
G01*
X162634600Y-73398500D02*
X162634600Y-72073500D01*
G75*
G02*
X162709600Y-71998500I75000J0D01*
G01*
X162859600Y-71998500D01*
G75*
G02*
X162934600Y-72073500I0J-75000D01*
G01*
X162934600Y-73398500D01*
G75*
G02*
X162859600Y-73473500I-75000J0D01*
G01*
X162709600Y-73473500D01*
G75*
G02*
X162634600Y-73398500I0J75000D01*
G01*
G37*
G36*
G01*
X163134600Y-73398500D02*
X163134600Y-72073500D01*
G75*
G02*
X163209600Y-71998500I75000J0D01*
G01*
X163359600Y-71998500D01*
G75*
G02*
X163434600Y-72073500I0J-75000D01*
G01*
X163434600Y-73398500D01*
G75*
G02*
X163359600Y-73473500I-75000J0D01*
G01*
X163209600Y-73473500D01*
G75*
G02*
X163134600Y-73398500I0J75000D01*
G01*
G37*
G36*
G01*
X163634600Y-73398500D02*
X163634600Y-72073500D01*
G75*
G02*
X163709600Y-71998500I75000J0D01*
G01*
X163859600Y-71998500D01*
G75*
G02*
X163934600Y-72073500I0J-75000D01*
G01*
X163934600Y-73398500D01*
G75*
G02*
X163859600Y-73473500I-75000J0D01*
G01*
X163709600Y-73473500D01*
G75*
G02*
X163634600Y-73398500I0J75000D01*
G01*
G37*
G36*
G01*
X164134600Y-73398500D02*
X164134600Y-72073500D01*
G75*
G02*
X164209600Y-71998500I75000J0D01*
G01*
X164359600Y-71998500D01*
G75*
G02*
X164434600Y-72073500I0J-75000D01*
G01*
X164434600Y-73398500D01*
G75*
G02*
X164359600Y-73473500I-75000J0D01*
G01*
X164209600Y-73473500D01*
G75*
G02*
X164134600Y-73398500I0J75000D01*
G01*
G37*
G36*
G01*
X164634600Y-73398500D02*
X164634600Y-72073500D01*
G75*
G02*
X164709600Y-71998500I75000J0D01*
G01*
X164859600Y-71998500D01*
G75*
G02*
X164934600Y-72073500I0J-75000D01*
G01*
X164934600Y-73398500D01*
G75*
G02*
X164859600Y-73473500I-75000J0D01*
G01*
X164709600Y-73473500D01*
G75*
G02*
X164634600Y-73398500I0J75000D01*
G01*
G37*
G36*
G01*
X165134600Y-73398500D02*
X165134600Y-72073500D01*
G75*
G02*
X165209600Y-71998500I75000J0D01*
G01*
X165359600Y-71998500D01*
G75*
G02*
X165434600Y-72073500I0J-75000D01*
G01*
X165434600Y-73398500D01*
G75*
G02*
X165359600Y-73473500I-75000J0D01*
G01*
X165209600Y-73473500D01*
G75*
G02*
X165134600Y-73398500I0J75000D01*
G01*
G37*
G36*
G01*
X165959600Y-74223500D02*
X165959600Y-74073500D01*
G75*
G02*
X166034600Y-73998500I75000J0D01*
G01*
X167359600Y-73998500D01*
G75*
G02*
X167434600Y-74073500I0J-75000D01*
G01*
X167434600Y-74223500D01*
G75*
G02*
X167359600Y-74298500I-75000J0D01*
G01*
X166034600Y-74298500D01*
G75*
G02*
X165959600Y-74223500I0J75000D01*
G01*
G37*
G36*
G01*
X165959600Y-74723500D02*
X165959600Y-74573500D01*
G75*
G02*
X166034600Y-74498500I75000J0D01*
G01*
X167359600Y-74498500D01*
G75*
G02*
X167434600Y-74573500I0J-75000D01*
G01*
X167434600Y-74723500D01*
G75*
G02*
X167359600Y-74798500I-75000J0D01*
G01*
X166034600Y-74798500D01*
G75*
G02*
X165959600Y-74723500I0J75000D01*
G01*
G37*
G36*
G01*
X165959600Y-75223500D02*
X165959600Y-75073500D01*
G75*
G02*
X166034600Y-74998500I75000J0D01*
G01*
X167359600Y-74998500D01*
G75*
G02*
X167434600Y-75073500I0J-75000D01*
G01*
X167434600Y-75223500D01*
G75*
G02*
X167359600Y-75298500I-75000J0D01*
G01*
X166034600Y-75298500D01*
G75*
G02*
X165959600Y-75223500I0J75000D01*
G01*
G37*
G36*
G01*
X165959600Y-75723500D02*
X165959600Y-75573500D01*
G75*
G02*
X166034600Y-75498500I75000J0D01*
G01*
X167359600Y-75498500D01*
G75*
G02*
X167434600Y-75573500I0J-75000D01*
G01*
X167434600Y-75723500D01*
G75*
G02*
X167359600Y-75798500I-75000J0D01*
G01*
X166034600Y-75798500D01*
G75*
G02*
X165959600Y-75723500I0J75000D01*
G01*
G37*
G36*
G01*
X165959600Y-76223500D02*
X165959600Y-76073500D01*
G75*
G02*
X166034600Y-75998500I75000J0D01*
G01*
X167359600Y-75998500D01*
G75*
G02*
X167434600Y-76073500I0J-75000D01*
G01*
X167434600Y-76223500D01*
G75*
G02*
X167359600Y-76298500I-75000J0D01*
G01*
X166034600Y-76298500D01*
G75*
G02*
X165959600Y-76223500I0J75000D01*
G01*
G37*
G36*
G01*
X165959600Y-76723500D02*
X165959600Y-76573500D01*
G75*
G02*
X166034600Y-76498500I75000J0D01*
G01*
X167359600Y-76498500D01*
G75*
G02*
X167434600Y-76573500I0J-75000D01*
G01*
X167434600Y-76723500D01*
G75*
G02*
X167359600Y-76798500I-75000J0D01*
G01*
X166034600Y-76798500D01*
G75*
G02*
X165959600Y-76723500I0J75000D01*
G01*
G37*
G36*
G01*
X165959600Y-77223500D02*
X165959600Y-77073500D01*
G75*
G02*
X166034600Y-76998500I75000J0D01*
G01*
X167359600Y-76998500D01*
G75*
G02*
X167434600Y-77073500I0J-75000D01*
G01*
X167434600Y-77223500D01*
G75*
G02*
X167359600Y-77298500I-75000J0D01*
G01*
X166034600Y-77298500D01*
G75*
G02*
X165959600Y-77223500I0J75000D01*
G01*
G37*
G36*
G01*
X165959600Y-77723500D02*
X165959600Y-77573500D01*
G75*
G02*
X166034600Y-77498500I75000J0D01*
G01*
X167359600Y-77498500D01*
G75*
G02*
X167434600Y-77573500I0J-75000D01*
G01*
X167434600Y-77723500D01*
G75*
G02*
X167359600Y-77798500I-75000J0D01*
G01*
X166034600Y-77798500D01*
G75*
G02*
X165959600Y-77723500I0J75000D01*
G01*
G37*
G36*
G01*
X165959600Y-78223500D02*
X165959600Y-78073500D01*
G75*
G02*
X166034600Y-77998500I75000J0D01*
G01*
X167359600Y-77998500D01*
G75*
G02*
X167434600Y-78073500I0J-75000D01*
G01*
X167434600Y-78223500D01*
G75*
G02*
X167359600Y-78298500I-75000J0D01*
G01*
X166034600Y-78298500D01*
G75*
G02*
X165959600Y-78223500I0J75000D01*
G01*
G37*
G36*
G01*
X165959600Y-78723500D02*
X165959600Y-78573500D01*
G75*
G02*
X166034600Y-78498500I75000J0D01*
G01*
X167359600Y-78498500D01*
G75*
G02*
X167434600Y-78573500I0J-75000D01*
G01*
X167434600Y-78723500D01*
G75*
G02*
X167359600Y-78798500I-75000J0D01*
G01*
X166034600Y-78798500D01*
G75*
G02*
X165959600Y-78723500I0J75000D01*
G01*
G37*
G36*
G01*
X165959600Y-79223500D02*
X165959600Y-79073500D01*
G75*
G02*
X166034600Y-78998500I75000J0D01*
G01*
X167359600Y-78998500D01*
G75*
G02*
X167434600Y-79073500I0J-75000D01*
G01*
X167434600Y-79223500D01*
G75*
G02*
X167359600Y-79298500I-75000J0D01*
G01*
X166034600Y-79298500D01*
G75*
G02*
X165959600Y-79223500I0J75000D01*
G01*
G37*
G36*
G01*
X165959600Y-79723500D02*
X165959600Y-79573500D01*
G75*
G02*
X166034600Y-79498500I75000J0D01*
G01*
X167359600Y-79498500D01*
G75*
G02*
X167434600Y-79573500I0J-75000D01*
G01*
X167434600Y-79723500D01*
G75*
G02*
X167359600Y-79798500I-75000J0D01*
G01*
X166034600Y-79798500D01*
G75*
G02*
X165959600Y-79723500I0J75000D01*
G01*
G37*
G36*
G01*
X165134600Y-81723500D02*
X165134600Y-80398500D01*
G75*
G02*
X165209600Y-80323500I75000J0D01*
G01*
X165359600Y-80323500D01*
G75*
G02*
X165434600Y-80398500I0J-75000D01*
G01*
X165434600Y-81723500D01*
G75*
G02*
X165359600Y-81798500I-75000J0D01*
G01*
X165209600Y-81798500D01*
G75*
G02*
X165134600Y-81723500I0J75000D01*
G01*
G37*
G36*
G01*
X164634600Y-81723500D02*
X164634600Y-80398500D01*
G75*
G02*
X164709600Y-80323500I75000J0D01*
G01*
X164859600Y-80323500D01*
G75*
G02*
X164934600Y-80398500I0J-75000D01*
G01*
X164934600Y-81723500D01*
G75*
G02*
X164859600Y-81798500I-75000J0D01*
G01*
X164709600Y-81798500D01*
G75*
G02*
X164634600Y-81723500I0J75000D01*
G01*
G37*
G36*
G01*
X164134600Y-81723500D02*
X164134600Y-80398500D01*
G75*
G02*
X164209600Y-80323500I75000J0D01*
G01*
X164359600Y-80323500D01*
G75*
G02*
X164434600Y-80398500I0J-75000D01*
G01*
X164434600Y-81723500D01*
G75*
G02*
X164359600Y-81798500I-75000J0D01*
G01*
X164209600Y-81798500D01*
G75*
G02*
X164134600Y-81723500I0J75000D01*
G01*
G37*
G36*
G01*
X163634600Y-81723500D02*
X163634600Y-80398500D01*
G75*
G02*
X163709600Y-80323500I75000J0D01*
G01*
X163859600Y-80323500D01*
G75*
G02*
X163934600Y-80398500I0J-75000D01*
G01*
X163934600Y-81723500D01*
G75*
G02*
X163859600Y-81798500I-75000J0D01*
G01*
X163709600Y-81798500D01*
G75*
G02*
X163634600Y-81723500I0J75000D01*
G01*
G37*
G36*
G01*
X163134600Y-81723500D02*
X163134600Y-80398500D01*
G75*
G02*
X163209600Y-80323500I75000J0D01*
G01*
X163359600Y-80323500D01*
G75*
G02*
X163434600Y-80398500I0J-75000D01*
G01*
X163434600Y-81723500D01*
G75*
G02*
X163359600Y-81798500I-75000J0D01*
G01*
X163209600Y-81798500D01*
G75*
G02*
X163134600Y-81723500I0J75000D01*
G01*
G37*
G36*
G01*
X162634600Y-81723500D02*
X162634600Y-80398500D01*
G75*
G02*
X162709600Y-80323500I75000J0D01*
G01*
X162859600Y-80323500D01*
G75*
G02*
X162934600Y-80398500I0J-75000D01*
G01*
X162934600Y-81723500D01*
G75*
G02*
X162859600Y-81798500I-75000J0D01*
G01*
X162709600Y-81798500D01*
G75*
G02*
X162634600Y-81723500I0J75000D01*
G01*
G37*
G36*
G01*
X162134600Y-81723500D02*
X162134600Y-80398500D01*
G75*
G02*
X162209600Y-80323500I75000J0D01*
G01*
X162359600Y-80323500D01*
G75*
G02*
X162434600Y-80398500I0J-75000D01*
G01*
X162434600Y-81723500D01*
G75*
G02*
X162359600Y-81798500I-75000J0D01*
G01*
X162209600Y-81798500D01*
G75*
G02*
X162134600Y-81723500I0J75000D01*
G01*
G37*
G36*
G01*
X161634600Y-81723500D02*
X161634600Y-80398500D01*
G75*
G02*
X161709600Y-80323500I75000J0D01*
G01*
X161859600Y-80323500D01*
G75*
G02*
X161934600Y-80398500I0J-75000D01*
G01*
X161934600Y-81723500D01*
G75*
G02*
X161859600Y-81798500I-75000J0D01*
G01*
X161709600Y-81798500D01*
G75*
G02*
X161634600Y-81723500I0J75000D01*
G01*
G37*
G36*
G01*
X161134600Y-81723500D02*
X161134600Y-80398500D01*
G75*
G02*
X161209600Y-80323500I75000J0D01*
G01*
X161359600Y-80323500D01*
G75*
G02*
X161434600Y-80398500I0J-75000D01*
G01*
X161434600Y-81723500D01*
G75*
G02*
X161359600Y-81798500I-75000J0D01*
G01*
X161209600Y-81798500D01*
G75*
G02*
X161134600Y-81723500I0J75000D01*
G01*
G37*
G36*
G01*
X160634600Y-81723500D02*
X160634600Y-80398500D01*
G75*
G02*
X160709600Y-80323500I75000J0D01*
G01*
X160859600Y-80323500D01*
G75*
G02*
X160934600Y-80398500I0J-75000D01*
G01*
X160934600Y-81723500D01*
G75*
G02*
X160859600Y-81798500I-75000J0D01*
G01*
X160709600Y-81798500D01*
G75*
G02*
X160634600Y-81723500I0J75000D01*
G01*
G37*
G36*
G01*
X160134600Y-81723500D02*
X160134600Y-80398500D01*
G75*
G02*
X160209600Y-80323500I75000J0D01*
G01*
X160359600Y-80323500D01*
G75*
G02*
X160434600Y-80398500I0J-75000D01*
G01*
X160434600Y-81723500D01*
G75*
G02*
X160359600Y-81798500I-75000J0D01*
G01*
X160209600Y-81798500D01*
G75*
G02*
X160134600Y-81723500I0J75000D01*
G01*
G37*
G36*
G01*
X159634600Y-81723500D02*
X159634600Y-80398500D01*
G75*
G02*
X159709600Y-80323500I75000J0D01*
G01*
X159859600Y-80323500D01*
G75*
G02*
X159934600Y-80398500I0J-75000D01*
G01*
X159934600Y-81723500D01*
G75*
G02*
X159859600Y-81798500I-75000J0D01*
G01*
X159709600Y-81798500D01*
G75*
G02*
X159634600Y-81723500I0J75000D01*
G01*
G37*
G36*
G01*
X157634600Y-79723500D02*
X157634600Y-79573500D01*
G75*
G02*
X157709600Y-79498500I75000J0D01*
G01*
X159034600Y-79498500D01*
G75*
G02*
X159109600Y-79573500I0J-75000D01*
G01*
X159109600Y-79723500D01*
G75*
G02*
X159034600Y-79798500I-75000J0D01*
G01*
X157709600Y-79798500D01*
G75*
G02*
X157634600Y-79723500I0J75000D01*
G01*
G37*
G36*
G01*
X157634600Y-79223500D02*
X157634600Y-79073500D01*
G75*
G02*
X157709600Y-78998500I75000J0D01*
G01*
X159034600Y-78998500D01*
G75*
G02*
X159109600Y-79073500I0J-75000D01*
G01*
X159109600Y-79223500D01*
G75*
G02*
X159034600Y-79298500I-75000J0D01*
G01*
X157709600Y-79298500D01*
G75*
G02*
X157634600Y-79223500I0J75000D01*
G01*
G37*
G36*
G01*
X157634600Y-78723500D02*
X157634600Y-78573500D01*
G75*
G02*
X157709600Y-78498500I75000J0D01*
G01*
X159034600Y-78498500D01*
G75*
G02*
X159109600Y-78573500I0J-75000D01*
G01*
X159109600Y-78723500D01*
G75*
G02*
X159034600Y-78798500I-75000J0D01*
G01*
X157709600Y-78798500D01*
G75*
G02*
X157634600Y-78723500I0J75000D01*
G01*
G37*
G36*
G01*
X157634600Y-78223500D02*
X157634600Y-78073500D01*
G75*
G02*
X157709600Y-77998500I75000J0D01*
G01*
X159034600Y-77998500D01*
G75*
G02*
X159109600Y-78073500I0J-75000D01*
G01*
X159109600Y-78223500D01*
G75*
G02*
X159034600Y-78298500I-75000J0D01*
G01*
X157709600Y-78298500D01*
G75*
G02*
X157634600Y-78223500I0J75000D01*
G01*
G37*
G36*
G01*
X157634600Y-77723500D02*
X157634600Y-77573500D01*
G75*
G02*
X157709600Y-77498500I75000J0D01*
G01*
X159034600Y-77498500D01*
G75*
G02*
X159109600Y-77573500I0J-75000D01*
G01*
X159109600Y-77723500D01*
G75*
G02*
X159034600Y-77798500I-75000J0D01*
G01*
X157709600Y-77798500D01*
G75*
G02*
X157634600Y-77723500I0J75000D01*
G01*
G37*
G36*
G01*
X157634600Y-77223500D02*
X157634600Y-77073500D01*
G75*
G02*
X157709600Y-76998500I75000J0D01*
G01*
X159034600Y-76998500D01*
G75*
G02*
X159109600Y-77073500I0J-75000D01*
G01*
X159109600Y-77223500D01*
G75*
G02*
X159034600Y-77298500I-75000J0D01*
G01*
X157709600Y-77298500D01*
G75*
G02*
X157634600Y-77223500I0J75000D01*
G01*
G37*
G36*
G01*
X157634600Y-76723500D02*
X157634600Y-76573500D01*
G75*
G02*
X157709600Y-76498500I75000J0D01*
G01*
X159034600Y-76498500D01*
G75*
G02*
X159109600Y-76573500I0J-75000D01*
G01*
X159109600Y-76723500D01*
G75*
G02*
X159034600Y-76798500I-75000J0D01*
G01*
X157709600Y-76798500D01*
G75*
G02*
X157634600Y-76723500I0J75000D01*
G01*
G37*
G36*
G01*
X157634600Y-76223500D02*
X157634600Y-76073500D01*
G75*
G02*
X157709600Y-75998500I75000J0D01*
G01*
X159034600Y-75998500D01*
G75*
G02*
X159109600Y-76073500I0J-75000D01*
G01*
X159109600Y-76223500D01*
G75*
G02*
X159034600Y-76298500I-75000J0D01*
G01*
X157709600Y-76298500D01*
G75*
G02*
X157634600Y-76223500I0J75000D01*
G01*
G37*
G36*
G01*
X157634600Y-75723500D02*
X157634600Y-75573500D01*
G75*
G02*
X157709600Y-75498500I75000J0D01*
G01*
X159034600Y-75498500D01*
G75*
G02*
X159109600Y-75573500I0J-75000D01*
G01*
X159109600Y-75723500D01*
G75*
G02*
X159034600Y-75798500I-75000J0D01*
G01*
X157709600Y-75798500D01*
G75*
G02*
X157634600Y-75723500I0J75000D01*
G01*
G37*
G36*
G01*
X157634600Y-75223500D02*
X157634600Y-75073500D01*
G75*
G02*
X157709600Y-74998500I75000J0D01*
G01*
X159034600Y-74998500D01*
G75*
G02*
X159109600Y-75073500I0J-75000D01*
G01*
X159109600Y-75223500D01*
G75*
G02*
X159034600Y-75298500I-75000J0D01*
G01*
X157709600Y-75298500D01*
G75*
G02*
X157634600Y-75223500I0J75000D01*
G01*
G37*
G36*
G01*
X157634600Y-74723500D02*
X157634600Y-74573500D01*
G75*
G02*
X157709600Y-74498500I75000J0D01*
G01*
X159034600Y-74498500D01*
G75*
G02*
X159109600Y-74573500I0J-75000D01*
G01*
X159109600Y-74723500D01*
G75*
G02*
X159034600Y-74798500I-75000J0D01*
G01*
X157709600Y-74798500D01*
G75*
G02*
X157634600Y-74723500I0J75000D01*
G01*
G37*
G36*
G01*
X157634600Y-74223500D02*
X157634600Y-74073500D01*
G75*
G02*
X157709600Y-73998500I75000J0D01*
G01*
X159034600Y-73998500D01*
G75*
G02*
X159109600Y-74073500I0J-75000D01*
G01*
X159109600Y-74223500D01*
G75*
G02*
X159034600Y-74298500I-75000J0D01*
G01*
X157709600Y-74298500D01*
G75*
G02*
X157634600Y-74223500I0J75000D01*
G01*
G37*
%TD*%
D12*
%TO.C,R41*%
X172834300Y-102323400D03*
X172834300Y-100673400D03*
%TD*%
%TO.C,R40*%
X176263300Y-100648000D03*
X176263300Y-102298000D03*
%TD*%
%TO.C,R39*%
X167614600Y-102298000D03*
X167614600Y-100648000D03*
%TD*%
%TO.C,R38*%
X171078240Y-100648000D03*
X171078240Y-102298000D03*
%TD*%
%TO.C,R37*%
X172825060Y-98068900D03*
X172825060Y-96418900D03*
%TD*%
%TO.C,R36*%
X176288700Y-96418900D03*
X176288700Y-98068900D03*
%TD*%
%TO.C,R35*%
X167614600Y-98068900D03*
X167614600Y-96418900D03*
%TD*%
%TO.C,R34*%
X171078240Y-96418900D03*
X171078240Y-98068900D03*
%TD*%
%TO.C,R33*%
X172825060Y-94025100D03*
X172825060Y-92375100D03*
%TD*%
%TO.C,R30*%
X176288700Y-92375100D03*
X176288700Y-94025100D03*
%TD*%
%TO.C,R27*%
X171069000Y-94030300D03*
X171069000Y-92380300D03*
%TD*%
%TO.C,R23*%
X167601900Y-92431100D03*
X167601900Y-94081100D03*
%TD*%
D13*
%TO.C,C31*%
X174571880Y-100698000D03*
X174571880Y-102248000D03*
%TD*%
%TO.C,C30*%
X169361420Y-100698000D03*
X169361420Y-102248000D03*
%TD*%
%TO.C,C29*%
X174571880Y-96468900D03*
X174571880Y-98018900D03*
%TD*%
%TO.C,C28*%
X169361420Y-96468900D03*
X169361420Y-98018900D03*
%TD*%
%TO.C,C27*%
X174571880Y-92425100D03*
X174571880Y-93975100D03*
%TD*%
%TO.C,C24*%
X169303700Y-92481100D03*
X169303700Y-94031100D03*
%TD*%
D14*
%TO.C,C1*%
X102254800Y-98539300D03*
X109254800Y-98539300D03*
%TD*%
D15*
%TO.C,U3*%
X115989100Y-96657200D03*
X118529100Y-96657200D03*
X113449100Y-96657200D03*
X115989100Y-88407200D03*
X118529100Y-88407200D03*
X113449100Y-88407200D03*
%TD*%
%TO.C,U6*%
X159651400Y-97025500D03*
X162191400Y-97025500D03*
X157111400Y-97025500D03*
X159651400Y-88775500D03*
X162191400Y-88775500D03*
X157111400Y-88775500D03*
%TD*%
%TO.C,U5*%
X149317800Y-97025500D03*
X151857800Y-97025500D03*
X146777800Y-97025500D03*
X149317800Y-88775500D03*
X151857800Y-88775500D03*
X146777800Y-88775500D03*
%TD*%
%TO.C,U4*%
X138988800Y-97039500D03*
X141528800Y-97039500D03*
X136448800Y-97039500D03*
X138988800Y-88789500D03*
X141528800Y-88789500D03*
X136448800Y-88789500D03*
%TD*%
D16*
%TO.C,R32*%
X146245080Y-86837520D03*
X144595080Y-86837520D03*
%TD*%
D17*
%TO.C,D6*%
X146202500Y-85267800D03*
X144627500Y-85267800D03*
%TD*%
D18*
%TO.C,U8*%
X156679900Y-84673200D03*
X157629900Y-86548200D03*
X155729900Y-86548200D03*
%TD*%
D19*
%TO.C,D1*%
X146290300Y-82994500D03*
X142990300Y-82994500D03*
%TD*%
D20*
%TO.C,C23*%
X181407100Y-80594200D03*
X179857100Y-80594200D03*
%TD*%
%TO.C,C22*%
X157886700Y-82765900D03*
X156336700Y-82765900D03*
%TD*%
%TO.C,C21*%
X181407100Y-79070200D03*
X179857100Y-79070200D03*
%TD*%
%TO.C,C19*%
X169570700Y-83985100D03*
X168020700Y-83985100D03*
%TD*%
D21*
%TO.C,C18*%
X156324000Y-81216500D03*
X157874000Y-81216500D03*
%TD*%
D13*
%TO.C,C17*%
X156083000Y-73304700D03*
X156083000Y-71754700D03*
%TD*%
%TO.C,C16*%
X151358600Y-78981000D03*
X151358600Y-80531000D03*
%TD*%
D20*
%TO.C,C15*%
X153594100Y-73888600D03*
X152044100Y-73888600D03*
%TD*%
%TO.C,C14*%
X173708360Y-73101200D03*
X172158360Y-73101200D03*
%TD*%
%TO.C,C13*%
X173695660Y-74625200D03*
X172145660Y-74625200D03*
%TD*%
%TO.C,C12*%
X169558000Y-82448400D03*
X168008000Y-82448400D03*
%TD*%
%TO.C,C11*%
X152412400Y-71704200D03*
X153962400Y-71704200D03*
%TD*%
%TO.C,C10*%
X186385500Y-74523600D03*
X184835500Y-74523600D03*
%TD*%
%TO.C,C9*%
X172145660Y-77647800D03*
X173695660Y-77647800D03*
%TD*%
%TO.C,C8*%
X180822300Y-74472800D03*
X182372300Y-74472800D03*
%TD*%
%TO.C,C7*%
X172145660Y-79159100D03*
X173695660Y-79159100D03*
%TD*%
D13*
%TO.C,C6*%
X139217400Y-82042300D03*
X139217400Y-80492300D03*
%TD*%
%TO.C,C5*%
X181419500Y-82092500D03*
X181419500Y-83642500D03*
%TD*%
D22*
%TO.C,R19*%
X155321000Y-103913400D03*
X155321000Y-100988400D03*
%TD*%
%TO.C,R18*%
X144932400Y-103900700D03*
X144932400Y-100975700D03*
%TD*%
%TO.C,R17*%
X134543800Y-103875300D03*
X134543800Y-100950300D03*
%TD*%
D10*
%TO.C,R16*%
X113857500Y-98907600D03*
X110932500Y-98907600D03*
%TD*%
D22*
%TO.C,R14*%
X163220400Y-101026500D03*
X163220400Y-103951500D03*
%TD*%
%TO.C,R13*%
X152819100Y-100988400D03*
X152819100Y-103913400D03*
%TD*%
%TO.C,R12*%
X142430500Y-100975700D03*
X142430500Y-103900700D03*
%TD*%
D10*
%TO.C,R11*%
X118531100Y-98907600D03*
X115606100Y-98907600D03*
%TD*%
D16*
%TO.C,R26*%
X161688280Y-70866000D03*
X160038280Y-70866000D03*
%TD*%
%TO.C,R24*%
X154863300Y-81216500D03*
X153213300Y-81216500D03*
%TD*%
%TO.C,R22*%
X172095660Y-76136500D03*
X173745660Y-76136500D03*
%TD*%
%TO.C,R21*%
X178421800Y-74485500D03*
X176771800Y-74485500D03*
%TD*%
%TO.C,R20*%
X153213300Y-82753200D03*
X154863300Y-82753200D03*
%TD*%
%TO.C,R15*%
X181431700Y-85166200D03*
X179781700Y-85166200D03*
%TD*%
%TO.C,R10*%
X137055360Y-86832440D03*
X135405360Y-86832440D03*
%TD*%
%TO.C,R9*%
X160806900Y-86791800D03*
X159156900Y-86791800D03*
%TD*%
%TO.C,R8*%
X150443700Y-86791800D03*
X148793700Y-86791800D03*
%TD*%
%TO.C,R7*%
X140131300Y-86829900D03*
X138481300Y-86829900D03*
%TD*%
%TO.C,R6*%
X117106200Y-85826600D03*
X115456200Y-85826600D03*
%TD*%
%TO.C,R5*%
X163841400Y-86791800D03*
X162191400Y-86791800D03*
%TD*%
%TO.C,R4*%
X153495100Y-86791800D03*
X151845100Y-86791800D03*
%TD*%
%TO.C,R3*%
X143179300Y-86829900D03*
X141529300Y-86829900D03*
%TD*%
%TO.C,R2*%
X120166900Y-85826600D03*
X118516900Y-85826600D03*
%TD*%
D23*
%TO.C,U7*%
X141350600Y-75868500D03*
X141350600Y-80468500D03*
X141350600Y-78168500D03*
D24*
X147650600Y-78168500D03*
%TD*%
D25*
%TO.C,U2*%
X129481580Y-96291980D03*
X132021580Y-96291980D03*
X132021580Y-87791980D03*
X129481580Y-87791980D03*
%TD*%
%TO.C,U1*%
X123753880Y-96300180D03*
X126293880Y-96300180D03*
X126293880Y-87800180D03*
X123753880Y-87800180D03*
%TD*%
M02*
