M48
INCH,TZ
T1C0.0157
T2C0.0236
T3C0.0256
T4C0.0315
T5C0.0374
T6C0.0390
T7C0.0394
T8C0.0433
T9C0.0531
T10C0.0591
T11C0.1693
%
G90
G05
T1
X39760Y-38799
X44440Y-33780
X44440Y-34060
X44710Y-33780
X44730Y-34060
X53960Y-33688
X54308Y-28992
X54308Y-29266
X54308Y-29548
X54308Y-29844
X54308Y-30130
X54308Y-30400
X54624Y-28994
X54628Y-29266
X54642Y-29562
X54642Y-29844
X54642Y-30130
X54642Y-30398
X54675Y-30775
X54948Y-28994
X54950Y-29278
X54950Y-29562
X54950Y-29856
X54952Y-30130
X54952Y-30408
X56438Y-34770
X56438Y-35066
X56438Y-35360
X56746Y-34770
X56746Y-35066
X56746Y-35360
X56905Y-32665
X57080Y-34770
X57080Y-35066
X57092Y-35348
X58834Y-28880
X58844Y-29172
X59158Y-28880
X59158Y-29182
X59460Y-28880
X59460Y-29182
X60330Y-33150
X60885Y-33645
X60895Y-34120
X61020Y-27990
X61066Y-30092
X61470Y-29314
X61480Y-29592
X61740Y-29320
X61744Y-29588
X62142Y-33228
X62510Y-28355
X62560Y-33225
X62570Y-33645
X62590Y-31925
X65400Y-28450
X65636Y-32458
X65672Y-32886
X65978Y-43002
X65978Y-44816
X65990Y-37510
X65995Y-39180
X65995Y-40820
X66144Y-29190
X66260Y-35661
X66500Y-40835
X66525Y-39105
X66575Y-35664
X66665Y-30720
X66668Y-43002
X66668Y-44816
X66835Y-40830
X66842Y-39102
X66870Y-37485
X66890Y-28810
X66890Y-35670
X66925Y-29380
X67205Y-35672
X67250Y-33100
X67252Y-33388
X67355Y-37565
X67355Y-39215
X67355Y-40910
X67358Y-43002
X67358Y-44816
X67520Y-35675
X67554Y-33388
X67839Y-35672
X67995Y-34480
X67995Y-33385
X68045Y-37576
X68045Y-39170
X68045Y-40886
X68048Y-43002
X68048Y-44816
X68402Y-35878
X68465Y-40890
X68530Y-39195
X68700Y-35876
X68738Y-43002
X68738Y-44816
X68905Y-40890
X68910Y-39185
X68976Y-31502
X68976Y-31777
X68976Y-32062
X69261Y-31502
X69266Y-31777
X69276Y-32062
X69390Y-40900
X69405Y-35895
X69405Y-37576
X69405Y-39205
X69428Y-43002
X69428Y-44816
X69536Y-31502
X69536Y-31787
X69541Y-32062
X69595Y-29930
X69950Y-35088
X70385Y-34480
X70780Y-34111
X70940Y-37502
X70946Y-37220
X70950Y-36934
X71254Y-36926
X71254Y-37220
X71258Y-37502
X71558Y-36926
X71558Y-37208
X71558Y-37502
T2
X35465Y-28920
X35465Y-44725
X35837Y-28022
X35837Y-29818
X35837Y-43827
X35837Y-45623
X36735Y-27650
X36735Y-30190
X36735Y-43455
X36735Y-45995
X37633Y-28022
X37633Y-29818
X37633Y-43827
X37633Y-45623
X38005Y-28920
X38005Y-44725
X74295Y-28930
X74295Y-44735
X74667Y-28032
X74667Y-29828
X74667Y-43837
X74667Y-45633
X75565Y-27660
X75565Y-30200
X75565Y-43465
X75565Y-46005
X76463Y-28032
X76463Y-29828
X76463Y-43837
X76463Y-45633
X76835Y-28930
X76835Y-44735
T3
X66320Y-27755
X66820Y-27755
X67320Y-27755
X67820Y-27755
T4
X53536Y-42640
X55122Y-28204
X55504Y-42640
X56106Y-28204
X57368Y-28204
X57626Y-42640
X58352Y-28204
X59594Y-42640
X61716Y-42640
X63684Y-42640
T5
X70511Y-28170
X71496Y-28170
X72480Y-28170
T6
X54020Y-40980
X54520Y-39980
X55020Y-40980
X58110Y-40985
X58610Y-39985
X59110Y-40985
X62200Y-41000
X62700Y-40000
X63200Y-41000
T7
X43835Y-30270
X45804Y-30270
X52300Y-30270
X53284Y-30270
X71200Y-38315
X71200Y-39315
X71200Y-40315
X71200Y-41315
X71200Y-42315
X71200Y-43315
X71200Y-44315
X72200Y-38315
X72200Y-39315
X72200Y-40315
X72200Y-41315
X72200Y-42315
X72200Y-43315
X72200Y-44315
X72605Y-31951
X72605Y-32935
T8
X44551Y-40426
X45520Y-41410
X46520Y-40407
T9
X39734Y-31353
X39734Y-33353
X41395Y-27771
X41395Y-29771
X41395Y-34928
X41395Y-36928
X53484Y-45990
X55484Y-45990
X57606Y-45990
X59606Y-45990
X61696Y-45990
X63696Y-45990
T10
X41933Y-41410
X49138Y-41410
T11
X36735Y-28920
X36735Y-44725
X75565Y-28930
X75565Y-44735
T0
M30
