%TF.GenerationSoftware,KiCad,Pcbnew,(5.1.10)-1*%
%TF.CreationDate,2021-11-29T17:35:51+04:00*%
%TF.ProjectId,Coffe_Machine_Gogokhia_Edition_SIMPLE,436f6666-655f-44d6-9163-68696e655f47,rev?*%
%TF.SameCoordinates,Original*%
%TF.FileFunction,Legend,Top*%
%TF.FilePolarity,Positive*%
%FSLAX46Y46*%
G04 Gerber Fmt 4.6, Leading zero omitted, Abs format (unit mm)*
G04 Created by KiCad (PCBNEW (5.1.10)-1) date 2021-11-29 17:35:51*
%MOMM*%
%LPD*%
G01*
G04 APERTURE LIST*
%ADD10C,0.100000*%
%ADD11C,0.150000*%
%ADD12C,0.120000*%
%ADD13C,0.127000*%
%ADD14C,0.200000*%
%ADD15C,0.010000*%
G04 APERTURE END LIST*
D10*
X174259548Y-71952013D02*
X174259548Y-71418680D01*
X174640500Y-71685346D02*
X173878596Y-71685346D01*
X173640500Y-71152013D02*
X173640500Y-70718680D01*
X174021453Y-70952013D01*
X174021453Y-70852013D01*
X174069072Y-70785346D01*
X174116691Y-70752013D01*
X174211929Y-70718680D01*
X174450024Y-70718680D01*
X174545262Y-70752013D01*
X174592881Y-70785346D01*
X174640500Y-70852013D01*
X174640500Y-71052013D01*
X174592881Y-71118680D01*
X174545262Y-71152013D01*
X173640500Y-70518680D02*
X174640500Y-70285346D01*
X173640500Y-70052013D01*
X173640500Y-69885346D02*
X173640500Y-69452013D01*
X174021453Y-69685346D01*
X174021453Y-69585346D01*
X174069072Y-69518680D01*
X174116691Y-69485346D01*
X174211929Y-69452013D01*
X174450024Y-69452013D01*
X174545262Y-69485346D01*
X174592881Y-69518680D01*
X174640500Y-69585346D01*
X174640500Y-69785346D01*
X174592881Y-69852013D01*
X174545262Y-69885346D01*
D11*
X156150857Y-115096823D02*
X156365142Y-115192061D01*
X156722285Y-115192061D01*
X156865142Y-115096823D01*
X156936571Y-115001585D01*
X157008000Y-114811109D01*
X157008000Y-114620633D01*
X156936571Y-114430157D01*
X156865142Y-114334919D01*
X156722285Y-114239680D01*
X156436571Y-114144442D01*
X156293714Y-114049204D01*
X156222285Y-113953966D01*
X156150857Y-113763490D01*
X156150857Y-113573014D01*
X156222285Y-113382538D01*
X156293714Y-113287300D01*
X156436571Y-113192061D01*
X156793714Y-113192061D01*
X157008000Y-113287300D01*
X157936571Y-113192061D02*
X158222285Y-113192061D01*
X158365142Y-113287300D01*
X158508000Y-113477776D01*
X158579428Y-113858728D01*
X158579428Y-114525395D01*
X158508000Y-114906347D01*
X158365142Y-115096823D01*
X158222285Y-115192061D01*
X157936571Y-115192061D01*
X157793714Y-115096823D01*
X157650857Y-114906347D01*
X157579428Y-114525395D01*
X157579428Y-113858728D01*
X157650857Y-113477776D01*
X157793714Y-113287300D01*
X157936571Y-113192061D01*
X159936571Y-115192061D02*
X159222285Y-115192061D01*
X159222285Y-113192061D01*
X161508000Y-113382538D02*
X161579428Y-113287300D01*
X161722285Y-113192061D01*
X162079428Y-113192061D01*
X162222285Y-113287300D01*
X162293714Y-113382538D01*
X162365142Y-113573014D01*
X162365142Y-113763490D01*
X162293714Y-114049204D01*
X161436571Y-115192061D01*
X162365142Y-115192061D01*
X145787657Y-115046023D02*
X146001942Y-115141261D01*
X146359085Y-115141261D01*
X146501942Y-115046023D01*
X146573371Y-114950785D01*
X146644800Y-114760309D01*
X146644800Y-114569833D01*
X146573371Y-114379357D01*
X146501942Y-114284119D01*
X146359085Y-114188880D01*
X146073371Y-114093642D01*
X145930514Y-113998404D01*
X145859085Y-113903166D01*
X145787657Y-113712690D01*
X145787657Y-113522214D01*
X145859085Y-113331738D01*
X145930514Y-113236500D01*
X146073371Y-113141261D01*
X146430514Y-113141261D01*
X146644800Y-113236500D01*
X147573371Y-113141261D02*
X147859085Y-113141261D01*
X148001942Y-113236500D01*
X148144800Y-113426976D01*
X148216228Y-113807928D01*
X148216228Y-114474595D01*
X148144800Y-114855547D01*
X148001942Y-115046023D01*
X147859085Y-115141261D01*
X147573371Y-115141261D01*
X147430514Y-115046023D01*
X147287657Y-114855547D01*
X147216228Y-114474595D01*
X147216228Y-113807928D01*
X147287657Y-113426976D01*
X147430514Y-113236500D01*
X147573371Y-113141261D01*
X149573371Y-115141261D02*
X148859085Y-115141261D01*
X148859085Y-113141261D01*
X152001942Y-115141261D02*
X151144800Y-115141261D01*
X151573371Y-115141261D02*
X151573371Y-113141261D01*
X151430514Y-113426976D01*
X151287657Y-113617452D01*
X151144800Y-113712690D01*
X135542685Y-115141261D02*
X135542685Y-113141261D01*
X136114114Y-113141261D01*
X136256971Y-113236500D01*
X136328400Y-113331738D01*
X136399828Y-113522214D01*
X136399828Y-113807928D01*
X136328400Y-113998404D01*
X136256971Y-114093642D01*
X136114114Y-114188880D01*
X135542685Y-114188880D01*
X137042685Y-113141261D02*
X137042685Y-114760309D01*
X137114114Y-114950785D01*
X137185542Y-115046023D01*
X137328400Y-115141261D01*
X137614114Y-115141261D01*
X137756971Y-115046023D01*
X137828400Y-114950785D01*
X137899828Y-114760309D01*
X137899828Y-113141261D01*
X138614114Y-115141261D02*
X138614114Y-113141261D01*
X139114114Y-114569833D01*
X139614114Y-113141261D01*
X139614114Y-115141261D01*
X140328400Y-115141261D02*
X140328400Y-113141261D01*
X140899828Y-113141261D01*
X141042685Y-113236500D01*
X141114114Y-113331738D01*
X141185542Y-113522214D01*
X141185542Y-113807928D01*
X141114114Y-113998404D01*
X141042685Y-114093642D01*
X140899828Y-114188880D01*
X140328400Y-114188880D01*
X103279461Y-74752757D02*
X101279461Y-74752757D01*
X103279461Y-73895614D01*
X101279461Y-73895614D01*
X102231842Y-73181328D02*
X102231842Y-72681328D01*
X103279461Y-72467042D02*
X103279461Y-73181328D01*
X101279461Y-73181328D01*
X101279461Y-72467042D01*
X101279461Y-71824185D02*
X102898509Y-71824185D01*
X103088985Y-71752757D01*
X103184223Y-71681328D01*
X103279461Y-71538471D01*
X103279461Y-71252757D01*
X103184223Y-71109900D01*
X103088985Y-71038471D01*
X102898509Y-70967042D01*
X101279461Y-70967042D01*
X101279461Y-70467042D02*
X101279461Y-69609900D01*
X103279461Y-70038471D02*
X101279461Y-70038471D01*
X104701861Y-83284842D02*
X104701861Y-83999128D01*
X102701861Y-83999128D01*
X104701861Y-82784842D02*
X102701861Y-82784842D01*
X104701861Y-82070557D02*
X102701861Y-82070557D01*
X104701861Y-81213414D01*
X102701861Y-81213414D01*
X103654242Y-80499128D02*
X103654242Y-79999128D01*
X104701861Y-79784842D02*
X104701861Y-80499128D01*
X102701861Y-80499128D01*
X102701861Y-79784842D01*
X102168342Y-94244728D02*
X102263580Y-94030442D01*
X102358819Y-93959014D01*
X102549295Y-93887585D01*
X102835009Y-93887585D01*
X103025485Y-93959014D01*
X103120723Y-94030442D01*
X103215961Y-94173300D01*
X103215961Y-94744728D01*
X101215961Y-94744728D01*
X101215961Y-94244728D01*
X101311200Y-94101871D01*
X101406438Y-94030442D01*
X101596914Y-93959014D01*
X101787390Y-93959014D01*
X101977866Y-94030442D01*
X102073104Y-94101871D01*
X102168342Y-94244728D01*
X102168342Y-94744728D01*
X101215961Y-92959014D02*
X101215961Y-92673300D01*
X101311200Y-92530442D01*
X101501676Y-92387585D01*
X101882628Y-92316157D01*
X102549295Y-92316157D01*
X102930247Y-92387585D01*
X103120723Y-92530442D01*
X103215961Y-92673300D01*
X103215961Y-92959014D01*
X103120723Y-93101871D01*
X102930247Y-93244728D01*
X102549295Y-93316157D01*
X101882628Y-93316157D01*
X101501676Y-93244728D01*
X101311200Y-93101871D01*
X101215961Y-92959014D01*
X103215961Y-91673300D02*
X101215961Y-91673300D01*
X103215961Y-90244728D02*
X103215961Y-90959014D01*
X101215961Y-90959014D01*
X102168342Y-89744728D02*
X102168342Y-89244728D01*
X103215961Y-89030442D02*
X103215961Y-89744728D01*
X101215961Y-89744728D01*
X101215961Y-89030442D01*
X103215961Y-87530442D02*
X102263580Y-88030442D01*
X103215961Y-88387585D02*
X101215961Y-88387585D01*
X101215961Y-87816157D01*
X101311200Y-87673300D01*
X101406438Y-87601871D01*
X101596914Y-87530442D01*
X101882628Y-87530442D01*
X102073104Y-87601871D01*
X102168342Y-87673300D01*
X102263580Y-87816157D01*
X102263580Y-88387585D01*
D10*
X147066914Y-85288428D02*
X147638342Y-85288428D01*
X147352628Y-85669380D02*
X147352628Y-84907476D01*
X148352628Y-84669380D02*
X147995485Y-84669380D01*
X147959771Y-85145571D01*
X147995485Y-85097952D01*
X148066914Y-85050333D01*
X148245485Y-85050333D01*
X148316914Y-85097952D01*
X148352628Y-85145571D01*
X148388342Y-85240809D01*
X148388342Y-85478904D01*
X148352628Y-85574142D01*
X148316914Y-85621761D01*
X148245485Y-85669380D01*
X148066914Y-85669380D01*
X147995485Y-85621761D01*
X147959771Y-85574142D01*
X148602628Y-84669380D02*
X148852628Y-85669380D01*
X149102628Y-84669380D01*
X167341822Y-70988026D02*
X167389441Y-71021360D01*
X167437060Y-71121360D01*
X167437060Y-71188026D01*
X167389441Y-71288026D01*
X167294203Y-71354693D01*
X167198965Y-71388026D01*
X167008489Y-71421360D01*
X166865632Y-71421360D01*
X166675156Y-71388026D01*
X166579918Y-71354693D01*
X166484680Y-71288026D01*
X166437060Y-71188026D01*
X166437060Y-71121360D01*
X166484680Y-71021360D01*
X166532299Y-70988026D01*
X167437060Y-70354693D02*
X167437060Y-70688026D01*
X166437060Y-70688026D01*
X167437060Y-70121360D02*
X166437060Y-70121360D01*
X167437060Y-69721360D02*
X166865632Y-70021360D01*
X166437060Y-69721360D02*
X167008489Y-70121360D01*
D12*
%TO.C,R1*%
X123236344Y-98007760D02*
X121782216Y-98007760D01*
X123236344Y-99827760D02*
X121782216Y-99827760D01*
%TO.C,C25*%
X143879880Y-71638160D02*
G75*
G03*
X143879880Y-71638160I-2620000J0D01*
G01*
X141259880Y-69058160D02*
X141259880Y-74218160D01*
X141299880Y-69058160D02*
X141299880Y-74218160D01*
X141339880Y-69059160D02*
X141339880Y-74217160D01*
X141379880Y-69060160D02*
X141379880Y-74216160D01*
X141419880Y-69062160D02*
X141419880Y-74214160D01*
X141459880Y-69065160D02*
X141459880Y-74211160D01*
X141499880Y-69069160D02*
X141499880Y-70598160D01*
X141499880Y-72678160D02*
X141499880Y-74207160D01*
X141539880Y-69073160D02*
X141539880Y-70598160D01*
X141539880Y-72678160D02*
X141539880Y-74203160D01*
X141579880Y-69077160D02*
X141579880Y-70598160D01*
X141579880Y-72678160D02*
X141579880Y-74199160D01*
X141619880Y-69082160D02*
X141619880Y-70598160D01*
X141619880Y-72678160D02*
X141619880Y-74194160D01*
X141659880Y-69088160D02*
X141659880Y-70598160D01*
X141659880Y-72678160D02*
X141659880Y-74188160D01*
X141699880Y-69095160D02*
X141699880Y-70598160D01*
X141699880Y-72678160D02*
X141699880Y-74181160D01*
X141739880Y-69102160D02*
X141739880Y-70598160D01*
X141739880Y-72678160D02*
X141739880Y-74174160D01*
X141779880Y-69110160D02*
X141779880Y-70598160D01*
X141779880Y-72678160D02*
X141779880Y-74166160D01*
X141819880Y-69118160D02*
X141819880Y-70598160D01*
X141819880Y-72678160D02*
X141819880Y-74158160D01*
X141859880Y-69127160D02*
X141859880Y-70598160D01*
X141859880Y-72678160D02*
X141859880Y-74149160D01*
X141899880Y-69137160D02*
X141899880Y-70598160D01*
X141899880Y-72678160D02*
X141899880Y-74139160D01*
X141939880Y-69147160D02*
X141939880Y-70598160D01*
X141939880Y-72678160D02*
X141939880Y-74129160D01*
X141980880Y-69158160D02*
X141980880Y-70598160D01*
X141980880Y-72678160D02*
X141980880Y-74118160D01*
X142020880Y-69170160D02*
X142020880Y-70598160D01*
X142020880Y-72678160D02*
X142020880Y-74106160D01*
X142060880Y-69183160D02*
X142060880Y-70598160D01*
X142060880Y-72678160D02*
X142060880Y-74093160D01*
X142100880Y-69196160D02*
X142100880Y-70598160D01*
X142100880Y-72678160D02*
X142100880Y-74080160D01*
X142140880Y-69210160D02*
X142140880Y-70598160D01*
X142140880Y-72678160D02*
X142140880Y-74066160D01*
X142180880Y-69224160D02*
X142180880Y-70598160D01*
X142180880Y-72678160D02*
X142180880Y-74052160D01*
X142220880Y-69240160D02*
X142220880Y-70598160D01*
X142220880Y-72678160D02*
X142220880Y-74036160D01*
X142260880Y-69256160D02*
X142260880Y-70598160D01*
X142260880Y-72678160D02*
X142260880Y-74020160D01*
X142300880Y-69273160D02*
X142300880Y-70598160D01*
X142300880Y-72678160D02*
X142300880Y-74003160D01*
X142340880Y-69290160D02*
X142340880Y-70598160D01*
X142340880Y-72678160D02*
X142340880Y-73986160D01*
X142380880Y-69309160D02*
X142380880Y-70598160D01*
X142380880Y-72678160D02*
X142380880Y-73967160D01*
X142420880Y-69328160D02*
X142420880Y-70598160D01*
X142420880Y-72678160D02*
X142420880Y-73948160D01*
X142460880Y-69348160D02*
X142460880Y-70598160D01*
X142460880Y-72678160D02*
X142460880Y-73928160D01*
X142500880Y-69370160D02*
X142500880Y-70598160D01*
X142500880Y-72678160D02*
X142500880Y-73906160D01*
X142540880Y-69391160D02*
X142540880Y-70598160D01*
X142540880Y-72678160D02*
X142540880Y-73885160D01*
X142580880Y-69414160D02*
X142580880Y-70598160D01*
X142580880Y-72678160D02*
X142580880Y-73862160D01*
X142620880Y-69438160D02*
X142620880Y-70598160D01*
X142620880Y-72678160D02*
X142620880Y-73838160D01*
X142660880Y-69463160D02*
X142660880Y-70598160D01*
X142660880Y-72678160D02*
X142660880Y-73813160D01*
X142700880Y-69489160D02*
X142700880Y-70598160D01*
X142700880Y-72678160D02*
X142700880Y-73787160D01*
X142740880Y-69516160D02*
X142740880Y-70598160D01*
X142740880Y-72678160D02*
X142740880Y-73760160D01*
X142780880Y-69543160D02*
X142780880Y-70598160D01*
X142780880Y-72678160D02*
X142780880Y-73733160D01*
X142820880Y-69573160D02*
X142820880Y-70598160D01*
X142820880Y-72678160D02*
X142820880Y-73703160D01*
X142860880Y-69603160D02*
X142860880Y-70598160D01*
X142860880Y-72678160D02*
X142860880Y-73673160D01*
X142900880Y-69634160D02*
X142900880Y-70598160D01*
X142900880Y-72678160D02*
X142900880Y-73642160D01*
X142940880Y-69667160D02*
X142940880Y-70598160D01*
X142940880Y-72678160D02*
X142940880Y-73609160D01*
X142980880Y-69701160D02*
X142980880Y-70598160D01*
X142980880Y-72678160D02*
X142980880Y-73575160D01*
X143020880Y-69737160D02*
X143020880Y-70598160D01*
X143020880Y-72678160D02*
X143020880Y-73539160D01*
X143060880Y-69774160D02*
X143060880Y-70598160D01*
X143060880Y-72678160D02*
X143060880Y-73502160D01*
X143100880Y-69812160D02*
X143100880Y-70598160D01*
X143100880Y-72678160D02*
X143100880Y-73464160D01*
X143140880Y-69853160D02*
X143140880Y-70598160D01*
X143140880Y-72678160D02*
X143140880Y-73423160D01*
X143180880Y-69895160D02*
X143180880Y-70598160D01*
X143180880Y-72678160D02*
X143180880Y-73381160D01*
X143220880Y-69939160D02*
X143220880Y-70598160D01*
X143220880Y-72678160D02*
X143220880Y-73337160D01*
X143260880Y-69985160D02*
X143260880Y-70598160D01*
X143260880Y-72678160D02*
X143260880Y-73291160D01*
X143300880Y-70033160D02*
X143300880Y-70598160D01*
X143300880Y-72678160D02*
X143300880Y-73243160D01*
X143340880Y-70084160D02*
X143340880Y-70598160D01*
X143340880Y-72678160D02*
X143340880Y-73192160D01*
X143380880Y-70138160D02*
X143380880Y-70598160D01*
X143380880Y-72678160D02*
X143380880Y-73138160D01*
X143420880Y-70195160D02*
X143420880Y-70598160D01*
X143420880Y-72678160D02*
X143420880Y-73081160D01*
X143460880Y-70255160D02*
X143460880Y-70598160D01*
X143460880Y-72678160D02*
X143460880Y-73021160D01*
X143500880Y-70319160D02*
X143500880Y-70598160D01*
X143500880Y-72678160D02*
X143500880Y-72957160D01*
X143540880Y-70387160D02*
X143540880Y-70598160D01*
X143540880Y-72678160D02*
X143540880Y-72889160D01*
X143580880Y-70460160D02*
X143580880Y-72816160D01*
X143620880Y-70540160D02*
X143620880Y-72736160D01*
X143660880Y-70627160D02*
X143660880Y-72649160D01*
X143700880Y-70723160D02*
X143700880Y-72553160D01*
X143740880Y-70833160D02*
X143740880Y-72443160D01*
X143780880Y-70961160D02*
X143780880Y-72315160D01*
X143820880Y-71120160D02*
X143820880Y-72156160D01*
X143860880Y-71354160D02*
X143860880Y-71922160D01*
X138455105Y-70163160D02*
X138955105Y-70163160D01*
X138705105Y-69913160D02*
X138705105Y-70413160D01*
%TO.C,Q1*%
X120740800Y-108451400D02*
X110500800Y-108451400D01*
X120740800Y-101481400D02*
X110500800Y-101481400D01*
X120740800Y-108451400D02*
X120740800Y-101481400D01*
X110500800Y-108451400D02*
X110500800Y-101481400D01*
X120740800Y-106941400D02*
X110500800Y-106941400D01*
X117470800Y-108451400D02*
X117470800Y-106941400D01*
X113769800Y-108451400D02*
X113769800Y-106941400D01*
X133160800Y-118181400D02*
X98160800Y-118181400D01*
X98160800Y-105181400D02*
X98160800Y-100181400D01*
X98160800Y-100181400D02*
X133160800Y-100181400D01*
X133160800Y-105181400D02*
X133160800Y-118181400D01*
X133160800Y-105181400D02*
X133160800Y-100181400D01*
X98160800Y-105181400D02*
X98160800Y-118181400D01*
%TO.C,Y1*%
X154527000Y-78078600D02*
X154527000Y-74778600D01*
X154527000Y-74778600D02*
X150527000Y-74778600D01*
%TO.C,U9*%
X165694600Y-80508500D02*
X166144600Y-80508500D01*
X166144600Y-80508500D02*
X166144600Y-80058500D01*
X159374600Y-80508500D02*
X158924600Y-80508500D01*
X158924600Y-80508500D02*
X158924600Y-80058500D01*
X165694600Y-73288500D02*
X166144600Y-73288500D01*
X166144600Y-73288500D02*
X166144600Y-73738500D01*
X159374600Y-73288500D02*
X158924600Y-73288500D01*
X158924600Y-73288500D02*
X158924600Y-73738500D01*
X158924600Y-73738500D02*
X157634600Y-73738500D01*
%TO.C,R41*%
X173356800Y-101261142D02*
X173356800Y-101735658D01*
X172311800Y-101261142D02*
X172311800Y-101735658D01*
%TO.C,R40*%
X175740800Y-101710258D02*
X175740800Y-101235742D01*
X176785800Y-101710258D02*
X176785800Y-101235742D01*
%TO.C,R39*%
X168137100Y-101235742D02*
X168137100Y-101710258D01*
X167092100Y-101235742D02*
X167092100Y-101710258D01*
%TO.C,R38*%
X170555740Y-101710258D02*
X170555740Y-101235742D01*
X171600740Y-101710258D02*
X171600740Y-101235742D01*
%TO.C,R37*%
X173347560Y-97006642D02*
X173347560Y-97481158D01*
X172302560Y-97006642D02*
X172302560Y-97481158D01*
%TO.C,R36*%
X175766200Y-97481158D02*
X175766200Y-97006642D01*
X176811200Y-97481158D02*
X176811200Y-97006642D01*
%TO.C,R35*%
X168137100Y-97006642D02*
X168137100Y-97481158D01*
X167092100Y-97006642D02*
X167092100Y-97481158D01*
%TO.C,R34*%
X170555740Y-97481158D02*
X170555740Y-97006642D01*
X171600740Y-97481158D02*
X171600740Y-97006642D01*
%TO.C,R33*%
X173347560Y-92962842D02*
X173347560Y-93437358D01*
X172302560Y-92962842D02*
X172302560Y-93437358D01*
%TO.C,R30*%
X175766200Y-93437358D02*
X175766200Y-92962842D01*
X176811200Y-93437358D02*
X176811200Y-92962842D01*
%TO.C,R27*%
X171591500Y-92968042D02*
X171591500Y-93442558D01*
X170546500Y-92968042D02*
X170546500Y-93442558D01*
%TO.C,R23*%
X167079400Y-93493358D02*
X167079400Y-93018842D01*
X168124400Y-93493358D02*
X168124400Y-93018842D01*
%TO.C,J9*%
X177558000Y-92110100D02*
X186678000Y-92110100D01*
X186678000Y-92110100D02*
X186678000Y-117770100D01*
X186678000Y-117770100D02*
X177558000Y-117770100D01*
X177558000Y-117770100D02*
X177558000Y-92110100D01*
X177558000Y-102890100D02*
X178868000Y-102890100D01*
X178868000Y-102890100D02*
X178868000Y-93410100D01*
X178868000Y-93410100D02*
X185368000Y-93410100D01*
X185368000Y-93410100D02*
X185368000Y-116470100D01*
X185368000Y-116470100D02*
X178868000Y-116470100D01*
X178868000Y-116470100D02*
X178868000Y-106990100D01*
X178868000Y-106990100D02*
X178868000Y-106990100D01*
X178868000Y-106990100D02*
X177558000Y-106990100D01*
X177168000Y-97320100D02*
X176168000Y-96820100D01*
X176168000Y-96820100D02*
X176168000Y-97820100D01*
X176168000Y-97820100D02*
X177168000Y-97320100D01*
%TO.C,C31*%
X175081880Y-101613580D02*
X175081880Y-101332420D01*
X174061880Y-101613580D02*
X174061880Y-101332420D01*
%TO.C,C30*%
X169871420Y-101613580D02*
X169871420Y-101332420D01*
X168851420Y-101613580D02*
X168851420Y-101332420D01*
%TO.C,C29*%
X175081880Y-97384480D02*
X175081880Y-97103320D01*
X174061880Y-97384480D02*
X174061880Y-97103320D01*
%TO.C,C28*%
X169871420Y-97384480D02*
X169871420Y-97103320D01*
X168851420Y-97384480D02*
X168851420Y-97103320D01*
%TO.C,C27*%
X175081880Y-93340680D02*
X175081880Y-93059520D01*
X174061880Y-93340680D02*
X174061880Y-93059520D01*
%TO.C,C24*%
X169813700Y-93396680D02*
X169813700Y-93115520D01*
X168793700Y-93396680D02*
X168793700Y-93115520D01*
%TO.C,C1*%
X109254800Y-99909300D02*
X102254800Y-99909300D01*
X109254800Y-97169300D02*
X102254800Y-97169300D01*
X109254800Y-99909300D02*
X109254800Y-99594300D01*
X109254800Y-97484300D02*
X109254800Y-97169300D01*
X102254800Y-99909300D02*
X102254800Y-99594300D01*
X102254800Y-97484300D02*
X102254800Y-97169300D01*
D13*
%TO.C,U3*%
X119739100Y-87782200D02*
X119739100Y-89357200D01*
X119639100Y-95707200D02*
X120244100Y-95707200D01*
X120244100Y-95707200D02*
X120244100Y-89357200D01*
X120244100Y-89357200D02*
X119739100Y-89357200D01*
X111739100Y-95707200D02*
X112339100Y-95707200D01*
X111739100Y-89357200D02*
X112339100Y-89357200D01*
X111734100Y-89382200D02*
X111734100Y-95682200D01*
%TO.C,U6*%
X163401400Y-88150500D02*
X163401400Y-89725500D01*
X163301400Y-96075500D02*
X163906400Y-96075500D01*
X163906400Y-96075500D02*
X163906400Y-89725500D01*
X163906400Y-89725500D02*
X163401400Y-89725500D01*
X155401400Y-96075500D02*
X156001400Y-96075500D01*
X155401400Y-89725500D02*
X156001400Y-89725500D01*
X155396400Y-89750500D02*
X155396400Y-96050500D01*
%TO.C,U5*%
X153067800Y-88150500D02*
X153067800Y-89725500D01*
X152967800Y-96075500D02*
X153572800Y-96075500D01*
X153572800Y-96075500D02*
X153572800Y-89725500D01*
X153572800Y-89725500D02*
X153067800Y-89725500D01*
X145067800Y-96075500D02*
X145667800Y-96075500D01*
X145067800Y-89725500D02*
X145667800Y-89725500D01*
X145062800Y-89750500D02*
X145062800Y-96050500D01*
%TO.C,U4*%
X142738800Y-88164500D02*
X142738800Y-89739500D01*
X142638800Y-96089500D02*
X143243800Y-96089500D01*
X143243800Y-96089500D02*
X143243800Y-89739500D01*
X143243800Y-89739500D02*
X142738800Y-89739500D01*
X134738800Y-96089500D02*
X135338800Y-96089500D01*
X134738800Y-89739500D02*
X135338800Y-89739500D01*
X134733800Y-89764500D02*
X134733800Y-96064500D01*
D12*
%TO.C,R32*%
X145182822Y-87360020D02*
X145657338Y-87360020D01*
X145182822Y-86315020D02*
X145657338Y-86315020D01*
%TO.C,D6*%
X146900000Y-86002800D02*
X146900000Y-84552800D01*
X144615000Y-84552800D02*
X146900000Y-84552800D01*
X144615000Y-86002800D02*
X146900000Y-86002800D01*
%TO.C,U8*%
X158239900Y-85610700D02*
X158239900Y-84960700D01*
X158239900Y-85610700D02*
X158239900Y-86260700D01*
X155119900Y-85610700D02*
X155119900Y-84960700D01*
X155119900Y-85610700D02*
X155119900Y-87285700D01*
%TO.C,D1*%
X142390300Y-81994500D02*
X142390300Y-83994500D01*
X142390300Y-83994500D02*
X146290300Y-83994500D01*
X142390300Y-81994500D02*
X146290300Y-81994500D01*
%TO.C,C20*%
X149584720Y-71638160D02*
G75*
G03*
X149584720Y-71638160I-2620000J0D01*
G01*
X146964720Y-69058160D02*
X146964720Y-74218160D01*
X147004720Y-69058160D02*
X147004720Y-74218160D01*
X147044720Y-69059160D02*
X147044720Y-74217160D01*
X147084720Y-69060160D02*
X147084720Y-74216160D01*
X147124720Y-69062160D02*
X147124720Y-74214160D01*
X147164720Y-69065160D02*
X147164720Y-74211160D01*
X147204720Y-69069160D02*
X147204720Y-70598160D01*
X147204720Y-72678160D02*
X147204720Y-74207160D01*
X147244720Y-69073160D02*
X147244720Y-70598160D01*
X147244720Y-72678160D02*
X147244720Y-74203160D01*
X147284720Y-69077160D02*
X147284720Y-70598160D01*
X147284720Y-72678160D02*
X147284720Y-74199160D01*
X147324720Y-69082160D02*
X147324720Y-70598160D01*
X147324720Y-72678160D02*
X147324720Y-74194160D01*
X147364720Y-69088160D02*
X147364720Y-70598160D01*
X147364720Y-72678160D02*
X147364720Y-74188160D01*
X147404720Y-69095160D02*
X147404720Y-70598160D01*
X147404720Y-72678160D02*
X147404720Y-74181160D01*
X147444720Y-69102160D02*
X147444720Y-70598160D01*
X147444720Y-72678160D02*
X147444720Y-74174160D01*
X147484720Y-69110160D02*
X147484720Y-70598160D01*
X147484720Y-72678160D02*
X147484720Y-74166160D01*
X147524720Y-69118160D02*
X147524720Y-70598160D01*
X147524720Y-72678160D02*
X147524720Y-74158160D01*
X147564720Y-69127160D02*
X147564720Y-70598160D01*
X147564720Y-72678160D02*
X147564720Y-74149160D01*
X147604720Y-69137160D02*
X147604720Y-70598160D01*
X147604720Y-72678160D02*
X147604720Y-74139160D01*
X147644720Y-69147160D02*
X147644720Y-70598160D01*
X147644720Y-72678160D02*
X147644720Y-74129160D01*
X147685720Y-69158160D02*
X147685720Y-70598160D01*
X147685720Y-72678160D02*
X147685720Y-74118160D01*
X147725720Y-69170160D02*
X147725720Y-70598160D01*
X147725720Y-72678160D02*
X147725720Y-74106160D01*
X147765720Y-69183160D02*
X147765720Y-70598160D01*
X147765720Y-72678160D02*
X147765720Y-74093160D01*
X147805720Y-69196160D02*
X147805720Y-70598160D01*
X147805720Y-72678160D02*
X147805720Y-74080160D01*
X147845720Y-69210160D02*
X147845720Y-70598160D01*
X147845720Y-72678160D02*
X147845720Y-74066160D01*
X147885720Y-69224160D02*
X147885720Y-70598160D01*
X147885720Y-72678160D02*
X147885720Y-74052160D01*
X147925720Y-69240160D02*
X147925720Y-70598160D01*
X147925720Y-72678160D02*
X147925720Y-74036160D01*
X147965720Y-69256160D02*
X147965720Y-70598160D01*
X147965720Y-72678160D02*
X147965720Y-74020160D01*
X148005720Y-69273160D02*
X148005720Y-70598160D01*
X148005720Y-72678160D02*
X148005720Y-74003160D01*
X148045720Y-69290160D02*
X148045720Y-70598160D01*
X148045720Y-72678160D02*
X148045720Y-73986160D01*
X148085720Y-69309160D02*
X148085720Y-70598160D01*
X148085720Y-72678160D02*
X148085720Y-73967160D01*
X148125720Y-69328160D02*
X148125720Y-70598160D01*
X148125720Y-72678160D02*
X148125720Y-73948160D01*
X148165720Y-69348160D02*
X148165720Y-70598160D01*
X148165720Y-72678160D02*
X148165720Y-73928160D01*
X148205720Y-69370160D02*
X148205720Y-70598160D01*
X148205720Y-72678160D02*
X148205720Y-73906160D01*
X148245720Y-69391160D02*
X148245720Y-70598160D01*
X148245720Y-72678160D02*
X148245720Y-73885160D01*
X148285720Y-69414160D02*
X148285720Y-70598160D01*
X148285720Y-72678160D02*
X148285720Y-73862160D01*
X148325720Y-69438160D02*
X148325720Y-70598160D01*
X148325720Y-72678160D02*
X148325720Y-73838160D01*
X148365720Y-69463160D02*
X148365720Y-70598160D01*
X148365720Y-72678160D02*
X148365720Y-73813160D01*
X148405720Y-69489160D02*
X148405720Y-70598160D01*
X148405720Y-72678160D02*
X148405720Y-73787160D01*
X148445720Y-69516160D02*
X148445720Y-70598160D01*
X148445720Y-72678160D02*
X148445720Y-73760160D01*
X148485720Y-69543160D02*
X148485720Y-70598160D01*
X148485720Y-72678160D02*
X148485720Y-73733160D01*
X148525720Y-69573160D02*
X148525720Y-70598160D01*
X148525720Y-72678160D02*
X148525720Y-73703160D01*
X148565720Y-69603160D02*
X148565720Y-70598160D01*
X148565720Y-72678160D02*
X148565720Y-73673160D01*
X148605720Y-69634160D02*
X148605720Y-70598160D01*
X148605720Y-72678160D02*
X148605720Y-73642160D01*
X148645720Y-69667160D02*
X148645720Y-70598160D01*
X148645720Y-72678160D02*
X148645720Y-73609160D01*
X148685720Y-69701160D02*
X148685720Y-70598160D01*
X148685720Y-72678160D02*
X148685720Y-73575160D01*
X148725720Y-69737160D02*
X148725720Y-70598160D01*
X148725720Y-72678160D02*
X148725720Y-73539160D01*
X148765720Y-69774160D02*
X148765720Y-70598160D01*
X148765720Y-72678160D02*
X148765720Y-73502160D01*
X148805720Y-69812160D02*
X148805720Y-70598160D01*
X148805720Y-72678160D02*
X148805720Y-73464160D01*
X148845720Y-69853160D02*
X148845720Y-70598160D01*
X148845720Y-72678160D02*
X148845720Y-73423160D01*
X148885720Y-69895160D02*
X148885720Y-70598160D01*
X148885720Y-72678160D02*
X148885720Y-73381160D01*
X148925720Y-69939160D02*
X148925720Y-70598160D01*
X148925720Y-72678160D02*
X148925720Y-73337160D01*
X148965720Y-69985160D02*
X148965720Y-70598160D01*
X148965720Y-72678160D02*
X148965720Y-73291160D01*
X149005720Y-70033160D02*
X149005720Y-70598160D01*
X149005720Y-72678160D02*
X149005720Y-73243160D01*
X149045720Y-70084160D02*
X149045720Y-70598160D01*
X149045720Y-72678160D02*
X149045720Y-73192160D01*
X149085720Y-70138160D02*
X149085720Y-70598160D01*
X149085720Y-72678160D02*
X149085720Y-73138160D01*
X149125720Y-70195160D02*
X149125720Y-70598160D01*
X149125720Y-72678160D02*
X149125720Y-73081160D01*
X149165720Y-70255160D02*
X149165720Y-70598160D01*
X149165720Y-72678160D02*
X149165720Y-73021160D01*
X149205720Y-70319160D02*
X149205720Y-70598160D01*
X149205720Y-72678160D02*
X149205720Y-72957160D01*
X149245720Y-70387160D02*
X149245720Y-70598160D01*
X149245720Y-72678160D02*
X149245720Y-72889160D01*
X149285720Y-70460160D02*
X149285720Y-72816160D01*
X149325720Y-70540160D02*
X149325720Y-72736160D01*
X149365720Y-70627160D02*
X149365720Y-72649160D01*
X149405720Y-70723160D02*
X149405720Y-72553160D01*
X149445720Y-70833160D02*
X149445720Y-72443160D01*
X149485720Y-70961160D02*
X149485720Y-72315160D01*
X149525720Y-71120160D02*
X149525720Y-72156160D01*
X149565720Y-71354160D02*
X149565720Y-71922160D01*
X144159945Y-70163160D02*
X144659945Y-70163160D01*
X144409945Y-69913160D02*
X144409945Y-70413160D01*
%TO.C,C23*%
X180491520Y-81104200D02*
X180772680Y-81104200D01*
X180491520Y-80084200D02*
X180772680Y-80084200D01*
%TO.C,C22*%
X156971120Y-83275900D02*
X157252280Y-83275900D01*
X156971120Y-82255900D02*
X157252280Y-82255900D01*
%TO.C,C21*%
X180491520Y-79580200D02*
X180772680Y-79580200D01*
X180491520Y-78560200D02*
X180772680Y-78560200D01*
%TO.C,C19*%
X168655120Y-84495100D02*
X168936280Y-84495100D01*
X168655120Y-83475100D02*
X168936280Y-83475100D01*
%TO.C,C18*%
X157239580Y-80706500D02*
X156958420Y-80706500D01*
X157239580Y-81726500D02*
X156958420Y-81726500D01*
%TO.C,C17*%
X155573000Y-72389120D02*
X155573000Y-72670280D01*
X156593000Y-72389120D02*
X156593000Y-72670280D01*
%TO.C,C16*%
X151868600Y-79896580D02*
X151868600Y-79615420D01*
X150848600Y-79896580D02*
X150848600Y-79615420D01*
%TO.C,C15*%
X152678520Y-74398600D02*
X152959680Y-74398600D01*
X152678520Y-73378600D02*
X152959680Y-73378600D01*
%TO.C,C14*%
X172792780Y-73611200D02*
X173073940Y-73611200D01*
X172792780Y-72591200D02*
X173073940Y-72591200D01*
%TO.C,C13*%
X172780080Y-75135200D02*
X173061240Y-75135200D01*
X172780080Y-74115200D02*
X173061240Y-74115200D01*
%TO.C,C12*%
X168642420Y-82958400D02*
X168923580Y-82958400D01*
X168642420Y-81938400D02*
X168923580Y-81938400D01*
%TO.C,C11*%
X153327980Y-71194200D02*
X153046820Y-71194200D01*
X153327980Y-72214200D02*
X153046820Y-72214200D01*
%TO.C,C10*%
X185469920Y-75033600D02*
X185751080Y-75033600D01*
X185469920Y-74013600D02*
X185751080Y-74013600D01*
%TO.C,C9*%
X173061240Y-77137800D02*
X172780080Y-77137800D01*
X173061240Y-78157800D02*
X172780080Y-78157800D01*
%TO.C,C8*%
X181737880Y-73962800D02*
X181456720Y-73962800D01*
X181737880Y-74982800D02*
X181456720Y-74982800D01*
%TO.C,C7*%
X173061240Y-78649100D02*
X172780080Y-78649100D01*
X173061240Y-79669100D02*
X172780080Y-79669100D01*
%TO.C,C6*%
X138707400Y-81126720D02*
X138707400Y-81407880D01*
X139727400Y-81126720D02*
X139727400Y-81407880D01*
%TO.C,C5*%
X181929500Y-83008080D02*
X181929500Y-82726920D01*
X180909500Y-83008080D02*
X180909500Y-82726920D01*
D13*
%TO.C,Q4*%
X156845000Y-102870000D02*
G75*
G02*
X161671000Y-102870000I2413000J-42119D01*
G01*
%TO.C,Q3*%
X146456400Y-102831900D02*
G75*
G02*
X151282400Y-102831900I2413000J-42119D01*
G01*
%TO.C,Q2*%
X136067800Y-102819200D02*
G75*
G02*
X140893800Y-102819200I2413000J-42119D01*
G01*
D12*
%TO.C,R19*%
X156231000Y-101723836D02*
X156231000Y-103177964D01*
X154411000Y-101723836D02*
X154411000Y-103177964D01*
%TO.C,R18*%
X145842400Y-101711136D02*
X145842400Y-103165264D01*
X144022400Y-101711136D02*
X144022400Y-103165264D01*
%TO.C,R17*%
X135453800Y-101685736D02*
X135453800Y-103139864D01*
X133633800Y-101685736D02*
X133633800Y-103139864D01*
%TO.C,R16*%
X111667936Y-97997600D02*
X113122064Y-97997600D01*
X111667936Y-99817600D02*
X113122064Y-99817600D01*
%TO.C,R14*%
X162310400Y-103216064D02*
X162310400Y-101761936D01*
X164130400Y-103216064D02*
X164130400Y-101761936D01*
%TO.C,R13*%
X151909100Y-103177964D02*
X151909100Y-101723836D01*
X153729100Y-103177964D02*
X153729100Y-101723836D01*
%TO.C,R12*%
X141520500Y-103165264D02*
X141520500Y-101711136D01*
X143340500Y-103165264D02*
X143340500Y-101711136D01*
%TO.C,R11*%
X116341536Y-97997600D02*
X117795664Y-97997600D01*
X116341536Y-99817600D02*
X117795664Y-99817600D01*
%TO.C,R26*%
X160626022Y-70343500D02*
X161100538Y-70343500D01*
X160626022Y-71388500D02*
X161100538Y-71388500D01*
%TO.C,R24*%
X153801042Y-80694000D02*
X154275558Y-80694000D01*
X153801042Y-81739000D02*
X154275558Y-81739000D01*
%TO.C,R22*%
X173157918Y-76659000D02*
X172683402Y-76659000D01*
X173157918Y-75614000D02*
X172683402Y-75614000D01*
%TO.C,R21*%
X177359542Y-73963000D02*
X177834058Y-73963000D01*
X177359542Y-75008000D02*
X177834058Y-75008000D01*
%TO.C,R20*%
X154275558Y-83275700D02*
X153801042Y-83275700D01*
X154275558Y-82230700D02*
X153801042Y-82230700D01*
%TO.C,R15*%
X180369442Y-84643700D02*
X180843958Y-84643700D01*
X180369442Y-85688700D02*
X180843958Y-85688700D01*
%TO.C,R10*%
X135993102Y-86309940D02*
X136467618Y-86309940D01*
X135993102Y-87354940D02*
X136467618Y-87354940D01*
%TO.C,R9*%
X159744642Y-86269300D02*
X160219158Y-86269300D01*
X159744642Y-87314300D02*
X160219158Y-87314300D01*
%TO.C,R8*%
X149381442Y-86269300D02*
X149855958Y-86269300D01*
X149381442Y-87314300D02*
X149855958Y-87314300D01*
%TO.C,R7*%
X139069042Y-86307400D02*
X139543558Y-86307400D01*
X139069042Y-87352400D02*
X139543558Y-87352400D01*
%TO.C,R6*%
X116043942Y-85304100D02*
X116518458Y-85304100D01*
X116043942Y-86349100D02*
X116518458Y-86349100D01*
%TO.C,R5*%
X162779142Y-86269300D02*
X163253658Y-86269300D01*
X162779142Y-87314300D02*
X163253658Y-87314300D01*
%TO.C,R4*%
X152432842Y-86269300D02*
X152907358Y-86269300D01*
X152432842Y-87314300D02*
X152907358Y-87314300D01*
%TO.C,R3*%
X142117042Y-86307400D02*
X142591558Y-86307400D01*
X142117042Y-87352400D02*
X142591558Y-87352400D01*
%TO.C,R2*%
X119104642Y-85304100D02*
X119579158Y-85304100D01*
X119104642Y-86349100D02*
X119579158Y-86349100D01*
%TO.C,U7*%
X146410600Y-81578500D02*
X146410600Y-80318500D01*
X146410600Y-74758500D02*
X146410600Y-76018500D01*
X142650600Y-81578500D02*
X146410600Y-81578500D01*
X140400600Y-74758500D02*
X146410600Y-74758500D01*
D14*
%TO.C,U2*%
X128451580Y-94891980D02*
X128451580Y-89191980D01*
X128451580Y-89191980D02*
X133051580Y-89191980D01*
X133051580Y-89191980D02*
X133051580Y-94891980D01*
X133051580Y-94891980D02*
X128451580Y-94891980D01*
X129812133Y-93741980D02*
G75*
G03*
X129812133Y-93741980I-360553J0D01*
G01*
D15*
G36*
X129151580Y-94043340D02*
G01*
X129151580Y-93441980D01*
X129750900Y-93441980D01*
X129750900Y-94043340D01*
X129151580Y-94043340D01*
G37*
X129151580Y-94043340D02*
X129151580Y-93441980D01*
X129750900Y-93441980D01*
X129750900Y-94043340D01*
X129151580Y-94043340D01*
D14*
X128092999Y-96341980D02*
G75*
G03*
X128092999Y-96341980I-141419J0D01*
G01*
%TO.C,U1*%
X122723880Y-94900180D02*
X122723880Y-89200180D01*
X122723880Y-89200180D02*
X127323880Y-89200180D01*
X127323880Y-89200180D02*
X127323880Y-94900180D01*
X127323880Y-94900180D02*
X122723880Y-94900180D01*
X124084433Y-93750180D02*
G75*
G03*
X124084433Y-93750180I-360553J0D01*
G01*
D15*
G36*
X123423880Y-94051540D02*
G01*
X123423880Y-93450180D01*
X124023200Y-93450180D01*
X124023200Y-94051540D01*
X123423880Y-94051540D01*
G37*
X123423880Y-94051540D02*
X123423880Y-93450180D01*
X124023200Y-93450180D01*
X124023200Y-94051540D01*
X123423880Y-94051540D01*
D14*
X122365299Y-96350180D02*
G75*
G03*
X122365299Y-96350180I-141419J0D01*
G01*
D12*
%TO.C,PS1*%
X138341000Y-68885600D02*
X138341000Y-84885600D01*
X108341000Y-84885600D02*
X138341000Y-84885600D01*
X108341000Y-84885600D02*
X108341000Y-68885600D01*
X108341000Y-68885600D02*
X138341000Y-68885600D01*
%TO.C,J11*%
X167757800Y-69387700D02*
X167757800Y-70190170D01*
X167757800Y-70805230D02*
X167757800Y-71607700D01*
X171502800Y-69387700D02*
X167757800Y-69387700D01*
X171502800Y-71607700D02*
X167757800Y-71607700D01*
X171502800Y-69387700D02*
X171502800Y-69934229D01*
X171502800Y-71061171D02*
X171502800Y-71607700D01*
X172262800Y-69387700D02*
X173022800Y-69387700D01*
X173022800Y-69387700D02*
X173022800Y-70497700D01*
%TO.C,J8*%
X186709200Y-73261800D02*
X186709200Y-69241800D01*
X186709200Y-69241800D02*
X176489200Y-69241800D01*
X176489200Y-69241800D02*
X176489200Y-73261800D01*
X176489200Y-73261800D02*
X186709200Y-73261800D01*
X186709200Y-71551800D02*
X186209200Y-71551800D01*
X186209200Y-71551800D02*
X186209200Y-72761800D01*
X186209200Y-72761800D02*
X176989200Y-72761800D01*
X176989200Y-72761800D02*
X176989200Y-71551800D01*
X176989200Y-71551800D02*
X176489200Y-71551800D01*
X186709200Y-70741800D02*
X185709200Y-70741800D01*
X185709200Y-70741800D02*
X185709200Y-69241800D01*
X176489200Y-70741800D02*
X177489200Y-70741800D01*
X177489200Y-70741800D02*
X177489200Y-69241800D01*
X187009200Y-71441800D02*
X187009200Y-68941800D01*
X187009200Y-68941800D02*
X184509200Y-68941800D01*
%TO.C,J7*%
X155408000Y-118114600D02*
X155408000Y-115514600D01*
X163108000Y-118114600D02*
X155408000Y-118114600D01*
X163108000Y-115514600D02*
X163108000Y-118114600D01*
X155408000Y-115514600D02*
X163108000Y-115514600D01*
%TO.C,J6*%
X145019400Y-118114600D02*
X145019400Y-115514600D01*
X152719400Y-118114600D02*
X145019400Y-118114600D01*
X152719400Y-115514600D02*
X152719400Y-118114600D01*
X145019400Y-115514600D02*
X152719400Y-115514600D01*
%TO.C,J5*%
X142230000Y-115514600D02*
X142230000Y-118114600D01*
X134530000Y-115514600D02*
X142230000Y-115514600D01*
X134530000Y-118114600D02*
X134530000Y-115514600D01*
X142230000Y-118114600D02*
X134530000Y-118114600D01*
%TO.C,J4*%
X106443300Y-95097760D02*
X103843300Y-95097760D01*
X106443300Y-87397760D02*
X106443300Y-95097760D01*
X103843300Y-87397760D02*
X106443300Y-87397760D01*
X103843300Y-95097760D02*
X103843300Y-87397760D01*
%TO.C,J3*%
X182706700Y-86264900D02*
X186726700Y-86264900D01*
X186726700Y-86264900D02*
X186726700Y-78544900D01*
X186726700Y-78544900D02*
X182706700Y-78544900D01*
X182706700Y-78544900D02*
X182706700Y-86264900D01*
X184416700Y-86264900D02*
X184416700Y-85764900D01*
X184416700Y-85764900D02*
X183206700Y-85764900D01*
X183206700Y-85764900D02*
X183206700Y-79044900D01*
X183206700Y-79044900D02*
X184416700Y-79044900D01*
X184416700Y-79044900D02*
X184416700Y-78544900D01*
X185226700Y-86264900D02*
X185226700Y-85264900D01*
X185226700Y-85264900D02*
X186726700Y-85264900D01*
X185226700Y-78544900D02*
X185226700Y-79544900D01*
X185226700Y-79544900D02*
X186726700Y-79544900D01*
X184526700Y-86564900D02*
X187026700Y-86564900D01*
X187026700Y-86564900D02*
X187026700Y-84064900D01*
%TO.C,J2*%
X103843300Y-69237700D02*
X106443300Y-69237700D01*
X103843300Y-76937700D02*
X103843300Y-69237700D01*
X106443300Y-76937700D02*
X103843300Y-76937700D01*
X106443300Y-69237700D02*
X106443300Y-76937700D01*
%TO.C,J1*%
X102224360Y-86017730D02*
X99624360Y-86017730D01*
X102224360Y-78317730D02*
X102224360Y-86017730D01*
X99624360Y-78317730D02*
X102224360Y-78317730D01*
X99624360Y-86017730D02*
X99624360Y-78317730D01*
%TO.C,C4*%
X161878000Y-109675600D02*
X156638000Y-109675600D01*
X161878000Y-106935600D02*
X156638000Y-106935600D01*
X161878000Y-109675600D02*
X161878000Y-109360600D01*
X161878000Y-107250600D02*
X161878000Y-106935600D01*
X156638000Y-109675600D02*
X156638000Y-109360600D01*
X156638000Y-107250600D02*
X156638000Y-106935600D01*
%TO.C,C3*%
X151489400Y-109675600D02*
X146249400Y-109675600D01*
X151489400Y-106935600D02*
X146249400Y-106935600D01*
X151489400Y-109675600D02*
X151489400Y-109360600D01*
X151489400Y-107250600D02*
X151489400Y-106935600D01*
X146249400Y-109675600D02*
X146249400Y-109360600D01*
X146249400Y-107250600D02*
X146249400Y-106935600D01*
%TO.C,C2*%
X140950800Y-109675600D02*
X136010800Y-109675600D01*
X140950800Y-106935600D02*
X136010800Y-106935600D01*
X140950800Y-109675600D02*
X140950800Y-109360600D01*
X140950800Y-107250600D02*
X140950800Y-106935600D01*
X136010800Y-109675600D02*
X136010800Y-109360600D01*
X136010800Y-107250600D02*
X136010800Y-106935600D01*
%TO.C,R1*%
D10*
X125564066Y-99019186D02*
X125230733Y-99252520D01*
X125564066Y-99419186D02*
X124864066Y-99419186D01*
X124864066Y-99152520D01*
X124897400Y-99085853D01*
X124930733Y-99052520D01*
X124997400Y-99019186D01*
X125097400Y-99019186D01*
X125164066Y-99052520D01*
X125197400Y-99085853D01*
X125230733Y-99152520D01*
X125230733Y-99419186D01*
X125564066Y-98352520D02*
X125564066Y-98752520D01*
X125564066Y-98552520D02*
X124864066Y-98552520D01*
X124964066Y-98619186D01*
X125030733Y-98685853D01*
X125064066Y-98752520D01*
%TO.C,Q1*%
X98929833Y-99824333D02*
X98863166Y-99791000D01*
X98796500Y-99724333D01*
X98696500Y-99624333D01*
X98629833Y-99591000D01*
X98563166Y-99591000D01*
X98596500Y-99757666D02*
X98529833Y-99724333D01*
X98463166Y-99657666D01*
X98429833Y-99524333D01*
X98429833Y-99291000D01*
X98463166Y-99157666D01*
X98529833Y-99091000D01*
X98596500Y-99057666D01*
X98729833Y-99057666D01*
X98796500Y-99091000D01*
X98863166Y-99157666D01*
X98896500Y-99291000D01*
X98896500Y-99524333D01*
X98863166Y-99657666D01*
X98796500Y-99724333D01*
X98729833Y-99757666D01*
X98596500Y-99757666D01*
X99563166Y-99757666D02*
X99163166Y-99757666D01*
X99363166Y-99757666D02*
X99363166Y-99057666D01*
X99296500Y-99157666D01*
X99229833Y-99224333D01*
X99163166Y-99257666D01*
%TO.C,U9*%
X162138426Y-76492306D02*
X162138426Y-77058973D01*
X162171760Y-77125640D01*
X162205093Y-77158973D01*
X162271760Y-77192306D01*
X162405093Y-77192306D01*
X162471760Y-77158973D01*
X162505093Y-77125640D01*
X162538426Y-77058973D01*
X162538426Y-76492306D01*
X162905093Y-77192306D02*
X163038426Y-77192306D01*
X163105093Y-77158973D01*
X163138426Y-77125640D01*
X163205093Y-77025640D01*
X163238426Y-76892306D01*
X163238426Y-76625640D01*
X163205093Y-76558973D01*
X163171760Y-76525640D01*
X163105093Y-76492306D01*
X162971760Y-76492306D01*
X162905093Y-76525640D01*
X162871760Y-76558973D01*
X162838426Y-76625640D01*
X162838426Y-76792306D01*
X162871760Y-76858973D01*
X162905093Y-76892306D01*
X162971760Y-76925640D01*
X163105093Y-76925640D01*
X163171760Y-76892306D01*
X163205093Y-76858973D01*
X163238426Y-76792306D01*
%TO.C,R41*%
D11*
X173497500Y-116654817D02*
X173021310Y-116988150D01*
X173497500Y-117226245D02*
X172497500Y-117226245D01*
X172497500Y-116845293D01*
X172545120Y-116750055D01*
X172592739Y-116702436D01*
X172687977Y-116654817D01*
X172830834Y-116654817D01*
X172926072Y-116702436D01*
X172973691Y-116750055D01*
X173021310Y-116845293D01*
X173021310Y-117226245D01*
X172830834Y-115797674D02*
X173497500Y-115797674D01*
X172449881Y-116035769D02*
X173164167Y-116273864D01*
X173164167Y-115654817D01*
X173497500Y-114750055D02*
X173497500Y-115321483D01*
X173497500Y-115035769D02*
X172497500Y-115035769D01*
X172640358Y-115131007D01*
X172735596Y-115226245D01*
X172783215Y-115321483D01*
%TO.C,R40*%
X176789340Y-116680217D02*
X176313150Y-117013550D01*
X176789340Y-117251645D02*
X175789340Y-117251645D01*
X175789340Y-116870693D01*
X175836960Y-116775455D01*
X175884579Y-116727836D01*
X175979817Y-116680217D01*
X176122674Y-116680217D01*
X176217912Y-116727836D01*
X176265531Y-116775455D01*
X176313150Y-116870693D01*
X176313150Y-117251645D01*
X176122674Y-115823074D02*
X176789340Y-115823074D01*
X175741721Y-116061169D02*
X176456007Y-116299264D01*
X176456007Y-115680217D01*
X175789340Y-115108788D02*
X175789340Y-115013550D01*
X175836960Y-114918312D01*
X175884579Y-114870693D01*
X175979817Y-114823074D01*
X176170293Y-114775455D01*
X176408388Y-114775455D01*
X176598864Y-114823074D01*
X176694102Y-114870693D01*
X176741721Y-114918312D01*
X176789340Y-115013550D01*
X176789340Y-115108788D01*
X176741721Y-115204026D01*
X176694102Y-115251645D01*
X176598864Y-115299264D01*
X176408388Y-115346883D01*
X176170293Y-115346883D01*
X175979817Y-115299264D01*
X175884579Y-115251645D01*
X175836960Y-115204026D01*
X175789340Y-115108788D01*
%TO.C,R39*%
X167975540Y-116807217D02*
X167499350Y-117140550D01*
X167975540Y-117378645D02*
X166975540Y-117378645D01*
X166975540Y-116997693D01*
X167023160Y-116902455D01*
X167070779Y-116854836D01*
X167166017Y-116807217D01*
X167308874Y-116807217D01*
X167404112Y-116854836D01*
X167451731Y-116902455D01*
X167499350Y-116997693D01*
X167499350Y-117378645D01*
X166975540Y-116473883D02*
X166975540Y-115854836D01*
X167356493Y-116188169D01*
X167356493Y-116045312D01*
X167404112Y-115950074D01*
X167451731Y-115902455D01*
X167546969Y-115854836D01*
X167785064Y-115854836D01*
X167880302Y-115902455D01*
X167927921Y-115950074D01*
X167975540Y-116045312D01*
X167975540Y-116331026D01*
X167927921Y-116426264D01*
X167880302Y-116473883D01*
X167975540Y-115378645D02*
X167975540Y-115188169D01*
X167927921Y-115092931D01*
X167880302Y-115045312D01*
X167737445Y-114950074D01*
X167546969Y-114902455D01*
X167166017Y-114902455D01*
X167070779Y-114950074D01*
X167023160Y-114997693D01*
X166975540Y-115092931D01*
X166975540Y-115283407D01*
X167023160Y-115378645D01*
X167070779Y-115426264D01*
X167166017Y-115473883D01*
X167404112Y-115473883D01*
X167499350Y-115426264D01*
X167546969Y-115378645D01*
X167594588Y-115283407D01*
X167594588Y-115092931D01*
X167546969Y-114997693D01*
X167499350Y-114950074D01*
X167404112Y-114902455D01*
%TO.C,R38*%
X171658540Y-116781817D02*
X171182350Y-117115150D01*
X171658540Y-117353245D02*
X170658540Y-117353245D01*
X170658540Y-116972293D01*
X170706160Y-116877055D01*
X170753779Y-116829436D01*
X170849017Y-116781817D01*
X170991874Y-116781817D01*
X171087112Y-116829436D01*
X171134731Y-116877055D01*
X171182350Y-116972293D01*
X171182350Y-117353245D01*
X170658540Y-116448483D02*
X170658540Y-115829436D01*
X171039493Y-116162769D01*
X171039493Y-116019912D01*
X171087112Y-115924674D01*
X171134731Y-115877055D01*
X171229969Y-115829436D01*
X171468064Y-115829436D01*
X171563302Y-115877055D01*
X171610921Y-115924674D01*
X171658540Y-116019912D01*
X171658540Y-116305626D01*
X171610921Y-116400864D01*
X171563302Y-116448483D01*
X171087112Y-115258007D02*
X171039493Y-115353245D01*
X170991874Y-115400864D01*
X170896636Y-115448483D01*
X170849017Y-115448483D01*
X170753779Y-115400864D01*
X170706160Y-115353245D01*
X170658540Y-115258007D01*
X170658540Y-115067531D01*
X170706160Y-114972293D01*
X170753779Y-114924674D01*
X170849017Y-114877055D01*
X170896636Y-114877055D01*
X170991874Y-114924674D01*
X171039493Y-114972293D01*
X171087112Y-115067531D01*
X171087112Y-115258007D01*
X171134731Y-115353245D01*
X171182350Y-115400864D01*
X171277588Y-115448483D01*
X171468064Y-115448483D01*
X171563302Y-115400864D01*
X171610921Y-115353245D01*
X171658540Y-115258007D01*
X171658540Y-115067531D01*
X171610921Y-114972293D01*
X171563302Y-114924674D01*
X171468064Y-114877055D01*
X171277588Y-114877055D01*
X171182350Y-114924674D01*
X171134731Y-114972293D01*
X171087112Y-115067531D01*
%TO.C,R37*%
X173350180Y-111996457D02*
X172873990Y-112329790D01*
X173350180Y-112567885D02*
X172350180Y-112567885D01*
X172350180Y-112186933D01*
X172397800Y-112091695D01*
X172445419Y-112044076D01*
X172540657Y-111996457D01*
X172683514Y-111996457D01*
X172778752Y-112044076D01*
X172826371Y-112091695D01*
X172873990Y-112186933D01*
X172873990Y-112567885D01*
X172350180Y-111663123D02*
X172350180Y-111044076D01*
X172731133Y-111377409D01*
X172731133Y-111234552D01*
X172778752Y-111139314D01*
X172826371Y-111091695D01*
X172921609Y-111044076D01*
X173159704Y-111044076D01*
X173254942Y-111091695D01*
X173302561Y-111139314D01*
X173350180Y-111234552D01*
X173350180Y-111520266D01*
X173302561Y-111615504D01*
X173254942Y-111663123D01*
X172350180Y-110710742D02*
X172350180Y-110044076D01*
X173350180Y-110472647D01*
%TO.C,R36*%
X176766480Y-111971057D02*
X176290290Y-112304390D01*
X176766480Y-112542485D02*
X175766480Y-112542485D01*
X175766480Y-112161533D01*
X175814100Y-112066295D01*
X175861719Y-112018676D01*
X175956957Y-111971057D01*
X176099814Y-111971057D01*
X176195052Y-112018676D01*
X176242671Y-112066295D01*
X176290290Y-112161533D01*
X176290290Y-112542485D01*
X175766480Y-111637723D02*
X175766480Y-111018676D01*
X176147433Y-111352009D01*
X176147433Y-111209152D01*
X176195052Y-111113914D01*
X176242671Y-111066295D01*
X176337909Y-111018676D01*
X176576004Y-111018676D01*
X176671242Y-111066295D01*
X176718861Y-111113914D01*
X176766480Y-111209152D01*
X176766480Y-111494866D01*
X176718861Y-111590104D01*
X176671242Y-111637723D01*
X175766480Y-110161533D02*
X175766480Y-110352009D01*
X175814100Y-110447247D01*
X175861719Y-110494866D01*
X176004576Y-110590104D01*
X176195052Y-110637723D01*
X176576004Y-110637723D01*
X176671242Y-110590104D01*
X176718861Y-110542485D01*
X176766480Y-110447247D01*
X176766480Y-110256771D01*
X176718861Y-110161533D01*
X176671242Y-110113914D01*
X176576004Y-110066295D01*
X176337909Y-110066295D01*
X176242671Y-110113914D01*
X176195052Y-110161533D01*
X176147433Y-110256771D01*
X176147433Y-110447247D01*
X176195052Y-110542485D01*
X176242671Y-110590104D01*
X176337909Y-110637723D01*
%TO.C,R35*%
X168028880Y-112059957D02*
X167552690Y-112393290D01*
X168028880Y-112631385D02*
X167028880Y-112631385D01*
X167028880Y-112250433D01*
X167076500Y-112155195D01*
X167124119Y-112107576D01*
X167219357Y-112059957D01*
X167362214Y-112059957D01*
X167457452Y-112107576D01*
X167505071Y-112155195D01*
X167552690Y-112250433D01*
X167552690Y-112631385D01*
X167028880Y-111726623D02*
X167028880Y-111107576D01*
X167409833Y-111440909D01*
X167409833Y-111298052D01*
X167457452Y-111202814D01*
X167505071Y-111155195D01*
X167600309Y-111107576D01*
X167838404Y-111107576D01*
X167933642Y-111155195D01*
X167981261Y-111202814D01*
X168028880Y-111298052D01*
X168028880Y-111583766D01*
X167981261Y-111679004D01*
X167933642Y-111726623D01*
X167028880Y-110202814D02*
X167028880Y-110679004D01*
X167505071Y-110726623D01*
X167457452Y-110679004D01*
X167409833Y-110583766D01*
X167409833Y-110345671D01*
X167457452Y-110250433D01*
X167505071Y-110202814D01*
X167600309Y-110155195D01*
X167838404Y-110155195D01*
X167933642Y-110202814D01*
X167981261Y-110250433D01*
X168028880Y-110345671D01*
X168028880Y-110583766D01*
X167981261Y-110679004D01*
X167933642Y-110726623D01*
%TO.C,R34*%
X171622980Y-112098057D02*
X171146790Y-112431390D01*
X171622980Y-112669485D02*
X170622980Y-112669485D01*
X170622980Y-112288533D01*
X170670600Y-112193295D01*
X170718219Y-112145676D01*
X170813457Y-112098057D01*
X170956314Y-112098057D01*
X171051552Y-112145676D01*
X171099171Y-112193295D01*
X171146790Y-112288533D01*
X171146790Y-112669485D01*
X170622980Y-111764723D02*
X170622980Y-111145676D01*
X171003933Y-111479009D01*
X171003933Y-111336152D01*
X171051552Y-111240914D01*
X171099171Y-111193295D01*
X171194409Y-111145676D01*
X171432504Y-111145676D01*
X171527742Y-111193295D01*
X171575361Y-111240914D01*
X171622980Y-111336152D01*
X171622980Y-111621866D01*
X171575361Y-111717104D01*
X171527742Y-111764723D01*
X170956314Y-110288533D02*
X171622980Y-110288533D01*
X170575361Y-110526628D02*
X171289647Y-110764723D01*
X171289647Y-110145676D01*
%TO.C,R33*%
X173157140Y-107536217D02*
X172680950Y-107869550D01*
X173157140Y-108107645D02*
X172157140Y-108107645D01*
X172157140Y-107726693D01*
X172204760Y-107631455D01*
X172252379Y-107583836D01*
X172347617Y-107536217D01*
X172490474Y-107536217D01*
X172585712Y-107583836D01*
X172633331Y-107631455D01*
X172680950Y-107726693D01*
X172680950Y-108107645D01*
X172157140Y-107202883D02*
X172157140Y-106583836D01*
X172538093Y-106917169D01*
X172538093Y-106774312D01*
X172585712Y-106679074D01*
X172633331Y-106631455D01*
X172728569Y-106583836D01*
X172966664Y-106583836D01*
X173061902Y-106631455D01*
X173109521Y-106679074D01*
X173157140Y-106774312D01*
X173157140Y-107060026D01*
X173109521Y-107155264D01*
X173061902Y-107202883D01*
X172157140Y-106250502D02*
X172157140Y-105631455D01*
X172538093Y-105964788D01*
X172538093Y-105821931D01*
X172585712Y-105726693D01*
X172633331Y-105679074D01*
X172728569Y-105631455D01*
X172966664Y-105631455D01*
X173061902Y-105679074D01*
X173109521Y-105726693D01*
X173157140Y-105821931D01*
X173157140Y-106107645D01*
X173109521Y-106202883D01*
X173061902Y-106250502D01*
%TO.C,R30*%
X176748700Y-107561617D02*
X176272510Y-107894950D01*
X176748700Y-108133045D02*
X175748700Y-108133045D01*
X175748700Y-107752093D01*
X175796320Y-107656855D01*
X175843939Y-107609236D01*
X175939177Y-107561617D01*
X176082034Y-107561617D01*
X176177272Y-107609236D01*
X176224891Y-107656855D01*
X176272510Y-107752093D01*
X176272510Y-108133045D01*
X175748700Y-107228283D02*
X175748700Y-106609236D01*
X176129653Y-106942569D01*
X176129653Y-106799712D01*
X176177272Y-106704474D01*
X176224891Y-106656855D01*
X176320129Y-106609236D01*
X176558224Y-106609236D01*
X176653462Y-106656855D01*
X176701081Y-106704474D01*
X176748700Y-106799712D01*
X176748700Y-107085426D01*
X176701081Y-107180664D01*
X176653462Y-107228283D01*
X175748700Y-105990188D02*
X175748700Y-105894950D01*
X175796320Y-105799712D01*
X175843939Y-105752093D01*
X175939177Y-105704474D01*
X176129653Y-105656855D01*
X176367748Y-105656855D01*
X176558224Y-105704474D01*
X176653462Y-105752093D01*
X176701081Y-105799712D01*
X176748700Y-105894950D01*
X176748700Y-105990188D01*
X176701081Y-106085426D01*
X176653462Y-106133045D01*
X176558224Y-106180664D01*
X176367748Y-106228283D01*
X176129653Y-106228283D01*
X175939177Y-106180664D01*
X175843939Y-106133045D01*
X175796320Y-106085426D01*
X175748700Y-105990188D01*
%TO.C,R27*%
X171231820Y-107536217D02*
X170755630Y-107869550D01*
X171231820Y-108107645D02*
X170231820Y-108107645D01*
X170231820Y-107726693D01*
X170279440Y-107631455D01*
X170327059Y-107583836D01*
X170422297Y-107536217D01*
X170565154Y-107536217D01*
X170660392Y-107583836D01*
X170708011Y-107631455D01*
X170755630Y-107726693D01*
X170755630Y-108107645D01*
X170327059Y-107155264D02*
X170279440Y-107107645D01*
X170231820Y-107012407D01*
X170231820Y-106774312D01*
X170279440Y-106679074D01*
X170327059Y-106631455D01*
X170422297Y-106583836D01*
X170517535Y-106583836D01*
X170660392Y-106631455D01*
X171231820Y-107202883D01*
X171231820Y-106583836D01*
X170231820Y-106250502D02*
X170231820Y-105583836D01*
X171231820Y-106012407D01*
%TO.C,R23*%
X167929820Y-107622577D02*
X167453630Y-107955910D01*
X167929820Y-108194005D02*
X166929820Y-108194005D01*
X166929820Y-107813053D01*
X166977440Y-107717815D01*
X167025059Y-107670196D01*
X167120297Y-107622577D01*
X167263154Y-107622577D01*
X167358392Y-107670196D01*
X167406011Y-107717815D01*
X167453630Y-107813053D01*
X167453630Y-108194005D01*
X167025059Y-107241624D02*
X166977440Y-107194005D01*
X166929820Y-107098767D01*
X166929820Y-106860672D01*
X166977440Y-106765434D01*
X167025059Y-106717815D01*
X167120297Y-106670196D01*
X167215535Y-106670196D01*
X167358392Y-106717815D01*
X167929820Y-107289243D01*
X167929820Y-106670196D01*
X166929820Y-106336862D02*
X166929820Y-105717815D01*
X167310773Y-106051148D01*
X167310773Y-105908291D01*
X167358392Y-105813053D01*
X167406011Y-105765434D01*
X167501249Y-105717815D01*
X167739344Y-105717815D01*
X167834582Y-105765434D01*
X167882201Y-105813053D01*
X167929820Y-105908291D01*
X167929820Y-106194005D01*
X167882201Y-106289243D01*
X167834582Y-106336862D01*
%TO.C,J9*%
X185716586Y-90882220D02*
X185716586Y-91596506D01*
X185668967Y-91739363D01*
X185573729Y-91834601D01*
X185430872Y-91882220D01*
X185335634Y-91882220D01*
X186240396Y-91882220D02*
X186430872Y-91882220D01*
X186526110Y-91834601D01*
X186573729Y-91786982D01*
X186668967Y-91644125D01*
X186716586Y-91453649D01*
X186716586Y-91072697D01*
X186668967Y-90977459D01*
X186621348Y-90929840D01*
X186526110Y-90882220D01*
X186335634Y-90882220D01*
X186240396Y-90929840D01*
X186192777Y-90977459D01*
X186145158Y-91072697D01*
X186145158Y-91310792D01*
X186192777Y-91406030D01*
X186240396Y-91453649D01*
X186335634Y-91501268D01*
X186526110Y-91501268D01*
X186621348Y-91453649D01*
X186668967Y-91406030D01*
X186716586Y-91310792D01*
%TO.C,C31*%
X175012622Y-116680217D02*
X175060241Y-116727836D01*
X175107860Y-116870693D01*
X175107860Y-116965931D01*
X175060241Y-117108788D01*
X174965003Y-117204026D01*
X174869765Y-117251645D01*
X174679289Y-117299264D01*
X174536432Y-117299264D01*
X174345956Y-117251645D01*
X174250718Y-117204026D01*
X174155480Y-117108788D01*
X174107860Y-116965931D01*
X174107860Y-116870693D01*
X174155480Y-116727836D01*
X174203099Y-116680217D01*
X174107860Y-116346883D02*
X174107860Y-115727836D01*
X174488813Y-116061169D01*
X174488813Y-115918312D01*
X174536432Y-115823074D01*
X174584051Y-115775455D01*
X174679289Y-115727836D01*
X174917384Y-115727836D01*
X175012622Y-115775455D01*
X175060241Y-115823074D01*
X175107860Y-115918312D01*
X175107860Y-116204026D01*
X175060241Y-116299264D01*
X175012622Y-116346883D01*
X175107860Y-114775455D02*
X175107860Y-115346883D01*
X175107860Y-115061169D02*
X174107860Y-115061169D01*
X174250718Y-115156407D01*
X174345956Y-115251645D01*
X174393575Y-115346883D01*
%TO.C,C30*%
X169749742Y-116807217D02*
X169797361Y-116854836D01*
X169844980Y-116997693D01*
X169844980Y-117092931D01*
X169797361Y-117235788D01*
X169702123Y-117331026D01*
X169606885Y-117378645D01*
X169416409Y-117426264D01*
X169273552Y-117426264D01*
X169083076Y-117378645D01*
X168987838Y-117331026D01*
X168892600Y-117235788D01*
X168844980Y-117092931D01*
X168844980Y-116997693D01*
X168892600Y-116854836D01*
X168940219Y-116807217D01*
X168844980Y-116473883D02*
X168844980Y-115854836D01*
X169225933Y-116188169D01*
X169225933Y-116045312D01*
X169273552Y-115950074D01*
X169321171Y-115902455D01*
X169416409Y-115854836D01*
X169654504Y-115854836D01*
X169749742Y-115902455D01*
X169797361Y-115950074D01*
X169844980Y-116045312D01*
X169844980Y-116331026D01*
X169797361Y-116426264D01*
X169749742Y-116473883D01*
X168844980Y-115235788D02*
X168844980Y-115140550D01*
X168892600Y-115045312D01*
X168940219Y-114997693D01*
X169035457Y-114950074D01*
X169225933Y-114902455D01*
X169464028Y-114902455D01*
X169654504Y-114950074D01*
X169749742Y-114997693D01*
X169797361Y-115045312D01*
X169844980Y-115140550D01*
X169844980Y-115235788D01*
X169797361Y-115331026D01*
X169749742Y-115378645D01*
X169654504Y-115426264D01*
X169464028Y-115473883D01*
X169225933Y-115473883D01*
X169035457Y-115426264D01*
X168940219Y-115378645D01*
X168892600Y-115331026D01*
X168844980Y-115235788D01*
%TO.C,C29*%
X174969442Y-112034557D02*
X175017061Y-112082176D01*
X175064680Y-112225033D01*
X175064680Y-112320271D01*
X175017061Y-112463128D01*
X174921823Y-112558366D01*
X174826585Y-112605985D01*
X174636109Y-112653604D01*
X174493252Y-112653604D01*
X174302776Y-112605985D01*
X174207538Y-112558366D01*
X174112300Y-112463128D01*
X174064680Y-112320271D01*
X174064680Y-112225033D01*
X174112300Y-112082176D01*
X174159919Y-112034557D01*
X174159919Y-111653604D02*
X174112300Y-111605985D01*
X174064680Y-111510747D01*
X174064680Y-111272652D01*
X174112300Y-111177414D01*
X174159919Y-111129795D01*
X174255157Y-111082176D01*
X174350395Y-111082176D01*
X174493252Y-111129795D01*
X175064680Y-111701223D01*
X175064680Y-111082176D01*
X175064680Y-110605985D02*
X175064680Y-110415509D01*
X175017061Y-110320271D01*
X174969442Y-110272652D01*
X174826585Y-110177414D01*
X174636109Y-110129795D01*
X174255157Y-110129795D01*
X174159919Y-110177414D01*
X174112300Y-110225033D01*
X174064680Y-110320271D01*
X174064680Y-110510747D01*
X174112300Y-110605985D01*
X174159919Y-110653604D01*
X174255157Y-110701223D01*
X174493252Y-110701223D01*
X174588490Y-110653604D01*
X174636109Y-110605985D01*
X174683728Y-110510747D01*
X174683728Y-110320271D01*
X174636109Y-110225033D01*
X174588490Y-110177414D01*
X174493252Y-110129795D01*
%TO.C,C28*%
X169648142Y-112110757D02*
X169695761Y-112158376D01*
X169743380Y-112301233D01*
X169743380Y-112396471D01*
X169695761Y-112539328D01*
X169600523Y-112634566D01*
X169505285Y-112682185D01*
X169314809Y-112729804D01*
X169171952Y-112729804D01*
X168981476Y-112682185D01*
X168886238Y-112634566D01*
X168791000Y-112539328D01*
X168743380Y-112396471D01*
X168743380Y-112301233D01*
X168791000Y-112158376D01*
X168838619Y-112110757D01*
X168838619Y-111729804D02*
X168791000Y-111682185D01*
X168743380Y-111586947D01*
X168743380Y-111348852D01*
X168791000Y-111253614D01*
X168838619Y-111205995D01*
X168933857Y-111158376D01*
X169029095Y-111158376D01*
X169171952Y-111205995D01*
X169743380Y-111777423D01*
X169743380Y-111158376D01*
X169171952Y-110586947D02*
X169124333Y-110682185D01*
X169076714Y-110729804D01*
X168981476Y-110777423D01*
X168933857Y-110777423D01*
X168838619Y-110729804D01*
X168791000Y-110682185D01*
X168743380Y-110586947D01*
X168743380Y-110396471D01*
X168791000Y-110301233D01*
X168838619Y-110253614D01*
X168933857Y-110205995D01*
X168981476Y-110205995D01*
X169076714Y-110253614D01*
X169124333Y-110301233D01*
X169171952Y-110396471D01*
X169171952Y-110586947D01*
X169219571Y-110682185D01*
X169267190Y-110729804D01*
X169362428Y-110777423D01*
X169552904Y-110777423D01*
X169648142Y-110729804D01*
X169695761Y-110682185D01*
X169743380Y-110586947D01*
X169743380Y-110396471D01*
X169695761Y-110301233D01*
X169648142Y-110253614D01*
X169552904Y-110205995D01*
X169362428Y-110205995D01*
X169267190Y-110253614D01*
X169219571Y-110301233D01*
X169171952Y-110396471D01*
%TO.C,C27*%
X174794182Y-107587017D02*
X174841801Y-107634636D01*
X174889420Y-107777493D01*
X174889420Y-107872731D01*
X174841801Y-108015588D01*
X174746563Y-108110826D01*
X174651325Y-108158445D01*
X174460849Y-108206064D01*
X174317992Y-108206064D01*
X174127516Y-108158445D01*
X174032278Y-108110826D01*
X173937040Y-108015588D01*
X173889420Y-107872731D01*
X173889420Y-107777493D01*
X173937040Y-107634636D01*
X173984659Y-107587017D01*
X173984659Y-107206064D02*
X173937040Y-107158445D01*
X173889420Y-107063207D01*
X173889420Y-106825112D01*
X173937040Y-106729874D01*
X173984659Y-106682255D01*
X174079897Y-106634636D01*
X174175135Y-106634636D01*
X174317992Y-106682255D01*
X174889420Y-107253683D01*
X174889420Y-106634636D01*
X173889420Y-106301302D02*
X173889420Y-105634636D01*
X174889420Y-106063207D01*
%TO.C,C24*%
X169419542Y-107546377D02*
X169467161Y-107593996D01*
X169514780Y-107736853D01*
X169514780Y-107832091D01*
X169467161Y-107974948D01*
X169371923Y-108070186D01*
X169276685Y-108117805D01*
X169086209Y-108165424D01*
X168943352Y-108165424D01*
X168752876Y-108117805D01*
X168657638Y-108070186D01*
X168562400Y-107974948D01*
X168514780Y-107832091D01*
X168514780Y-107736853D01*
X168562400Y-107593996D01*
X168610019Y-107546377D01*
X168610019Y-107165424D02*
X168562400Y-107117805D01*
X168514780Y-107022567D01*
X168514780Y-106784472D01*
X168562400Y-106689234D01*
X168610019Y-106641615D01*
X168705257Y-106593996D01*
X168800495Y-106593996D01*
X168943352Y-106641615D01*
X169514780Y-107213043D01*
X169514780Y-106593996D01*
X168848114Y-105736853D02*
X169514780Y-105736853D01*
X168467161Y-105974948D02*
X169181447Y-106213043D01*
X169181447Y-105593996D01*
%TO.C,C1*%
D10*
X105557493Y-98781680D02*
X105524160Y-98815013D01*
X105424160Y-98848346D01*
X105357493Y-98848346D01*
X105257493Y-98815013D01*
X105190826Y-98748346D01*
X105157493Y-98681680D01*
X105124160Y-98548346D01*
X105124160Y-98448346D01*
X105157493Y-98315013D01*
X105190826Y-98248346D01*
X105257493Y-98181680D01*
X105357493Y-98148346D01*
X105424160Y-98148346D01*
X105524160Y-98181680D01*
X105557493Y-98215013D01*
X106224160Y-98848346D02*
X105824160Y-98848346D01*
X106024160Y-98848346D02*
X106024160Y-98148346D01*
X105957493Y-98248346D01*
X105890826Y-98315013D01*
X105824160Y-98348346D01*
%TO.C,U3*%
X115552426Y-93002033D02*
X116119093Y-93002033D01*
X116185760Y-92968700D01*
X116219093Y-92935366D01*
X116252426Y-92868700D01*
X116252426Y-92735366D01*
X116219093Y-92668700D01*
X116185760Y-92635366D01*
X116119093Y-92602033D01*
X115552426Y-92602033D01*
X115552426Y-92335366D02*
X115552426Y-91902033D01*
X115819093Y-92135366D01*
X115819093Y-92035366D01*
X115852426Y-91968700D01*
X115885760Y-91935366D01*
X115952426Y-91902033D01*
X116119093Y-91902033D01*
X116185760Y-91935366D01*
X116219093Y-91968700D01*
X116252426Y-92035366D01*
X116252426Y-92235366D01*
X116219093Y-92302033D01*
X116185760Y-92335366D01*
%TO.C,U6*%
X159344566Y-93443993D02*
X159911233Y-93443993D01*
X159977900Y-93410660D01*
X160011233Y-93377326D01*
X160044566Y-93310660D01*
X160044566Y-93177326D01*
X160011233Y-93110660D01*
X159977900Y-93077326D01*
X159911233Y-93043993D01*
X159344566Y-93043993D01*
X159344566Y-92410660D02*
X159344566Y-92543993D01*
X159377900Y-92610660D01*
X159411233Y-92643993D01*
X159511233Y-92710660D01*
X159644566Y-92743993D01*
X159911233Y-92743993D01*
X159977900Y-92710660D01*
X160011233Y-92677326D01*
X160044566Y-92610660D01*
X160044566Y-92477326D01*
X160011233Y-92410660D01*
X159977900Y-92377326D01*
X159911233Y-92343993D01*
X159744566Y-92343993D01*
X159677900Y-92377326D01*
X159644566Y-92410660D01*
X159611233Y-92477326D01*
X159611233Y-92610660D01*
X159644566Y-92677326D01*
X159677900Y-92710660D01*
X159744566Y-92743993D01*
%TO.C,U5*%
X148994066Y-93322073D02*
X149560733Y-93322073D01*
X149627400Y-93288740D01*
X149660733Y-93255406D01*
X149694066Y-93188740D01*
X149694066Y-93055406D01*
X149660733Y-92988740D01*
X149627400Y-92955406D01*
X149560733Y-92922073D01*
X148994066Y-92922073D01*
X148994066Y-92255406D02*
X148994066Y-92588740D01*
X149327400Y-92622073D01*
X149294066Y-92588740D01*
X149260733Y-92522073D01*
X149260733Y-92355406D01*
X149294066Y-92288740D01*
X149327400Y-92255406D01*
X149394066Y-92222073D01*
X149560733Y-92222073D01*
X149627400Y-92255406D01*
X149660733Y-92288740D01*
X149694066Y-92355406D01*
X149694066Y-92522073D01*
X149660733Y-92588740D01*
X149627400Y-92622073D01*
%TO.C,U4*%
X138674046Y-93197613D02*
X139240713Y-93197613D01*
X139307380Y-93164280D01*
X139340713Y-93130946D01*
X139374046Y-93064280D01*
X139374046Y-92930946D01*
X139340713Y-92864280D01*
X139307380Y-92830946D01*
X139240713Y-92797613D01*
X138674046Y-92797613D01*
X138907380Y-92164280D02*
X139374046Y-92164280D01*
X138640713Y-92330946D02*
X139140713Y-92497613D01*
X139140713Y-92064280D01*
%TO.C,R32*%
X147500470Y-87214828D02*
X147262375Y-87381495D01*
X147500470Y-87500542D02*
X147000470Y-87500542D01*
X147000470Y-87310066D01*
X147024280Y-87262447D01*
X147048089Y-87238638D01*
X147095708Y-87214828D01*
X147167137Y-87214828D01*
X147214756Y-87238638D01*
X147238565Y-87262447D01*
X147262375Y-87310066D01*
X147262375Y-87500542D01*
X147000470Y-87048161D02*
X147000470Y-86738638D01*
X147190946Y-86905304D01*
X147190946Y-86833876D01*
X147214756Y-86786257D01*
X147238565Y-86762447D01*
X147286184Y-86738638D01*
X147405232Y-86738638D01*
X147452851Y-86762447D01*
X147476660Y-86786257D01*
X147500470Y-86833876D01*
X147500470Y-86976733D01*
X147476660Y-87024352D01*
X147452851Y-87048161D01*
X147048089Y-86548161D02*
X147024280Y-86524352D01*
X147000470Y-86476733D01*
X147000470Y-86357685D01*
X147024280Y-86310066D01*
X147048089Y-86286257D01*
X147095708Y-86262447D01*
X147143327Y-86262447D01*
X147214756Y-86286257D01*
X147500470Y-86571971D01*
X147500470Y-86262447D01*
%TO.C,U8*%
X157249066Y-84962933D02*
X157815733Y-84962933D01*
X157882400Y-84929600D01*
X157915733Y-84896266D01*
X157949066Y-84829600D01*
X157949066Y-84696266D01*
X157915733Y-84629600D01*
X157882400Y-84596266D01*
X157815733Y-84562933D01*
X157249066Y-84562933D01*
X157549066Y-84129600D02*
X157515733Y-84196266D01*
X157482400Y-84229600D01*
X157415733Y-84262933D01*
X157382400Y-84262933D01*
X157315733Y-84229600D01*
X157282400Y-84196266D01*
X157249066Y-84129600D01*
X157249066Y-83996266D01*
X157282400Y-83929600D01*
X157315733Y-83896266D01*
X157382400Y-83862933D01*
X157415733Y-83862933D01*
X157482400Y-83896266D01*
X157515733Y-83929600D01*
X157549066Y-83996266D01*
X157549066Y-84129600D01*
X157582400Y-84196266D01*
X157615733Y-84229600D01*
X157682400Y-84262933D01*
X157815733Y-84262933D01*
X157882400Y-84229600D01*
X157915733Y-84196266D01*
X157949066Y-84129600D01*
X157949066Y-83996266D01*
X157915733Y-83929600D01*
X157882400Y-83896266D01*
X157815733Y-83862933D01*
X157682400Y-83862933D01*
X157615733Y-83896266D01*
X157582400Y-83929600D01*
X157549066Y-83996266D01*
%TO.C,C23*%
X177731000Y-80828960D02*
X177697666Y-80862293D01*
X177597666Y-80895626D01*
X177531000Y-80895626D01*
X177431000Y-80862293D01*
X177364333Y-80795626D01*
X177331000Y-80728960D01*
X177297666Y-80595626D01*
X177297666Y-80495626D01*
X177331000Y-80362293D01*
X177364333Y-80295626D01*
X177431000Y-80228960D01*
X177531000Y-80195626D01*
X177597666Y-80195626D01*
X177697666Y-80228960D01*
X177731000Y-80262293D01*
X177997666Y-80262293D02*
X178031000Y-80228960D01*
X178097666Y-80195626D01*
X178264333Y-80195626D01*
X178331000Y-80228960D01*
X178364333Y-80262293D01*
X178397666Y-80328960D01*
X178397666Y-80395626D01*
X178364333Y-80495626D01*
X177964333Y-80895626D01*
X178397666Y-80895626D01*
X178631000Y-80195626D02*
X179064333Y-80195626D01*
X178831000Y-80462293D01*
X178931000Y-80462293D01*
X178997666Y-80495626D01*
X179031000Y-80528960D01*
X179064333Y-80595626D01*
X179064333Y-80762293D01*
X179031000Y-80828960D01*
X178997666Y-80862293D01*
X178931000Y-80895626D01*
X178731000Y-80895626D01*
X178664333Y-80862293D01*
X178631000Y-80828960D01*
%TO.C,C22*%
X159218440Y-83228600D02*
X159251773Y-83261933D01*
X159285106Y-83361933D01*
X159285106Y-83428600D01*
X159251773Y-83528600D01*
X159185106Y-83595266D01*
X159118440Y-83628600D01*
X158985106Y-83661933D01*
X158885106Y-83661933D01*
X158751773Y-83628600D01*
X158685106Y-83595266D01*
X158618440Y-83528600D01*
X158585106Y-83428600D01*
X158585106Y-83361933D01*
X158618440Y-83261933D01*
X158651773Y-83228600D01*
X158651773Y-82961933D02*
X158618440Y-82928600D01*
X158585106Y-82861933D01*
X158585106Y-82695266D01*
X158618440Y-82628600D01*
X158651773Y-82595266D01*
X158718440Y-82561933D01*
X158785106Y-82561933D01*
X158885106Y-82595266D01*
X159285106Y-82995266D01*
X159285106Y-82561933D01*
X158651773Y-82295266D02*
X158618440Y-82261933D01*
X158585106Y-82195266D01*
X158585106Y-82028600D01*
X158618440Y-81961933D01*
X158651773Y-81928600D01*
X158718440Y-81895266D01*
X158785106Y-81895266D01*
X158885106Y-81928600D01*
X159285106Y-82328600D01*
X159285106Y-81895266D01*
%TO.C,C21*%
X177766560Y-79249080D02*
X177733226Y-79282413D01*
X177633226Y-79315746D01*
X177566560Y-79315746D01*
X177466560Y-79282413D01*
X177399893Y-79215746D01*
X177366560Y-79149080D01*
X177333226Y-79015746D01*
X177333226Y-78915746D01*
X177366560Y-78782413D01*
X177399893Y-78715746D01*
X177466560Y-78649080D01*
X177566560Y-78615746D01*
X177633226Y-78615746D01*
X177733226Y-78649080D01*
X177766560Y-78682413D01*
X178033226Y-78682413D02*
X178066560Y-78649080D01*
X178133226Y-78615746D01*
X178299893Y-78615746D01*
X178366560Y-78649080D01*
X178399893Y-78682413D01*
X178433226Y-78749080D01*
X178433226Y-78815746D01*
X178399893Y-78915746D01*
X177999893Y-79315746D01*
X178433226Y-79315746D01*
X179099893Y-79315746D02*
X178699893Y-79315746D01*
X178899893Y-79315746D02*
X178899893Y-78615746D01*
X178833226Y-78715746D01*
X178766560Y-78782413D01*
X178699893Y-78815746D01*
%TO.C,C19*%
X170832360Y-84334160D02*
X170799026Y-84367493D01*
X170699026Y-84400826D01*
X170632360Y-84400826D01*
X170532360Y-84367493D01*
X170465693Y-84300826D01*
X170432360Y-84234160D01*
X170399026Y-84100826D01*
X170399026Y-84000826D01*
X170432360Y-83867493D01*
X170465693Y-83800826D01*
X170532360Y-83734160D01*
X170632360Y-83700826D01*
X170699026Y-83700826D01*
X170799026Y-83734160D01*
X170832360Y-83767493D01*
X171499026Y-84400826D02*
X171099026Y-84400826D01*
X171299026Y-84400826D02*
X171299026Y-83700826D01*
X171232360Y-83800826D01*
X171165693Y-83867493D01*
X171099026Y-83900826D01*
X171832360Y-84400826D02*
X171965693Y-84400826D01*
X172032360Y-84367493D01*
X172065693Y-84334160D01*
X172132360Y-84234160D01*
X172165693Y-84100826D01*
X172165693Y-83834160D01*
X172132360Y-83767493D01*
X172099026Y-83734160D01*
X172032360Y-83700826D01*
X171899026Y-83700826D01*
X171832360Y-83734160D01*
X171799026Y-83767493D01*
X171765693Y-83834160D01*
X171765693Y-84000826D01*
X171799026Y-84067493D01*
X171832360Y-84100826D01*
X171899026Y-84134160D01*
X172032360Y-84134160D01*
X172099026Y-84100826D01*
X172132360Y-84067493D01*
X172165693Y-84000826D01*
%TO.C,C18*%
X156551440Y-80073920D02*
X156584773Y-80107253D01*
X156618106Y-80207253D01*
X156618106Y-80273920D01*
X156584773Y-80373920D01*
X156518106Y-80440586D01*
X156451440Y-80473920D01*
X156318106Y-80507253D01*
X156218106Y-80507253D01*
X156084773Y-80473920D01*
X156018106Y-80440586D01*
X155951440Y-80373920D01*
X155918106Y-80273920D01*
X155918106Y-80207253D01*
X155951440Y-80107253D01*
X155984773Y-80073920D01*
X156618106Y-79407253D02*
X156618106Y-79807253D01*
X156618106Y-79607253D02*
X155918106Y-79607253D01*
X156018106Y-79673920D01*
X156084773Y-79740586D01*
X156118106Y-79807253D01*
X156218106Y-79007253D02*
X156184773Y-79073920D01*
X156151440Y-79107253D01*
X156084773Y-79140586D01*
X156051440Y-79140586D01*
X155984773Y-79107253D01*
X155951440Y-79073920D01*
X155918106Y-79007253D01*
X155918106Y-78873920D01*
X155951440Y-78807253D01*
X155984773Y-78773920D01*
X156051440Y-78740586D01*
X156084773Y-78740586D01*
X156151440Y-78773920D01*
X156184773Y-78807253D01*
X156218106Y-78873920D01*
X156218106Y-79007253D01*
X156251440Y-79073920D01*
X156284773Y-79107253D01*
X156351440Y-79140586D01*
X156484773Y-79140586D01*
X156551440Y-79107253D01*
X156584773Y-79073920D01*
X156618106Y-79007253D01*
X156618106Y-78873920D01*
X156584773Y-78807253D01*
X156551440Y-78773920D01*
X156484773Y-78740586D01*
X156351440Y-78740586D01*
X156284773Y-78773920D01*
X156251440Y-78807253D01*
X156218106Y-78873920D01*
%TO.C,C17*%
X157491240Y-72865400D02*
X157524573Y-72898733D01*
X157557906Y-72998733D01*
X157557906Y-73065400D01*
X157524573Y-73165400D01*
X157457906Y-73232066D01*
X157391240Y-73265400D01*
X157257906Y-73298733D01*
X157157906Y-73298733D01*
X157024573Y-73265400D01*
X156957906Y-73232066D01*
X156891240Y-73165400D01*
X156857906Y-73065400D01*
X156857906Y-72998733D01*
X156891240Y-72898733D01*
X156924573Y-72865400D01*
X157557906Y-72198733D02*
X157557906Y-72598733D01*
X157557906Y-72398733D02*
X156857906Y-72398733D01*
X156957906Y-72465400D01*
X157024573Y-72532066D01*
X157057906Y-72598733D01*
X156857906Y-71965400D02*
X156857906Y-71498733D01*
X157557906Y-71798733D01*
%TO.C,C16*%
X150908600Y-81916080D02*
X150875266Y-81949413D01*
X150775266Y-81982746D01*
X150708600Y-81982746D01*
X150608600Y-81949413D01*
X150541933Y-81882746D01*
X150508600Y-81816080D01*
X150475266Y-81682746D01*
X150475266Y-81582746D01*
X150508600Y-81449413D01*
X150541933Y-81382746D01*
X150608600Y-81316080D01*
X150708600Y-81282746D01*
X150775266Y-81282746D01*
X150875266Y-81316080D01*
X150908600Y-81349413D01*
X151575266Y-81982746D02*
X151175266Y-81982746D01*
X151375266Y-81982746D02*
X151375266Y-81282746D01*
X151308600Y-81382746D01*
X151241933Y-81449413D01*
X151175266Y-81482746D01*
X152175266Y-81282746D02*
X152041933Y-81282746D01*
X151975266Y-81316080D01*
X151941933Y-81349413D01*
X151875266Y-81449413D01*
X151841933Y-81582746D01*
X151841933Y-81849413D01*
X151875266Y-81916080D01*
X151908600Y-81949413D01*
X151975266Y-81982746D01*
X152108600Y-81982746D01*
X152175266Y-81949413D01*
X152208600Y-81916080D01*
X152241933Y-81849413D01*
X152241933Y-81682746D01*
X152208600Y-81616080D01*
X152175266Y-81582746D01*
X152108600Y-81549413D01*
X151975266Y-81549413D01*
X151908600Y-81582746D01*
X151875266Y-81616080D01*
X151841933Y-81682746D01*
%TO.C,C15*%
X154946160Y-74140480D02*
X154979493Y-74173813D01*
X155012826Y-74273813D01*
X155012826Y-74340480D01*
X154979493Y-74440480D01*
X154912826Y-74507146D01*
X154846160Y-74540480D01*
X154712826Y-74573813D01*
X154612826Y-74573813D01*
X154479493Y-74540480D01*
X154412826Y-74507146D01*
X154346160Y-74440480D01*
X154312826Y-74340480D01*
X154312826Y-74273813D01*
X154346160Y-74173813D01*
X154379493Y-74140480D01*
X155012826Y-73473813D02*
X155012826Y-73873813D01*
X155012826Y-73673813D02*
X154312826Y-73673813D01*
X154412826Y-73740480D01*
X154479493Y-73807146D01*
X154512826Y-73873813D01*
X154312826Y-72840480D02*
X154312826Y-73173813D01*
X154646160Y-73207146D01*
X154612826Y-73173813D01*
X154579493Y-73107146D01*
X154579493Y-72940480D01*
X154612826Y-72873813D01*
X154646160Y-72840480D01*
X154712826Y-72807146D01*
X154879493Y-72807146D01*
X154946160Y-72840480D01*
X154979493Y-72873813D01*
X155012826Y-72940480D01*
X155012826Y-73107146D01*
X154979493Y-73173813D01*
X154946160Y-73207146D01*
%TO.C,C14*%
X170138940Y-73503600D02*
X170105606Y-73536933D01*
X170005606Y-73570266D01*
X169938940Y-73570266D01*
X169838940Y-73536933D01*
X169772273Y-73470266D01*
X169738940Y-73403600D01*
X169705606Y-73270266D01*
X169705606Y-73170266D01*
X169738940Y-73036933D01*
X169772273Y-72970266D01*
X169838940Y-72903600D01*
X169938940Y-72870266D01*
X170005606Y-72870266D01*
X170105606Y-72903600D01*
X170138940Y-72936933D01*
X170805606Y-73570266D02*
X170405606Y-73570266D01*
X170605606Y-73570266D02*
X170605606Y-72870266D01*
X170538940Y-72970266D01*
X170472273Y-73036933D01*
X170405606Y-73070266D01*
X171405606Y-73103600D02*
X171405606Y-73570266D01*
X171238940Y-72836933D02*
X171072273Y-73336933D01*
X171505606Y-73336933D01*
%TO.C,C13*%
X170093220Y-74783760D02*
X170059886Y-74817093D01*
X169959886Y-74850426D01*
X169893220Y-74850426D01*
X169793220Y-74817093D01*
X169726553Y-74750426D01*
X169693220Y-74683760D01*
X169659886Y-74550426D01*
X169659886Y-74450426D01*
X169693220Y-74317093D01*
X169726553Y-74250426D01*
X169793220Y-74183760D01*
X169893220Y-74150426D01*
X169959886Y-74150426D01*
X170059886Y-74183760D01*
X170093220Y-74217093D01*
X170759886Y-74850426D02*
X170359886Y-74850426D01*
X170559886Y-74850426D02*
X170559886Y-74150426D01*
X170493220Y-74250426D01*
X170426553Y-74317093D01*
X170359886Y-74350426D01*
X170993220Y-74150426D02*
X171426553Y-74150426D01*
X171193220Y-74417093D01*
X171293220Y-74417093D01*
X171359886Y-74450426D01*
X171393220Y-74483760D01*
X171426553Y-74550426D01*
X171426553Y-74717093D01*
X171393220Y-74783760D01*
X171359886Y-74817093D01*
X171293220Y-74850426D01*
X171093220Y-74850426D01*
X171026553Y-74817093D01*
X170993220Y-74783760D01*
%TO.C,C12*%
X170740920Y-82784760D02*
X170707586Y-82818093D01*
X170607586Y-82851426D01*
X170540920Y-82851426D01*
X170440920Y-82818093D01*
X170374253Y-82751426D01*
X170340920Y-82684760D01*
X170307586Y-82551426D01*
X170307586Y-82451426D01*
X170340920Y-82318093D01*
X170374253Y-82251426D01*
X170440920Y-82184760D01*
X170540920Y-82151426D01*
X170607586Y-82151426D01*
X170707586Y-82184760D01*
X170740920Y-82218093D01*
X171407586Y-82851426D02*
X171007586Y-82851426D01*
X171207586Y-82851426D02*
X171207586Y-82151426D01*
X171140920Y-82251426D01*
X171074253Y-82318093D01*
X171007586Y-82351426D01*
X171674253Y-82218093D02*
X171707586Y-82184760D01*
X171774253Y-82151426D01*
X171940920Y-82151426D01*
X172007586Y-82184760D01*
X172040920Y-82218093D01*
X172074253Y-82284760D01*
X172074253Y-82351426D01*
X172040920Y-82451426D01*
X171640920Y-82851426D01*
X172074253Y-82851426D01*
%TO.C,C11*%
X152722160Y-70862000D02*
X152688826Y-70895333D01*
X152588826Y-70928666D01*
X152522160Y-70928666D01*
X152422160Y-70895333D01*
X152355493Y-70828666D01*
X152322160Y-70762000D01*
X152288826Y-70628666D01*
X152288826Y-70528666D01*
X152322160Y-70395333D01*
X152355493Y-70328666D01*
X152422160Y-70262000D01*
X152522160Y-70228666D01*
X152588826Y-70228666D01*
X152688826Y-70262000D01*
X152722160Y-70295333D01*
X153388826Y-70928666D02*
X152988826Y-70928666D01*
X153188826Y-70928666D02*
X153188826Y-70228666D01*
X153122160Y-70328666D01*
X153055493Y-70395333D01*
X152988826Y-70428666D01*
X154055493Y-70928666D02*
X153655493Y-70928666D01*
X153855493Y-70928666D02*
X153855493Y-70228666D01*
X153788826Y-70328666D01*
X153722160Y-70395333D01*
X153655493Y-70428666D01*
%TO.C,C10*%
X184059640Y-75085360D02*
X184092973Y-75118693D01*
X184126306Y-75218693D01*
X184126306Y-75285360D01*
X184092973Y-75385360D01*
X184026306Y-75452026D01*
X183959640Y-75485360D01*
X183826306Y-75518693D01*
X183726306Y-75518693D01*
X183592973Y-75485360D01*
X183526306Y-75452026D01*
X183459640Y-75385360D01*
X183426306Y-75285360D01*
X183426306Y-75218693D01*
X183459640Y-75118693D01*
X183492973Y-75085360D01*
X184126306Y-74418693D02*
X184126306Y-74818693D01*
X184126306Y-74618693D02*
X183426306Y-74618693D01*
X183526306Y-74685360D01*
X183592973Y-74752026D01*
X183626306Y-74818693D01*
X183426306Y-73985360D02*
X183426306Y-73918693D01*
X183459640Y-73852026D01*
X183492973Y-73818693D01*
X183559640Y-73785360D01*
X183692973Y-73752026D01*
X183859640Y-73752026D01*
X183992973Y-73785360D01*
X184059640Y-73818693D01*
X184092973Y-73852026D01*
X184126306Y-73918693D01*
X184126306Y-73985360D01*
X184092973Y-74052026D01*
X184059640Y-74085360D01*
X183992973Y-74118693D01*
X183859640Y-74152026D01*
X183692973Y-74152026D01*
X183559640Y-74118693D01*
X183492973Y-74085360D01*
X183459640Y-74052026D01*
X183426306Y-73985360D01*
%TO.C,C9*%
X170700873Y-77963840D02*
X170667540Y-77997173D01*
X170567540Y-78030506D01*
X170500873Y-78030506D01*
X170400873Y-77997173D01*
X170334206Y-77930506D01*
X170300873Y-77863840D01*
X170267540Y-77730506D01*
X170267540Y-77630506D01*
X170300873Y-77497173D01*
X170334206Y-77430506D01*
X170400873Y-77363840D01*
X170500873Y-77330506D01*
X170567540Y-77330506D01*
X170667540Y-77363840D01*
X170700873Y-77397173D01*
X171034206Y-78030506D02*
X171167540Y-78030506D01*
X171234206Y-77997173D01*
X171267540Y-77963840D01*
X171334206Y-77863840D01*
X171367540Y-77730506D01*
X171367540Y-77463840D01*
X171334206Y-77397173D01*
X171300873Y-77363840D01*
X171234206Y-77330506D01*
X171100873Y-77330506D01*
X171034206Y-77363840D01*
X171000873Y-77397173D01*
X170967540Y-77463840D01*
X170967540Y-77630506D01*
X171000873Y-77697173D01*
X171034206Y-77730506D01*
X171100873Y-77763840D01*
X171234206Y-77763840D01*
X171300873Y-77730506D01*
X171334206Y-77697173D01*
X171367540Y-77630506D01*
%TO.C,C8*%
X180031200Y-74650426D02*
X180064533Y-74683760D01*
X180097866Y-74783760D01*
X180097866Y-74850426D01*
X180064533Y-74950426D01*
X179997866Y-75017093D01*
X179931200Y-75050426D01*
X179797866Y-75083760D01*
X179697866Y-75083760D01*
X179564533Y-75050426D01*
X179497866Y-75017093D01*
X179431200Y-74950426D01*
X179397866Y-74850426D01*
X179397866Y-74783760D01*
X179431200Y-74683760D01*
X179464533Y-74650426D01*
X179697866Y-74250426D02*
X179664533Y-74317093D01*
X179631200Y-74350426D01*
X179564533Y-74383760D01*
X179531200Y-74383760D01*
X179464533Y-74350426D01*
X179431200Y-74317093D01*
X179397866Y-74250426D01*
X179397866Y-74117093D01*
X179431200Y-74050426D01*
X179464533Y-74017093D01*
X179531200Y-73983760D01*
X179564533Y-73983760D01*
X179631200Y-74017093D01*
X179664533Y-74050426D01*
X179697866Y-74117093D01*
X179697866Y-74250426D01*
X179731200Y-74317093D01*
X179764533Y-74350426D01*
X179831200Y-74383760D01*
X179964533Y-74383760D01*
X180031200Y-74350426D01*
X180064533Y-74317093D01*
X180097866Y-74250426D01*
X180097866Y-74117093D01*
X180064533Y-74050426D01*
X180031200Y-74017093D01*
X179964533Y-73983760D01*
X179831200Y-73983760D01*
X179764533Y-74017093D01*
X179731200Y-74050426D01*
X179697866Y-74117093D01*
%TO.C,C7*%
X170705953Y-79442120D02*
X170672620Y-79475453D01*
X170572620Y-79508786D01*
X170505953Y-79508786D01*
X170405953Y-79475453D01*
X170339286Y-79408786D01*
X170305953Y-79342120D01*
X170272620Y-79208786D01*
X170272620Y-79108786D01*
X170305953Y-78975453D01*
X170339286Y-78908786D01*
X170405953Y-78842120D01*
X170505953Y-78808786D01*
X170572620Y-78808786D01*
X170672620Y-78842120D01*
X170705953Y-78875453D01*
X170939286Y-78808786D02*
X171405953Y-78808786D01*
X171105953Y-79508786D01*
%TO.C,C6*%
X139482640Y-83540426D02*
X139515973Y-83573760D01*
X139549306Y-83673760D01*
X139549306Y-83740426D01*
X139515973Y-83840426D01*
X139449306Y-83907093D01*
X139382640Y-83940426D01*
X139249306Y-83973760D01*
X139149306Y-83973760D01*
X139015973Y-83940426D01*
X138949306Y-83907093D01*
X138882640Y-83840426D01*
X138849306Y-83740426D01*
X138849306Y-83673760D01*
X138882640Y-83573760D01*
X138915973Y-83540426D01*
X138849306Y-82940426D02*
X138849306Y-83073760D01*
X138882640Y-83140426D01*
X138915973Y-83173760D01*
X139015973Y-83240426D01*
X139149306Y-83273760D01*
X139415973Y-83273760D01*
X139482640Y-83240426D01*
X139515973Y-83207093D01*
X139549306Y-83140426D01*
X139549306Y-83007093D01*
X139515973Y-82940426D01*
X139482640Y-82907093D01*
X139415973Y-82873760D01*
X139249306Y-82873760D01*
X139182640Y-82907093D01*
X139149306Y-82940426D01*
X139115973Y-83007093D01*
X139115973Y-83140426D01*
X139149306Y-83207093D01*
X139182640Y-83240426D01*
X139249306Y-83273760D01*
%TO.C,C5*%
X180605240Y-82956226D02*
X180638573Y-82989560D01*
X180671906Y-83089560D01*
X180671906Y-83156226D01*
X180638573Y-83256226D01*
X180571906Y-83322893D01*
X180505240Y-83356226D01*
X180371906Y-83389560D01*
X180271906Y-83389560D01*
X180138573Y-83356226D01*
X180071906Y-83322893D01*
X180005240Y-83256226D01*
X179971906Y-83156226D01*
X179971906Y-83089560D01*
X180005240Y-82989560D01*
X180038573Y-82956226D01*
X179971906Y-82322893D02*
X179971906Y-82656226D01*
X180305240Y-82689560D01*
X180271906Y-82656226D01*
X180238573Y-82589560D01*
X180238573Y-82422893D01*
X180271906Y-82356226D01*
X180305240Y-82322893D01*
X180371906Y-82289560D01*
X180538573Y-82289560D01*
X180605240Y-82322893D01*
X180638573Y-82356226D01*
X180671906Y-82422893D01*
X180671906Y-82589560D01*
X180638573Y-82656226D01*
X180605240Y-82689560D01*
%TO.C,Q4*%
X159419933Y-100129133D02*
X159353266Y-100095800D01*
X159286600Y-100029133D01*
X159186600Y-99929133D01*
X159119933Y-99895800D01*
X159053266Y-99895800D01*
X159086600Y-100062466D02*
X159019933Y-100029133D01*
X158953266Y-99962466D01*
X158919933Y-99829133D01*
X158919933Y-99595800D01*
X158953266Y-99462466D01*
X159019933Y-99395800D01*
X159086600Y-99362466D01*
X159219933Y-99362466D01*
X159286600Y-99395800D01*
X159353266Y-99462466D01*
X159386600Y-99595800D01*
X159386600Y-99829133D01*
X159353266Y-99962466D01*
X159286600Y-100029133D01*
X159219933Y-100062466D01*
X159086600Y-100062466D01*
X159986600Y-99595800D02*
X159986600Y-100062466D01*
X159819933Y-99329133D02*
X159653266Y-99829133D01*
X160086600Y-99829133D01*
%TO.C,Q3*%
X148891633Y-100129133D02*
X148824966Y-100095800D01*
X148758300Y-100029133D01*
X148658300Y-99929133D01*
X148591633Y-99895800D01*
X148524966Y-99895800D01*
X148558300Y-100062466D02*
X148491633Y-100029133D01*
X148424966Y-99962466D01*
X148391633Y-99829133D01*
X148391633Y-99595800D01*
X148424966Y-99462466D01*
X148491633Y-99395800D01*
X148558300Y-99362466D01*
X148691633Y-99362466D01*
X148758300Y-99395800D01*
X148824966Y-99462466D01*
X148858300Y-99595800D01*
X148858300Y-99829133D01*
X148824966Y-99962466D01*
X148758300Y-100029133D01*
X148691633Y-100062466D01*
X148558300Y-100062466D01*
X149091633Y-99362466D02*
X149524966Y-99362466D01*
X149291633Y-99629133D01*
X149391633Y-99629133D01*
X149458300Y-99662466D01*
X149491633Y-99695800D01*
X149524966Y-99762466D01*
X149524966Y-99929133D01*
X149491633Y-99995800D01*
X149458300Y-100029133D01*
X149391633Y-100062466D01*
X149191633Y-100062466D01*
X149124966Y-100029133D01*
X149091633Y-99995800D01*
%TO.C,Q2*%
X138414133Y-100103733D02*
X138347466Y-100070400D01*
X138280800Y-100003733D01*
X138180800Y-99903733D01*
X138114133Y-99870400D01*
X138047466Y-99870400D01*
X138080800Y-100037066D02*
X138014133Y-100003733D01*
X137947466Y-99937066D01*
X137914133Y-99803733D01*
X137914133Y-99570400D01*
X137947466Y-99437066D01*
X138014133Y-99370400D01*
X138080800Y-99337066D01*
X138214133Y-99337066D01*
X138280800Y-99370400D01*
X138347466Y-99437066D01*
X138380800Y-99570400D01*
X138380800Y-99803733D01*
X138347466Y-99937066D01*
X138280800Y-100003733D01*
X138214133Y-100037066D01*
X138080800Y-100037066D01*
X138647466Y-99403733D02*
X138680800Y-99370400D01*
X138747466Y-99337066D01*
X138914133Y-99337066D01*
X138980800Y-99370400D01*
X139014133Y-99403733D01*
X139047466Y-99470400D01*
X139047466Y-99537066D01*
X139014133Y-99637066D01*
X138614133Y-100037066D01*
X139047466Y-100037066D01*
%TO.C,R19*%
X155094520Y-99940546D02*
X154861186Y-99607213D01*
X154694520Y-99940546D02*
X154694520Y-99240546D01*
X154961186Y-99240546D01*
X155027853Y-99273880D01*
X155061186Y-99307213D01*
X155094520Y-99373880D01*
X155094520Y-99473880D01*
X155061186Y-99540546D01*
X155027853Y-99573880D01*
X154961186Y-99607213D01*
X154694520Y-99607213D01*
X155761186Y-99940546D02*
X155361186Y-99940546D01*
X155561186Y-99940546D02*
X155561186Y-99240546D01*
X155494520Y-99340546D01*
X155427853Y-99407213D01*
X155361186Y-99440546D01*
X156094520Y-99940546D02*
X156227853Y-99940546D01*
X156294520Y-99907213D01*
X156327853Y-99873880D01*
X156394520Y-99773880D01*
X156427853Y-99640546D01*
X156427853Y-99373880D01*
X156394520Y-99307213D01*
X156361186Y-99273880D01*
X156294520Y-99240546D01*
X156161186Y-99240546D01*
X156094520Y-99273880D01*
X156061186Y-99307213D01*
X156027853Y-99373880D01*
X156027853Y-99540546D01*
X156061186Y-99607213D01*
X156094520Y-99640546D01*
X156161186Y-99673880D01*
X156294520Y-99673880D01*
X156361186Y-99640546D01*
X156394520Y-99607213D01*
X156427853Y-99540546D01*
%TO.C,R18*%
X144507800Y-100062466D02*
X144274466Y-99729133D01*
X144107800Y-100062466D02*
X144107800Y-99362466D01*
X144374466Y-99362466D01*
X144441133Y-99395800D01*
X144474466Y-99429133D01*
X144507800Y-99495800D01*
X144507800Y-99595800D01*
X144474466Y-99662466D01*
X144441133Y-99695800D01*
X144374466Y-99729133D01*
X144107800Y-99729133D01*
X145174466Y-100062466D02*
X144774466Y-100062466D01*
X144974466Y-100062466D02*
X144974466Y-99362466D01*
X144907800Y-99462466D01*
X144841133Y-99529133D01*
X144774466Y-99562466D01*
X145574466Y-99662466D02*
X145507800Y-99629133D01*
X145474466Y-99595800D01*
X145441133Y-99529133D01*
X145441133Y-99495800D01*
X145474466Y-99429133D01*
X145507800Y-99395800D01*
X145574466Y-99362466D01*
X145707800Y-99362466D01*
X145774466Y-99395800D01*
X145807800Y-99429133D01*
X145841133Y-99495800D01*
X145841133Y-99529133D01*
X145807800Y-99595800D01*
X145774466Y-99629133D01*
X145707800Y-99662466D01*
X145574466Y-99662466D01*
X145507800Y-99695800D01*
X145474466Y-99729133D01*
X145441133Y-99795800D01*
X145441133Y-99929133D01*
X145474466Y-99995800D01*
X145507800Y-100029133D01*
X145574466Y-100062466D01*
X145707800Y-100062466D01*
X145774466Y-100029133D01*
X145807800Y-99995800D01*
X145841133Y-99929133D01*
X145841133Y-99795800D01*
X145807800Y-99729133D01*
X145774466Y-99695800D01*
X145707800Y-99662466D01*
%TO.C,R17*%
X134093800Y-100062466D02*
X133860466Y-99729133D01*
X133693800Y-100062466D02*
X133693800Y-99362466D01*
X133960466Y-99362466D01*
X134027133Y-99395800D01*
X134060466Y-99429133D01*
X134093800Y-99495800D01*
X134093800Y-99595800D01*
X134060466Y-99662466D01*
X134027133Y-99695800D01*
X133960466Y-99729133D01*
X133693800Y-99729133D01*
X134760466Y-100062466D02*
X134360466Y-100062466D01*
X134560466Y-100062466D02*
X134560466Y-99362466D01*
X134493800Y-99462466D01*
X134427133Y-99529133D01*
X134360466Y-99562466D01*
X134993800Y-99362466D02*
X135460466Y-99362466D01*
X135160466Y-100062466D01*
%TO.C,R16*%
X110700400Y-97700266D02*
X110467066Y-97366933D01*
X110300400Y-97700266D02*
X110300400Y-97000266D01*
X110567066Y-97000266D01*
X110633733Y-97033600D01*
X110667066Y-97066933D01*
X110700400Y-97133600D01*
X110700400Y-97233600D01*
X110667066Y-97300266D01*
X110633733Y-97333600D01*
X110567066Y-97366933D01*
X110300400Y-97366933D01*
X111367066Y-97700266D02*
X110967066Y-97700266D01*
X111167066Y-97700266D02*
X111167066Y-97000266D01*
X111100400Y-97100266D01*
X111033733Y-97166933D01*
X110967066Y-97200266D01*
X111967066Y-97000266D02*
X111833733Y-97000266D01*
X111767066Y-97033600D01*
X111733733Y-97066933D01*
X111667066Y-97166933D01*
X111633733Y-97300266D01*
X111633733Y-97566933D01*
X111667066Y-97633600D01*
X111700400Y-97666933D01*
X111767066Y-97700266D01*
X111900400Y-97700266D01*
X111967066Y-97666933D01*
X112000400Y-97633600D01*
X112033733Y-97566933D01*
X112033733Y-97400266D01*
X112000400Y-97333600D01*
X111967066Y-97300266D01*
X111900400Y-97266933D01*
X111767066Y-97266933D01*
X111700400Y-97300266D01*
X111667066Y-97333600D01*
X111633733Y-97400266D01*
%TO.C,R14*%
X162917720Y-99960866D02*
X162684386Y-99627533D01*
X162517720Y-99960866D02*
X162517720Y-99260866D01*
X162784386Y-99260866D01*
X162851053Y-99294200D01*
X162884386Y-99327533D01*
X162917720Y-99394200D01*
X162917720Y-99494200D01*
X162884386Y-99560866D01*
X162851053Y-99594200D01*
X162784386Y-99627533D01*
X162517720Y-99627533D01*
X163584386Y-99960866D02*
X163184386Y-99960866D01*
X163384386Y-99960866D02*
X163384386Y-99260866D01*
X163317720Y-99360866D01*
X163251053Y-99427533D01*
X163184386Y-99460866D01*
X164184386Y-99494200D02*
X164184386Y-99960866D01*
X164017720Y-99227533D02*
X163851053Y-99727533D01*
X164284386Y-99727533D01*
%TO.C,R13*%
X152082080Y-99991346D02*
X151848746Y-99658013D01*
X151682080Y-99991346D02*
X151682080Y-99291346D01*
X151948746Y-99291346D01*
X152015413Y-99324680D01*
X152048746Y-99358013D01*
X152082080Y-99424680D01*
X152082080Y-99524680D01*
X152048746Y-99591346D01*
X152015413Y-99624680D01*
X151948746Y-99658013D01*
X151682080Y-99658013D01*
X152748746Y-99991346D02*
X152348746Y-99991346D01*
X152548746Y-99991346D02*
X152548746Y-99291346D01*
X152482080Y-99391346D01*
X152415413Y-99458013D01*
X152348746Y-99491346D01*
X152982080Y-99291346D02*
X153415413Y-99291346D01*
X153182080Y-99558013D01*
X153282080Y-99558013D01*
X153348746Y-99591346D01*
X153382080Y-99624680D01*
X153415413Y-99691346D01*
X153415413Y-99858013D01*
X153382080Y-99924680D01*
X153348746Y-99958013D01*
X153282080Y-99991346D01*
X153082080Y-99991346D01*
X153015413Y-99958013D01*
X152982080Y-99924680D01*
%TO.C,R12*%
X141917000Y-100087866D02*
X141683666Y-99754533D01*
X141517000Y-100087866D02*
X141517000Y-99387866D01*
X141783666Y-99387866D01*
X141850333Y-99421200D01*
X141883666Y-99454533D01*
X141917000Y-99521200D01*
X141917000Y-99621200D01*
X141883666Y-99687866D01*
X141850333Y-99721200D01*
X141783666Y-99754533D01*
X141517000Y-99754533D01*
X142583666Y-100087866D02*
X142183666Y-100087866D01*
X142383666Y-100087866D02*
X142383666Y-99387866D01*
X142317000Y-99487866D01*
X142250333Y-99554533D01*
X142183666Y-99587866D01*
X142850333Y-99454533D02*
X142883666Y-99421200D01*
X142950333Y-99387866D01*
X143117000Y-99387866D01*
X143183666Y-99421200D01*
X143217000Y-99454533D01*
X143250333Y-99521200D01*
X143250333Y-99587866D01*
X143217000Y-99687866D01*
X142817000Y-100087866D01*
X143250333Y-100087866D01*
%TO.C,R11*%
X120052266Y-99352520D02*
X119718933Y-99585853D01*
X120052266Y-99752520D02*
X119352266Y-99752520D01*
X119352266Y-99485853D01*
X119385600Y-99419186D01*
X119418933Y-99385853D01*
X119485600Y-99352520D01*
X119585600Y-99352520D01*
X119652266Y-99385853D01*
X119685600Y-99419186D01*
X119718933Y-99485853D01*
X119718933Y-99752520D01*
X120052266Y-98685853D02*
X120052266Y-99085853D01*
X120052266Y-98885853D02*
X119352266Y-98885853D01*
X119452266Y-98952520D01*
X119518933Y-99019186D01*
X119552266Y-99085853D01*
X120052266Y-98019186D02*
X120052266Y-98419186D01*
X120052266Y-98219186D02*
X119352266Y-98219186D01*
X119452266Y-98285853D01*
X119518933Y-98352520D01*
X119552266Y-98419186D01*
%TO.C,R26*%
X160433600Y-70110786D02*
X160200266Y-69777453D01*
X160033600Y-70110786D02*
X160033600Y-69410786D01*
X160300266Y-69410786D01*
X160366933Y-69444120D01*
X160400266Y-69477453D01*
X160433600Y-69544120D01*
X160433600Y-69644120D01*
X160400266Y-69710786D01*
X160366933Y-69744120D01*
X160300266Y-69777453D01*
X160033600Y-69777453D01*
X160700266Y-69477453D02*
X160733600Y-69444120D01*
X160800266Y-69410786D01*
X160966933Y-69410786D01*
X161033600Y-69444120D01*
X161066933Y-69477453D01*
X161100266Y-69544120D01*
X161100266Y-69610786D01*
X161066933Y-69710786D01*
X160666933Y-70110786D01*
X161100266Y-70110786D01*
X161700266Y-69410786D02*
X161566933Y-69410786D01*
X161500266Y-69444120D01*
X161466933Y-69477453D01*
X161400266Y-69577453D01*
X161366933Y-69710786D01*
X161366933Y-69977453D01*
X161400266Y-70044120D01*
X161433600Y-70077453D01*
X161500266Y-70110786D01*
X161633600Y-70110786D01*
X161700266Y-70077453D01*
X161733600Y-70044120D01*
X161766933Y-69977453D01*
X161766933Y-69810786D01*
X161733600Y-69744120D01*
X161700266Y-69710786D01*
X161633600Y-69677453D01*
X161500266Y-69677453D01*
X161433600Y-69710786D01*
X161400266Y-69744120D01*
X161366933Y-69810786D01*
%TO.C,R24*%
X153540040Y-80377466D02*
X153306706Y-80044133D01*
X153140040Y-80377466D02*
X153140040Y-79677466D01*
X153406706Y-79677466D01*
X153473373Y-79710800D01*
X153506706Y-79744133D01*
X153540040Y-79810800D01*
X153540040Y-79910800D01*
X153506706Y-79977466D01*
X153473373Y-80010800D01*
X153406706Y-80044133D01*
X153140040Y-80044133D01*
X153806706Y-79744133D02*
X153840040Y-79710800D01*
X153906706Y-79677466D01*
X154073373Y-79677466D01*
X154140040Y-79710800D01*
X154173373Y-79744133D01*
X154206706Y-79810800D01*
X154206706Y-79877466D01*
X154173373Y-79977466D01*
X153773373Y-80377466D01*
X154206706Y-80377466D01*
X154806706Y-79910800D02*
X154806706Y-80377466D01*
X154640040Y-79644133D02*
X154473373Y-80144133D01*
X154906706Y-80144133D01*
%TO.C,R22*%
X170103380Y-76379506D02*
X169870046Y-76046173D01*
X169703380Y-76379506D02*
X169703380Y-75679506D01*
X169970046Y-75679506D01*
X170036713Y-75712840D01*
X170070046Y-75746173D01*
X170103380Y-75812840D01*
X170103380Y-75912840D01*
X170070046Y-75979506D01*
X170036713Y-76012840D01*
X169970046Y-76046173D01*
X169703380Y-76046173D01*
X170370046Y-75746173D02*
X170403380Y-75712840D01*
X170470046Y-75679506D01*
X170636713Y-75679506D01*
X170703380Y-75712840D01*
X170736713Y-75746173D01*
X170770046Y-75812840D01*
X170770046Y-75879506D01*
X170736713Y-75979506D01*
X170336713Y-76379506D01*
X170770046Y-76379506D01*
X171036713Y-75746173D02*
X171070046Y-75712840D01*
X171136713Y-75679506D01*
X171303380Y-75679506D01*
X171370046Y-75712840D01*
X171403380Y-75746173D01*
X171436713Y-75812840D01*
X171436713Y-75879506D01*
X171403380Y-75979506D01*
X171003380Y-76379506D01*
X171436713Y-76379506D01*
%TO.C,R21*%
X176110066Y-75095520D02*
X175776733Y-75328853D01*
X176110066Y-75495520D02*
X175410066Y-75495520D01*
X175410066Y-75228853D01*
X175443400Y-75162186D01*
X175476733Y-75128853D01*
X175543400Y-75095520D01*
X175643400Y-75095520D01*
X175710066Y-75128853D01*
X175743400Y-75162186D01*
X175776733Y-75228853D01*
X175776733Y-75495520D01*
X175476733Y-74828853D02*
X175443400Y-74795520D01*
X175410066Y-74728853D01*
X175410066Y-74562186D01*
X175443400Y-74495520D01*
X175476733Y-74462186D01*
X175543400Y-74428853D01*
X175610066Y-74428853D01*
X175710066Y-74462186D01*
X176110066Y-74862186D01*
X176110066Y-74428853D01*
X176110066Y-73762186D02*
X176110066Y-74162186D01*
X176110066Y-73962186D02*
X175410066Y-73962186D01*
X175510066Y-74028853D01*
X175576733Y-74095520D01*
X175610066Y-74162186D01*
%TO.C,R20*%
X153890560Y-84258586D02*
X153657226Y-83925253D01*
X153490560Y-84258586D02*
X153490560Y-83558586D01*
X153757226Y-83558586D01*
X153823893Y-83591920D01*
X153857226Y-83625253D01*
X153890560Y-83691920D01*
X153890560Y-83791920D01*
X153857226Y-83858586D01*
X153823893Y-83891920D01*
X153757226Y-83925253D01*
X153490560Y-83925253D01*
X154157226Y-83625253D02*
X154190560Y-83591920D01*
X154257226Y-83558586D01*
X154423893Y-83558586D01*
X154490560Y-83591920D01*
X154523893Y-83625253D01*
X154557226Y-83691920D01*
X154557226Y-83758586D01*
X154523893Y-83858586D01*
X154123893Y-84258586D01*
X154557226Y-84258586D01*
X154990560Y-83558586D02*
X155057226Y-83558586D01*
X155123893Y-83591920D01*
X155157226Y-83625253D01*
X155190560Y-83691920D01*
X155223893Y-83825253D01*
X155223893Y-83991920D01*
X155190560Y-84125253D01*
X155157226Y-84191920D01*
X155123893Y-84225253D01*
X155057226Y-84258586D01*
X154990560Y-84258586D01*
X154923893Y-84225253D01*
X154890560Y-84191920D01*
X154857226Y-84125253D01*
X154823893Y-83991920D01*
X154823893Y-83825253D01*
X154857226Y-83691920D01*
X154890560Y-83625253D01*
X154923893Y-83591920D01*
X154990560Y-83558586D01*
%TO.C,R15*%
X177685280Y-85482866D02*
X177451946Y-85149533D01*
X177285280Y-85482866D02*
X177285280Y-84782866D01*
X177551946Y-84782866D01*
X177618613Y-84816200D01*
X177651946Y-84849533D01*
X177685280Y-84916200D01*
X177685280Y-85016200D01*
X177651946Y-85082866D01*
X177618613Y-85116200D01*
X177551946Y-85149533D01*
X177285280Y-85149533D01*
X178351946Y-85482866D02*
X177951946Y-85482866D01*
X178151946Y-85482866D02*
X178151946Y-84782866D01*
X178085280Y-84882866D01*
X178018613Y-84949533D01*
X177951946Y-84982866D01*
X178985280Y-84782866D02*
X178651946Y-84782866D01*
X178618613Y-85116200D01*
X178651946Y-85082866D01*
X178718613Y-85049533D01*
X178885280Y-85049533D01*
X178951946Y-85082866D01*
X178985280Y-85116200D01*
X179018613Y-85182866D01*
X179018613Y-85349533D01*
X178985280Y-85416200D01*
X178951946Y-85449533D01*
X178885280Y-85482866D01*
X178718613Y-85482866D01*
X178651946Y-85449533D01*
X178618613Y-85416200D01*
%TO.C,R10*%
X135226640Y-85985786D02*
X134993306Y-85652453D01*
X134826640Y-85985786D02*
X134826640Y-85285786D01*
X135093306Y-85285786D01*
X135159973Y-85319120D01*
X135193306Y-85352453D01*
X135226640Y-85419120D01*
X135226640Y-85519120D01*
X135193306Y-85585786D01*
X135159973Y-85619120D01*
X135093306Y-85652453D01*
X134826640Y-85652453D01*
X135893306Y-85985786D02*
X135493306Y-85985786D01*
X135693306Y-85985786D02*
X135693306Y-85285786D01*
X135626640Y-85385786D01*
X135559973Y-85452453D01*
X135493306Y-85485786D01*
X136326640Y-85285786D02*
X136393306Y-85285786D01*
X136459973Y-85319120D01*
X136493306Y-85352453D01*
X136526640Y-85419120D01*
X136559973Y-85552453D01*
X136559973Y-85719120D01*
X136526640Y-85852453D01*
X136493306Y-85919120D01*
X136459973Y-85952453D01*
X136393306Y-85985786D01*
X136326640Y-85985786D01*
X136259973Y-85952453D01*
X136226640Y-85919120D01*
X136193306Y-85852453D01*
X136159973Y-85719120D01*
X136159973Y-85552453D01*
X136193306Y-85419120D01*
X136226640Y-85352453D01*
X136259973Y-85319120D01*
X136326640Y-85285786D01*
%TO.C,R9*%
X159852533Y-85990866D02*
X159619200Y-85657533D01*
X159452533Y-85990866D02*
X159452533Y-85290866D01*
X159719200Y-85290866D01*
X159785866Y-85324200D01*
X159819200Y-85357533D01*
X159852533Y-85424200D01*
X159852533Y-85524200D01*
X159819200Y-85590866D01*
X159785866Y-85624200D01*
X159719200Y-85657533D01*
X159452533Y-85657533D01*
X160185866Y-85990866D02*
X160319200Y-85990866D01*
X160385866Y-85957533D01*
X160419200Y-85924200D01*
X160485866Y-85824200D01*
X160519200Y-85690866D01*
X160519200Y-85424200D01*
X160485866Y-85357533D01*
X160452533Y-85324200D01*
X160385866Y-85290866D01*
X160252533Y-85290866D01*
X160185866Y-85324200D01*
X160152533Y-85357533D01*
X160119200Y-85424200D01*
X160119200Y-85590866D01*
X160152533Y-85657533D01*
X160185866Y-85690866D01*
X160252533Y-85724200D01*
X160385866Y-85724200D01*
X160452533Y-85690866D01*
X160485866Y-85657533D01*
X160519200Y-85590866D01*
%TO.C,R8*%
X150378333Y-85965466D02*
X150145000Y-85632133D01*
X149978333Y-85965466D02*
X149978333Y-85265466D01*
X150245000Y-85265466D01*
X150311666Y-85298800D01*
X150345000Y-85332133D01*
X150378333Y-85398800D01*
X150378333Y-85498800D01*
X150345000Y-85565466D01*
X150311666Y-85598800D01*
X150245000Y-85632133D01*
X149978333Y-85632133D01*
X150778333Y-85565466D02*
X150711666Y-85532133D01*
X150678333Y-85498800D01*
X150645000Y-85432133D01*
X150645000Y-85398800D01*
X150678333Y-85332133D01*
X150711666Y-85298800D01*
X150778333Y-85265466D01*
X150911666Y-85265466D01*
X150978333Y-85298800D01*
X151011666Y-85332133D01*
X151045000Y-85398800D01*
X151045000Y-85432133D01*
X151011666Y-85498800D01*
X150978333Y-85532133D01*
X150911666Y-85565466D01*
X150778333Y-85565466D01*
X150711666Y-85598800D01*
X150678333Y-85632133D01*
X150645000Y-85698800D01*
X150645000Y-85832133D01*
X150678333Y-85898800D01*
X150711666Y-85932133D01*
X150778333Y-85965466D01*
X150911666Y-85965466D01*
X150978333Y-85932133D01*
X151011666Y-85898800D01*
X151045000Y-85832133D01*
X151045000Y-85698800D01*
X151011666Y-85632133D01*
X150978333Y-85598800D01*
X150911666Y-85565466D01*
%TO.C,R7*%
X139202333Y-86092466D02*
X138969000Y-85759133D01*
X138802333Y-86092466D02*
X138802333Y-85392466D01*
X139069000Y-85392466D01*
X139135666Y-85425800D01*
X139169000Y-85459133D01*
X139202333Y-85525800D01*
X139202333Y-85625800D01*
X139169000Y-85692466D01*
X139135666Y-85725800D01*
X139069000Y-85759133D01*
X138802333Y-85759133D01*
X139435666Y-85392466D02*
X139902333Y-85392466D01*
X139602333Y-86092466D01*
%TO.C,R6*%
X114794466Y-85917866D02*
X114461133Y-86151200D01*
X114794466Y-86317866D02*
X114094466Y-86317866D01*
X114094466Y-86051200D01*
X114127800Y-85984533D01*
X114161133Y-85951200D01*
X114227800Y-85917866D01*
X114327800Y-85917866D01*
X114394466Y-85951200D01*
X114427800Y-85984533D01*
X114461133Y-86051200D01*
X114461133Y-86317866D01*
X114094466Y-85317866D02*
X114094466Y-85451200D01*
X114127800Y-85517866D01*
X114161133Y-85551200D01*
X114261133Y-85617866D01*
X114394466Y-85651200D01*
X114661133Y-85651200D01*
X114727800Y-85617866D01*
X114761133Y-85584533D01*
X114794466Y-85517866D01*
X114794466Y-85384533D01*
X114761133Y-85317866D01*
X114727800Y-85284533D01*
X114661133Y-85251200D01*
X114494466Y-85251200D01*
X114427800Y-85284533D01*
X114394466Y-85317866D01*
X114361133Y-85384533D01*
X114361133Y-85517866D01*
X114394466Y-85584533D01*
X114427800Y-85617866D01*
X114494466Y-85651200D01*
%TO.C,R5*%
X162900533Y-86016266D02*
X162667200Y-85682933D01*
X162500533Y-86016266D02*
X162500533Y-85316266D01*
X162767200Y-85316266D01*
X162833866Y-85349600D01*
X162867200Y-85382933D01*
X162900533Y-85449600D01*
X162900533Y-85549600D01*
X162867200Y-85616266D01*
X162833866Y-85649600D01*
X162767200Y-85682933D01*
X162500533Y-85682933D01*
X163533866Y-85316266D02*
X163200533Y-85316266D01*
X163167200Y-85649600D01*
X163200533Y-85616266D01*
X163267200Y-85582933D01*
X163433866Y-85582933D01*
X163500533Y-85616266D01*
X163533866Y-85649600D01*
X163567200Y-85716266D01*
X163567200Y-85882933D01*
X163533866Y-85949600D01*
X163500533Y-85982933D01*
X163433866Y-86016266D01*
X163267200Y-86016266D01*
X163200533Y-85982933D01*
X163167200Y-85949600D01*
%TO.C,R4*%
X152562733Y-86036586D02*
X152329400Y-85703253D01*
X152162733Y-86036586D02*
X152162733Y-85336586D01*
X152429400Y-85336586D01*
X152496066Y-85369920D01*
X152529400Y-85403253D01*
X152562733Y-85469920D01*
X152562733Y-85569920D01*
X152529400Y-85636586D01*
X152496066Y-85669920D01*
X152429400Y-85703253D01*
X152162733Y-85703253D01*
X153162733Y-85569920D02*
X153162733Y-86036586D01*
X152996066Y-85303253D02*
X152829400Y-85803253D01*
X153262733Y-85803253D01*
%TO.C,R3*%
X142224933Y-86097546D02*
X141991600Y-85764213D01*
X141824933Y-86097546D02*
X141824933Y-85397546D01*
X142091600Y-85397546D01*
X142158266Y-85430880D01*
X142191600Y-85464213D01*
X142224933Y-85530880D01*
X142224933Y-85630880D01*
X142191600Y-85697546D01*
X142158266Y-85730880D01*
X142091600Y-85764213D01*
X141824933Y-85764213D01*
X142458266Y-85397546D02*
X142891600Y-85397546D01*
X142658266Y-85664213D01*
X142758266Y-85664213D01*
X142824933Y-85697546D01*
X142858266Y-85730880D01*
X142891600Y-85797546D01*
X142891600Y-85964213D01*
X142858266Y-86030880D01*
X142824933Y-86064213D01*
X142758266Y-86097546D01*
X142558266Y-86097546D01*
X142491600Y-86064213D01*
X142458266Y-86030880D01*
%TO.C,R2*%
X121325813Y-86112786D02*
X121092480Y-85779453D01*
X120925813Y-86112786D02*
X120925813Y-85412786D01*
X121192480Y-85412786D01*
X121259146Y-85446120D01*
X121292480Y-85479453D01*
X121325813Y-85546120D01*
X121325813Y-85646120D01*
X121292480Y-85712786D01*
X121259146Y-85746120D01*
X121192480Y-85779453D01*
X120925813Y-85779453D01*
X121592480Y-85479453D02*
X121625813Y-85446120D01*
X121692480Y-85412786D01*
X121859146Y-85412786D01*
X121925813Y-85446120D01*
X121959146Y-85479453D01*
X121992480Y-85546120D01*
X121992480Y-85612786D01*
X121959146Y-85712786D01*
X121559146Y-86112786D01*
X121992480Y-86112786D01*
%TO.C,U7*%
X146873026Y-75039426D02*
X146873026Y-75606093D01*
X146906360Y-75672760D01*
X146939693Y-75706093D01*
X147006360Y-75739426D01*
X147139693Y-75739426D01*
X147206360Y-75706093D01*
X147239693Y-75672760D01*
X147273026Y-75606093D01*
X147273026Y-75039426D01*
X147539693Y-75039426D02*
X148006360Y-75039426D01*
X147706360Y-75739426D01*
%TO.C,U2*%
X130571446Y-92448313D02*
X131138113Y-92448313D01*
X131204780Y-92414980D01*
X131238113Y-92381646D01*
X131271446Y-92314980D01*
X131271446Y-92181646D01*
X131238113Y-92114980D01*
X131204780Y-92081646D01*
X131138113Y-92048313D01*
X130571446Y-92048313D01*
X130638113Y-91748313D02*
X130604780Y-91714980D01*
X130571446Y-91648313D01*
X130571446Y-91481646D01*
X130604780Y-91414980D01*
X130638113Y-91381646D01*
X130704780Y-91348313D01*
X130771446Y-91348313D01*
X130871446Y-91381646D01*
X131271446Y-91781646D01*
X131271446Y-91348313D01*
%TO.C,U1*%
X124589746Y-92577853D02*
X125156413Y-92577853D01*
X125223080Y-92544520D01*
X125256413Y-92511186D01*
X125289746Y-92444520D01*
X125289746Y-92311186D01*
X125256413Y-92244520D01*
X125223080Y-92211186D01*
X125156413Y-92177853D01*
X124589746Y-92177853D01*
X125289746Y-91477853D02*
X125289746Y-91877853D01*
X125289746Y-91677853D02*
X124589746Y-91677853D01*
X124689746Y-91744520D01*
X124756413Y-91811186D01*
X124789746Y-91877853D01*
%TO.C,PS1*%
X109691000Y-70002266D02*
X109691000Y-69302266D01*
X109957666Y-69302266D01*
X110024333Y-69335600D01*
X110057666Y-69368933D01*
X110091000Y-69435600D01*
X110091000Y-69535600D01*
X110057666Y-69602266D01*
X110024333Y-69635600D01*
X109957666Y-69668933D01*
X109691000Y-69668933D01*
X110357666Y-69968933D02*
X110457666Y-70002266D01*
X110624333Y-70002266D01*
X110691000Y-69968933D01*
X110724333Y-69935600D01*
X110757666Y-69868933D01*
X110757666Y-69802266D01*
X110724333Y-69735600D01*
X110691000Y-69702266D01*
X110624333Y-69668933D01*
X110491000Y-69635600D01*
X110424333Y-69602266D01*
X110391000Y-69568933D01*
X110357666Y-69502266D01*
X110357666Y-69435600D01*
X110391000Y-69368933D01*
X110424333Y-69335600D01*
X110491000Y-69302266D01*
X110657666Y-69302266D01*
X110757666Y-69335600D01*
X111424333Y-70002266D02*
X111024333Y-70002266D01*
X111224333Y-70002266D02*
X111224333Y-69302266D01*
X111157666Y-69402266D01*
X111091000Y-69468933D01*
X111024333Y-69502266D01*
D11*
X115682904Y-75020266D02*
X116159095Y-75020266D01*
X115587666Y-75305980D02*
X115921000Y-74305980D01*
X116254333Y-75305980D01*
X117159095Y-75210742D02*
X117111476Y-75258361D01*
X116968619Y-75305980D01*
X116873380Y-75305980D01*
X116730523Y-75258361D01*
X116635285Y-75163123D01*
X116587666Y-75067885D01*
X116540047Y-74877409D01*
X116540047Y-74734552D01*
X116587666Y-74544076D01*
X116635285Y-74448838D01*
X116730523Y-74353600D01*
X116873380Y-74305980D01*
X116968619Y-74305980D01*
X117111476Y-74353600D01*
X117159095Y-74401219D01*
X110602904Y-75020266D02*
X111079095Y-75020266D01*
X110507666Y-75305980D02*
X110841000Y-74305980D01*
X111174333Y-75305980D01*
X112079095Y-75210742D02*
X112031476Y-75258361D01*
X111888619Y-75305980D01*
X111793380Y-75305980D01*
X111650523Y-75258361D01*
X111555285Y-75163123D01*
X111507666Y-75067885D01*
X111460047Y-74877409D01*
X111460047Y-74734552D01*
X111507666Y-74544076D01*
X111555285Y-74448838D01*
X111650523Y-74353600D01*
X111793380Y-74305980D01*
X111888619Y-74305980D01*
X112031476Y-74353600D01*
X112079095Y-74401219D01*
X132550047Y-75179028D02*
X133311952Y-75179028D01*
X135090047Y-75179028D02*
X135851952Y-75179028D01*
X135471000Y-75559980D02*
X135471000Y-74798076D01*
%TO.C,C4*%
D10*
X159039733Y-108682600D02*
X159006400Y-108715933D01*
X158906400Y-108749266D01*
X158839733Y-108749266D01*
X158739733Y-108715933D01*
X158673066Y-108649266D01*
X158639733Y-108582600D01*
X158606400Y-108449266D01*
X158606400Y-108349266D01*
X158639733Y-108215933D01*
X158673066Y-108149266D01*
X158739733Y-108082600D01*
X158839733Y-108049266D01*
X158906400Y-108049266D01*
X159006400Y-108082600D01*
X159039733Y-108115933D01*
X159639733Y-108282600D02*
X159639733Y-108749266D01*
X159473066Y-108015933D02*
X159306400Y-108515933D01*
X159739733Y-108515933D01*
%TO.C,C3*%
X148828933Y-108708000D02*
X148795600Y-108741333D01*
X148695600Y-108774666D01*
X148628933Y-108774666D01*
X148528933Y-108741333D01*
X148462266Y-108674666D01*
X148428933Y-108608000D01*
X148395600Y-108474666D01*
X148395600Y-108374666D01*
X148428933Y-108241333D01*
X148462266Y-108174666D01*
X148528933Y-108108000D01*
X148628933Y-108074666D01*
X148695600Y-108074666D01*
X148795600Y-108108000D01*
X148828933Y-108141333D01*
X149062266Y-108074666D02*
X149495600Y-108074666D01*
X149262266Y-108341333D01*
X149362266Y-108341333D01*
X149428933Y-108374666D01*
X149462266Y-108408000D01*
X149495600Y-108474666D01*
X149495600Y-108641333D01*
X149462266Y-108708000D01*
X149428933Y-108741333D01*
X149362266Y-108774666D01*
X149162266Y-108774666D01*
X149095600Y-108741333D01*
X149062266Y-108708000D01*
%TO.C,C2*%
X138287933Y-108657200D02*
X138254600Y-108690533D01*
X138154600Y-108723866D01*
X138087933Y-108723866D01*
X137987933Y-108690533D01*
X137921266Y-108623866D01*
X137887933Y-108557200D01*
X137854600Y-108423866D01*
X137854600Y-108323866D01*
X137887933Y-108190533D01*
X137921266Y-108123866D01*
X137987933Y-108057200D01*
X138087933Y-108023866D01*
X138154600Y-108023866D01*
X138254600Y-108057200D01*
X138287933Y-108090533D01*
X138554600Y-108090533D02*
X138587933Y-108057200D01*
X138654600Y-108023866D01*
X138821266Y-108023866D01*
X138887933Y-108057200D01*
X138921266Y-108090533D01*
X138954600Y-108157200D01*
X138954600Y-108223866D01*
X138921266Y-108323866D01*
X138521266Y-108723866D01*
X138954600Y-108723866D01*
%TD*%
M02*
